<svg width="24" height="24" viewBox="-9.5 -6.5 24 24" fill="none" xmlns="http://www.w3.org/2000/svg">
<path fill-rule="evenodd" clip-rule="evenodd" d="M0.169377 9.33543C0.0653664 9.23003 0.00693612 9.08709 0.00693612 8.93804C0.00693611 8.789 0.0653664 8.64606 0.169377 8.54066L3.6608 5.00351L0.169377 1.46637C0.116387 1.41452 0.0741199 1.3525 0.0450428 1.28392C0.0159657 1.21535 0.000660733 1.14159 2.0579e-05 1.06696C-0.000619575 0.992329 0.0134182 0.918315 0.0413146 0.849237C0.069211 0.78016 0.110408 0.717403 0.1625 0.664629C0.214593 0.611855 0.276539 0.570118 0.344723 0.541856C0.412907 0.513594 0.485964 0.499372 0.559632 0.500021C0.633299 0.500669 0.706102 0.516176 0.773791 0.545634C0.84148 0.575092 0.9027 0.617911 0.95388 0.671596L4.83756 4.60613C4.94157 4.71153 5 4.85447 5 5.00351C5 5.15256 4.94157 5.2955 4.83756 5.4009L0.95388 9.33543C0.849838 9.4408 0.708745 9.5 0.561629 9.5C0.414513 9.5 0.27342 9.4408 0.169377 9.33543Z" fill="#E21D1D"/>
</svg>
