<svg width="24" height="24" viewBox="-9 -7.5 24 24" fill="none" xmlns="http://www.w3.org/2000/svg">
<path fill-rule="evenodd" clip-rule="evenodd" d="M5.6405 3.88264L2.2025 1.01764C2.0565 0.896027 1.87887 0.818532 1.69042 0.794226C1.50196 0.76992 1.31049 0.799809 1.13841 0.880393C0.966325 0.960977 0.820766 1.08892 0.718772 1.24924C0.616778 1.40956 0.562571 1.59562 0.5625 1.78564L0.5625 7.51564C0.562571 7.70565 0.616778 7.89171 0.718772 8.05203C0.820766 8.21235 0.966326 8.3403 1.13841 8.42088C1.31049 8.50146 1.50196 8.53135 1.69042 8.50705C1.87887 8.48274 2.0565 8.40525 2.2025 8.28364L5.6405 5.41864C5.75304 5.32479 5.84358 5.20735 5.90571 5.07464C5.96784 4.94192 6.00005 4.79717 6.00005 4.65064C6.00005 4.5041 5.96784 4.35935 5.90571 4.22664C5.84358 4.09392 5.75304 3.97649 5.6405 3.88264Z" fill="black"/>
</svg>
