<svg width="24" height="24" viewBox="-7 -9.5 24 24" fill="none" xmlns="http://www.w3.org/2000/svg">
<path fill-rule="evenodd" clip-rule="evenodd" d="M0.664568 0.169377C0.769973 0.0653664 0.912913 0.00693614 1.06196 0.00693614C1.211 0.00693614 1.35394 0.0653664 1.45934 0.169377L4.99649 3.6608L8.53363 0.169377C8.58548 0.116387 8.6475 0.0741202 8.71608 0.0450431C8.78465 0.015966 8.85841 0.000661098 8.93304 2.09477e-05C9.00767 -0.000619203 9.08169 0.0134186 9.15076 0.041315C9.21984 0.0692114 9.2826 0.110408 9.33537 0.162501C9.38815 0.214593 9.42988 0.276539 9.45814 0.344723C9.48641 0.412907 9.50063 0.485965 9.49998 0.559632C9.49933 0.6333 9.48382 0.706102 9.45437 0.773791C9.42491 0.84148 9.38209 0.902701 9.3284 0.95388L5.39387 4.83756C5.28847 4.94157 5.14553 5 4.99649 5C4.84744 5 4.7045 4.94157 4.5991 4.83756L0.664568 0.95388C0.559195 0.849838 0.5 0.708745 0.5 0.561629C0.5 0.414513 0.559195 0.27342 0.664568 0.169377Z" fill="#000"/>
</svg>
