<svg width="24" height="24" viewBox="-7.5 -9.5 24 24" fill="none" xmlns="http://www.w3.org/2000/svg">
<path fill-rule="evenodd" clip-rule="evenodd" d="M0.164568 0.169377C0.269973 0.0653664 0.412913 0.00693614 0.561956 0.00693614C0.710998 0.00693614 0.853938 0.0653664 0.959343 0.169377L4.49649 3.6608L8.03363 0.169377C8.08548 0.116387 8.1475 0.0741202 8.21608 0.0450431C8.28465 0.015966 8.35841 0.000661098 8.43304 2.09477e-05C8.50767 -0.000619203 8.58169 0.0134186 8.65076 0.041315C8.71984 0.0692114 8.7826 0.110408 8.83537 0.162501C8.88815 0.214593 8.92988 0.276539 8.95814 0.344723C8.98641 0.412907 9.00063 0.485965 8.99998 0.559632C8.99933 0.6333 8.98382 0.706102 8.95437 0.773791C8.92491 0.84148 8.88209 0.902701 8.8284 0.95388L4.89387 4.83756C4.78847 4.94157 4.64553 5 4.49649 5C4.34744 5 4.2045 4.94157 4.0991 4.83756L0.164568 0.95388C0.0591953 0.849838 0 0.708745 0 0.561629C0 0.414513 0.0591953 0.27342 0.164568 0.169377Z" fill="#000"/>
</svg>
