<svg width="24" height="24" viewBox="-5 -5 24 24" fill="none" xmlns="http://www.w3.org/2000/svg">
<path fill-rule="evenodd" clip-rule="evenodd" d="M0.777778 0C0.984057 0 1.18189 0.0819442 1.32775 0.227806C1.47361 0.373667 1.55556 0.571498 1.55556 0.777778V1.55556H3.11111V0.777778C3.11111 0.571498 3.19306 0.373667 3.33892 0.227806C3.48478 0.0819442 3.68261 0 3.88889 0C4.09517 0 4.293 0.0819442 4.43886 0.227806C4.58472 0.373667 4.66667 0.571498 4.66667 0.777778V1.55556H6.22222V0.777778C6.22222 0.571498 6.30417 0.373667 6.45003 0.227806C6.59589 0.0819442 6.79372 0 7 0C7.20628 0 7.40411 0.0819442 7.54997 0.227806C7.69583 0.373667 7.77778 0.571498 7.77778 0.777778V1.55556H9.33333V0.777778C9.33333 0.571498 9.41528 0.373667 9.56114 0.227806C9.707 0.0819442 9.90483 0 10.1111 0C10.3174 0 10.5152 0.0819442 10.6611 0.227806C10.8069 0.373667 10.8889 0.571498 10.8889 0.777778V1.55556H12.4444V0.777778C12.4444 0.571498 12.5264 0.373667 12.6722 0.227806C12.8181 0.0819442 13.0159 0 13.2222 0C13.4285 0 13.6263 0.0819442 13.7722 0.227806C13.9181 0.373667 14 0.571498 14 0.777778V11.6667C14 12.2855 13.7542 12.879 13.3166 13.3166C12.879 13.7542 12.2855 14 11.6667 14H2.33333C1.71449 14 1.121 13.7542 0.683418 13.3166C0.245833 12.879 0 12.2855 0 11.6667V0.777778C0 0.571498 0.0819442 0.373667 0.227806 0.227806C0.373667 0.0819442 0.571498 0 0.777778 0ZM12.4444 3.11111H1.55556V11.6667C1.55556 11.8729 1.6375 12.0708 1.78336 12.2166C1.92922 12.3625 2.12705 12.4444 2.33333 12.4444H11.6667C11.8729 12.4444 12.0708 12.3625 12.2166 12.2166C12.3625 12.0708 12.4444 11.8729 12.4444 11.6667V3.11111ZM7.77778 5.44444C7.77778 5.65072 7.69583 5.84855 7.54997 5.99442C7.40411 6.14028 7.20628 6.22222 7 6.22222C6.79372 6.22222 6.59589 6.14028 6.45003 5.99442C6.30417 5.84855 6.22222 5.65072 6.22222 5.44444C6.22222 5.23816 6.30417 5.04033 6.45003 4.89447C6.59589 4.74861 6.79372 4.66667 7 4.66667C7.20628 4.66667 7.40411 4.74861 7.54997 4.89447C7.69583 5.04033 7.77778 5.23816 7.77778 5.44444ZM10.1111 6.22222C10.3174 6.22222 10.5152 6.14028 10.6611 5.99442C10.8069 5.84855 10.8889 5.65072 10.8889 5.44444C10.8889 5.23816 10.8069 5.04033 10.6611 4.89447C10.5152 4.74861 10.3174 4.66667 10.1111 4.66667C9.90483 4.66667 9.707 4.74861 9.56114 4.89447C9.41528 5.04033 9.33333 5.23816 9.33333 5.44444C9.33333 5.65072 9.41528 5.84855 9.56114 5.99442C9.707 6.14028 9.90483 6.22222 10.1111 6.22222ZM4.66667 7.77778C4.66667 7.98406 4.58472 8.18189 4.43886 8.32775C4.293 8.47361 4.09517 8.55556 3.88889 8.55556C3.68261 8.55556 3.48478 8.47361 3.33892 8.32775C3.19306 8.18189 3.11111 7.98406 3.11111 7.77778C3.11111 7.5715 3.19306 7.37367 3.33892 7.22781C3.48478 7.08194 3.68261 7 3.88889 7C4.09517 7 4.293 7.08194 4.43886 7.22781C4.58472 7.37367 4.66667 7.5715 4.66667 7.77778ZM7 8.55556C7.20628 8.55556 7.40411 8.47361 7.54997 8.32775C7.69583 8.18189 7.77778 7.98406 7.77778 7.77778C7.77778 7.5715 7.69583 7.37367 7.54997 7.22781C7.40411 7.08194 7.20628 7 7 7C6.79372 7 6.59589 7.08194 6.45003 7.22781C6.30417 7.37367 6.22222 7.5715 6.22222 7.77778C6.22222 7.98406 6.30417 8.18189 6.45003 8.32775C6.59589 8.47361 6.79372 8.55556 7 8.55556ZM10.8889 7.77778C10.8889 7.98406 10.8069 8.18189 10.6611 8.32775C10.5152 8.47361 10.3174 8.55556 10.1111 8.55556C9.90483 8.55556 9.707 8.47361 9.56114 8.32775C9.41528 8.18189 9.33333 7.98406 9.33333 7.77778C9.33333 7.5715 9.41528 7.37367 9.56114 7.22781C9.707 7.08194 9.90483 7 10.1111 7C10.3174 7 10.5152 7.08194 10.6611 7.22781C10.8069 7.37367 10.8889 7.5715 10.8889 7.77778ZM3.88889 10.8889C4.09517 10.8889 4.293 10.8069 4.43886 10.6611C4.58472 10.5152 4.66667 10.3174 4.66667 10.1111C4.66667 9.90483 4.58472 9.707 4.43886 9.56114C4.293 9.41528 4.09517 9.33333 3.88889 9.33333C3.68261 9.33333 3.48478 9.41528 3.33892 9.56114C3.19306 9.707 3.11111 9.90483 3.11111 10.1111C3.11111 10.3174 3.19306 10.5152 3.33892 10.6611C3.48478 10.8069 3.68261 10.8889 3.88889 10.8889ZM7.77778 10.1111C7.77778 10.3174 7.69583 10.5152 7.54997 10.6611C7.40411 10.8069 7.20628 10.8889 7 10.8889C6.79372 10.8889 6.59589 10.8069 6.45003 10.6611C6.30417 10.5152 6.22222 10.3174 6.22222 10.1111C6.22222 9.90483 6.30417 9.707 6.45003 9.56114C6.59589 9.41528 6.79372 9.33333 7 9.33333C7.20628 9.33333 7.40411 9.41528 7.54997 9.56114C7.69583 9.707 7.77778 9.90483 7.77778 10.1111ZM10.1111 10.8889C10.3174 10.8889 10.5152 10.8069 10.6611 10.6611C10.8069 10.5152 10.8889 10.3174 10.8889 10.1111C10.8889 9.90483 10.8069 9.707 10.6611 9.56114C10.5152 9.41528 10.3174 9.33333 10.1111 9.33333C9.90483 9.33333 9.707 9.41528 9.56114 9.56114C9.41528 9.707 9.33333 9.90483 9.33333 10.1111C9.33333 10.3174 9.41528 10.5152 9.56114 10.6611C9.707 10.8069 9.90483 10.8889 10.1111 10.8889Z" fill="#000000"/>
</svg>
