<svg width="24" height="24" viewBox="-1.5 -2 24 24" fill="none" xmlns="http://www.w3.org/2000/svg">
<path d="M15.4921 17.9425C15.4921 19.079 14.6367 20 13.5898 20C12.539 20 11.6836 19.0748 11.6836 17.9425C11.6836 16.806 12.539 15.8808 13.5898 15.8808C14.6366 15.8808 15.4921 16.806 15.4921 17.9425ZM4.46087 13.3672C4.46087 13.7897 4.83197 14.2121 5.66006 14.2121H17.2067C17.5504 14.2121 17.8317 14.5163 17.8317 14.8881C17.8317 15.2599 17.5504 15.5641 17.2067 15.5641H5.66006C4.05073 15.5641 3.21089 14.4572 3.21089 13.3672C3.21089 12.3743 3.9062 11.3688 5.24211 11.1956L2.81636 1.35194H1.12499C0.781246 1.35194 0.5 1.04775 0.5 0.675969C0.5 0.304186 0.781246 0 1.12499 0H3.29292C3.57417 0 3.82416 0.207017 3.89838 0.502767L4.37101 2.42928C9.53879 2.42928 14.7069 2.44195 19.8747 2.4504C20.0739 2.4504 20.2653 2.55602 20.3825 2.73346C20.4997 2.9109 20.531 3.13484 20.4685 3.34184L17.7654 12.0618C17.6794 12.3365 17.4411 12.5224 17.1716 12.5224H5.66C4.83187 12.5224 4.4608 12.9449 4.4608 13.3673L4.46087 13.3672ZM10.1365 17.9425C10.1365 19.079 9.28105 20 8.23028 20C7.17951 20 6.32795 19.0748 6.32795 17.9425C6.32795 16.806 7.1834 15.8808 8.23028 15.8808C9.28105 15.8808 10.1365 16.806 10.1365 17.9425Z" fill="#D11F1F"/>
</svg>
