<svg width="24" height="24" viewBox="-7 -7 24 24" fill="none" xmlns="http://www.w3.org/2000/svg">
<path d="M0.997868 1.24237C1.44507 0.795315 2.17014 0.795315 2.61735 1.24237L5.24225 3.86636L7.86514 1.24439C8.31235 0.797335 9.03741 0.797335 9.48462 1.24439C9.93183 1.69144 9.93183 2.41625 9.48462 2.8633L6.86173 5.48528L9.48462 8.10726C9.93183 8.55431 9.93183 9.27912 9.48462 9.72618C9.03741 10.1732 8.31235 10.1732 7.86514 9.72618L5.24226 7.1042L2.61735 9.7282C2.17014 10.1752 1.44507 10.1752 0.997867 9.7282C0.55066 9.28115 0.550661 8.55633 0.997868 8.10928L3.62278 5.48528L0.997868 2.86128C0.550661 2.41423 0.550661 1.68942 0.997868 1.24237Z" fill="#D11F1F"/>
</svg>
