<svg width="24" height="24" viewBox="-2.5 -2 24 24" fill="none" xmlns="http://www.w3.org/2000/svg">
<path d="M15.4691 1.39024H14.7977V0.710869C14.7977 0.322706 14.4831 0.00805664 14.0949 0.00805664C13.7067 0.00805664 13.3921 0.322706 13.3921 0.710869V1.39024H6.49655V0.710869C6.49655 0.322706 6.1819 0.00805664 5.79374 0.00805664C5.40558 0.00805664 5.09093 0.322706 5.09093 0.710869V1.39024H4.41957C2.50331 1.39024 0.944336 2.94922 0.944336 4.86544V14.5248C0.944336 16.4411 2.50331 18 4.41957 18H15.4691C17.3854 18 18.9443 16.4411 18.9443 14.5248V4.86544C18.9443 2.94922 17.3854 1.39024 15.4691 1.39024ZM4.41957 2.79587H5.09093V4.16635C5.09093 4.55451 5.40558 4.86916 5.79374 4.86916C6.1819 4.86916 6.49655 4.55451 6.49655 4.16635V2.79587H13.3921V4.16635C13.3921 4.55451 13.7068 4.86916 14.0949 4.86916C14.4831 4.86916 14.7977 4.55451 14.7977 4.16635V2.79587H15.4691C16.6103 2.79587 17.5387 3.72428 17.5387 4.86544V5.53683H2.34996V4.86544C2.34996 3.72428 3.27837 2.79587 4.41957 2.79587ZM15.4691 16.5944H4.41957C3.27837 16.5944 2.34996 15.666 2.34996 14.5248V6.94246H17.5387V14.5248C17.5387 15.666 16.6103 16.5944 15.4691 16.5944ZM7.18766 9.70686C7.18766 10.095 6.87301 10.4097 6.48485 10.4097H5.10266C4.7145 10.4097 4.39985 10.095 4.39985 9.70686C4.39985 9.3187 4.7145 9.00405 5.10266 9.00405H6.48485C6.87298 9.00405 7.18766 9.3187 7.18766 9.70686ZM15.4889 9.70686C15.4889 10.095 15.1742 10.4097 14.786 10.4097H13.4039C13.0157 10.4097 12.701 10.095 12.701 9.70686C12.701 9.3187 13.0157 9.00405 13.4039 9.00405H14.786C15.1742 9.00405 15.4889 9.3187 15.4889 9.70686ZM11.3343 9.70686C11.3343 10.095 11.0196 10.4097 10.6314 10.4097H9.24925C8.86109 10.4097 8.54644 10.095 8.54644 9.70686C8.54644 9.3187 8.86109 9.00405 9.24925 9.00405H10.6314C11.0196 9.00405 11.3343 9.3187 11.3343 9.70686ZM7.18766 13.8535C7.18766 14.2416 6.87301 14.5563 6.48485 14.5563H5.10266C4.7145 14.5563 4.39985 14.2416 4.39985 13.8535C4.39985 13.4653 4.7145 13.1506 5.10266 13.1506H6.48485C6.87298 13.1506 7.18766 13.4653 7.18766 13.8535ZM15.4889 13.8535C15.4889 14.2416 15.1742 14.5563 14.786 14.5563H13.4039C13.0157 14.5563 12.701 14.2416 12.701 13.8535C12.701 13.4653 13.0157 13.1506 13.4039 13.1506H14.786C15.1742 13.1506 15.4889 13.4653 15.4889 13.8535ZM11.3343 13.8535C11.3343 14.2416 11.0196 14.5563 10.6314 14.5563H9.24925C8.86109 14.5563 8.54644 14.2416 8.54644 13.8535C8.54644 13.4653 8.86109 13.1506 9.24925 13.1506H10.6314C11.0196 13.1506 11.3343 13.4653 11.3343 13.8535Z" fill="#272E33"/>
</svg>
