<svg width="24" height="24" viewBox="-3 -2.5 24 24" fill="none" xmlns="http://www.w3.org/2000/svg">
<path d="M10.6878 2.75H2.06256C0.922529 2.75 0 3.6725 0 4.8125V14.1875C0 15.3275 0.922529 16.25 2.06256 16.25H7.59774L7.76274 15.3275C7.8385 14.9075 8.03275 14.5325 8.33351 14.225L9.30854 13.25H2.81259C2.50508 13.25 2.25007 12.995 2.25007 12.6875C2.25007 12.38 2.50508 12.125 2.81259 12.125H9.93781C10.0728 12.125 10.2003 12.1775 10.2978 12.26L12.7504 9.815V4.8125C12.7504 3.6725 11.8279 2.75 10.6878 2.75ZM9.93781 10.8125H2.81259C2.50508 10.8125 2.25007 10.5575 2.25007 10.25C2.25007 9.9425 2.50508 9.6875 2.81259 9.6875H9.93781C10.2453 9.6875 10.5003 9.9425 10.5003 10.25C10.5003 10.5575 10.2453 10.8125 9.93781 10.8125ZM9.93781 8.375H2.81259C2.50508 8.375 2.25007 8.12 2.25007 7.8125C2.25007 7.505 2.50508 7.25 2.81259 7.25H9.93781C10.2453 7.25 10.5003 7.505 10.5003 7.8125C10.5003 8.12 10.2453 8.375 9.93781 8.375Z" fill="#EFEFEF"/>
<path d="M9.18779 2H8.36276C8.11525 1.1375 7.32023 0.5 6.3752 0.5C5.43017 0.5 4.63515 1.1375 4.38764 2H3.56261C3.2551 2 3.00009 2.255 3.00009 2.5625V4.0625C3.00009 4.7825 3.59261 5.375 4.31263 5.375H8.43776C9.15779 5.375 9.7503 4.7825 9.7503 4.0625V2.5625C9.7503 2.255 9.4953 2 9.18779 2Z" fill="#F54545"/>
<path d="M10.5003 7.8125C10.5003 8.12 10.2453 8.375 9.93781 8.375H2.81259C2.50508 8.375 2.25007 8.12 2.25007 7.8125C2.25007 7.505 2.50508 7.25 2.81259 7.25H9.93781C10.2453 7.25 10.5003 7.505 10.5003 7.8125Z" fill="white"/>
<path d="M10.5003 10.25C10.5003 10.5575 10.2453 10.8125 9.93781 10.8125H2.81259C2.50508 10.8125 2.25007 10.5575 2.25007 10.25C2.25007 9.9425 2.50508 9.6875 2.81259 9.6875H9.93781C10.2453 9.6875 10.5003 9.9425 10.5003 10.25Z" fill="white"/>
<path d="M10.2978 12.26L9.30779 13.25L2.81259 13.25C2.50508 13.25 2.25007 12.995 2.25007 12.6875C2.25007 12.38 2.50508 12.125 2.81259 12.125H9.93781C10.0728 12.125 10.2003 12.1775 10.2978 12.26Z" fill="white"/>
<path d="M3.00009 2.75H2.06256C0.922529 2.75 0 3.6725 0 4.8125V14.1875C0 15.3275 0.922529 16.25 2.06256 16.25H6.3752V13.25H2.81259C2.50508 13.25 2.25007 12.995 2.25007 12.6875C2.25007 12.38 2.50508 12.125 2.81259 12.125H6.3752V10.8125H2.81259C2.50508 10.8125 2.25007 10.5575 2.25007 10.25C2.25007 9.9425 2.50508 9.6875 2.81259 9.6875H6.3752V8.375H2.81259C2.50508 8.375 2.25007 8.12 2.25007 7.8125C2.25007 7.505 2.50508 7.25 2.81259 7.25H6.3752V5.375L4.31263 5.375C3.59261 5.375 3.00009 4.7825 3.00009 4.0625V2.75Z" fill="#F4F4F4"/>
<path d="M6.3752 0.5C5.43017 0.5 4.63515 1.1375 4.38764 2H3.56261C3.2551 2 3.00009 2.255 3.00009 2.5625V2.75V4.0625C3.00009 4.7825 3.59261 5.375 4.31263 5.375L6.3752 5.375V0.5Z" fill="#F96166"/>
<path d="M6.3752 7.25H2.81259C2.50508 7.25 2.25007 7.505 2.25007 7.8125C2.25007 8.12 2.50508 8.375 2.81259 8.375H6.3752V7.25Z" fill="#DEDEDE"/>
<path d="M6.3752 9.6875H2.81259C2.50508 9.6875 2.25007 9.9425 2.25007 10.25C2.25007 10.5575 2.50508 10.8125 2.81259 10.8125H6.3752V9.6875Z" fill="#DEDEDE"/>
<path d="M6.3752 12.125H2.81259C2.50508 12.125 2.25007 12.38 2.25007 12.6875C2.25007 12.995 2.50508 13.25 2.81259 13.25H6.3752V12.125Z" fill="#DEDEDE"/>
<path d="M9.39554 18.5C9.24779 18.5 9.10378 18.4415 8.99803 18.335C8.86828 18.2053 8.80978 18.0208 8.84203 17.8393L9.23954 15.5855C9.25904 15.4723 9.31454 15.3673 9.39554 15.2863L14.9645 9.7175C15.6485 9.03275 16.3205 9.21725 16.688 9.58475L17.6158 10.5125C18.1281 11.0248 18.1281 11.8565 17.6158 12.3688L12.0469 17.9375C11.9659 18.0193 11.8609 18.074 11.7469 18.0942L9.49305 18.491L9.39554 18.5Z" fill="#E6D7AC"/>
<path d="M15.923 9.25625C15.629 9.25625 15.2982 9.38375 14.9645 9.7175L9.39554 15.2863C9.31454 15.3673 9.25904 15.4723 9.23954 15.5855L8.84203 17.8393C8.80978 18.0208 8.86828 18.2053 8.99803 18.335C9.00403 18.341 9.00928 18.3463 9.01528 18.3515L17.2348 10.1315L16.6873 9.584C16.4998 9.3965 16.2313 9.25625 15.923 9.25625Z" fill="#FFFCF4"/>
</svg>
