<svg width="24" height="24" viewBox="-4.5 -4.5 24 24" fill="none" xmlns="http://www.w3.org/2000/svg">
<path d="M7.48049 2.53928L7.87393 3.04097L8.26737 2.53928C8.91991 1.70721 9.89314 1.21826 10.9241 1.21826C12.8042 1.21826 14.3739 2.82848 14.3739 4.85622C14.3739 6.46132 13.4527 8.41223 11.4753 10.6691L11.8513 10.9986L11.4752 10.6691C9.99407 12.3596 8.38104 13.6808 7.87384 14.0819C7.36673 13.6808 5.75374 12.3597 4.27247 10.669C2.29514 8.41218 1.37393 6.46129 1.37393 4.85622C1.37393 2.82848 2.94362 1.21826 4.82371 1.21826C5.85472 1.21826 6.82795 1.70721 7.48049 2.53928Z" fill="" stroke="#000"/>
</svg>
