<svg width="24" height="24" viewBox="-5 -7 24 24" fill="none" xmlns="http://www.w3.org/2000/svg">
<path d="M14 9.44833C13.9988 9.59423 13.932 9.73388 13.8139 9.8371C13.6957 9.94032 13.5358 9.99884 13.3687 10H1.904C1.73652 9.99985 1.57595 9.94167 1.45758 9.83822C1.33922 9.73478 1.27273 9.59455 1.27273 9.44833V8.88889H12.7273V2.38889L7.63636 6.38889L1.27273 1.38889V0.555556C1.27273 0.408213 1.33977 0.266905 1.45911 0.162718C1.57846 0.0585316 1.74032 0 1.90909 0H13.3636C13.5324 0 13.6943 0.0585316 13.8136 0.162718C13.933 0.266905 14 0.408213 14 0.555556V9.44833ZM2.82164 1.11111L7.63636 4.89444L12.4511 1.11111H2.82164ZM0 6.66667H5.09091V7.77778H0V6.66667ZM0 3.88889H3.18182V5H0V3.88889Z" fill="#272E33"/>
</svg>
