<svg width="24" height="24" viewBox="-4 -7 24 24" fill="none" xmlns="http://www.w3.org/2000/svg">
<path d="M1.35677 6.21467C1.31076 6.07639 1.31076 5.92694 1.35677 5.78867C2.28144 3.00667 4.90611 1 7.99944 1C11.0914 1 13.7148 3.00467 14.6414 5.78533C14.6881 5.92333 14.6881 6.07267 14.6414 6.21133C13.7174 8.99333 11.0928 11 7.99944 11C4.90744 11 2.28344 8.99533 1.35677 6.21467Z" stroke="#272E33" stroke-width="1.5" stroke-linecap="round" stroke-linejoin="round"/>
<path d="M9.99944 6C9.99944 6.53043 9.78872 7.03914 9.41365 7.41421C9.03858 7.78929 8.52987 8 7.99944 8C7.469 8 6.9603 7.78929 6.58522 7.41421C6.21015 7.03914 5.99944 6.53043 5.99944 6C5.99944 5.46957 6.21015 4.96086 6.58522 4.58579C6.9603 4.21071 7.469 4 7.99944 4C8.52987 4 9.03858 4.21071 9.41365 4.58579C9.78872 4.96086 9.99944 5.46957 9.99944 6Z" stroke="#272E33" stroke-width="1.5" stroke-linecap="round" stroke-linejoin="round"/>
</svg>
