<svg width="24" height="24" viewBox="-7 -5.5 24 24" fill="none" xmlns="http://www.w3.org/2000/svg">
<path fill-rule="evenodd" clip-rule="evenodd" d="M4.99989 13C2.23851 13 0 11.5031 0 9.65653C0 7.81003 2.23851 6.3133 4.99989 6.3133C7.76149 6.3133 10 7.80998 10 9.65653C10 11.503 7.76149 13 4.99989 13ZM4.99989 5.87217V5.87208C4.28277 5.87029 3.59572 5.55951 3.08961 5.00806C2.5835 4.45671 2.29991 3.70973 2.30104 2.93144C2.30217 2.15315 2.588 1.4072 3.09568 0.857444C3.60337 0.30778 4.29137 -0.000648754 5.00849 1.02461e-06C5.72561 0.000659082 6.4132 0.310331 6.92008 0.860837C7.42697 1.41144 7.7116 2.15787 7.7116 2.93623C7.71073 3.71575 7.42455 4.46309 6.916 5.0136C6.40746 5.5642 5.71823 5.87301 4.99991 5.87208L4.99989 5.87217Z" fill="#272E33"/>
</svg>
