<svg width="24" height="24" viewBox="-4.5 -4.5 24 24" fill="none" xmlns="http://www.w3.org/2000/svg">
<path d="M10.2042 0.090332C7.62795 0.090332 5.54498 2.1733 5.54498 4.7496C5.54498 5.29774 5.65459 5.84589 5.81903 6.39404L0.0634766 12.1496V14.8904H2.80422V13.2459H4.44868V11.6015H6.09312L8.55977 9.1348C9.05312 9.29924 9.60127 9.40886 10.2042 9.40886C12.7805 9.40886 14.8635 7.32589 14.8635 4.74963C14.8635 2.17333 12.7805 0.090332 10.2042 0.090332ZM11.5746 5.02368C10.6427 5.02368 9.93015 4.3111 9.93015 3.37921C9.93015 2.44736 10.6427 1.73478 11.5746 1.73478C12.5065 1.73478 13.2191 2.44736 13.2191 3.37921C13.2191 4.3111 12.5065 5.02368 11.5746 5.02368Z" fill="#A11D21"/>
</svg>
