<svg width="24" height="24" viewBox="-4.5 -4 24 24" fill="none" xmlns="http://www.w3.org/2000/svg">
<path d="M14.0211 13.6956H13.695V13.3695C13.695 12.945 13.4217 12.5863 13.0429 12.4513V7.76606C13.4218 7.63106 13.695 7.27238 13.695 6.84782V6.52171H14.0211C14.2011 6.52171 14.3472 6.37562 14.3472 6.19562V5.21735H14.6733C14.8181 5.21735 14.9459 5.1215 14.9863 4.98259C15.0268 4.84368 14.9707 4.69432 14.8487 4.61606L7.67479 0.0508771C7.56782 -0.016959 7.43156 -0.016959 7.32459 0.0508771L0.150678 4.61606C0.0280593 4.69432 -0.0273651 4.84303 0.0130797 4.98259C0.0535247 5.12215 0.18134 5.21735 0.326124 5.21735H0.652188V6.19562C0.652188 6.37562 0.798285 6.52171 0.978285 6.52171H1.30438V6.84782C1.30438 7.27238 1.57765 7.63106 1.95654 7.76606V12.4513C1.57762 12.5863 1.30438 12.945 1.30438 13.3695V13.6956H0.978285C0.438926 13.6956 2.61111e-05 14.1345 2.61111e-05 14.6739V15.3261C2.61111e-05 15.5061 0.146123 15.6521 0.326124 15.6521H14.6739C14.8539 15.6521 15 15.5061 15 15.3261V14.6739C14.9994 14.1345 14.5604 13.6956 14.0211 13.6956ZM5.36221 3.31568L7.31871 2.01131C7.42827 1.93827 7.57112 1.93827 7.68068 2.01131L9.63718 3.31568C9.75653 3.39524 9.81 3.54394 9.76827 3.68153C9.72656 3.81912 9.59938 3.91303 9.45588 3.91303H5.54285C5.39938 3.91303 5.27221 3.81912 5.23044 3.68153C5.18871 3.54391 5.24285 3.39521 5.36221 3.31568ZM6.52109 12.4513C6.14218 12.5863 5.86894 12.945 5.86894 13.3695V13.6956H4.56459V13.3695C4.56459 12.945 4.29132 12.5863 3.91241 12.4513V7.76606C4.29135 7.63106 4.56459 7.27238 4.56459 6.84782V6.52171H5.86894V6.84782C5.86894 7.27238 6.14221 7.63106 6.52109 7.76606V12.4513ZM11.0863 12.4513C10.7074 12.5863 10.4341 12.945 10.4341 13.3695V13.6956H9.12979V13.3695C9.12979 12.945 8.85653 12.5863 8.47765 12.4513V7.76606C8.85656 7.63106 9.12979 7.27238 9.12979 6.84782V6.52171H10.4341V6.84782C10.4341 7.27238 10.7074 7.63106 11.0863 7.76606V12.4513Z" fill="#A11D21"/>
</svg>
