<svg width="24" height="24" viewBox="-4.5 -5 24 24" fill="none" xmlns="http://www.w3.org/2000/svg">
<path d="M2.3462 9.71013C2.3462 9.60704 2.43023 9.52346 2.53389 9.52346H4.03546C4.13912 9.52346 4.22316 9.60704 4.22316 9.71013V13.0701C4.22316 13.1732 4.13912 13.2568 4.03546 13.2568H2.53389C2.43023 13.2568 2.3462 13.1732 2.3462 13.0701V9.71013Z" fill="#A11D21"/>
<path d="M5.39725 4.11013C5.39725 4.00704 5.48129 3.92346 5.58495 3.92346H7.08651C7.19018 3.92346 7.27421 4.00704 7.27421 4.11013V13.0701C7.27421 13.1732 7.19018 13.2568 7.08651 13.2568H5.58495C5.48129 13.2568 5.39725 13.1732 5.39725 13.0701V4.11013Z" fill="#A11D21"/>
<path d="M8.91555 6.91013C8.91555 6.80704 8.99958 6.72346 9.10324 6.72346H10.6048C10.7085 6.72346 10.7925 6.80704 10.7925 6.91013V13.0701C10.7925 13.1732 10.7085 13.2568 10.6048 13.2568H9.10324C8.99958 13.2568 8.91555 13.1732 8.91555 13.0701V6.91013Z" fill="#A11D21"/>
<path d="M12.3794 8.58667C12.3794 8.48357 12.4635 8.4 12.5671 8.4H14.0687C14.1724 8.4 14.2564 8.48357 14.2564 8.58667V13.0667H12.5671C12.4635 13.0667 12.3794 12.9831 12.3794 12.88V8.58667Z" fill="#A11D21"/>
<path d="M0 13.2533C0 13.1502 0.0840343 13.0667 0.187696 13.0667H14.2564C14.7984 13.0667 14.9535 13.5423 14.9979 13.8145C15.0145 13.9163 14.9316 14 14.828 14H0V13.2533Z" fill="#A11D21"/>
<path d="M0 0.186666C0 0.0835733 0.0840343 0 0.187696 0H0.750783C0.854445 0 0.938479 0.0835735 0.938479 0.186667V13.8133C0.938479 13.9164 0.854445 14 0.750783 14H0V0.186666Z" fill="#A11D21"/>
</svg>
