<svg width="24" height="24" viewBox="-4.5 -4.5 24 24" fill="none" xmlns="http://www.w3.org/2000/svg">
<path d="M14.7031 7.84214L12.779 6.66456C12.7009 6.61676 12.6112 6.59147 12.5197 6.59147H8.6048V5.91085H12.2843C12.5582 5.91085 12.781 5.688 12.781 5.41411V3.05894C12.781 2.78505 12.5582 2.5622 12.2843 2.5622H8.6048V0.456305C8.6048 0.204661 8.40013 0 8.1486 0H6.80148C6.54983 0 6.34519 0.204661 6.34519 0.456305V2.5622H2.5636C2.47188 2.5622 2.38209 2.5875 2.30427 2.63528L0.379994 3.81285C0.231354 3.90391 0.142578 4.06226 0.142578 4.23653C0.142578 4.41091 0.231354 4.56926 0.379994 4.66029L2.30393 5.83767C2.38209 5.88567 2.47188 5.91097 2.56348 5.91097H6.34519V6.59147H2.79886C2.52497 6.59147 2.30212 6.81432 2.30212 7.0882V9.4435C2.30212 9.71738 2.52497 9.94023 2.79886 9.94023H6.34519V14.3479C6.34519 14.5995 6.54983 14.8042 6.80136 14.8042H8.1486C8.40013 14.8042 8.6048 14.5995 8.6048 14.3479V9.94023H12.5197C12.6109 9.94023 12.7005 9.91506 12.779 9.86714L14.7031 8.68958C14.8518 8.59853 14.9405 8.44009 14.9405 8.26579C14.9405 8.09141 14.8518 7.93306 14.7031 7.84214Z" fill="#A11D21"/>
</svg>
