<svg width="24" height="24" viewBox="-4.5 -4.5 24 24" fill="none" xmlns="http://www.w3.org/2000/svg">
<path d="M14.4132 11.4227L12.1778 9.18713C11.7326 8.74368 10.9953 8.75715 10.5345 9.21808L9.40831 10.344C9.33717 10.3048 9.26352 10.2638 9.1861 10.2204C8.47492 9.82631 7.50154 9.28622 6.47728 8.26123C5.45 7.23404 4.90942 6.25919 4.51415 5.54755C4.47243 5.47218 4.43248 5.39948 4.39302 5.33045L5.14883 4.57573L5.52044 4.20367C5.98189 3.7421 5.99462 3.00499 5.55044 2.56023L3.31507 0.324373C2.87086 -0.119745 2.1332 -0.106272 1.67174 0.355313L1.04174 0.988931L1.05895 1.00602C0.847707 1.27557 0.671181 1.58645 0.539815 1.92171C0.418722 2.24083 0.34333 2.54535 0.308858 2.85049C0.0136926 5.29748 1.13189 7.53382 4.16655 10.5685C8.36134 14.763 11.7418 14.4462 11.8877 14.4307C12.2053 14.3927 12.5097 14.3169 12.819 14.1967C13.1513 14.0669 13.462 13.8906 13.7314 13.6798L13.7452 13.692L14.3834 13.0671C14.8439 12.6056 14.8572 11.8682 14.4132 11.4227Z" fill="#A11D21"/>
</svg>
