<svg width="24" height="24" viewBox="-3.5 -5 24 24" fill="none" xmlns="http://www.w3.org/2000/svg">
<path d="M1.68651 14H15.3099C16.1715 14 17 13.3577 17 12.2537C17 12.2537 17 4.3185 17 4.285C16.9934 3.29482 16.1782 2.54545 15.3033 2.54545H10.8611V0.95622C10.8611 0.369293 10.3364 0 9.6906 0C9.6906 0 7.2285 0 7.24193 0C6.60963 0 6.07143 0.369293 6.07143 0.95622V2.61244H1.69764C0.818833 2.61244 0 3.35303 0 4.3317C0 4.35817 0 12.2071 0 12.2071C0 13.2982 0.82106 14 1.68651 14ZM6.9484 0.9378H9.98413V2.61244H6.9484V0.9378ZM5.83817 7.19347C5.8553 7.19347 7.61693 8.92577 7.61693 8.92577L11.2088 5.3677L12.2778 6.42063C12.2778 6.42063 7.5913 11.0657 7.5656 11.0614C7.54847 11.0614 4.7221 8.26757 4.7221 8.26757C4.7221 8.26757 5.8211 7.19347 5.83817 7.19347Z" fill="#A11D21"/>
</svg>
