<svg width="24" height="24" viewBox="-4.5 -2 24 24" fill="none" xmlns="http://www.w3.org/2000/svg">
<path d="M7.52578 9.3334C9.64759 9.3334 11.3678 7.24405 11.3678 4.66673C11.3678 2.08933 10.803 0 7.52578 0C4.24847 0 3.68359 2.08933 3.68359 4.66673C3.68359 7.24405 5.40383 9.3334 7.52578 9.3334Z" fill="#A11D21"/>
<path d="M0.268822 16.4589C0.267513 16.4146 0.268168 16.3018 0.268822 16.4589V16.4589Z" fill="#A11D21"/>
<path d="M14.7823 16.5815C14.7831 16.2831 14.7844 16.5385 14.7823 16.5815V16.5815Z" fill="#A11D21"/>
<path d="M14.7742 16.2704C14.703 11.7807 14.1167 10.5013 9.62952 9.69149C9.62952 9.69149 8.99791 10.4964 7.52571 10.4964C6.05349 10.4964 5.42176 9.69149 5.42176 9.69149C0.983607 10.4925 0.361574 11.7529 0.279785 16.1246C0.273078 16.4816 0.270022 16.5004 0.268822 16.4589C0.269095 16.5366 0.26937 16.6802 0.26937 16.9306C0.26937 16.9306 1.33765 19.0842 7.52571 19.0842C13.7136 19.0842 14.782 16.9306 14.782 16.9306C14.782 16.7697 14.7822 16.6577 14.7823 16.5815C14.7811 16.6071 14.7787 16.5576 14.7742 16.2704Z" fill="#A11D21"/>
</svg>
