<svg width="24" height="24" viewBox="-8 -5 24 24" fill="none" xmlns="http://www.w3.org/2000/svg">
<path d="M4.00005 0.5C1.7944 0.5 0 2.20889 0 4.30943C0 4.88228 0.130291 5.43282 0.387152 5.94614C0.392322 5.95712 0.397751 5.9679 0.403542 5.97868L3.42579 11.5515C3.53674 11.7561 3.75829 11.8846 4 11.8846C4.24176 11.8846 4.46331 11.7561 4.57421 11.5515L7.59563 5.98021C7.60085 5.97061 7.60571 5.96091 7.61037 5.95111C7.86893 5.43632 8 4.8841 8 4.30943C8.0001 2.20889 6.2057 0.5 4.00005 0.5ZM4.00005 6.30337C2.84558 6.30337 1.90634 5.40889 1.90634 4.30943C1.90634 3.21002 2.84558 2.31554 4.00005 2.31554C5.15453 2.31554 6.09376 3.21002 6.09376 4.30943C6.09376 5.40889 5.15453 6.30337 4.00005 6.30337Z" fill="#A11D21"/>
<path d="M5.54085 12.7614H2.45925C2.24505 12.7614 2.07148 12.9267 2.07148 13.1307C2.07148 13.3347 2.24505 13.5 2.45925 13.5H5.54085C5.75506 13.5 5.92862 13.3347 5.92862 13.1307C5.92862 12.9267 5.75501 12.7614 5.54085 12.7614Z" fill="#A11D21"/>
</svg>
