<svg width="39" height="40" viewBox="0 -10 39 40" fill="none" xmlns="http://www.w3.org/2000/svg">
<path d="M1.01441 9.42207L0.81441 9.42072C0.836496 6.13178 0.859813 4.23648 0.915458 3.12597C0.943218 2.57196 0.979412 2.20315 1.03008 1.95076C1.08071 1.69851 1.15077 1.53512 1.2669 1.419L1.40832 1.56042L1.2669 1.419C1.38659 1.29931 1.57957 1.18533 1.78048 1.09352C1.98566 0.99976 2.22008 0.919651 2.43669 0.876446C2.86191 0.79163 3.78582 0.776396 4.49738 0.835693L5.77837 0.942442L5.95671 0.957302L5.96168 1.13619L6.02252 3.32327L6.07798 5.31635L21.9424 5.37056L38.0007 5.42522L38.2 5.42589V5.62521V9.68168V13.7381V13.9375L38.0007 13.9381L21.9424 13.9928L6.07798 14.047L6.02252 16.0401L5.96168 18.2272L5.95648 18.414L5.76974 18.4215L4.17107 18.4853L4.17105 18.4853C3.72709 18.503 3.26921 18.5055 2.88825 18.4952C2.51635 18.4851 2.19448 18.4626 2.03808 18.4233C1.86276 18.3792 1.6788 18.2605 1.52264 18.1231C1.36334 17.9829 1.21317 17.8058 1.11152 17.6216L1.01441 9.42207ZM1.01441 9.42207L0.81441 9.42073M1.01441 9.42207L0.81441 9.42073M0.81441 9.42073C0.793068 12.6069 0.792687 14.5131 0.832055 15.6849M0.81441 9.42073L0.832055 15.6849M0.832055 15.6849C0.851726 16.2704 0.881487 16.6791 0.924811 16.9752M0.832055 15.6849L0.924811 16.9752M0.924811 16.9752C0.968136 17.2714 1.02671 17.4679 1.11151 17.6216L0.924811 16.9752ZM1.83923 17.1708L1.83923 17.1708C1.80777 17.1084 1.76779 16.9463 1.73263 16.6187C1.69863 16.3018 1.67127 15.8571 1.64996 15.2535C1.60737 14.0471 1.58942 12.2208 1.58825 9.54517C1.58675 6.27682 1.59445 4.47735 1.64464 3.44419C1.69552 2.39703 1.79107 2.19255 1.91143 2.05011C2.03891 1.89929 2.16511 1.80981 2.41341 1.74863C2.67912 1.68316 3.07471 1.6528 3.73907 1.63437L5.13615 1.59564L5.19071 9.65571L5.24523 17.7114L3.69533 17.6569C3.69532 17.6569 3.69531 17.6569 3.69531 17.6569C2.86759 17.6276 2.45413 17.6021 2.21262 17.5311C2.10195 17.4986 2.04102 17.4598 1.99515 17.4138C1.94469 17.3631 1.90042 17.292 1.83923 17.1708ZM21.7741 6.14546H37.4798V9.68168V13.2179L21.7741 13.2179H6.06851L6.06851 9.68168V6.14546L21.7741 6.14546Z" fill="black" stroke="black" stroke-width="0.4"/>
</svg>
