<svg width="25" height="40" viewBox="0 -8 25 40" fill="none" xmlns="http://www.w3.org/2000/svg">
<path fill-rule="evenodd" clip-rule="evenodd" d="M3.64807 0.0526175L0.267334 0.230509L3.64807 0.230509L4.64804 0.230509H4.64807H4.66017L13.2823 0.230509H13.2944H13.2944H13.2945L17.6769 0.230509L13.2945 0L13.2944 0L13.2944 0L4.64807 0L4.64804 0L3.64807 0.0526175ZM13.2944 0.23053H13.2944H13.2823L5.64807 0.23053L4.66017 0.23053H4.64807V0.230591H4.64804L3.64807 0.230591L1.26733 0.230591L0.267334 0.230591L0.267334 1.23051V1.23059L0.267334 3.03632V3.03641L0.270724 3.03646L9.47832 3.42854L17.6758 3.03637L17.6769 3.03635L17.6769 3.03632L17.6769 1.23053L17.6769 1.23051L17.6769 0.230799V0.23053L13.2945 0.23053H13.2944ZM5.64807 1.23053L13.2944 1.23053H13.2945L16.6769 1.23053L16.6769 2.08301L9.47569 2.42752L1.26733 2.07799L1.26733 1.23059L4.64807 1.23059L5.64807 1.23059V1.23053ZM17.6769 4.6591V3.65939V3.65912H16.6769L13.2945 3.65912H13.2944H13.2944H13.2823L5.4375 3.65912H4.66017H4.64807H4.64804L1.26733 3.65912H0.267334L0.267334 4.6591L0.267334 5.46497L0.267334 6.46494L0.269141 6.46497H0.267334L0.26914 6.46504H0.269141L0.275998 6.46533L9.47671 6.85712L6.1875 6.85712H5.1875H4.64804L0.267334 7.08763L4.64804 7.08763H4.66017H5.1875H6.1875L13.2823 7.08763H13.2944H13.2944H13.2945L17.6769 7.08763L13.2945 6.85712L13.2944 6.85712H13.2944H9.47976L17.6673 6.46543L17.6754 6.46504L17.6769 6.46497H17.6754L17.6769 6.46494V6.46465V5.46497V4.65912V4.6591ZM1.26733 4.65912L4.64807 4.65912H5.4375L13.2944 4.65912H13.2945L16.6769 4.65912V5.51166L9.47569 5.85617L1.26733 5.50664V4.65912ZM0.267334 3.6591L4.64804 3.6591H4.64807H4.66017H5.4375L13.2823 3.6591H13.2944H13.2944H13.2945L17.6769 3.6591L13.2945 3.42859L13.2944 3.42859H13.2944L5.4375 3.42859H4.64807H4.64804L0.267334 3.6591ZM13.2944 7.08771H13.2944H13.2945L17.6769 7.08771V7.08792L17.6769 8.08763L17.6769 8.08771L17.6769 9.89349L17.6769 9.89353L17.6758 9.89355L9.47832 10.2857L0.276259 9.89387L0.269054 9.89357H0.269053L0.267334 9.89349H0.269054L0.267334 9.89347L0.267334 8.89349L0.267334 8.08765V8.08763L0.267334 7.08765H1.26733L4.1875 7.08765H4.64804H4.66017H5.1875V7.08771H6.1875L13.2823 7.08771H13.2944ZM4.1875 8.08771V8.08765H1.26733V8.93517L9.47569 9.28469L16.6769 8.94019L16.6769 8.08771H13.2945H13.2944L5.1875 8.08771H4.1875ZM17.6761 10.5162L13.2944 10.2858L4.64804 10.2858L0.268092 10.5162H0.267334V10.5163L0.267334 11.5162L0.267334 12.3221L0.267334 13.3221L0.269032 13.3221H0.267334L0.269031 13.3222H0.269032L0.276329 13.3225L9.47671 13.7142L5.3125 13.7142H4.64807H4.64804L0.267334 13.9447H4.64804H4.64807H4.66017H5.3125L13.2823 13.9447H13.2944H13.2944H13.2945L17.6769 13.9447L13.2945 13.7142L13.2944 13.7142H13.2944H9.47976L17.6673 13.3225L17.6754 13.3222L17.6769 13.3221H17.6754L17.6769 13.3221V13.3218L17.6769 12.3221L17.6769 11.5162L17.6769 10.5163L17.6769 10.5162H17.6761ZM16.6769 11.4651L13.2682 11.2858L4.67433 11.2858L1.26733 11.465L1.26733 12.3638L9.47569 12.7133L16.6769 12.3688L16.6769 11.4651ZM17.6769 13.945V14.9447V14.9448V15.7507V16.7504V16.7506L17.6754 16.7507H17.6769L17.6754 16.7507L17.6673 16.7511L9.47848 17.1429L13.2944 17.1429H13.2944L13.2945 17.1429L17.6769 17.3734H13.2945H13.2944H13.2944H13.2823L6.125 17.3734H5.125H4.66017H4.64804H0.267334L4.64804 17.1429H5.125H6.125H9.47814L0.276124 16.751L0.269098 16.7507H0.269097L0.267334 16.7506L0.267334 15.7507L0.267334 14.9448V14.9447L0.267334 13.9448H1.26733H4.64804H4.64807H4.66018H5.3125L13.2823 13.9448H13.2944H13.2944H13.2945H16.6769L17.6769 13.9448V13.945ZM16.6769 15.7974V14.9448H13.2945H13.2944L5.3125 14.9448H4.64807H1.26733L1.26733 15.7923L9.47569 16.1419L16.6769 15.7974ZM13.2944 17.3735H13.2944H13.2823L6.125 17.3735H5.125V17.3735H4.66018H4.64804H4.125H1.26733H0.267334L0.267334 18.3734V18.3735L0.267334 19.1793L0.267334 20.1793L0.269031 20.1794H0.269032L0.276329 20.1797L9.47528 20.5714H5.0625H4.64807H4.64804L0.267334 20.8019H4.64804H4.64807H4.66017H5.0625L13.2823 20.8019H13.2944H13.2944H13.2945H17.6769L13.2945 20.5714L13.2944 20.5714H13.2944L9.48103 20.5714L17.6758 20.1794L17.6769 20.1794L17.6769 20.1793L17.6769 18.3735L17.6769 18.3734L17.6769 17.3737V17.3735H13.2945H13.2944ZM4.125 18.3735V18.3735H5.125L13.2944 18.3735H13.2945H16.6769L16.6769 19.226L9.47569 19.5705L1.26733 19.221V18.3735H4.125ZM17.6769 20.8022V21.8019V21.8019V22.6078V23.6075V23.6078L17.6754 23.6078H17.6769L17.6754 23.6079L17.6673 23.6082L9.47832 24L0.276403 23.6082L0.26901 23.6079H0.269009L0.267334 23.6078L0.267334 22.6078L0.267334 21.8019L0.267334 20.8019H1.26733H4.64804H4.64807H4.66017H5.0625L13.2823 20.8019H13.2944H13.2944H13.2945H16.6769H17.6769V20.8022ZM4.64807 21.8019H1.26733V22.6495L9.47569 22.999L16.6769 22.6545V21.8019H13.2945H13.2944L5.0625 21.8019H4.64807Z" fill="black"/>
<path fill-rule="evenodd" clip-rule="evenodd" d="M16.802 24.0625C21.2893 24.0625 24.927 20.4248 24.927 15.9375C24.927 11.4502 21.2893 7.8125 16.802 7.8125C12.3147 7.8125 8.677 11.4502 8.677 15.9375C8.677 20.4248 12.3147 24.0625 16.802 24.0625ZM16.802 19.9375C18.0469 19.9375 20.7002 18.9438 20.9375 15.9375C21.0312 14.75 19.6875 11.7188 17.1875 11.5C15.7812 11.5 12.6875 12.4167 12.6875 15.9375C12.6875 18.375 15 19.9375 16.802 19.9375Z" fill="white"/>
<circle cx="16.802" cy="15.9375" r="7.625" stroke="black"/>
<circle cx="16.8021" cy="15.9375" r="4.19275" stroke="black"/>
</svg>
