<svg width="39" height="40" viewBox="0 -10 39 40" fill="none" xmlns="http://www.w3.org/2000/svg">
<path d="M0.904541 9.99744H29.7045C31.0446 9.99744 32.7372 9.99744 33.2872 9.99744C35.4122 9.99744 36.875 11.75 37.3125 13.0625C37.75 14.375 37.3796 18.3135 33.2872 18.5625C27.125 18.9375 27.1875 12.5878 23.7247 12.5878C21.9122 12.5878 20.0997 13.6503 18.1622 13.7753C16.2247 13.9003 14.2002 11.5 12.5 11.5C11.2128 11.5 7.30806 13.5462 5.53723 14.5253" stroke="black" stroke-width="1.4" stroke-linecap="round"/>
<path fill-rule="evenodd" clip-rule="evenodd" d="M2.32445 2.34619C2.7271 2.18387 3.42904 2.1653 4.50725 2.74035C5.37278 3.20196 6.74659 3.46681 7.9167 3.61918C9.09989 3.77325 10.2066 3.82741 10.6342 3.81679H36.8131C37.1721 3.81679 37.4631 3.52578 37.4631 3.16679C37.4631 2.80781 37.1721 2.51679 36.8131 2.51679H10.6256L10.6076 2.51704C10.2781 2.5262 9.23623 2.48003 8.08457 2.33006C6.91093 2.17723 5.75348 1.93167 5.11901 1.59329C3.84262 0.912547 2.72325 0.783757 1.83839 1.14048C0.947868 1.49948 0.451321 2.28798 0.310707 3.09625C0.171661 3.89551 0.364643 4.78777 0.934502 5.43897C1.5284 6.11765 2.4614 6.45561 3.61784 6.2436C7.30979 5.56678 9.64071 5.56679 10.6215 5.56679H34.8131C35.1721 5.56679 35.4631 5.27577 35.4631 4.91679C35.4631 4.5578 35.1721 4.26679 34.8131 4.26679H10.6256C9.60397 4.26679 7.18626 4.26777 3.38343 4.96491C2.62007 5.10485 2.16859 4.87516 1.91281 4.58287C1.63298 4.2631 1.51109 3.78109 1.59147 3.31906C1.67028 2.86604 1.92745 2.50623 2.32445 2.34619Z" fill="black"/>
</svg>
