<svg width="38" height="40" viewBox="0 -4 38 40" fill="none" xmlns="http://www.w3.org/2000/svg">
<path fill-rule="evenodd" clip-rule="evenodd" d="M13.4944 0.482422H20.4383V4.81754L22.94 5.84766L24.5804 4.65984H35.4719L37.2673 6.16802V25.0882L35.4957 26.8598H24.5577L22.9315 25.4579L20.4383 26.6801V31.0969H12.9189V30.0824H11.248V28.5308H0.93383L0.267334 26.4573V5.05394L0.946307 3.16791H11.248V1.49694H13.0766L13.4944 0.482422ZM12.9189 2.45178H12.2028V29.1276H12.9189V2.45178ZM13.8738 2.0688V30.1421H19.4835V1.43726H14.1338L13.8738 2.0688ZM11.248 4.12274H1.61739L1.22217 5.22058V9.19532H11.248V4.12274ZM11.248 10.1502H1.22217V21.3695H11.248V10.1502ZM11.248 22.3244H1.22217V26.3076L1.62987 27.576H11.248V22.3244ZM20.4383 25.6167L22.527 24.5928V6.71021L20.4383 5.85015V25.6167ZM23.4818 6.63422V24.6717L24.2577 25.3405V6.07243L23.4818 6.63422ZM25.2125 5.61468V25.905H34.8206V5.61468H25.2125ZM35.7754 6.16179L36.3125 6.61296V24.6927L35.7754 25.2298V6.16179Z" fill="black"/>
</svg>
