<svg width="25" height="40" viewBox="0 -13.5 25 40" fill="none" xmlns="http://www.w3.org/2000/svg">
<path fill-rule="evenodd" clip-rule="evenodd" d="M23.0005 10.8627C22.888 9.85644 22.6343 8.86894 22.2452 7.92976C21.7025 6.61945 20.907 5.42886 19.9041 4.42599C18.9012 3.42312 17.7106 2.6276 16.4003 2.08485C15.09 1.54209 13.6856 1.26274 12.2673 1.26274C10.8491 1.26274 9.44467 1.54209 8.13435 2.08485C6.82404 2.6276 5.63345 3.42312 4.63058 4.42599C3.62771 5.42886 2.83219 6.61945 2.28943 7.92976C1.90042 8.86894 1.64672 9.85644 1.53421 10.8627L23.0005 10.8627ZM24.2072 10.8627C24.0902 9.69854 23.8033 8.55552 23.3539 7.47054C22.7508 6.01464 21.8669 4.69177 20.7526 3.57746C19.6383 2.46316 18.3154 1.57925 16.8595 0.97619C15.4036 0.373133 13.8432 0.0627441 12.2673 0.0627441C10.6915 0.0627441 9.13104 0.373133 7.67513 0.97619C6.21922 1.57925 4.89636 2.46316 3.78205 3.57746C2.66775 4.69177 1.78384 6.01464 1.18078 7.47054C0.731367 8.55552 0.444491 9.69854 0.327484 10.8627C0.287482 11.2608 0.267334 11.6613 0.267334 12.0627L24.2673 12.0627C24.2673 11.6613 24.2472 11.2608 24.2072 10.8627Z" fill="black"/>
</svg>
