<svg width="26" height="40" viewBox="0 -7.5 26 40" fill="none" xmlns="http://www.w3.org/2000/svg">
<path fill-rule="evenodd" clip-rule="evenodd" d="M7.27823 1.94803C7.99557 1.53761 9.20712 1.0265 9.97058 0.812327C10.9062 0.549728 12.1098 0.454411 13.6641 0.519996C15.23 0.586094 16.4487 0.799515 17.4619 1.18534C18.2828 1.4979 19.658 2.28978 20.5183 2.94513C21.3786 3.60021 22.5077 4.75873 23.0272 5.51937C23.5468 6.28026 24.2129 7.60607 24.507 8.4656C24.8014 9.32538 25.1134 10.663 25.2008 11.438C25.2999 12.3195 25.2131 13.5436 24.9689 14.7083C24.754 15.732 24.2111 17.2587 23.762 18.1008C23.3131 18.9431 22.3663 20.2118 21.6579 20.9202C20.9495 21.6286 19.7756 22.548 19.0493 22.9639C18.323 23.3794 16.987 23.8941 16.0805 24.1077C14.1801 24.5559 12.2808 24.6162 10.383 24.1216C9.57629 23.9115 8.31889 23.437 7.589 23.0671C6.85936 22.6974 5.60657 21.7695 4.80546 21.0052C4.00434 20.2413 3.00339 18.9577 2.58118 18.153C2.15872 17.3483 1.66914 16.0702 1.49287 15.3129C1.29791 14.4756 1.22054 13.0107 1.2956 11.5755C1.40243 9.53571 1.5436 8.95774 2.33626 7.3163C2.90885 6.13013 3.76377 4.90629 4.61356 4.05573C5.36165 3.30688 6.56089 2.35845 7.27823 1.94803ZM15.1247 2.50295C15.8712 2.66153 17.0402 3.07221 17.7222 3.41576C18.4042 3.75932 19.4789 4.51663 20.1102 5.09844C20.7415 5.68026 21.538 6.63406 21.88 7.21767C22.222 7.80128 22.6737 8.84552 22.8838 9.53802C23.0938 10.2308 23.267 11.5076 23.2686 12.3759C23.2701 13.2439 23.0582 14.6388 22.7979 15.4756C22.5374 16.3123 21.9604 17.5259 21.5157 18.1723C21.0709 18.8186 20.2086 19.7561 19.5991 20.2556C18.9896 20.755 17.9238 21.4252 17.2303 21.7449C14.8845 22.8266 11.1593 22.7317 8.85664 21.6011C8.04425 21.2025 6.81607 20.3274 6.12767 19.6569C5.43903 18.9862 4.59204 17.8712 4.24516 17.1795C3.89827 16.4875 3.46838 15.3006 3.28956 14.5417C3.09075 13.6986 3.02542 12.5035 3.12098 11.4674C3.2314 10.2728 3.5455 9.22956 4.18547 7.93194C4.77164 6.7432 5.52202 5.70997 6.30418 5.01389C6.97054 4.42157 8.11215 3.65991 8.84154 3.32199C9.57092 2.98381 10.6662 2.60901 11.2754 2.48911C11.8846 2.36921 12.6944 2.25853 13.0751 2.24316C13.4556 2.22753 14.3779 2.34462 15.1247 2.50295ZM7.91898 6.47368C8.61993 5.84345 9.68057 5.15531 10.276 4.94447C10.8714 4.73362 12.1323 4.55197 13.0779 4.54096C14.2157 4.52764 15.263 4.69493 16.1728 5.03516C16.9493 5.32568 18.0445 6.0256 18.6894 6.64328C19.317 7.24508 20.1076 8.31033 20.4458 9.01102C20.9316 10.0174 21.0638 10.7157 21.075 12.3346C21.0863 13.9486 20.9646 14.6565 20.5024 15.6651C20.1796 16.3697 19.4889 17.3883 18.9676 17.9289C18.446 18.4694 17.443 19.2178 16.7384 19.5918C14.7128 20.6674 11.5761 20.6559 9.54889 19.5895C8.83539 19.2145 7.81855 18.4279 7.28926 17.842C6.7597 17.2561 6.08924 16.2385 5.79897 15.5806C5.43338 14.7513 5.26251 13.7944 5.24279 12.4627C5.21896 10.8441 5.32707 10.311 5.92963 9.0802C6.34441 8.23246 7.17935 7.13851 7.91898 6.47368ZM18.0479 8.80094C17.5964 8.20811 16.7374 7.45235 16.1389 7.12135C15.4818 6.75806 14.4721 6.47727 13.589 6.41245C12.7259 6.34917 11.7501 6.44653 11.2072 6.64969C10.7012 6.83927 9.87117 7.3117 9.36237 7.69983C8.85357 8.08771 8.14341 8.99515 7.78422 9.71582C7.31616 10.655 7.13271 11.4292 7.13681 12.4489C7.14014 13.2697 7.34024 14.3055 7.61001 14.8966C7.86723 15.4602 8.51233 16.3423 9.04367 16.8565C9.64163 17.4355 10.5562 17.9635 11.4439 18.2427C12.6598 18.6252 13.0913 18.6493 14.2772 18.4005C15.0468 18.2391 16.1162 17.8159 16.6536 17.4603C17.1909 17.1047 17.9187 16.3784 18.2707 15.8465C18.6228 15.3144 19.0188 14.3068 19.1508 13.6069C19.306 12.7845 19.2986 11.9004 19.13 11.1067C18.9863 10.4314 18.4995 9.39377 18.0479 8.80094Z" fill="black" stroke="white" stroke-width="0.6"/>
</svg>
