<svg width="38" height="40" viewBox="0 -6 38 40" fill="none" xmlns="http://www.w3.org/2000/svg">
<mask id="mask0_937_4633" style="mask-type:alpha" maskUnits="userSpaceOnUse" x="0" y="0" width="17" height="14">
<path d="M0.267334 0.904236L14.7728 1.34677L16.5312 13.628L0.267334 14V0.904236Z" fill="#D9D9D9"/>
</mask>
<g mask="url(#mask0_937_4633)">
<path fill-rule="evenodd" clip-rule="evenodd" d="M0.953137 10.4922C1.1651 10.9232 1.63126 11.5204 2.21977 12.1149C3.01534 12.9185 3.28654 13.1116 4.08211 13.4411C4.59426 13.6533 5.37994 13.8788 5.82806 13.9422C6.41936 14.0259 6.781 14.0194 7.14684 13.9183C7.4241 13.8419 7.83276 13.6121 8.05508 13.4079C8.30871 13.175 8.49762 12.8661 8.56211 12.579C8.61856 12.3272 8.62182 11.8912 8.56932 11.61C8.51171 11.3016 8.34142 10.9596 8.14029 10.7486C7.95684 10.5561 7.63023 10.3243 7.41432 10.2336C7.1984 10.1428 6.8527 10.0685 6.64598 10.0685C6.43926 10.0685 6.09217 10.0087 5.87451 9.93558C4.40086 9.44122 3.75778 7.50641 4.67923 6.19425C4.86861 5.92444 5.2526 5.577 5.53253 5.4223C5.90372 5.2171 6.22114 5.14109 6.70616 5.14109C7.21784 5.14109 7.49405 5.21314 7.90528 5.4542C8.19918 5.62635 8.59737 5.99661 8.79013 6.27677C8.98288 6.55706 9.3905 7.03661 9.69593 7.34238C10.0012 7.64827 10.5577 8.09698 10.9325 8.33944C11.3073 8.58201 11.9097 8.89244 12.2711 9.02921C12.6325 9.16609 13.3211 9.34929 13.8012 9.43636C14.2814 9.52354 15.0213 9.59664 15.4457 9.59885C16.9604 9.02921 17.5821 5.48679 16.2456 5.47084C16.1479 5.58852 15.8873 5.64497 15.4457 5.64404C15.0853 5.64334 14.5101 5.56803 14.1672 5.47678C13.8242 5.38541 13.3441 5.1788 13.1003 5.01736C12.8566 4.85603 12.4562 4.47635 12.2107 4.17372C11.9652 3.87097 11.5458 3.38327 11.2788 3.08983C11.0118 2.79639 10.4618 2.35956 10.0566 2.11908C9.65146 1.8786 8.9795 1.57155 8.56339 1.43676C7.9991 1.25414 7.51104 1.1921 6.64284 1.19291C5.69083 1.19373 5.33594 1.2468 4.69413 1.48437C4.26264 1.64406 3.61548 1.95159 3.25628 2.16785C2.89696 2.384 2.33349 2.85098 2.00397 3.20565C1.67456 3.56019 1.23645 4.16685 1.03031 4.55363C0.824286 4.94054 0.57543 5.56489 0.477424 5.94132C0.0766012 7.48031 0.25695 9.07654 0.953137 10.4922ZM2.34722 4.23354C2.11629 4.54816 1.78712 5.11211 1.61555 5.48679C0.839924 7.18032 1.14482 9.33777 2.25876 10.8132C2.53217 11.1752 3.04863 11.7013 3.40655 11.9823C3.82918 12.3139 4.3766 12.5986 4.96778 12.7939C5.46851 12.9595 6.09205 13.0948 6.3536 13.0948C6.61502 13.0948 6.98575 13.0137 7.17745 12.9146C7.36904 12.8156 7.57809 12.597 7.64199 12.4288C7.70589 12.2607 7.72719 11.9817 7.68913 11.8089C7.65119 11.6359 7.50499 11.39 7.36427 11.2622C7.19933 11.1125 6.86027 11.0024 6.41005 10.9525C6.02594 10.9099 5.50052 10.7731 5.24247 10.6483C3.67718 9.89211 2.80787 7.95464 3.53633 6.30832C3.66506 6.01732 3.98574 5.54545 4.24903 5.25993C4.51825 4.96777 4.99373 4.62417 5.33605 4.47448C5.76183 4.28813 6.174 4.20712 6.70907 4.20456C7.31375 4.20153 7.61184 4.26834 8.13377 4.52372C8.5351 4.72008 8.96542 5.05449 9.2315 5.37702C9.47221 5.6686 9.94141 6.20379 10.2741 6.56613C10.6067 6.92836 11.2091 7.42118 11.6126 7.66108C12.0162 7.90097 12.6949 8.20395 13.121 8.33432C13.641 8.49343 14.2725 8.57828 15.0416 8.59248L16.1874 8.61355L16.2542 6.6113L15.1732 6.54658C14.5093 6.50689 13.8507 6.39002 13.4662 6.24383C13.1221 6.11288 12.6298 5.85984 12.3725 5.6814C12.1151 5.50308 11.6238 5.00525 11.2806 4.57517C10.9374 4.14497 10.4867 3.6341 10.2793 3.43995C10.0718 3.24569 9.60153 2.92653 9.23441 2.73063C8.8673 2.53474 8.18638 2.29473 7.72126 2.19707C7.17536 2.08265 6.64866 2.04715 6.23545 2.09696C5.88335 2.13945 5.281 2.27924 4.89689 2.40751C4.51278 2.53578 3.87644 2.87054 3.48279 3.15129C3.08913 3.43204 2.57815 3.91904 2.34722 4.23354Z" fill="black" stroke="white" stroke-width="0.4"/>
</g>
<path fill-rule="evenodd" clip-rule="evenodd" d="M23.6821 5.64755L23.8286 6.21512L23.9577 6.21515L24.3545 7.52542L24.7514 8.83569H24.5051L24.6514 9.40261H26.9054C36.4474 9.40261 37.274 9.39332 37.4585 9.28433C37.5687 9.21928 37.7011 9.08684 37.7529 8.99011C37.8213 8.86227 37.847 8.46047 37.847 7.51918C37.847 6.31514 37.8366 6.21004 37.6985 6.02403C37.6168 5.91397 37.4733 5.78458 37.3796 5.73646C37.2467 5.66815 34.937 5.64866 26.8808 5.64788L23.6821 5.64755ZM25.3135 6.21373H24.9368C24.7296 6.21373 24.5627 6.23761 24.5659 6.26688C24.5691 6.29614 24.6513 6.57514 24.7485 6.88694C24.8458 7.19874 25.021 7.7648 25.1379 8.14477L25.3505 8.83569H25.7424C26.0264 8.83569 26.125 8.81132 26.1008 8.74711C26.0825 8.69836 25.8978 8.10842 25.6905 7.43613L25.3135 6.21373ZM26.6664 6.24144C26.686 6.26099 26.873 6.82883 27.082 7.50324C27.2909 8.17765 27.4627 8.75328 27.4637 8.78255C27.4647 8.81181 27.2965 8.83569 27.09 8.83569H26.7145L26.3194 7.54243L25.9242 6.24916L26.2775 6.22747C26.4718 6.21557 26.6468 6.22181 26.6664 6.24144ZM28.0595 6.24916L27.6916 6.22776C27.3741 6.20926 27.3249 6.22379 27.3323 6.33406C27.337 6.40428 27.5044 6.99557 27.7043 7.64794L28.0678 8.83414L28.4398 8.83492C28.6916 8.83541 28.8112 8.80706 28.81 8.74711C28.809 8.69836 28.6397 8.11643 28.4338 7.45385L28.0595 6.24916ZM29.0462 6.21373H29.4222L29.8125 7.507L30.2028 8.80026L29.8538 8.82195C29.6619 8.83385 29.49 8.82882 29.4719 8.81075C29.4538 8.79261 29.2689 8.24079 29.0609 7.58438C28.8529 6.92797 28.6799 6.35099 28.6765 6.30231C28.6721 6.24179 28.7893 6.21373 29.0462 6.21373ZM30.7875 6.21373H30.402C30.19 6.21373 30.0198 6.23761 30.0239 6.26688C30.0279 6.29614 30.1559 6.71863 30.3082 7.20582C30.4607 7.69301 30.635 8.259 30.6957 8.46366L30.8061 8.83569H31.1984C31.483 8.83569 31.5815 8.81139 31.5571 8.74711C31.5386 8.69836 31.4419 8.38748 31.3423 8.05619C31.2427 7.7249 31.0771 7.17479 30.9744 6.83379L30.7875 6.21373ZM31.796 6.22776L32.1581 6.24916L32.5384 7.48928C32.7476 8.17134 32.9194 8.75328 32.9204 8.78255C32.9213 8.81181 32.7535 8.83569 32.5476 8.83569H32.1732L31.8096 7.64872C31.6097 6.99593 31.4433 6.40428 31.44 6.33406C31.4347 6.22422 31.4847 6.20934 31.796 6.22776ZM33.5253 6.21373H33.1527C32.8987 6.21373 32.7822 6.24186 32.7865 6.30231C32.7899 6.35099 32.9598 6.933 33.1639 7.59558L33.5351 8.80026L33.9263 8.82117L34.3174 8.84214L33.9213 7.5279L33.5253 6.21373ZM34.5039 6.21373H34.8811L35.2503 7.41863C35.4533 8.08128 35.6377 8.67122 35.6601 8.72961C35.6933 8.81599 35.6276 8.83569 35.3066 8.83569H34.9123L34.691 8.10934C34.5694 7.70981 34.3941 7.14382 34.3016 6.8515C34.209 6.55919 34.1318 6.29614 34.13 6.26688C34.1282 6.23761 34.2964 6.21373 34.5039 6.21373ZM36.6498 7.52648C36.4395 6.83861 36.2517 6.26008 36.2324 6.2408C36.2132 6.22153 36.0377 6.21557 35.8425 6.22747L35.4877 6.24916L35.884 7.54243L36.2804 8.83569H36.6563C36.8629 8.83569 37.0321 8.82251 37.0321 8.80643C37.0321 8.79027 36.86 8.21429 36.6498 7.52648ZM36.9916 6.21373C37.0473 6.21373 37.1429 6.26383 37.2042 6.32506C37.2871 6.40797 37.3155 6.58307 37.3155 7.0101C37.3155 7.32558 37.301 7.56922 37.2832 7.55143C37.2654 7.53357 37.1728 7.28115 37.0776 6.9904C36.9823 6.69964 36.9012 6.40591 36.8974 6.33774C36.8935 6.26957 36.9359 6.21373 36.9916 6.21373Z" fill="black"/>
<path fill-rule="evenodd" clip-rule="evenodd" d="M23.9793 5.65584C22.4416 5.65037 20.4025 5.64806 17.7319 5.6478L14.1353 5.64743L14.2756 6.21496L14.8087 6.21507L15.2056 7.52534L15.6024 8.83561H14.9237L15.0639 9.40252H17.7564C21.1767 9.40252 23.4772 9.40133 25.0298 9.39478L24.87 8.82606L24.7773 8.82108L24.3861 8.80018L24.0149 7.59549C23.8108 6.93292 23.6409 6.35091 23.6375 6.30223C23.6333 6.24178 23.7497 6.21365 24.0037 6.21365H24.136L23.9793 5.65584ZM15.7879 6.21365H16.1646L16.5416 7.43605C16.7488 8.10834 16.9335 8.69828 16.9519 8.74703C16.976 8.81124 16.8775 8.83561 16.5934 8.83561H16.2016L15.989 8.14469C15.872 7.76472 15.6968 7.19866 15.5996 6.88686C15.5023 6.57505 15.4201 6.29606 15.417 6.2668C15.4137 6.23753 15.5806 6.21365 15.7879 6.21365ZM17.933 7.50316C17.7241 6.82875 17.5371 6.26091 17.5174 6.24136C17.4978 6.22173 17.3228 6.21549 17.1285 6.22739L16.7753 6.24908L17.1704 7.54235L17.5655 8.83561H17.941C18.1475 8.83561 18.3157 8.81173 18.3147 8.78247C18.3137 8.7532 18.142 8.17757 17.933 7.50316ZM18.5426 6.22768L18.9105 6.24908L19.2848 7.45377C19.4907 8.11634 19.66 8.69828 19.661 8.74703C19.6623 8.80698 19.5426 8.83533 19.2909 8.83483L18.9188 8.83406L18.5554 7.64786C18.3555 6.99549 18.188 6.4042 18.1833 6.33398C18.1759 6.22371 18.2251 6.20918 18.5426 6.22768ZM20.2732 6.21365H19.8972C19.6403 6.21365 19.5232 6.24171 19.5275 6.30223C19.5309 6.35091 19.7039 6.92788 19.9119 7.5843C20.1199 8.24071 20.3049 8.79253 20.3229 8.81067C20.3411 8.82874 20.5129 8.83377 20.7048 8.82187L21.0538 8.80018L20.6635 7.50691L20.2732 6.21365ZM21.253 6.21365H21.6385L21.8254 6.83371C21.9281 7.1747 22.0938 7.72482 22.1933 8.05611C22.2929 8.3874 22.3896 8.69828 22.4081 8.74703C22.4326 8.81131 22.334 8.83561 22.0495 8.83561H21.6572L21.5468 8.46358C21.486 8.25892 21.3117 7.69293 21.1593 7.20574C21.0069 6.71855 20.8789 6.29606 20.8749 6.2668C20.8709 6.23753 21.0411 6.21365 21.253 6.21365ZM23.0091 6.24908L22.647 6.22768C22.3357 6.20925 22.2857 6.22414 22.291 6.33398C22.2944 6.4042 22.4608 6.99584 22.6607 7.64864L23.0242 8.83561H23.3986C23.6045 8.83561 23.7723 8.81173 23.7714 8.78247C23.7705 8.7532 23.5986 8.17126 23.3894 7.4892L23.0091 6.24908Z" fill="black"/>
<mask id="mask1_937_4633" style="mask-type:alpha" maskUnits="userSpaceOnUse" x="21" y="14" width="17" height="14">
<path d="M37.8472 27.0958L23.3417 26.6532L21.5833 14.372L37.8472 14V27.0958Z" fill="#D9D9D9"/>
</mask>
<g mask="url(#mask1_937_4633)">
<path fill-rule="evenodd" clip-rule="evenodd" d="M29.1639 26.3954C32.4843 27.3281 35.8088 25.9819 36.8437 23.25C40.878 12.6014 25.8277 12.0655 26.2963 17.8504C26.3529 18.1531 26.52 18.4888 26.7175 18.696C26.8976 18.885 27.2182 19.1125 27.4302 19.2016C27.6422 19.2908 27.9816 19.3637 28.1845 19.3637C28.5287 19.4551 28.9247 19.142 29.3871 18.7765C30.2403 18.1019 31.3196 17.2487 32.7167 18.429C33.1523 18.8532 33.2608 19.326 33.3278 19.6179C33.3361 19.6542 33.3438 19.6877 33.3514 19.718C33.6172 20.7772 33.0826 21.9615 32.1394 22.4826C31.0238 23.0994 29.6457 22.6676 28.9414 21.6438C28.7521 21.3686 28.3519 20.8978 28.0521 20.5976C27.7524 20.2973 27.206 19.8568 26.8381 19.6188C26.4701 19.3807 25.8788 19.0759 25.524 18.9416C24.4587 18.5382 23.1686 18.5687 21.9776 18.5968C21.7943 18.6012 21.6132 18.6055 21.4357 18.6081L21.6392 19.2935C22.0201 19.27 22.3376 19.2467 22.5735 19.2294C22.7762 19.2145 22.9187 19.204 22.9895 19.2016C23.7445 19.2156 24.3645 19.2989 24.875 19.4551C25.7816 19.7324 27.0517 20.4838 27.698 21.1875C29.5937 23.7084 31.7605 24.0771 33.2774 22.4321C34.4109 21.2029 34.511 19.3103 33.2774 18.125C31.6426 16.5542 30.0787 17.5918 29.0593 18.2682C28.7591 18.4674 28.5062 18.6353 28.3125 18.696C28.2801 18.6924 28.2453 18.6889 28.2085 18.6853C27.7057 18.6352 26.8381 18.5489 26.8381 17.625C26.4981 12.4687 40.8379 13.7115 36.0879 23.4757C34.9938 25.7247 31.6378 26.878 28.5937 25.5C27.306 24.917 26.7166 24.1356 26.1859 23.4319C25.7179 22.8114 25.2955 22.2513 24.4799 21.941C24.1024 21.7975 23.4559 21.6827 22.8041 21.6438C22.7764 21.6445 22.6127 21.6432 22.3357 21.6403L22.5218 22.2674C22.874 22.2809 23.3602 22.3487 23.6625 22.4292C23.9993 22.5189 24.4705 22.7217 24.7099 22.8802C24.9492 23.0386 25.3423 23.4113 25.5833 23.7084C25.8243 24.0056 26.236 24.4844 26.4981 24.7725C26.7603 25.0606 27.3002 25.4895 27.698 25.7255C28.0957 25.9616 28.7554 26.2631 29.1639 26.3954ZM0.267454 20.272V20.2211C0.267294 20.2378 0.267294 20.2548 0.267454 20.272Z" fill="black"/>
</g>
<path fill-rule="evenodd" clip-rule="evenodd" d="M14.4324 22.3524L14.2859 21.7849L14.1568 21.7849L13.76 20.4746L13.3631 19.1643H13.6094L13.4631 18.5974H11.2091C1.66711 18.5974 0.84055 18.6067 0.65602 18.7157C0.545827 18.7807 0.413383 18.9132 0.361581 19.0099C0.293198 19.1377 0.267473 19.5395 0.267473 20.4808C0.267473 21.6849 0.277891 21.79 0.416005 21.976C0.497711 22.086 0.641211 22.2154 0.734893 22.2635C0.867763 22.3319 3.1775 22.3513 11.2337 22.3521L14.4324 22.3524ZM12.801 21.7863H13.1777C13.385 21.7863 13.5518 21.7624 13.5486 21.7331C13.5454 21.7039 13.4632 21.4249 13.366 21.1131C13.2687 20.8013 13.0935 20.2352 12.9766 19.8552L12.764 19.1643H12.3721C12.0881 19.1643 11.9895 19.1887 12.0137 19.2529C12.032 19.3016 12.2167 19.8916 12.424 20.5639L12.801 21.7863ZM11.4481 21.7586C11.4285 21.739 11.2415 21.1712 11.0326 20.4968C10.8236 19.8223 10.6518 19.2467 10.6508 19.2175C10.6498 19.1882 10.818 19.1643 11.0245 19.1643H11.4001L11.7951 20.4576L12.1903 21.7508L11.837 21.7725C11.6427 21.7844 11.4677 21.7782 11.4481 21.7586ZM10.055 21.7508L10.4229 21.7722C10.7404 21.7907 10.7896 21.7762 10.7822 21.6659C10.7775 21.5957 10.6101 21.0044 10.4102 20.3521L10.0467 19.1659L9.67466 19.1651C9.42288 19.1646 9.30326 19.1929 9.30454 19.2529C9.30553 19.3016 9.47482 19.8836 9.68068 20.5462L10.055 21.7508ZM9.06835 21.7863H8.69234L8.30202 20.493L7.91171 19.1997L8.26071 19.1781C8.45261 19.1661 8.62445 19.1712 8.6426 19.1892C8.66067 19.2074 8.84562 19.7592 9.05361 20.4156C9.26159 21.072 9.43464 21.649 9.43804 21.6977C9.44237 21.7582 9.32523 21.7863 9.06835 21.7863ZM7.32701 21.7863H7.71251C7.92446 21.7863 8.09468 21.7624 8.09064 21.7331C8.0866 21.7039 7.95862 21.2814 7.80626 20.7942C7.65383 20.307 7.4795 19.741 7.41877 19.5363L7.30837 19.1643H6.91607C6.63155 19.1643 6.53298 19.1886 6.55742 19.2529C6.57592 19.3016 6.67258 19.6125 6.77221 19.9438C6.87178 20.2751 7.03739 20.8252 7.14014 21.1662L7.32701 21.7863ZM6.31854 21.7722L5.95643 21.7508L5.5761 20.5107C5.36691 19.8287 5.19507 19.2467 5.19415 19.2175C5.19322 19.1882 5.36103 19.1643 5.56689 19.1643H5.94133L6.30487 20.3513C6.50477 21.0041 6.67116 21.5957 6.67449 21.6659C6.67981 21.7758 6.62985 21.7907 6.31854 21.7722ZM4.58925 21.7863H4.96178C5.21583 21.7863 5.33226 21.7581 5.32801 21.6977C5.3246 21.649 5.15475 21.067 4.95059 20.4044L4.5794 19.1997L4.18823 19.1788L3.79713 19.1579L4.19319 20.4721L4.58925 21.7863ZM3.61062 21.7863H3.23341L2.86421 20.5814C2.66119 19.9187 2.4768 19.3288 2.4544 19.2704C2.42124 19.184 2.48693 19.1643 2.80795 19.1643H3.20223L3.42347 19.8907C3.54507 20.2902 3.72039 20.8562 3.81294 21.1485C3.90549 21.4408 3.98266 21.7039 3.9845 21.7331C3.98634 21.7624 3.81811 21.7863 3.61062 21.7863ZM1.46472 20.4735C1.67504 21.1614 1.86283 21.7399 1.88211 21.7592C1.90131 21.7785 2.07677 21.7844 2.272 21.7725L2.62682 21.7508L2.23047 20.4576L1.83406 19.1643H1.4582C1.25156 19.1643 1.08241 19.1775 1.08241 19.1936C1.08241 19.2097 1.25447 19.7857 1.46472 20.4735ZM1.12287 21.7863C1.06724 21.7863 0.971579 21.7362 0.910281 21.6749C0.827441 21.592 0.798953 21.4169 0.798953 20.9899C0.798953 20.6744 0.813551 20.4308 0.831338 20.4486C0.849125 20.4664 0.941673 20.7188 1.03691 21.0096C1.13223 21.3004 1.21329 21.5941 1.21712 21.6623C1.22102 21.7304 1.17857 21.7863 1.12287 21.7863Z" fill="black"/>
<path fill-rule="evenodd" clip-rule="evenodd" d="M14.1352 22.3442C15.6729 22.3496 17.712 22.3519 20.3826 22.3522L23.9792 22.3526L23.8389 21.785L23.3058 21.7849L22.9089 20.4747L22.5121 19.1644H23.1908L23.0506 18.5975H20.3581C16.9378 18.5975 14.6373 18.5987 13.0847 18.6052L13.2445 19.1739L13.3372 19.1789L13.7284 19.1998L14.0996 20.4045C14.3037 21.0671 14.4736 21.6491 14.477 21.6978C14.4812 21.7582 14.3648 21.7864 14.1108 21.7864H13.9785L14.1352 22.3442ZM22.3266 21.7864H21.9499L21.5729 20.5639C21.3657 19.8917 21.181 19.3017 21.1626 19.253C21.1385 19.1888 21.237 19.1644 21.5211 19.1644H21.9129L22.1255 19.8553C22.2425 20.2353 22.4177 20.8013 22.5149 21.1131C22.6122 21.4249 22.6944 21.7039 22.6975 21.7332C22.7008 21.7625 22.5339 21.7864 22.3266 21.7864ZM20.1815 20.4968C20.3904 21.1713 20.5774 21.7391 20.5971 21.7586C20.6167 21.7783 20.7917 21.7845 20.986 21.7726L21.3392 21.7509L20.9441 20.4577L20.549 19.1644H20.1735C19.967 19.1644 19.7988 19.1883 19.7998 19.2175C19.8008 19.2468 19.9725 19.8224 20.1815 20.4968ZM19.5719 21.7723L19.204 21.7509L18.8297 20.5462C18.6238 19.8837 18.4545 19.3017 18.4535 19.253C18.4522 19.193 18.5719 19.1647 18.8236 19.1652L19.1957 19.1659L19.5591 20.3521C19.759 21.0045 19.9265 21.5958 19.9312 21.666C19.9386 21.7763 19.8894 21.7908 19.5719 21.7723ZM17.8413 21.7864H18.2173C18.4742 21.7864 18.5913 21.7583 18.587 21.6978C18.5836 21.6491 18.4106 21.0721 18.2026 20.4157C17.9946 19.7593 17.8096 19.2075 17.7916 19.1893C17.7734 19.1713 17.6016 19.1662 17.4097 19.1781L17.0607 19.1998L17.451 20.4931L17.8413 21.7864ZM16.8615 21.7864H16.476L16.2891 21.1663C16.1864 20.8253 16.0208 20.2752 15.9212 19.9439C15.8216 19.6126 15.7249 19.3017 15.7064 19.253C15.682 19.1887 15.7805 19.1644 16.065 19.1644H16.4573L16.5677 19.5364C16.6285 19.7411 16.8028 20.3071 16.9552 20.7943C17.1076 21.2814 17.2356 21.7039 17.2396 21.7332C17.2437 21.7625 17.0734 21.7864 16.8615 21.7864ZM15.1054 21.7509L15.4675 21.7723C15.7788 21.7907 15.8288 21.7759 15.8235 21.666C15.8201 21.5958 15.6537 21.0042 15.4538 20.3514L15.0903 19.1644H14.7159C14.51 19.1644 14.3422 19.1883 14.3431 19.2175C14.344 19.2468 14.5159 19.8287 14.7251 20.5108L15.1054 21.7509Z" fill="black"/>
</svg>
