<svg width="38" height="40" viewBox="0 -11 38 40" fill="none" xmlns="http://www.w3.org/2000/svg">
<path fill-rule="evenodd" clip-rule="evenodd" d="M0.515176 7.07324C0.651416 7.16867 0.85154 7.24683 0.959908 7.24683C1.06828 7.24683 1.43285 6.99698 1.7701 6.6915C2.10736 6.38613 2.59702 6.00093 2.85825 5.83559C3.11958 5.67025 3.6263 5.44348 3.98429 5.33177C4.5753 5.14725 5.11736 5.12852 9.86928 5.12852C14.3687 5.12852 15.1397 5.15238 15.3624 5.29832C15.5049 5.39164 15.7039 5.43645 15.8044 5.39788C15.9051 5.35919 15.9874 5.28282 15.9874 5.22808C15.9874 5.17334 16.2884 5.12852 16.6563 5.12852C17.0243 5.12852 17.3253 5.17334 17.3253 5.22808C17.3253 5.28282 17.4076 5.35919 17.5082 5.39788C17.6088 5.43645 17.8078 5.39164 17.9503 5.29832C18.0928 5.20489 18.4386 5.12852 18.7189 5.12852C19.0023 5.12852 19.3516 5.20924 19.5061 5.31047C19.7629 5.47871 19.7989 5.47871 19.9848 5.31047C20.1107 5.19642 20.3818 5.12852 20.7106 5.12852C20.9991 5.12852 21.3518 5.20489 21.4943 5.29832C21.6368 5.39164 21.8358 5.43645 21.9364 5.39788C22.0371 5.35919 22.1193 5.28282 22.1193 5.22808C22.1193 5.17334 22.4078 5.13008 22.7604 5.13209C23.1454 5.13421 23.4876 5.20077 23.6171 5.29865C23.8065 5.44203 23.8635 5.44158 24.087 5.2952C24.2335 5.19909 24.5971 5.12852 24.9447 5.12852C25.3452 5.12852 25.5949 5.18482 25.687 5.29575C25.7634 5.38773 25.8888 5.46299 25.9657 5.46299C26.0427 5.46299 26.1681 5.38773 26.2445 5.29575C26.3333 5.18861 26.5802 5.12852 26.931 5.12852C27.2337 5.12852 27.5946 5.20445 27.7378 5.29832C27.8802 5.39164 28.0792 5.43645 28.1798 5.39788C28.2805 5.35919 28.3628 5.28282 28.3628 5.22808C28.3628 5.17334 28.6638 5.12852 29.0317 5.12852C29.3996 5.12852 29.7006 5.17334 29.7006 5.22808C29.7006 5.28282 29.7829 5.35919 29.8836 5.39788C29.9842 5.43645 30.1832 5.39164 30.3257 5.29832C30.4681 5.20489 30.8209 5.12852 31.1094 5.12852C31.4382 5.12852 31.7092 5.19642 31.8352 5.31047C32.0211 5.47871 32.0571 5.47871 32.3139 5.31047C32.4684 5.20924 32.8177 5.12852 33.1011 5.12852C33.3814 5.12852 33.7272 5.20489 33.8697 5.29832C34.0122 5.39164 34.2112 5.43645 34.3117 5.39788C34.4124 5.35919 34.4947 5.28673 34.4947 5.23678C34.4947 5.18672 34.6829 5.08482 34.9128 5.01023C35.1428 4.93575 35.657 4.71177 36.0556 4.51254C36.4541 4.31331 36.9039 4.05019 37.055 3.92789C37.2903 3.73724 37.3122 3.66756 37.2076 3.44135C37.1298 3.27288 36.7364 3.0033 36.1197 2.69559C35.5884 2.43058 34.8579 2.15342 34.4963 2.07961C34.1347 2.00592 33.8025 1.90914 33.758 1.86466C33.7135 1.82017 33.563 1.78383 33.4235 1.78383C33.284 1.78383 33.139 1.834 33.1011 1.89532C33.0632 1.95664 32.7342 2.00681 32.3698 2.00681C32.0026 2.00681 31.7075 1.95708 31.7075 1.89532C31.7075 1.834 31.585 1.78383 31.4353 1.78383C31.2856 1.78383 31.1322 1.834 31.0943 1.89532C31.0564 1.95664 30.7302 2.00681 30.3696 2.00681C30.0089 2.00681 29.6828 1.95664 29.6449 1.89532C29.607 1.834 29.4565 1.78383 29.3104 1.78383C29.1644 1.78383 29.0139 1.834 28.976 1.89532C28.9381 1.95664 28.637 2.00681 28.307 2.00681C27.977 2.00681 27.676 1.95664 27.6381 1.89532C27.6002 1.834 27.4497 1.78383 27.3036 1.78383C27.1576 1.78383 27.007 1.834 26.9691 1.89532C26.9312 1.95664 26.6051 2.00681 26.2445 2.00681C25.8838 2.00681 25.5577 1.95664 25.5198 1.89532C25.4819 1.834 25.3314 1.78383 25.1853 1.78383C25.0393 1.78383 24.8887 1.834 24.8508 1.89532C24.8129 1.95664 24.4868 2.00681 24.1262 2.00681C23.7655 2.00681 23.4394 1.95664 23.4015 1.89532C23.3636 1.834 23.2102 1.78383 23.0604 1.78383C22.9107 1.78383 22.7883 1.834 22.7883 1.89532C22.7883 1.95708 22.4932 2.00681 22.1259 2.00681C21.7616 2.00681 21.4326 1.95664 21.3947 1.89532C21.3567 1.834 21.2062 1.78383 21.0602 1.78383C20.9141 1.78383 20.7636 1.834 20.7257 1.89532C20.6878 1.95664 20.3588 2.00681 19.9945 2.00681C19.6272 2.00681 19.3321 1.95708 19.3321 1.89532C19.3321 1.834 19.2097 1.78383 19.0599 1.78383C18.9102 1.78383 18.7568 1.834 18.7189 1.89532C18.681 1.95664 18.3549 2.00681 17.9942 2.00681C17.6335 2.00681 17.3074 1.95664 17.2695 1.89532C17.2316 1.834 17.0811 1.78383 16.9351 1.78383C16.789 1.78383 16.6385 1.834 16.6006 1.89532C16.5627 1.95664 16.2617 2.00681 15.9317 2.00681C15.6016 2.00681 15.3006 1.95664 15.2627 1.89532C15.2248 1.834 15.0814 1.78383 14.944 1.78383C14.8065 1.78383 14.6421 1.83589 14.5784 1.89955C14.5008 1.97715 12.758 2.00469 9.2882 1.98317L4.11373 1.95106L3.38682 1.60656C2.98702 1.41714 2.3532 0.97809 1.97826 0.631022C1.46897 0.15942 1.21321 -1.04904e-05 0.966487 -1.04904e-05C0.784982 -1.04904e-05 0.553305 0.0917468 0.451849 0.203906C0.289074 0.383739 0.267334 0.789783 0.267334 3.65373C0.267334 6.8817 0.268672 6.90065 0.515176 7.07324ZM3.03384 2.43381C2.56257 2.20871 1.94983 1.81527 1.67233 1.5594L1.16761 1.09426L1.13562 3.5574C1.11789 4.91223 1.11677 6.02055 1.13294 6.02055C1.14911 6.02044 1.42895 5.80337 1.75461 5.53802C2.08038 5.27279 2.58164 4.942 2.86861 4.80308C3.15559 4.66416 3.6535 4.48054 3.97504 4.39492C4.43549 4.27228 5.66991 4.23894 9.78377 4.23794C14.5648 4.23671 15.0019 4.22122 14.9382 4.05499C14.8998 3.95509 14.8137 3.65596 14.7467 3.39006L14.6251 2.90675L9.25787 2.87487L3.89075 2.84298L3.03384 2.43381ZM16.12 2.9208L16.6985 2.95447L16.8425 3.51192C16.9217 3.81852 16.9875 4.10694 16.9887 4.15298C16.9898 4.19903 16.7464 4.2366 16.4476 4.2366H15.9044L15.732 3.65128C15.6371 3.32941 15.5554 3.02571 15.5505 2.97654C15.5455 2.92727 15.8018 2.90218 16.12 2.9208ZM18.7364 2.89872H18.198C17.7546 2.89872 17.6621 2.93306 17.6731 3.09383C17.6805 3.20108 17.7378 3.50222 17.8004 3.76277L17.9144 4.2366L18.456 4.2366C18.7539 4.2366 18.9976 4.19022 18.9976 4.13358C18.9976 4.07695 18.9389 3.77592 18.867 3.46465L18.7364 2.89872ZM20.2197 2.89872H20.7729L20.8953 3.37256C20.9626 3.63311 21.0432 3.93424 21.0743 4.04149C21.123 4.20895 21.0515 4.2366 20.5703 4.2366H20.0096L19.8879 3.76277C19.8209 3.50222 19.7476 3.23877 19.7251 3.17745C19.7026 3.11613 19.6802 3.02839 19.6754 2.98234C19.6706 2.9363 19.9155 2.89872 20.2197 2.89872ZM22.9401 3.26107C22.872 2.90586 22.8587 2.89872 22.272 2.89872C21.9427 2.89872 21.6784 2.91132 21.6844 2.9266C21.6905 2.94187 21.7712 3.24289 21.8637 3.59554L22.0319 4.2366H22.5903C23.142 4.2366 23.1479 4.23292 23.0793 3.93C23.041 3.76143 22.9785 3.46041 22.9401 3.26107ZM24.3857 2.89872H24.9798L25.1104 3.46465C25.1823 3.77592 25.2411 4.07962 25.2411 4.13949C25.2411 4.20059 24.9867 4.23348 24.6605 4.21453L24.0801 4.18086L23.9469 3.67915C23.8735 3.40322 23.8086 3.11468 23.8026 3.03809C23.7951 2.94265 23.979 2.89872 24.3857 2.89872ZM26.9975 2.89872H26.4537C26.0873 2.89872 25.9136 2.9441 25.9209 3.03809C25.9269 3.11468 25.9918 3.40322 26.0652 3.67915L26.1984 4.18086L26.7678 4.21419L27.3372 4.24753L27.1674 3.57313L26.9975 2.89872ZM28.4953 2.9208L29.0738 2.95447L29.2179 3.51192C29.2971 3.81852 29.3628 4.10694 29.3641 4.15298C29.3652 4.19903 29.1226 4.2366 28.8249 4.2366H28.2835L28.1131 3.65128C28.0195 3.32941 27.9369 3.02571 27.9297 2.97654C27.9226 2.92727 28.1771 2.90218 28.4953 2.9208ZM31.1026 2.89872H30.5689C30.1298 2.89872 30.0375 2.93329 30.0485 3.09383C30.0558 3.20108 30.1132 3.50222 30.1758 3.76277L30.2898 4.2366H30.8754H31.4612L31.2819 3.56766L31.1026 2.89872ZM32.595 2.89872H33.1482L33.2707 3.37256C33.338 3.63311 33.4186 3.93424 33.4497 4.04149C33.4983 4.20895 33.4269 4.2366 32.9457 4.2366H32.385L32.2632 3.76277C32.1962 3.50222 32.123 3.23877 32.1005 3.17745C32.0779 3.11613 32.0555 3.02839 32.0507 2.98234C32.0459 2.9363 32.2909 2.89872 32.595 2.89872ZM35.303 3.27177C35.0117 3.14043 34.6104 2.99884 34.4111 2.95703C34.2117 2.91523 34.0538 2.8975 34.0598 2.91779C34.0659 2.93797 34.1454 3.23821 34.2365 3.58506C34.3959 4.19212 34.4132 4.21241 34.6993 4.12834C34.8627 4.0804 35.1846 3.95041 35.4145 3.83947C35.6445 3.72854 35.8326 3.60925 35.8326 3.57424C35.8326 3.53923 35.5943 3.40311 35.303 3.27177Z" fill="black"/>
<path fill-rule="evenodd" clip-rule="evenodd" d="M34.8225 16.991C35.1925 17.3283 35.5468 17.6512 36.0195 17.3201C36.2038 17.191 36.253 16.9599 36.2571 16.5C36.2584 16.3552 36.3341 16.2472 36.4373 16.1001C36.6616 15.7802 37.0157 15.2753 37.0156 13.8042C37.0156 11.9191 36.6448 11.6615 36.4216 11.5065C36.3274 11.441 36.2595 11.3939 36.2571 11.25C36.2529 11 36.1942 10.5738 36.0828 10.4507C35.9814 10.3386 35.7497 10.2468 35.5682 10.2468C35.3214 10.2468 35.0657 10.4063 34.5564 10.8779C34.2839 11.1301 34.178 11.3432 34.0835 11.5332C33.9596 11.7825 33.8554 11.992 33.4209 12.1979L28.2465 12.23C24.7767 12.2515 23.0339 12.224 22.9563 12.1464C22.8926 12.0827 22.7282 12.0307 22.5907 12.0307C22.4532 12.0307 22.3099 12.0808 22.2719 12.1422C22.234 12.2035 21.933 12.2536 21.603 12.2536C21.273 12.2536 20.972 12.2035 20.9341 12.1422C20.8962 12.0808 20.7457 12.0307 20.5996 12.0307C20.4536 12.0307 20.303 12.0808 20.2651 12.1422C20.2272 12.2035 19.9011 12.2536 19.5404 12.2536C19.1798 12.2536 18.8537 12.2035 18.8158 12.1422C18.7779 12.0808 18.6244 12.0307 18.4747 12.0307C18.325 12.0307 18.2026 12.0808 18.2026 12.1422C18.2026 12.2039 17.9075 12.2536 17.5402 12.2536C17.1759 12.2536 16.8469 12.2035 16.8089 12.1422C16.771 12.0808 16.6205 12.0307 16.4745 12.0307C16.3284 12.0307 16.1779 12.0808 16.14 12.1422C16.1021 12.2035 15.7731 12.2536 15.4087 12.2536C15.0415 12.2536 14.7464 12.2039 14.7464 12.1422C14.7464 12.0808 14.624 12.0307 14.4742 12.0307C14.3245 12.0307 14.1711 12.0808 14.1332 12.1422C14.0953 12.2035 13.7692 12.2536 13.4085 12.2536C13.0478 12.2536 12.7217 12.2035 12.6838 12.1422C12.6459 12.0808 12.4954 12.0307 12.3494 12.0307C12.2033 12.0307 12.0528 12.0808 12.0149 12.1422C11.977 12.2035 11.6509 12.2536 11.2902 12.2536C10.9295 12.2536 10.6034 12.2035 10.5655 12.1422C10.5276 12.0808 10.3771 12.0307 10.231 12.0307C10.085 12.0307 9.93449 12.0808 9.89658 12.1422C9.85867 12.2035 9.55765 12.2536 9.22764 12.2536C8.89763 12.2536 8.59661 12.2035 8.5587 12.1422C8.5208 12.0808 8.37029 12.0307 8.22424 12.0307C8.07818 12.0307 7.92767 12.0808 7.88976 12.1422C7.85186 12.2035 7.52575 12.2536 7.16508 12.2536C6.80441 12.2536 6.4783 12.2035 6.4404 12.1422C6.40249 12.0808 6.24908 12.0307 6.09935 12.0307C5.94962 12.0307 5.8272 12.0808 5.8272 12.1422C5.8272 12.2039 5.53209 12.2536 5.16484 12.2536C4.8005 12.2536 4.47149 12.2035 4.43359 12.1422C4.39568 12.0808 4.25063 12.0307 4.11116 12.0307C3.97169 12.0307 3.82117 12.067 3.77669 12.1115C3.7322 12.156 3.39996 12.2528 3.0384 12.3264C2.67673 12.4003 1.94625 12.6774 1.415 12.9424C0.798239 13.2501 0.404903 13.5197 0.327084 13.6882C0.222506 13.9144 0.244358 13.9841 0.479713 14.1747C0.630782 14.297 1.08053 14.5601 1.47911 14.7594C1.87768 14.9586 2.39188 15.1826 2.62188 15.2571C2.85177 15.3317 3.03996 15.4336 3.03996 15.4836C3.03996 15.5336 3.12224 15.606 3.22292 15.6447C3.32348 15.6833 3.52249 15.6385 3.66497 15.5452C3.80746 15.4517 4.1533 15.3754 4.43359 15.3754C4.71699 15.3754 5.06629 15.4561 5.22081 15.5573C5.47757 15.7255 5.51358 15.7255 5.69944 15.5573C5.82542 15.4433 6.09645 15.3754 6.42524 15.3754C6.71377 15.3754 7.06652 15.4517 7.20901 15.5452C7.35149 15.6385 7.5505 15.6833 7.65107 15.6447C7.75174 15.606 7.83402 15.5297 7.83402 15.4749C7.83402 15.4202 8.13504 15.3754 8.50296 15.3754C8.87087 15.3754 9.1719 15.4202 9.1719 15.4749C9.1719 15.5297 9.25418 15.606 9.35485 15.6447C9.45541 15.6833 9.65442 15.6385 9.79691 15.5452C9.94006 15.4513 10.301 15.3754 10.6036 15.3754C10.9545 15.3754 11.2013 15.4355 11.2902 15.5426C11.3666 15.6346 11.492 15.7098 11.5689 15.7098C11.6459 15.7098 11.7713 15.6346 11.8477 15.5426C11.9397 15.4317 12.1895 15.3754 12.5899 15.3754C12.9376 15.3754 13.3011 15.4459 13.4476 15.542C13.6712 15.6884 13.7282 15.6889 13.9176 15.5455C14.047 15.4476 14.3893 15.381 14.7743 15.3789C15.1269 15.3769 15.4153 15.4202 15.4153 15.4749C15.4153 15.5297 15.4976 15.606 15.5983 15.6447C15.6988 15.6833 15.8979 15.6385 16.0403 15.5452C16.1828 15.4517 16.5356 15.3754 16.8241 15.3754C17.1529 15.3754 17.4239 15.4433 17.5499 15.5573C17.7358 15.7255 17.7718 15.7255 18.0285 15.5573C18.1831 15.4561 18.5324 15.3754 18.8158 15.3754C19.096 15.3754 19.4419 15.4517 19.5844 15.5452C19.7269 15.6385 19.9259 15.6833 20.0264 15.6447C20.1271 15.606 20.2094 15.5297 20.2094 15.4749C20.2094 15.4202 20.5104 15.3754 20.8783 15.3754C21.2462 15.3754 21.5473 15.4202 21.5473 15.4749C21.5473 15.5297 21.6295 15.606 21.7302 15.6447C21.8308 15.6833 22.0298 15.6385 22.1723 15.5452C22.3949 15.3992 23.166 15.3754 27.6654 15.3754C32.4173 15.3754 32.9594 15.3941 33.5504 15.5786C34.0466 15.7334 34.1541 15.9658 34.2856 16.2501C34.3807 16.4556 34.4883 16.6882 34.7646 16.9383C34.7839 16.9559 34.8032 16.9735 34.8225 16.991ZM35.367 11.3411L34.8623 11.8062C34.6006 12.0476 34.4779 12.247 34.3691 12.4238C34.2161 12.6725 34.0906 12.8765 33.6439 13.0898L28.2768 13.1217L22.9096 13.1536L22.7879 13.6369C22.7209 13.9028 22.6348 14.2019 22.5965 14.3018C22.5327 14.4681 22.9699 14.4835 27.7509 14.4848C31.8648 14.4858 33.0992 14.5191 33.5596 14.6418C34.0413 14.77 34.1513 14.9569 34.293 15.1978C34.3927 15.3673 34.5082 15.5635 34.7801 15.7849C35.1057 16.0502 35.3856 16.2673 35.4017 16.2674C35.4179 16.2674 35.4168 15.1591 35.399 13.8042L35.367 11.3411ZM20.8362 13.2013L21.4147 13.1676C21.7329 13.149 21.9892 13.1741 21.9842 13.2234C21.9793 13.2725 21.8976 13.5762 21.8027 13.8981L21.6302 14.4834H21.087C20.7882 14.4834 20.5449 14.4459 20.546 14.3998C20.5472 14.3538 20.613 14.0654 20.6921 13.7588L20.8362 13.2013ZM19.3366 13.1456H18.7983L18.6677 13.7115C18.5958 14.0228 18.537 14.3238 18.537 14.3804C18.537 14.4371 18.7808 14.4834 19.0787 14.4834H19.6203L19.7342 14.0096C19.7969 13.7491 19.8542 13.4479 19.8615 13.3407C19.8726 13.1799 19.78 13.1456 19.3366 13.1456ZM16.7618 13.1456H17.315C17.6191 13.1456 17.8641 13.1831 17.8593 13.2292C17.8545 13.2752 17.8321 13.363 17.8096 13.4243C17.7871 13.4856 17.7138 13.7491 17.6468 14.0096L17.525 14.4834H16.9644C16.4832 14.4834 16.4117 14.4558 16.4603 14.2883C16.4914 14.1811 16.572 13.8799 16.6394 13.6194L16.7618 13.1456ZM15.2627 13.1456C14.6759 13.1456 14.6627 13.1527 14.5945 13.5079C14.5562 13.7072 14.4936 14.0083 14.4554 14.1768C14.3867 14.4798 14.3926 14.4834 14.9444 14.4834H15.5027L15.671 13.8424C15.7635 13.4897 15.8441 13.1887 15.8502 13.1734C15.8563 13.1582 15.5919 13.1456 15.2627 13.1456ZM12.5548 13.1456H13.149C13.5557 13.1456 13.7395 13.1895 13.7321 13.2849C13.726 13.3615 13.6611 13.6501 13.5878 13.926L13.4546 14.4277L12.8741 14.4614C12.5479 14.4803 12.2936 14.4474 12.2936 14.3863C12.2936 14.3265 12.3524 14.0228 12.4243 13.7115L12.5548 13.1456ZM11.0809 13.1456H10.5372L10.3673 13.82L10.1975 14.4944L10.7669 14.461L11.3362 14.4277L11.4695 13.926C11.5428 13.6501 11.6077 13.3615 11.6137 13.2849C11.6211 13.1909 11.4474 13.1456 11.0809 13.1456ZM8.46082 13.2013L9.03934 13.1676C9.35753 13.149 9.61206 13.1741 9.60492 13.2234C9.59779 13.2725 9.51518 13.5762 9.42152 13.8981L9.25117 14.4834H8.70977C8.4121 14.4834 8.1695 14.4459 8.17061 14.3998C8.17184 14.3538 8.23761 14.0654 8.31677 13.7588L8.46082 13.2013ZM6.96574 13.1456H6.43204L6.25276 13.8145L6.07348 14.4834H6.65925H7.24491L7.35885 14.0096C7.42151 13.7491 7.47882 13.4479 7.48617 13.3407C7.49721 13.1801 7.4049 13.1456 6.96574 13.1456ZM4.38643 13.1456H4.93964C5.24378 13.1456 5.48872 13.1831 5.48392 13.2292C5.47913 13.2752 5.45672 13.363 5.4342 13.4243C5.41168 13.4856 5.33843 13.7491 5.27143 14.0096L5.14968 14.4834H4.589C4.10781 14.4834 4.03635 14.4558 4.08496 14.2883C4.11606 14.1811 4.19667 13.8799 4.26401 13.6194L4.38643 13.1456ZM3.12358 13.2039C2.92424 13.2457 2.52299 13.3873 2.23166 13.5186C1.94034 13.6499 1.70209 13.7861 1.70209 13.8211C1.70209 13.8561 1.89017 13.9754 2.12017 14.0863C2.35007 14.1972 2.67194 14.3272 2.83538 14.3752C3.12146 14.4592 3.13875 14.439 3.29818 13.8319C3.38926 13.485 3.46876 13.1848 3.47489 13.1646C3.48091 13.1443 3.32292 13.1621 3.12358 13.2039ZM36.4618 15.0027C36.3974 15.3411 36.3099 15.5312 36.2188 15.5312V13.7266V11.9219C36.3099 11.9219 36.3974 12.112 36.4618 12.4505C36.5263 12.7889 36.5625 13.2479 36.5625 13.7266C36.5625 14.2052 36.5263 14.6642 36.4618 15.0027Z" fill="black"/>
</svg>
