<svg width="44" height="40" viewBox="0 -9 44 40" fill="none" xmlns="http://www.w3.org/2000/svg">
<mask id="mask0_937_4700" style="mask-type:alpha" maskUnits="userSpaceOnUse" x="0" y="0" width="23" height="22">
<rect x="0.504395" y="0.522827" width="21.7455" height="21" fill="#D9D9D9"/>
</mask>
<g mask="url(#mask0_937_4700)">
<path fill-rule="evenodd" clip-rule="evenodd" d="M1.54242 15.6901C1.29196 15.1938 0.957812 14.2953 0.800105 13.6933C0.615832 12.9906 0.510029 12.0444 0.504654 11.0495C0.498819 9.98577 0.591109 9.12889 0.799031 8.31594C0.965644 7.66484 1.36091 6.63444 1.67771 6.02649C2.07773 5.25838 2.65558 4.51623 3.5705 3.59563C4.68643 2.47295 5.10949 2.1643 6.33905 1.57585C7.13726 1.19379 8.17042 0.790688 8.63494 0.680277C9.09946 0.569866 10.2051 0.478949 11.0919 0.478334C12.3442 0.477413 12.9615 0.556513 13.856 0.832001C14.4894 1.02718 15.4818 1.43488 16.0611 1.73816C16.6605 2.05173 17.6298 2.77393 18.3093 3.4132C19.4158 4.45419 19.5531 4.53696 20.1735 4.53758C20.5663 4.53788 21.0462 4.66195 21.3346 4.83793C21.605 5.0027 21.9333 5.34454 22.064 5.59745C22.1987 5.85789 22.3017 6.44356 22.3016 6.94786L22.3012 7.83852L23.7988 7.79599C24.6223 7.77264 25.456 7.67237 25.6513 7.57301C25.9245 7.43419 26.0744 7.43511 26.3018 7.57715C26.4644 7.67866 26.9793 7.76174 27.4462 7.76174C27.913 7.76174 28.4322 7.67606 28.6 7.57117C28.8428 7.41961 28.9672 7.41961 29.21 7.57117C29.3778 7.67606 29.8624 7.76174 30.287 7.76174C30.7116 7.76174 31.1912 7.67928 31.3526 7.57839C31.5803 7.43619 31.7368 7.43619 32.0488 7.57839C32.2703 7.67928 32.7945 7.76174 33.2141 7.76174C33.6334 7.76174 34.1139 7.67606 34.2818 7.57117C34.5245 7.41961 34.6489 7.41961 34.8917 7.57117C35.0596 7.67606 35.6331 7.76174 36.1663 7.76174C36.7157 7.76174 37.2157 7.84158 37.3201 7.946C37.4502 8.07607 37.5044 8.96581 37.5044 10.969C37.5044 13.6721 37.4884 13.8246 37.1706 14.1631C36.9869 14.3584 36.7145 14.5184 36.5654 14.5184C36.4161 14.5184 36.2513 14.4493 36.1991 14.3649C36.1469 14.2804 35.6592 14.2113 35.1151 14.2113C34.5582 14.2113 34.1261 14.2784 34.1261 14.3649C34.1261 14.4493 33.9574 14.5184 33.7512 14.5184C33.545 14.5184 33.3337 14.4493 33.2815 14.3649C33.2293 14.2804 32.7801 14.2113 32.2833 14.2113C31.7866 14.2113 31.3374 14.2804 31.2852 14.3649C31.233 14.4493 31.0257 14.5184 30.8245 14.5184C30.6233 14.5184 30.416 14.4493 30.3638 14.3649C30.3116 14.2804 29.8919 14.2113 29.4312 14.2113C28.9706 14.2113 28.4564 14.297 28.2886 14.4019C28.0458 14.5534 27.9214 14.5534 27.6786 14.4019C27.4678 14.2701 26.5897 14.2113 24.8378 14.2113H22.3019V15.0636C22.3019 15.5325 22.195 16.1225 22.064 16.3756C21.9333 16.6285 21.605 16.9703 21.3346 17.1351C21.0344 17.3183 20.566 17.4352 20.1314 17.4355C19.5044 17.4361 19.3581 17.5046 18.8996 18.0119C18.6133 18.3286 18.0352 18.8714 17.6147 19.218C17.1944 19.5647 16.4704 20.0591 16.0059 20.3167C15.5413 20.5743 14.6776 20.9356 14.0864 21.1197C13.4391 21.3213 12.3996 21.4879 11.474 21.5386C10.2194 21.6071 9.69681 21.5627 8.6331 21.2971C7.91627 21.118 6.83659 20.7234 6.23401 20.4202C5.63129 20.1169 4.71407 19.5115 4.19565 19.0747C3.67722 18.638 2.97054 17.9007 2.62548 17.4364C2.28028 16.9722 1.79288 16.1862 1.54242 15.6901ZM6.32431 8.76388C6.53054 8.34373 7.00028 7.69909 7.36821 7.33116C7.73615 6.96338 8.42947 6.48272 8.90889 6.26313C9.6036 5.94511 10.0151 5.8645 10.9353 5.86603C11.5896 5.86726 12.3729 5.97107 12.7427 6.1059C13.1016 6.23673 13.6889 6.57041 14.048 6.84759C14.4068 7.12461 14.8667 7.55383 15.0698 7.80137C15.2729 8.04891 15.6092 8.67281 15.8173 9.18786C16.1361 9.97716 16.1849 10.307 16.1281 11.2887C16.0733 12.2348 15.9646 12.6333 15.5483 13.4145C15.2665 13.943 14.7909 14.5909 14.4914 14.8538C14.1918 15.1168 13.5636 15.5117 13.0953 15.7314C12.3838 16.0651 12.0288 16.1302 10.9384 16.1268C9.75041 16.1231 9.54586 16.0758 8.66243 15.6006C8.12865 15.3133 7.42242 14.7722 7.09303 14.398C6.7638 14.0239 6.3544 13.3624 6.18318 12.928C5.94117 12.3134 5.88067 11.8486 5.91061 10.833C5.94071 9.81362 6.03131 9.36031 6.32431 8.76388ZM19.1889 5.76545C17.996 5.76545 17.8426 5.79893 17.627 6.10682C17.4237 6.39689 17.3879 7.12738 17.3879 10.9865C17.3879 14.8457 17.4237 15.5761 17.627 15.8662C17.8434 16.1753 17.9946 16.2076 19.2283 16.2076C20.2621 16.2076 20.6489 16.1494 20.8321 15.9663C21.041 15.7573 21.0734 15.0906 21.0734 10.9994C21.0734 6.61633 21.053 6.25531 20.7925 6.01959C20.5771 5.82457 20.2044 5.76545 19.1889 5.76545ZM1.891 8.95935C1.98237 8.51188 2.34293 7.55827 2.69228 6.84037C3.17124 5.8562 3.59307 5.26974 4.40725 4.45649C5.15816 3.70619 5.86086 3.18608 6.71543 2.74782C7.39109 2.40139 8.32398 2.02423 8.7885 1.90998C9.25302 1.79573 10.2896 1.70684 11.0919 1.71252C11.9999 1.71897 12.8987 1.82446 13.4721 1.99199C13.9789 2.14003 14.8426 2.4989 15.3916 2.78943C15.9406 3.07997 16.7007 3.59686 17.0808 3.93807C17.4925 4.30754 17.6973 4.58917 17.5875 4.63462C17.4862 4.6767 17.2187 4.85621 16.9931 5.03373C16.7675 5.21109 16.4876 5.5844 16.3712 5.86311C16.2546 6.14182 16.1594 6.53203 16.1594 6.73043C16.1594 7.05982 16.0952 7.0291 15.4165 6.37493C15.0079 5.98105 14.2995 5.47614 13.8425 5.25286C13.3853 5.02958 12.6314 4.77682 12.1668 4.69129C11.6291 4.59224 10.9213 4.58611 10.2183 4.67425C9.61113 4.75057 8.73521 4.98658 8.27192 5.19865C7.80863 5.41087 7.11714 5.87233 6.73539 6.22414C6.35364 6.57595 5.83583 7.18681 5.5846 7.58162C5.33353 7.97627 5.01075 8.70706 4.86747 9.20551C4.67813 9.86414 4.62623 10.4724 4.67752 11.4321C4.73019 12.4175 4.84997 12.9776 5.14956 13.6402C5.37161 14.1311 5.93273 14.928 6.40493 15.4232C7.00243 16.0496 7.57844 16.4657 8.3226 16.8088C9.04925 17.1437 9.72261 17.3272 10.4479 17.388C11.091 17.4419 11.8359 17.4001 12.3373 17.2819C12.7926 17.1747 13.5024 16.9178 13.9148 16.7111C14.3271 16.5044 14.9919 16.0292 15.3921 15.6549L16.1195 14.9745L16.2198 15.6018C16.2749 15.9469 16.4325 16.4006 16.5697 16.6102C16.707 16.8197 17.0321 17.1012 17.2922 17.2357L17.7651 17.4801L17.0315 18.1257C16.6281 18.4807 15.7895 19.0259 15.1682 19.3372C14.5467 19.6484 13.5653 20.0033 12.9873 20.1257C12.4095 20.2482 11.5219 20.3484 11.0151 20.3484C10.5084 20.3484 9.61005 20.2473 9.01884 20.1237C8.42763 20.0001 7.42565 19.6389 6.79221 19.321C5.98079 18.9138 5.29821 18.4024 4.48219 17.5904C3.75953 16.8714 3.12686 16.0625 2.80039 15.4398C2.51262 14.8908 2.15774 14.027 2.01186 13.5203C1.85261 12.967 1.7422 12.0344 1.7356 11.186C1.72961 10.409 1.79948 9.40698 1.891 8.95935ZM25.6513 8.98009L24.015 9.02355L22.3786 9.06701L22.3356 11.0249L22.2927 12.9828H24.6007C25.8702 12.9828 26.9087 12.9311 26.9087 12.8678C26.9087 12.8047 26.6258 11.904 26.28 10.8666L25.6513 8.98009ZM27.7967 8.99023H28.5311L29.1232 10.7946C29.4489 11.787 29.7477 12.6852 29.7873 12.7909C29.8389 12.9288 29.6384 12.9828 29.075 12.9828C28.6436 12.9828 28.2907 12.9621 28.2907 12.9366C28.2907 12.9112 28.0166 12.0994 27.6816 11.1322C27.3465 10.1653 27.0701 9.28767 27.0673 9.18218C27.0639 9.05472 27.3089 8.99023 27.7967 8.99023ZM31.4043 9.06701L30.6153 9.02063C30.1814 8.99499 29.8349 9.02954 29.8452 9.09741C29.8557 9.16513 30.1494 10.0645 30.4979 11.096L31.1316 12.9715L31.9378 12.9771C32.3811 12.9802 32.7409 12.9656 32.7372 12.9444C32.7334 12.9232 32.432 12.0422 32.0674 10.9865L31.4043 9.06701ZM33.4991 8.99023H34.2541L34.8811 10.8715C35.226 11.9063 35.5081 12.8047 35.5081 12.8678C35.5081 12.9311 35.1756 12.9828 34.7693 12.9828H34.0304L33.4039 11.1785C33.0591 10.186 32.7698 9.28767 32.7606 9.18218C32.7494 9.05242 32.9885 8.99023 33.4991 8.99023ZM36.2639 10.0268C36.2748 9.08866 36.2467 8.99023 35.9688 8.99023C35.7741 8.99023 35.666 9.08866 35.6736 9.25896C35.6801 9.40684 35.8129 9.8732 35.9688 10.2955L36.2521 11.0633L36.2639 10.0268Z" fill="black"/>
</g>
<mask id="mask1_937_4700" style="mask-type:alpha" maskUnits="userSpaceOnUse" x="22" y="0" width="22" height="22">
<rect x="22.25" y="0.522827" width="21" height="21" fill="#D9D9D9"/>
</mask>
<g mask="url(#mask1_937_4700)">
<path fill-rule="evenodd" clip-rule="evenodd" d="M3.90894 14.1655H19.9375C35.0505 14.1655 36.3596 14.1508 36.6519 13.9782C36.8264 13.8752 37.0362 13.6654 37.1182 13.5122C37.2265 13.3097 37.2673 12.6734 37.2673 11.1825C37.2673 9.27551 37.2508 9.10906 37.032 8.81444C36.9026 8.64013 36.6754 8.43519 36.527 8.35898C36.3165 8.25079 32.6583 8.21992 19.8987 8.21869L3.90894 8.21704V9.11497L9.40456 9.11602L15.2689 9.11714L15.8974 11.1924L16.526 13.2676H10.0331H3.90894V14.1655ZM17.4163 9.1149H16.8197C16.4914 9.1149 16.2271 9.15272 16.2322 9.19907C16.2373 9.24543 16.3675 9.6873 16.5215 10.1811C16.6755 10.675 16.953 11.5715 17.1382 12.1733L17.4749 13.2676H18.0956C18.5454 13.2676 18.7016 13.229 18.6633 13.1274C18.6342 13.0501 18.3417 12.1158 18.0134 11.051L17.4163 9.1149ZM19.5591 9.15878C19.5901 9.18976 19.8863 10.0891 20.2172 11.1573C20.5482 12.2254 20.8203 13.1371 20.8218 13.1835C20.8234 13.2298 20.5569 13.2676 20.2299 13.2676H19.6351L19.0094 11.2193L18.3836 9.17101L18.9431 9.13667C19.2509 9.11781 19.528 9.12769 19.5591 9.15878ZM21.7655 9.17101L21.1828 9.13712C20.6798 9.10782 20.602 9.13083 20.6137 9.30547C20.6211 9.4167 20.8864 10.3532 21.203 11.3865L21.7786 13.2652L22.3679 13.2664C22.7667 13.2672 22.9561 13.2223 22.9541 13.1274C22.9525 13.0501 22.6844 12.1284 22.3583 11.079L21.7655 9.17101ZM23.3282 9.1149H23.9237L24.5419 11.1632L25.1601 13.2115L24.6073 13.2459C24.3034 13.2647 24.0312 13.2568 24.0025 13.2281C23.9739 13.1994 23.6809 12.3254 23.3515 11.2858C23.0221 10.2461 22.748 9.3323 22.7426 9.25519C22.7358 9.15934 22.9213 9.1149 23.3282 9.1149ZM26.0862 9.1149H25.4756C25.1399 9.1149 24.8703 9.15272 24.8767 9.19907C24.8831 9.24543 25.0858 9.91458 25.3271 10.6862C25.5685 11.4578 25.8446 12.3543 25.9408 12.6784L26.1157 13.2676H26.737C27.1877 13.2676 27.3438 13.2292 27.3051 13.1274C27.2758 13.0501 27.1227 12.5578 26.9649 12.033C26.8072 11.5083 26.5449 10.637 26.3821 10.097L26.0862 9.1149ZM27.6834 9.13712L28.2569 9.17101L28.8593 11.1352C29.1906 12.2154 29.4628 13.1371 29.4643 13.1835C29.4657 13.2298 29.2 13.2676 28.8739 13.2676H28.2808L27.7051 11.3877C27.3885 10.3538 27.1249 9.4167 27.1196 9.30547C27.1112 9.13151 27.1903 9.10794 27.6834 9.13712ZM30.4223 9.1149H29.8323C29.4299 9.1149 29.2455 9.15945 29.2523 9.25519C29.2576 9.3323 29.5267 10.2541 29.85 11.3035L30.4379 13.2115L31.0575 13.2446L31.6769 13.2779L31.0496 11.1963L30.4223 9.1149ZM31.9723 9.1149H32.5697L33.1545 11.0233C33.476 12.0728 33.7681 13.0071 33.8036 13.0996C33.8561 13.2364 33.752 13.2676 33.2436 13.2676H32.6191L32.2687 12.1172C32.0761 11.4844 31.7984 10.588 31.6519 10.125C31.5053 9.66205 31.3831 9.24543 31.3801 9.19907C31.3772 9.15272 31.6437 9.1149 31.9723 9.1149ZM35.3711 11.1941C35.0379 10.1046 34.7405 9.1883 34.71 9.15777C34.6796 9.12724 34.4017 9.11781 34.0925 9.13667L33.5305 9.17101L34.1582 11.2193L34.7861 13.2676H35.3814C35.7087 13.2676 35.9766 13.2468 35.9766 13.2213C35.9766 13.1957 35.7041 12.2834 35.3711 11.1941ZM35.9125 9.1149C36.0006 9.1149 36.1521 9.19424 36.2492 9.29122C36.3804 9.42253 36.4255 9.69987 36.4255 10.3762C36.4255 10.8759 36.4024 11.2618 36.3742 11.2336C36.3461 11.2053 36.1995 10.8055 36.0486 10.345C35.8977 9.8845 35.7693 9.41928 35.7632 9.31131C35.757 9.20334 35.8243 9.1149 35.9125 9.1149Z" fill="black"/>
</g>
</svg>
