<svg width="38" height="40" viewBox="0 -8.5 38 40" fill="none" xmlns="http://www.w3.org/2000/svg">
<path fill-rule="evenodd" clip-rule="evenodd" d="M0.267334 17.4338L0.267334 5.78837L4.3222 3.35545L7.92475 2.79505L11.9503 4.58419L18.3161 2.55553V0.328398H26.5885V4.61498H26.7389V3.33653L35.3157 3.33653L37.2673 4.84464V18.2979L35.3157 19.806L26.7389 19.806V18.1516H26.5885V22.5886H18.3161V20.372L11.9649 18.5574L7.9225 20.5037L4.31696 19.7826L0.267334 17.4338ZM12.3751 17.736L18.3161 19.4335V3.50268L12.3751 5.39599L12.3751 17.736ZM11.4726 5.35944L7.80098 3.7276L4.92994 4.1742L4.92994 18.9849L7.80323 19.5596L11.4726 17.7928L11.4726 5.35944ZM4.0275 18.5715L4.0275 4.58469L1.16977 6.29932L1.16977 16.914L4.0275 18.5715ZM26.5885 17.2491H26.7389V5.51742H26.5885V17.2491ZM19.2186 21.6861H25.686V1.23084H19.2186V21.6861ZM27.6413 18.9036L34.7104 18.9036V4.23897L27.6413 4.23897V18.9036ZM35.6129 4.70665V18.4359L36.3649 17.8548V5.28777L35.6129 4.70665Z" fill="black"/>
</svg>
