<svg width="38" height="40" viewBox="0 -12.5 38 40" fill="none" xmlns="http://www.w3.org/2000/svg">
<path fill-rule="evenodd" clip-rule="evenodd" d="M3.90894 10.2101H19.9375C35.0505 10.2101 36.3596 10.1954 36.6519 10.0228C36.8264 9.91977 37.0362 9.71 37.1182 9.5568C37.2265 9.35433 37.2673 8.71794 37.2673 7.2271C37.2673 5.32009 37.2508 5.15365 37.032 4.85902C36.9026 4.68472 36.6754 4.47978 36.527 4.40357C36.3165 4.29537 32.6583 4.26451 19.8987 4.26327L3.90894 4.26163V5.15955L9.40456 5.16061L15.2689 5.16173L15.8974 7.23698L16.526 9.31223H10.0331H3.90894V10.2101ZM17.4163 5.15948H16.8197C16.4914 5.15948 16.2271 5.19731 16.2322 5.24366C16.2373 5.29001 16.3675 5.73189 16.5215 6.22573C16.6755 6.71957 16.953 7.61612 17.1382 8.21793L17.4749 9.31223H18.0956C18.5454 9.31223 18.7016 9.27363 18.6633 9.17194C18.6342 9.09472 18.3417 8.16035 18.0134 7.09556L17.4163 5.15948ZM19.5591 5.20337C19.5901 5.23434 19.8863 6.1337 20.2172 7.20185C20.5482 8.27001 20.8203 9.1817 20.8218 9.22806C20.8234 9.27441 20.5569 9.31223 20.2299 9.31223H19.6351L19.0094 7.26392L18.3836 5.2156L18.9431 5.18125C19.2509 5.1624 19.528 5.17228 19.5591 5.20337ZM21.7655 5.2156L21.1828 5.1817C20.6798 5.15241 20.602 5.17542 20.6137 5.35006C20.6211 5.46129 20.8864 6.39779 21.203 7.43104L21.7786 9.30977L22.3679 9.311C22.7667 9.31179 22.9561 9.26689 22.9541 9.17194C22.9525 9.09472 22.6844 8.17303 22.3583 7.12362L21.7655 5.2156ZM23.3282 5.15948H23.9237L24.5419 7.2078L25.1601 9.25612L24.6073 9.29046C24.3034 9.30932 24.0312 9.30135 24.0025 9.27273C23.9739 9.244 23.6809 8.37001 23.3515 7.33036C23.0221 6.29071 22.748 5.37688 22.7426 5.29978C22.7358 5.20393 22.9213 5.15948 23.3282 5.15948ZM26.0862 5.15948H25.4756C25.1399 5.15948 24.8703 5.19731 24.8767 5.24366C24.8831 5.29001 25.0858 5.95917 25.3271 6.73079C25.5685 7.50242 25.8446 8.39885 25.9408 8.72299L26.1157 9.31223H26.737C27.1877 9.31223 27.3438 9.27374 27.3051 9.17194C27.2758 9.09472 27.1227 8.60234 26.9649 8.07763C26.8072 7.55293 26.5449 6.68163 26.3821 6.14155L26.0862 5.15948ZM27.6834 5.1817L28.2569 5.2156L28.8593 7.17974C29.1906 8.26002 29.4628 9.1817 29.4643 9.22806C29.4657 9.27441 29.2 9.31223 28.8739 9.31223H28.2808L27.7051 7.43227C27.3885 6.39835 27.1249 5.46129 27.1196 5.35006C27.1112 5.17609 27.1903 5.15252 27.6834 5.1817ZM30.4223 5.15948H29.8323C29.4299 5.15948 29.2455 5.20404 29.2523 5.29978C29.2576 5.37688 29.5267 6.29868 29.85 7.34809L30.4379 9.25612L31.0575 9.28922L31.6769 9.32245L31.0496 7.24091L30.4223 5.15948ZM31.9723 5.15948H32.5697L33.1545 7.06784C33.476 8.11736 33.7681 9.05173 33.8036 9.14422C33.8561 9.28103 33.752 9.31223 33.2436 9.31223H32.6191L32.2687 8.16181C32.0761 7.52902 31.7984 6.63259 31.6519 6.16961C31.5053 5.70664 31.3831 5.29001 31.3801 5.24366C31.3772 5.19731 31.6437 5.15948 31.9723 5.15948ZM35.3711 7.23867C35.0379 6.14919 34.7405 5.23289 34.71 5.20236C34.6796 5.17183 34.4017 5.1624 34.0925 5.18125L33.5305 5.2156L34.1582 7.26392L34.7861 9.31223H35.3814C35.7087 9.31223 35.9766 9.29136 35.9766 9.26588C35.9766 9.24029 35.7041 8.32803 35.3711 7.23867ZM35.9125 5.15948C36.0006 5.15948 36.1521 5.23883 36.2492 5.3358C36.3804 5.46712 36.4255 5.74446 36.4255 6.42079C36.4255 6.92047 36.4024 7.30634 36.3742 7.27817C36.3461 7.24989 36.1995 6.8501 36.0486 6.3896C35.8977 5.92909 35.7693 5.46387 35.7632 5.3559C35.757 5.24792 35.8243 5.15948 35.9125 5.15948Z" fill="black"/>
<path fill-rule="evenodd" clip-rule="evenodd" d="M0.341315 8.90277C0.372817 9.05022 0.550964 9.61442 0.737155 10.1564C0.923347 10.6985 1.32455 11.5574 1.62857 12.0652C1.93272 12.5728 2.44599 13.2905 2.76917 13.66C3.09236 14.0294 3.43311 14.3317 3.52667 14.3317C3.6201 14.3317 3.79638 14.2213 3.91836 14.0865C4.08672 13.9006 4.14021 13.5771 4.14021 12.746V10.0422H4.22442V8.96979H4.14021V7.16016V5.35052L4.22442 5.35053V4.27815H4.14021V1.54654C4.14021 0.730998 4.08726 0.379662 3.94651 0.262907C3.83994 0.174436 3.6138 0.12189 3.44383 0.145884C3.2445 0.174168 2.88486 0.522824 2.43057 1.12805C2.04318 1.64413 1.51369 2.47052 1.25391 2.96449C0.994124 3.45832 0.662626 4.32761 0.517185 4.89597C0.331396 5.62264 0.257401 6.33121 0.268393 7.28214C0.276972 8.02597 0.30968 8.75532 0.341315 8.90277ZM2.49719 2.91878C2.23996 3.35081 1.8921 4.08981 1.72441 4.56085C1.49171 5.21487 1.40873 5.78229 1.37401 6.95909C1.33849 8.16149 1.38179 8.67757 1.57106 9.30491C1.70457 9.74726 2.00055 10.4711 2.22883 10.9135C2.45725 11.3558 2.7374 11.8384 2.85161 11.9858C3.04022 12.2293 3.05965 11.7895 3.06354 7.19367C3.06595 4.41059 3.04477 2.1334 3.01649 2.1334C2.98821 2.1334 2.75456 2.48688 2.49719 2.91878Z" fill="black"/>
</svg>
