<svg width="38" height="40" viewBox="0 -12.5 38 40" fill="none" xmlns="http://www.w3.org/2000/svg">
<path fill-rule="evenodd" clip-rule="evenodd" d="M21.1994 0.774384L24.9274 0.774904C33.9928 0.775785 36.5918 0.797711 36.7414 0.874581C36.8468 0.928727 37.0083 1.07433 37.1002 1.19817C37.2556 1.40749 37.2673 1.52575 37.2673 2.88063C37.2673 3.93984 37.2384 4.39198 37.1614 4.53583C37.1031 4.64468 36.9541 4.79371 36.8301 4.86691C36.6225 4.98956 35.6924 5 24.9549 5L16.3352 5V4.9853L12.6073 4.98478C3.54191 4.9839 0.942824 4.96197 0.793309 4.8851C0.687889 4.83096 0.526413 4.68536 0.434473 4.56151C0.279056 4.35219 0.267334 4.23394 0.267334 2.87905C0.267334 1.81985 0.296281 1.36771 0.373231 1.22386C0.431521 1.11501 0.580559 0.965979 0.704556 0.892774C0.912203 0.770134 1.8423 0.759685 12.5797 0.75969H21.1994V0.774384ZM21.1994 4.36207H22.5311L22.5152 1.41323L16.3352 1.41164V1.39762H15.0035L15.0195 4.34646L21.1994 4.34805V4.36207ZM13.9467 2.97251L14.371 4.34805C14.4153 4.34805 14.4299 4.35229 14.4319 4.34895C14.4342 4.34508 14.4196 4.33101 14.4148 4.28825C14.4148 3.99462 14.3967 3.54473 14.3772 3.0591C14.3542 2.48964 14.3293 1.87104 14.3293 1.39762H13.8884C13.5688 1.39762 13.4578 1.42505 13.485 1.4973C13.5057 1.55216 13.7135 2.21601 13.9467 2.97251ZM12.8486 4.31687C12.8265 4.29486 12.6161 3.65589 12.381 2.897C12.1459 2.1381 11.9526 1.49036 11.9514 1.45742C11.9503 1.42449 12.1396 1.39762 12.372 1.39762L12.7945 1.39762L13.6837 4.30818L13.2862 4.33258C13.0676 4.34598 12.8707 4.33896 12.8486 4.31687ZM11.281 4.30818L11.695 4.33226C12.0523 4.35307 12.1077 4.33673 12.0993 4.21265C12.094 4.13363 11.9056 3.46826 11.6806 2.73416L11.2716 1.39937L10.853 1.39849C10.5697 1.39794 10.4351 1.42984 10.4365 1.49729C10.4376 1.55216 10.6281 2.20699 10.8598 2.95258L11.281 4.30818ZM10.1707 4.34805H9.74763L8.8692 1.43749L9.26192 1.41308C9.47786 1.39969 9.67123 1.40535 9.69165 1.42568C9.71198 1.4461 9.9201 2.06705 10.1541 2.80569C10.3882 3.54434 10.5829 4.19359 10.5867 4.24837C10.5916 4.31647 10.4598 4.34805 10.1707 4.34805ZM8.21125 4.34805L8.64504 4.34805C8.88355 4.34805 9.07509 4.32118 9.07054 4.28824C9.066 4.25531 8.92198 3.77989 8.75054 3.23167C8.57901 2.68345 8.38285 2.04655 8.31451 1.81626L8.19028 1.39762H7.74883C7.42867 1.39762 7.31774 1.42497 7.34526 1.49729C7.36607 1.55216 7.47484 1.90198 7.58695 2.27477C7.69899 2.64757 7.88535 3.2666 8.00097 3.65031L8.21125 4.34805ZM7.07645 4.33226L6.66897 4.30818L6.241 2.9127C6.0056 2.14519 5.81223 1.49036 5.81119 1.45742C5.81016 1.42449 5.99898 1.39762 6.23063 1.39762H6.65198L7.06106 2.73328C7.28601 3.46786 7.47324 4.13363 7.47699 4.21265C7.48297 4.33625 7.42676 4.35299 7.07645 4.33226ZM5.13052 4.34805H5.54972C5.83559 4.34805 5.96661 4.31639 5.96182 4.24837C5.958 4.19359 5.76686 3.53867 5.53712 2.79309L5.11944 1.43749L4.23917 1.39036L5.13052 4.34805ZM4.02929 4.34805H3.60483L3.18938 2.99221C2.96092 2.24655 2.75343 1.5827 2.72823 1.51699C2.69091 1.41979 2.76483 1.39762 3.12606 1.39762H3.56974L3.8187 2.21497C3.95553 2.66455 4.15281 3.30144 4.25696 3.63037C4.3611 3.95931 4.44794 4.25531 4.45001 4.28824C4.45208 4.32118 4.26278 4.34805 4.02929 4.34805ZM1.61456 2.87084C1.85124 3.64489 2.06255 4.2959 2.08424 4.31758C2.10585 4.33928 2.30329 4.34598 2.52298 4.33258L2.92224 4.30818L2.03018 1.39762H1.60723C1.3747 1.39762 1.18436 1.41245 1.18436 1.43055C1.18436 1.44873 1.37797 2.09687 1.61456 2.87084ZM1.22989 4.34805C1.1673 4.34805 1.05964 4.29167 0.990669 4.22277C0.897451 4.12948 0.865394 3.93244 0.865394 3.45192C0.865394 3.09691 0.881821 2.82275 0.901836 2.84277C0.921852 2.86286 1.02599 3.1469 1.13317 3.47408C1.24042 3.80126 1.33164 4.13179 1.33595 4.2085C1.34033 4.28521 1.29257 4.34805 1.22989 4.34805ZM23.5879 2.78718L23.1637 1.41164C23.1194 1.41164 23.1048 1.4074 23.1028 1.41074C23.1004 1.41461 23.1151 1.42868 23.1199 1.47144C23.1199 1.76507 23.138 2.21496 23.1575 2.70059C23.1804 3.27005 23.2053 3.88865 23.2053 4.36207H23.6463C23.9659 4.36207 24.0768 4.33464 24.0496 4.26239C24.029 4.20753 23.8212 3.54368 23.5879 2.78718ZM24.6861 1.44282C24.7081 1.46482 24.9186 2.1038 25.1537 2.86269C25.3888 3.62159 25.5821 4.26933 25.5832 4.30226C25.5843 4.3352 25.395 4.36207 25.1627 4.36207H24.7401L23.8509 1.45151L24.2484 1.42711C24.4671 1.41371 24.664 1.42073 24.6861 1.44282ZM26.2537 1.45151L25.8397 1.42743C25.4824 1.40662 25.427 1.42296 25.4354 1.54704C25.4407 1.62606 25.6291 2.29143 25.854 3.02552L26.263 4.36032L26.6817 4.36119C26.965 4.36175 27.0996 4.32985 27.0982 4.26239C27.097 4.20753 26.9065 3.5527 26.6749 2.80711L26.2537 1.45151ZM27.3639 1.41164H27.787L28.6655 4.3222L28.2727 4.3466C28.0568 4.36 27.8634 4.35434 27.843 4.334C27.8227 4.31359 27.6146 3.69264 27.3805 2.95399C27.1465 2.21535 26.9517 1.5661 26.9479 1.51131C26.9431 1.44322 27.0749 1.41164 27.3639 1.41164ZM29.3234 1.41164H28.8896C28.6511 1.41164 28.4596 1.43851 28.4641 1.47144C28.4687 1.50438 28.6127 1.9798 28.7841 2.52802C28.9556 3.07624 29.1518 3.71313 29.2202 3.94343L29.3444 4.36207H29.7858C30.106 4.36207 30.2169 4.33472 30.1894 4.26239C30.1686 4.20753 30.0598 3.85771 29.9477 3.48491C29.8357 3.11212 29.6493 2.49309 29.5337 2.10938L29.3234 1.41164ZM30.4582 1.42743L30.8657 1.45151L31.2937 2.84698C31.5291 3.61449 31.7224 4.26933 31.7235 4.30226C31.7245 4.3352 31.5357 4.36207 31.304 4.36207H30.8827L30.4736 3.0264C30.2487 2.29183 30.0614 1.62606 30.0577 1.54704C30.0517 1.42344 30.1079 1.4067 30.4582 1.42743ZM32.4041 1.41164H31.9849C31.6991 1.41164 31.5681 1.4433 31.5728 1.51131C31.5767 1.5661 31.7678 2.22101 31.9975 2.96659L32.4152 4.3222L33.2955 4.36933L32.4041 1.41164ZM33.5054 1.41164H33.9298L34.3453 2.76748C34.5737 3.51314 34.7812 4.17699 34.8064 4.2427C34.8438 4.3399 34.7698 4.36207 34.4086 4.36207H33.9649L33.716 3.54472C33.5791 3.09514 33.3819 2.45824 33.2777 2.12931C33.1736 1.80038 33.0867 1.50438 33.0847 1.47144C33.0826 1.43851 33.2719 1.41164 33.5054 1.41164ZM35.9201 2.88885C35.6834 2.1148 35.4721 1.46379 35.4504 1.4421C35.4288 1.42041 35.2314 1.41371 35.0117 1.42711L34.6124 1.45151L35.5045 4.36207H35.9274C36.16 4.36207 36.3503 4.34724 36.3503 4.32913C36.3503 4.31096 36.1567 3.66282 35.9201 2.88885ZM36.3048 1.41164C36.3674 1.41164 36.475 1.46802 36.544 1.53691C36.6372 1.63021 36.6693 1.82725 36.6693 2.30777C36.6693 2.66278 36.6528 2.93694 36.6328 2.91692C36.6128 2.89683 36.5087 2.61279 36.4015 2.28561C36.2943 1.95843 36.203 1.6279 36.1987 1.55119C36.1943 1.47448 36.2421 1.41164 36.3048 1.41164Z" fill="black"/>
<path fill-rule="evenodd" clip-rule="evenodd" d="M36.7414 10.1149C36.5918 10.0381 33.9928 10.0161 24.9274 10.0153L12.5797 10C1.8423 10 0.912203 10.0105 0.704556 10.1331C0.580559 10.2063 0.431521 10.3554 0.373231 10.4642C0.296281 10.6081 0.267334 11.0602 0.267334 12.1194C0.267334 13.4743 0.279056 13.5926 0.434473 13.8019C0.526413 13.9257 0.687889 14.0713 0.793309 14.1255C0.942824 14.2023 3.54191 14.2243 12.6073 14.2251L24.9549 14.2404C35.6924 14.2404 36.6225 14.2299 36.8301 14.1073C36.9541 14.0341 37.1031 13.885 37.1614 13.7762C37.2384 13.6323 37.2673 13.1802 37.2673 12.121C37.2673 10.7661 37.2556 10.6478 37.1002 10.4385C37.0083 10.3147 36.8468 10.1691 36.7414 10.1149ZM14.371 13.5884L13.9467 12.2129C13.7135 11.4564 13.5057 10.7925 13.485 10.7377C13.4578 10.6654 13.5688 10.638 13.8884 10.638H14.3293C14.3293 10.8714 14.5209 11.4457 14.718 12.0364C14.9206 12.6438 15.129 13.2685 15.1406 13.5572C14.9375 13.5884 14.5081 13.5884 14.371 13.5884ZM12.381 12.1374C12.6161 12.8962 12.8265 13.5352 12.8486 13.5572C12.8707 13.5793 13.0676 13.5863 13.2862 13.5729L13.6837 13.5485L12.7945 10.638L12.372 10.638C12.1396 10.638 11.9503 10.6648 11.9514 10.6978C11.9526 10.7307 12.1459 11.3785 12.381 12.1374ZM11.695 13.5726L11.281 13.5485L10.8598 12.1929C10.6281 11.4473 10.4376 10.7925 10.4365 10.7376C10.4351 10.6702 10.5697 10.6383 10.853 10.6388L11.2716 10.6397L11.6806 11.9745C11.9056 12.7086 12.094 13.374 12.0993 13.453C12.1077 13.5771 12.0523 13.5934 11.695 13.5726ZM9.74763 13.5884H10.1707C10.4598 13.5884 10.5916 13.5568 10.5867 13.4887C10.5829 13.4339 10.3882 12.7847 10.1541 12.046C9.9201 11.3074 9.71198 10.6865 9.69165 10.666C9.67123 10.6457 9.47786 10.64 9.26192 10.6534L8.8692 10.6778L9.74763 13.5884ZM8.64504 13.5884H8.21125L8.00097 12.8907C7.88535 12.507 7.69899 11.8879 7.58695 11.5151C7.47484 11.1423 7.36607 10.7925 7.34526 10.7376C7.31774 10.6653 7.42867 10.638 7.74883 10.638H8.19028L8.31451 11.0566C8.38285 11.2869 8.57901 11.9238 8.75054 12.472C8.92198 13.0202 9.066 13.4957 9.07054 13.5286C9.07509 13.5615 8.88355 13.5884 8.64504 13.5884ZM6.66897 13.5485L7.07645 13.5726C7.42676 13.5933 7.48297 13.5766 7.47699 13.453C7.47324 13.374 7.28601 12.7082 7.06106 11.9736L6.65198 10.638H6.23063C5.99898 10.638 5.81016 10.6648 5.81119 10.6978C5.81223 10.7307 6.0056 11.3855 6.241 12.1531L6.66897 13.5485ZM5.54972 13.5884H5.13052L4.23917 10.6307L5.11944 10.6778L5.53712 12.0334C5.76686 12.779 5.958 13.4339 5.96182 13.4887C5.96661 13.5567 5.83559 13.5884 5.54972 13.5884ZM3.60483 13.5884H4.02929C4.26278 13.5884 4.45208 13.5615 4.45001 13.5286C4.44794 13.4957 4.3611 13.1997 4.25696 12.8707C4.15281 12.5418 3.95553 11.9049 3.8187 11.4553L3.56974 10.638H3.12606C2.76483 10.638 2.69091 10.6601 2.72823 10.7573C2.75343 10.8231 2.96092 11.4869 3.18938 12.2326L3.60483 13.5884ZM2.08424 13.5579C2.06255 13.5363 1.85124 12.8852 1.61456 12.1112C1.37797 11.3372 1.18436 10.6891 1.18436 10.6709C1.18436 10.6528 1.3747 10.638 1.60723 10.638H2.03018L2.92224 13.5485L2.52298 13.5729C2.30329 13.5863 2.10585 13.5796 2.08424 13.5579ZM0.990669 13.4631C1.05964 13.532 1.1673 13.5884 1.22989 13.5884C1.29257 13.5884 1.34033 13.5256 1.33595 13.4489C1.33164 13.3721 1.24042 13.0416 1.13317 12.7144C1.02599 12.3873 0.921852 12.1032 0.901836 12.0831C0.881821 12.0631 0.865394 12.3373 0.865394 12.6923C0.865394 13.1728 0.897451 13.3698 0.990669 13.4631ZM23.1637 10.652L23.5879 12.0275C23.8212 12.784 24.029 13.4479 24.0496 13.5027C24.0768 13.575 23.9659 13.6024 23.6463 13.6024H23.2053C23.2053 13.3698 22.9973 12.8082 22.7828 12.2295C22.5608 11.6302 22.332 11.0126 22.3203 10.723C22.5581 10.5504 22.8816 10.6067 23.0588 10.6376C23.1052 10.6457 23.1416 10.652 23.1637 10.652ZM25.1537 12.103C24.9186 11.3442 24.7081 10.7052 24.6861 10.6832C24.664 10.6611 24.4671 10.6541 24.2484 10.6675L23.8509 10.6919L24.7401 13.6024H25.1627C25.395 13.6024 25.5843 13.5756 25.5832 13.5426C25.5821 13.5097 25.3888 12.862 25.1537 12.103ZM25.8397 10.6678L26.2537 10.6919L26.6749 12.0475C26.9065 12.7931 27.097 13.4479 27.0982 13.5027C27.0996 13.5702 26.965 13.6021 26.6817 13.6015L26.263 13.6007L25.854 12.2659C25.6291 11.5318 25.4407 10.8664 25.4354 10.7874C25.427 10.6633 25.4824 10.647 25.8397 10.6678ZM27.787 10.652H27.3639C27.0749 10.652 26.9431 10.6836 26.9479 10.7517C26.9517 10.8065 27.1465 11.4557 27.3805 12.1944C27.6146 12.933 27.8227 13.5539 27.843 13.5744C27.8634 13.5947 28.0568 13.6004 28.2727 13.587L28.6655 13.5626L27.787 10.652ZM28.8896 10.652H29.3234L29.5337 11.3497C29.6493 11.7334 29.8357 12.3525 29.9477 12.7253C30.0598 13.0981 30.1686 13.4479 30.1894 13.5027C30.2169 13.5751 30.106 13.6024 29.7858 13.6024H29.3444L29.2202 13.1838C29.1518 12.9535 28.9556 12.3166 28.7841 11.7684C28.6127 11.2202 28.4687 10.7447 28.4641 10.7118C28.4596 10.6789 28.6511 10.652 28.8896 10.652ZM30.8657 10.6919L30.4582 10.6678C30.1079 10.6471 30.0517 10.6638 30.0577 10.7874C30.0614 10.8664 30.2487 11.5322 30.4736 12.2668L30.8827 13.6024H31.304C31.5357 13.6024 31.7245 13.5756 31.7235 13.5426C31.7224 13.5097 31.5291 12.8548 31.2937 12.0873L30.8657 10.6919ZM31.9849 10.652H32.4041L33.2955 13.6097L32.4152 13.5626L31.9975 12.207C31.7678 11.4614 31.5767 10.8065 31.5728 10.7517C31.5681 10.6837 31.6991 10.652 31.9849 10.652ZM33.9298 10.652H33.5054C33.2719 10.652 33.0826 10.6789 33.0847 10.7118C33.0867 10.7447 33.1736 11.0407 33.2777 11.3697C33.3819 11.6986 33.5791 12.3355 33.716 12.7851L33.9649 13.6024H34.4086C34.7698 13.6024 34.8438 13.5803 34.8064 13.4831C34.7812 13.4173 34.5737 12.7535 34.3453 12.0078L33.9298 10.652ZM35.4504 10.6825C35.4721 10.7041 35.6834 11.3552 35.9201 12.1292C36.1567 12.9032 36.3503 13.5513 36.3503 13.5695C36.3503 13.5876 36.16 13.6024 35.9274 13.6024H35.5045L34.6124 10.6919L35.0117 10.6675C35.2314 10.6541 35.4288 10.6608 35.4504 10.6825ZM36.544 10.7773C36.475 10.7084 36.3674 10.652 36.3048 10.652C36.2421 10.652 36.1943 10.7148 36.1987 10.7915C36.203 10.8683 36.2943 11.1988 36.4015 11.526C36.5087 11.8531 36.6128 12.1372 36.6328 12.1573C36.6529 12.1773 36.6693 11.9031 36.6693 11.5481C36.6693 11.0676 36.6372 10.8706 36.544 10.7773ZM14.9469 10.7325L15.8203 13.5884C15.9575 13.5884 16.3869 13.5884 16.59 13.5572C16.5784 13.2685 16.37 12.6438 16.1673 12.0363C15.9703 11.4457 15.7787 10.8713 15.7787 10.6379C15.4991 10.6379 15.208 10.6878 15.003 10.723L14.9469 10.7325ZM17.9728 13.5572C17.7697 13.5884 17.3403 13.5884 17.2031 13.5884L16.3297 10.7325L16.3858 10.723C16.5908 10.6878 16.8819 10.6379 17.1615 10.6379C17.1615 10.8713 17.3531 11.4457 17.5501 12.0363C17.7528 12.6438 17.9612 13.2685 17.9728 13.5572ZM18.6093 13.5884C18.7465 13.5884 19.1759 13.5884 19.379 13.5572C19.3674 13.2685 19.159 12.6438 18.9563 12.0363C18.7593 11.4457 18.5677 10.8713 18.5677 10.6379C18.2881 10.6379 17.997 10.6878 17.792 10.723L17.7359 10.7325L18.6093 13.5884ZM20.8556 13.5572C20.6524 13.5884 20.2231 13.5884 20.0859 13.5884L19.2124 10.7325L19.2686 10.723C19.4736 10.6878 19.7646 10.6379 20.0443 10.6379C20.0443 10.8713 20.2359 11.4457 20.4329 12.0363C20.6355 12.6438 20.8439 13.2685 20.8556 13.5572ZM21.6249 13.5884C21.7621 13.5884 22.1915 13.5884 22.3946 13.5572C22.383 13.2685 22.1746 12.6438 21.972 12.0363C21.7749 11.4457 21.5833 10.8713 21.5833 10.6379C21.3037 10.6379 21.0127 10.6878 20.8077 10.723C20.7881 10.7263 20.7694 10.7295 20.7515 10.7325L21.6249 13.5884Z" fill="black"/>
</svg>
