<svg width="23" height="40" viewBox="0 -7 23 40" fill="none" xmlns="http://www.w3.org/2000/svg">
<path fill-rule="evenodd" clip-rule="evenodd" d="M3.09591 8.05573L11.6596 3.11145L20.2234 8.05573V17.9443L11.6596 22.8885L3.09591 17.9443V8.05573ZM11.6596 1L22.0519 7V19L11.6596 25L1.26733 19V7L11.6596 1ZM11.1071 8.50499L11.5702 8.48073L12.0332 8.50499L12.4912 8.57753L12.9391 8.69754L13.3719 8.8637L13.7851 9.07421L14.174 9.32675L14.5343 9.61854L14.8622 9.94641L15.154 10.3068L15.4065 10.6956L15.617 11.1088L15.7832 11.5416L15.9032 11.9895L15.9757 12.4475L16 12.9105L15.9757 13.3736L15.9032 13.8315L15.7832 14.2794L15.617 14.7123L15.4065 15.1254L15.154 15.5143L14.8622 15.8747L14.5343 16.2025L14.174 16.4943L13.7851 16.7469L13.3719 16.9574L12.9391 17.1235L12.4912 17.2435L12.0332 17.3161L11.5702 17.3403L11.1071 17.3161L10.6492 17.2435L10.2013 17.1235L9.76841 16.9574L9.35527 16.7469L8.9664 16.4943L8.60605 16.2025L8.27818 15.8747L7.98639 15.5143L7.73385 15.1254L7.52334 14.7123L7.35718 14.2794L7.23717 13.8315L7.16463 13.3736L7.14037 12.9105L7.16463 12.4475L7.23717 11.9895L7.35718 11.5416L7.52334 11.1088L7.73385 10.6956L7.98638 10.3068L8.27818 9.94641L8.60605 9.61854L8.9664 9.32674L9.35527 9.07421L9.76841 8.8637L10.2013 8.69754L10.6492 8.57753L11.1071 8.50499ZM11.5702 6.64964L12.2246 6.68394L12.8719 6.78646L13.5049 6.95607L14.1167 7.19093L14.7006 7.48844L15.2502 7.84537L15.7595 8.25779L16.2229 8.72118L16.6353 9.23048L16.9923 9.78009L17.2898 10.364L17.5246 10.9758L17.6943 11.6088L17.7968 12.2561L17.8311 12.9105L17.7968 13.565L17.6943 14.2122L17.5246 14.8453L17.2898 15.4571L16.9923 16.041L16.6353 16.5906L16.2229 17.0999L15.7595 17.5633L15.2502 17.9757L14.7006 18.3326L14.1167 18.6301L13.5049 18.865L12.8719 19.0346L12.2246 19.1371L11.5702 19.1714L10.9157 19.1371L10.2685 19.0346L9.63545 18.865L9.02364 18.6301L8.43973 18.3326L7.89012 17.9757L7.38082 17.5633L6.91743 17.0999L6.50501 16.5906L6.14808 16.041L5.85057 15.4571L5.61571 14.8453L5.4461 14.2122L5.34358 13.565L5.30928 12.9105L5.34358 12.2561L5.4461 11.6088L5.61571 10.9758L5.85057 10.364L6.14808 9.78009L6.50501 9.23048L6.91743 8.72118L7.38082 8.25779L7.89012 7.84537L8.43973 7.48844L9.02364 7.19093L9.63545 6.95607L10.2685 6.78646L10.9157 6.68394L11.5702 6.64964Z" fill="black" stroke="white" stroke-width="0.6"/>
</svg>
