<svg width="38" height="40" viewBox="0 -12 38 40" fill="none" xmlns="http://www.w3.org/2000/svg">
<path fill-rule="evenodd" clip-rule="evenodd" d="M8.75 4.93232C1.88866 4.94395 1.09371 4.98359 0.875057 5.11273C0.702705 5.21448 0.49555 5.42163 0.414528 5.57292C0.30757 5.77287 0.267334 6.40132 0.267334 7.87358C0.267334 9.75682 0.283627 9.92119 0.499649 10.2121C0.627445 10.3843 0.85189 10.5867 0.998417 10.6619C1.14738 10.7385 3.04581 10.7759 8.75 10.7913V8.50565L8.5705 7.92035C8.2433 6.85354 7.97452 5.94334 7.97308 5.89757C7.97164 5.85179 8.2341 5.81444 8.55609 5.81444H8.75V4.93232ZM13.4375 10.7988C14.2798 10.7995 15.1747 10.8 16.125 10.8002V9.89195L15.5759 9.86001L14.9904 7.97577C14.6684 6.93944 14.4036 6.02924 14.4021 5.95299C14.4001 5.85922 14.5872 5.81488 14.981 5.81566L15.5629 5.81688L16.125 7.65136V4.92778C15.17 4.92784 14.2755 4.92799 13.4375 4.92827V6.03226C13.5475 6.34052 13.7687 7.01119 14.0096 7.77161C14.3349 8.7983 14.6056 9.70073 14.6109 9.77688C14.6177 9.87153 14.4345 9.91542 14.0327 9.91542H13.4446L13.4375 9.89199V10.7988ZM7.60965 9.91542H7.02698L6.40751 7.85995L5.78803 5.80435L6.39975 5.83716L7.01157 5.86986L7.59213 7.75409C7.91146 8.79042 8.17713 9.70073 8.18245 9.77688C8.1891 9.87142 8.007 9.91542 7.60965 9.91542ZM4.90632 9.91542H5.49631C5.82084 9.91542 6.08397 9.87807 6.08109 9.8323C6.07821 9.78652 5.95751 9.37509 5.81275 8.91789C5.668 8.46068 5.39379 7.57542 5.20359 6.95052L4.85756 5.81444H4.24086C3.73876 5.81444 3.63601 5.84525 3.68789 5.98036C3.72291 6.07169 4.01131 6.99442 4.32886 8.03086L4.90632 9.91542ZM2.79276 9.87308C2.76261 9.84294 2.4689 8.93806 2.13993 7.86216C1.81108 6.78637 1.54197 5.88549 1.54197 5.86022C1.54197 5.83506 1.80653 5.81444 2.12973 5.81444H2.71762L3.33764 7.83722L3.95755 9.86001L3.40259 9.89393C3.09723 9.91255 2.8228 9.90323 2.79276 9.87308ZM1.27274 9.7413C1.36862 9.83706 1.51825 9.91542 1.60526 9.91542C1.69237 9.91542 1.75876 9.82808 1.75267 9.72146C1.74668 9.61483 1.61988 9.15541 1.47081 8.70064C1.32184 8.24588 1.17709 7.85108 1.14927 7.82314C1.12145 7.79532 1.09861 8.17639 1.09861 8.66984C1.09861 9.33774 1.14317 9.61162 1.27274 9.7413Z" fill="black"/>
<path fill-rule="evenodd" clip-rule="evenodd" d="M8.27646 7.9726C8.29596 11.5654 8.34384 13.3294 8.42476 13.4268C8.51221 13.5322 8.96254 13.5713 10.1055 13.5729C11.0814 13.5742 13.7219 13.5293 13.8137 13.4531C13.92 13.365 13.9607 12.9821 13.9607 12.0702V10.809H20.1536C20.5494 10.809 20.9356 10.809 21.3125 10.809V7.76634C21.0415 6.86983 20.828 6.10858 20.8214 6.00956C20.8103 5.84565 20.8793 5.817 21.3125 5.8394V4.93654C20.9227 4.93644 20.5237 4.93637 20.1152 4.93633L13.9607 4.93466V3.65726C13.9607 2.38806 13.9589 2.37919 13.6764 2.27179C13.52 2.21238 10.7936 2.16373 10.0619 2.16373C9.33041 2.16373 8.64122 2.21216 8.53049 2.27146C8.41977 2.33076 8.31081 2.44292 8.28843 2.52084C8.26593 2.59876 8.26061 5.05204 8.27646 7.9726ZM36.5625 5.08922V10.6626C36.606 10.6507 36.6361 10.6379 36.6596 10.6241C36.832 10.5223 37.0391 10.3152 37.1201 10.1639C37.2271 9.96391 37.2673 9.33546 37.2673 7.86321C37.2673 5.97997 37.251 5.8156 37.035 5.52465C36.9146 5.3625 36.7085 5.17351 36.5625 5.08922ZM9.18976 4.93466L9.18554 6.84661C9.1831 7.89812 9.17069 9.08275 9.15783 9.479C9.14487 9.87524 9.15008 10.3365 9.16936 10.5042L9.2045 10.809H10.1392H13.074V9.92235V7.87185V5.82311L13.9607 5.82328V7.87185V9.92235H16.7846L16.1639 7.87296L15.5432 5.82358L13.9607 5.82328V5.82136L13.074 5.8216V4.93466H10.1319H9.18976ZM13.074 5.8216V5.82311L9.75195 5.82247L13.074 5.8216ZM17.6639 5.82136H17.0746C16.7504 5.82136 16.4894 5.85871 16.4945 5.90449C16.4995 5.95027 16.6281 6.38663 16.7801 6.87432C16.9322 7.362 17.2063 8.24737 17.3892 8.84168L17.7217 9.92235H18.3346C18.7789 9.92235 18.9331 9.88422 18.8953 9.7838C18.8666 9.70754 18.5777 8.78482 18.2535 7.73331L17.6639 5.82136ZM19.7799 5.8647C19.8106 5.89529 20.1031 6.78343 20.4298 7.83827C20.7567 8.89311 21.0253 9.79344 21.0269 9.83922C21.0284 9.88499 20.7653 9.92235 20.4423 9.92235H19.855L19.2371 7.89956L18.6191 5.87678L19.1716 5.84286C19.4755 5.82424 19.7491 5.834 19.7799 5.8647ZM13.074 11.6957H10.1319H9.18976V12.1945V12.6933H10.1319H13.074V12.1945V11.6957ZM10.1315 3.10585H13.0734L13.0738 3.5769L13.074 4.04796H10.1319H9.18976L9.18964 3.5769L9.18953 3.10585H10.1315Z" fill="black"/>
<path fill-rule="evenodd" clip-rule="evenodd" d="M25.5625 5.144H21.75V10.769H25.5625V5.144ZM20.75 4.144V11.769H26.5625V4.144H20.75Z" fill="black"/>
<path fill-rule="evenodd" clip-rule="evenodd" d="M35.5625 11.0048L30.625 10.3113V11.5993L26.1875 11.2319V11.6875H30.625V11.5993L36.5625 12.091V3.82199L30.625 4.31365V4.0625H26.1875V4.68111L30.625 4.31365V5.60172L35.5625 4.90822V11.0048Z" fill="black"/>
<path fill-rule="evenodd" clip-rule="evenodd" d="M31.375 6.25V3.5815H25.5625V12.3315H31.375V10.1875L28.5625 8.0625L31.375 6.25ZM30.375 10.6853L26.8175 7.99739L30.375 5.70478V4.5815H26.5625V11.3315H30.375V10.6853Z" fill="black"/>
<line x1="14.5696" y1="1.10896" x2="18.6005" y2="14.5161" stroke="black" stroke-linecap="round"/>
</svg>
