<svg width="38" height="40" viewBox="0 -11.5 38 40" fill="none" xmlns="http://www.w3.org/2000/svg">
<path fill-rule="evenodd" clip-rule="evenodd" d="M0.304031 5.78368C0.390207 5.80474 8.7845 5.82196 18.958 5.82196C33.0348 5.82196 36.7765 5.80571 36.9886 5.75401C37.1979 5.70299 37.2673 4.99172 37.2673 2.90134C37.2673 0.622854 37.21 0.105071 36.9514 0.052749C36.7215 0.00620301 32.3405 -0.00715777 18.824 0.0033752L0.267334 0.0178714C0.267334 0.638462 0.304032 5.61008 0.304031 5.78368ZM36.1543 0.71875L18.9657 0.718751C9.512 0.718751 0.869381 0.725093 0.898415 0.732908C0.891679 1.31853 0.901901 5.1232 0.901901 5.1232L19.087 5.1232L36.1543 5.1232L36.1543 3.04732L36.1543 0.71875Z" fill="black"/>
<path fill-rule="evenodd" clip-rule="evenodd" d="M21.3268 16.6293C11.1788 16.6293 0.389898 16.6122 0.303939 16.5911C0.303939 16.5312 0.299558 15.8986 0.293828 15.0709C0.282993 13.5062 0.267334 11.2447 0.267334 10.8398L21.1931 10.8254C34.6757 10.8149 36.7229 10.8282 36.9522 10.8746C37.2101 10.9268 37.2673 11.4433 37.2673 13.716C37.2673 15.8012 37.1981 16.5107 36.9893 16.5616C36.7778 16.6131 35.3682 16.6293 21.3268 16.6293ZM21.3344 12.7885L36.0642 12.7885L36.0642 13.8617L36.0642 14.9348L21.4554 14.9348L20.8762 14.9348C20.8762 14.9348 20.866 13.3868 20.8727 12.8026C20.8594 12.799 21.2022 12.7957 21.4629 12.7932C21.7687 12.7903 21.9616 12.7885 21.3344 12.7885ZM36.0642 15.3867L21.4503 15.3867L20.866 15.3867L20.866 15.7821L20.866 16.1775L21.4503 16.1775L36.0642 16.1775L36.0642 15.7821L36.0642 15.3867ZM21.4503 11.2634L36.0642 11.2634L36.0642 11.8L36.0642 12.3366L21.4503 12.3366L20.866 12.3366L20.866 11.8L20.866 11.2634L21.4503 11.2634ZM0.985548 16.1775L20.2646 16.1775L20.2646 11.2634L0.985548 11.2634L0.985548 16.1775Z" fill="black"/>
</svg>
