<svg width="38" height="40" viewBox="0 -13 38 40" fill="none" xmlns="http://www.w3.org/2000/svg">
<path fill-rule="evenodd" clip-rule="evenodd" d="M0.424756 12.0585C0.343844 11.9611 0.295963 10.1971 0.276455 6.60428C0.260606 3.68372 0.265925 1.23044 0.288425 1.15252C0.310814 1.0746 0.419768 0.962434 0.530495 0.903136C0.641221 0.843839 1.33041 0.795403 2.06194 0.795403C2.79357 0.795403 5.52 0.844058 5.67639 0.903467C5.95892 1.01087 5.96069 1.01974 5.96069 2.28894V3.56634L20.1152 3.568C32.7158 3.56922 36.3284 3.5997 36.5363 3.70655C36.6828 3.78181 36.9072 3.9842 37.035 4.15633C37.251 4.44727 37.2673 4.61165 37.2673 6.49488C37.2673 7.96714 37.2271 8.59559 37.1201 8.79554C37.0391 8.94683 36.832 9.15399 36.6596 9.25573C36.371 9.4262 35.0782 9.44072 20.1536 9.44072L5.96069 9.44072V10.7018C5.96069 11.6138 5.92001 11.9966 5.81372 12.0847C5.72195 12.161 4.08142 12.2059 2.10549 12.2046C0.962539 12.203 0.512206 12.1639 0.424756 12.0585ZM1.18554 5.47828L1.18976 3.56634H2.13187H5.07399L5.07399 6.50353V9.44072H2.13919H1.2045L1.16936 9.13592C1.15008 8.96822 1.14487 8.50692 1.15783 8.11067C1.17069 7.71443 1.1831 6.5298 1.18554 5.47828ZM15.5432 4.45526L9.75195 4.45415L5.96069 4.45304L5.96069 6.50353V8.55402H10.3726H16.7846L16.1639 6.50464L15.5432 4.45526ZM17.0746 4.45304H17.6639L18.2535 6.36498C18.5777 7.4165 18.8666 8.33922 18.8953 8.41548C18.9331 8.51589 18.7789 8.55402 18.3346 8.55402H17.7217L17.3892 7.47336C17.2063 6.87905 16.9322 5.99368 16.7801 5.50599C16.6281 5.01831 16.4995 4.58194 16.4945 4.53617C16.4894 4.49039 16.7504 4.45304 17.0746 4.45304ZM20.4298 6.46995C20.1031 5.41511 19.8106 4.52697 19.7799 4.49638C19.7491 4.46567 19.4755 4.45592 19.1716 4.47454L18.6191 4.50846L19.2371 6.53124L19.855 8.55402H20.4423C20.7653 8.55402 21.0284 8.51667 21.0269 8.47089C21.0253 8.42512 20.7567 7.52479 20.4298 6.46995ZM21.3833 4.47498L21.9588 4.50846L22.5442 6.39269C22.8662 7.42902 23.131 8.33922 23.1326 8.41548C23.1346 8.50924 22.9475 8.55358 22.5537 8.55281L21.9718 8.55159L21.4033 6.69628C21.0906 5.67591 20.8287 4.75108 20.8214 4.64124C20.8098 4.46878 20.8867 4.44606 21.3833 4.47498ZM24.0901 4.45304H23.502C23.1002 4.45304 22.917 4.49693 22.9238 4.59159C22.9291 4.66773 23.1997 5.57017 23.525 6.59685C23.8504 7.62354 24.1396 8.48663 24.1679 8.51501C24.1963 8.54327 24.4651 8.55114 24.7652 8.53252L25.3111 8.4986L24.7006 6.47582L24.0901 4.45304ZM25.6226 4.45304H26.2256L26.5179 5.42287C26.6786 5.95622 26.9376 6.81665 27.0933 7.33481C27.2492 7.85298 27.4004 8.33922 27.4293 8.41548C27.4675 8.51601 27.3134 8.55402 26.8683 8.55402H26.2548L26.0821 7.97213C25.9871 7.65203 25.7144 6.76677 25.476 6.00476C25.2377 5.24275 25.0375 4.58194 25.0312 4.53617C25.0249 4.49039 25.2911 4.45304 25.6226 4.45304ZM28.3693 4.50846L27.8029 4.47498C27.316 4.44617 27.2379 4.46944 27.2462 4.64124C27.2514 4.75108 27.5116 5.67646 27.8243 6.6975L28.3929 8.55402H28.9786C29.3006 8.55402 29.563 8.51667 29.5616 8.47089C29.5601 8.42512 29.2914 7.51492 28.9642 6.44811L28.3693 4.50846ZM29.925 4.45304H30.5077L31.1272 6.50852L31.7466 8.56411L31.1349 8.5313L30.5231 8.4986L29.9425 6.61437C29.6232 5.57804 29.3575 4.66773 29.3522 4.59159C29.3456 4.49704 29.5277 4.45304 29.925 4.45304ZM32.6283 4.45304H32.0384C31.7138 4.45304 31.4507 4.49039 31.4536 4.53617C31.4565 4.58194 31.5772 4.99337 31.7219 5.45058C31.8667 5.90778 32.1409 6.79304 32.3311 7.41794L32.6771 8.55402H33.2938C33.7959 8.55402 33.8987 8.52321 33.8468 8.3881C33.8118 8.29677 33.5234 7.37405 33.2058 6.33761L32.6283 4.45304ZM34.7419 4.49538C34.7721 4.52553 35.0658 5.43041 35.3947 6.5063C35.7236 7.58209 35.9927 8.48297 35.9927 8.50824C35.9927 8.5334 35.7281 8.55402 35.4049 8.55402H34.8171L34.197 6.53124L33.5771 4.50846L34.1321 4.47454C34.4374 4.45592 34.7119 4.46523 34.7419 4.49538ZM36.2619 4.62716C36.166 4.5314 36.0164 4.45304 35.9294 4.45304C35.8423 4.45304 35.7759 4.54038 35.782 4.647C35.788 4.75363 35.9148 5.21305 36.0639 5.66782C36.2128 6.12258 36.3576 6.51739 36.3854 6.54532C36.4132 6.57314 36.4361 6.19207 36.4361 5.69863C36.4361 5.03072 36.3915 4.75684 36.2619 4.62716ZM2.13187 10.3274H5.07399V10.8262V11.325H2.13187H1.18976V10.8262V10.3274H2.13187ZM5.07344 1.73752H2.13154H1.18953L1.18964 2.20858L1.18976 2.67964H2.13187H5.07399L5.07377 2.20858L5.07344 1.73752Z" fill="black"/>
</svg>
