<svg width="26" height="40" viewBox="0 -7 26 40" fill="none" xmlns="http://www.w3.org/2000/svg">
<path fill-rule="evenodd" clip-rule="evenodd" d="M13.2673 1.26385C6.64085 1.26385 1.26733 6.63738 1.26733 13.2639C1.26733 18.3703 5.0625 23.625 8.375 24.4634C10.5728 25.0197 12.9096 21.8279 11.4688 20.125C10.9188 19.475 10.2812 19.3384 9.30713 19.3384H5.397C4.05027 17.6321 3.24646 15.4775 3.24646 13.1355C3.24646 7.60192 7.73375 3.11462 13.2674 3.11462C18.801 3.11462 23.2882 7.60192 23.2882 13.1355C23.2882 15.4775 22.4844 17.6321 21.1377 19.3384H17.3133C16.2188 19.3384 15.4688 19.4062 14.9375 20.125C13.779 21.6924 15.7002 24.2225 17.3133 24.4634C21.2188 25.0469 25.2673 17.0227 25.2673 13.2639C25.2673 6.63738 19.8938 1.26385 13.2673 1.26385ZM8.9375 22.9664C8.66432 23.0483 8.11337 22.8823 8 22.8281C7.29322 22.4906 7.18401 21.7204 7.37514 21.2415C7.56628 20.7625 8.03438 20.4241 8.58154 20.4241C9.29862 20.4241 9.87994 21.0054 9.87994 21.7225C9.87994 22.3098 9.62054 22.7617 8.9375 22.9664ZM18.0389 20.4241C18.5676 20.4241 19.0224 20.74 19.225 21.1935C19.5233 21.8613 19.1094 22.5936 18.8281 22.8281C18.5469 23.0626 17.9122 23.1853 17.4531 22.9664C16.9941 22.7476 16.7405 22.2779 16.7405 21.7225C16.7405 21.0054 17.3218 20.4241 18.0389 20.4241Z" stroke="black"/>
</svg>
