<svg width="85" height="85" viewBox="0 0 85 85" fill="none" xmlns="http://www.w3.org/2000/svg">
<path d="M49.2046 27.0384L47.2145 25.0003L29 25V58.9618H30.9901V61H57V27.0388L49.2046 27.0384ZM53.0984 32.6344H47.5412V26.9461L47.6313 27.0382L53.0984 32.6344ZM30.1148 57.826V26.1405H46.426V33.7713H53.887V57.826L30.99 57.8262L30.1148 57.826ZM55.8808 59.8641H32.1047V58.966H55.0017V32.969L54.0293 31.9749L50.3196 28.1787H55.8806L55.8808 59.8641ZM36.4343 30.9343H31.9697V29.7943H36.4343V30.9343ZM43.4558 34.3467H31.9697V33.2067H43.4558V34.3467ZM31.9697 36.9261H51.4913V38.0662H31.9697V36.9261ZM31.9697 39.4249H51.4913V40.5649H31.9697V39.4249ZM31.9697 41.9237H51.4913V43.0637L31.9697 43.0635V41.9237ZM31.9697 44.4222H51.4913V45.5622H31.9697V44.4222ZM31.9697 46.921H51.4913V48.061H31.9697V46.921ZM31.9697 49.4197H51.4913V50.5598H31.9697V49.4197ZM31.9697 51.9185H51.4913V53.0585H31.9697V51.9185Z" fill="black"/>
</svg>
