<svg width="85" height="85" viewBox="-23 -23 85 85" fill="none" xmlns="http://www.w3.org/2000/svg">
<path d="M34.9375 33.25H4.0625C3.614 33.25 3.25 32.8953 3.25 32.4583C3.25 32.0213 3.614 31.6667 4.0625 31.6667H34.9375C35.386 31.6667 35.75 32.0213 35.75 32.4583C35.75 32.8953 35.386 33.25 34.9375 33.25Z" fill="black"/>
<path d="M34.9375 15.8333H4.0625C3.614 15.8333 3.25 15.4787 3.25 15.0417C3.25 14.6047 3.614 14.25 4.0625 14.25H34.9375C35.386 14.25 35.75 14.6047 35.75 15.0417C35.75 15.4787 35.386 15.8333 34.9375 15.8333Z" fill="black"/>
<path d="M31.6875 33.25H20.3125C19.864 33.25 19.5 32.8953 19.5 32.4583V21.375C19.5 20.938 19.864 20.5833 20.3125 20.5833H31.6875C32.136 20.5833 32.5 20.938 32.5 21.375V32.4583C32.5 32.8953 32.136 33.25 31.6875 33.25ZM21.125 31.6667H30.875V22.1667H21.125V31.6667Z" fill="black"/>
<path d="M26 26.9167C25.5515 26.9167 25.1875 26.562 25.1875 26.125V21.375C25.1875 20.938 25.5515 20.5833 26 20.5833C26.4485 20.5833 26.8125 20.938 26.8125 21.375V26.125C26.8125 26.562 26.4485 26.9167 26 26.9167Z" fill="black"/>
<path d="M20.3125 15.8333H8.9375C8.489 15.8333 8.125 15.4787 8.125 15.0417V3.95833C8.125 3.52133 8.489 3.16667 8.9375 3.16667H20.3125C20.761 3.16667 21.125 3.52133 21.125 3.95833V15.0417C21.125 15.4787 20.761 15.8333 20.3125 15.8333ZM9.75 14.25H19.5V4.75H9.75V14.25Z" fill="black"/>
<path d="M14.625 9.5C14.1765 9.5 13.8125 9.14533 13.8125 8.70833V3.95833C13.8125 3.52133 14.1765 3.16667 14.625 3.16667C15.0735 3.16667 15.4375 3.52133 15.4375 3.95833V8.70833C15.4375 9.14533 15.0735 9.5 14.625 9.5Z" fill="black"/>
<path d="M17.0625 33.25H7.3125C6.864 33.25 6.5 32.8953 6.5 32.4583V22.9583C6.5 22.5213 6.864 22.1667 7.3125 22.1667H17.0625C17.511 22.1667 17.875 22.5213 17.875 22.9583V32.4583C17.875 32.8953 17.511 33.25 17.0625 33.25ZM8.125 31.6667H16.25V23.75H8.125V31.6667Z" fill="black"/>
<path d="M12.1875 26.9167C11.739 26.9167 11.375 26.562 11.375 26.125V22.9583C11.375 22.5213 11.739 22.1667 12.1875 22.1667C12.636 22.1667 13 22.5213 13 22.9583V26.125C13 26.562 12.636 26.9167 12.1875 26.9167Z" fill="black"/>
<path d="M4.0625 38H0.8125C0.364 38 0 37.6453 0 37.2083V0.791667C0 0.354667 0.364 5.66244e-07 0.8125 5.66244e-07H4.0625C4.511 5.66244e-07 4.875 0.354667 4.875 0.791667V37.2083C4.875 37.6453 4.511 38 4.0625 38ZM1.625 36.4167H3.25V1.58333H1.625V36.4167Z" fill="black"/>
<path d="M38.1875 38H34.9375C34.489 38 34.125 37.6453 34.125 37.2083V0.791667C34.125 0.354667 34.489 0 34.9375 0H38.1875C38.636 0 39 0.354667 39 0.791667V37.2083C39 37.6453 38.636 38 38.1875 38ZM35.75 36.4167H37.375V1.58333H35.75V36.4167Z" fill="black"/>
</svg>
