<svg width="85" height="85" viewBox="-20 -20 85 85" fill="none" xmlns="http://www.w3.org/2000/svg">
<path d="M43.3389 16.3689H23.1141C22.6807 16.3689 22.3917 16.6574 22.3917 17.0902V21.923L20.586 21.4902L18.6357 19.5426C20.8026 17.5229 20.9471 13.2672 20.9471 12.041C23.6197 12.041 25.4977 11.3197 26.22 10.0213C26.5089 9.44426 26.7256 8.50656 25.9311 7.28033C25.1365 6.12623 24.1253 5.54918 22.7529 5.54918C22.6807 5.54918 20.1526 5.54918 20.1526 5.54918C19.9359 4.25082 19.0691 1.50984 15.6742 0.716393C14.9519 0.572131 13.9407 0.5 13.724 0.5C6.2119 0.5 5.0562 4.10656 5.0562 6.27049V9.87705C5.0562 10.382 5.27289 10.959 5.70628 11.3918C5.34513 11.8246 5.0562 12.5459 5.0562 13.4836C5.0562 15.2869 6.28413 16.0803 7.36761 16.2967C7.72876 17.3787 8.23438 18.1721 8.74 18.8213L6.06744 21.4902C5.48959 22.1393 6.2119 22.7885 6.2119 22.7885L3.10595 25.8902C2.81703 26.2508 0 29.1361 0 31.5164C0 31.6607 -7.45058e-08 31.7328 0.0722314 31.8049L3.6838 39.018C3.75603 39.2344 3.97273 39.3066 4.11719 39.3787C4.18942 39.3787 4.83951 39.5951 5.77851 39.5951C5.77851 39.6672 5.70628 43.7066 5.70628 43.7066C5.70628 44.1393 5.99521 44.4279 6.4286 44.4279C6.86199 44.4279 7.15091 44.1393 7.15091 43.7066V41.6869C8.23438 42.9852 9.96794 44.4279 12.2071 44.4279C14.4463 44.4279 18.5635 42.9852 22.175 41.6869C22.8251 41.4705 23.403 41.2541 23.9808 41.0377C24.1253 40.9656 24.2698 40.9656 24.4865 40.8934V43.7787C24.4865 44.2115 24.7754 44.5 25.2088 44.5C25.6422 44.5 25.9311 44.2115 25.9311 43.7787V40.5328C27.2312 40.2443 28.4592 40.1 29.5427 40.1721H34.5989C35.8268 40.1721 37.4881 39.7393 37.9937 38.441C38.1382 38.0803 38.2104 37.7197 38.2104 37.2869H43.2666C43.7 37.2869 43.9889 36.9984 43.9889 36.5656V17.0902C44.0612 16.6574 43.7722 16.3689 43.3389 16.3689ZM35.3934 17.8115V21.7066L33.5154 20.7689C33.4431 20.6967 33.3709 20.6967 33.2265 20.6967C33.082 20.6967 33.0098 20.6967 32.9375 20.7689L31.0595 21.7066V17.8115H35.3934ZM14.3018 21.7787C14.2296 21.6344 13.8684 21.418 13.8684 21.418C14.7352 21.418 15.4575 21.2738 16.1798 21.0574L15.8909 21.923L15.1686 23.7984C15.1686 23.7984 14.3741 21.7787 14.3018 21.7787ZM17.8412 20.7689L19.358 22.2836L18.6357 23.6541L17.4078 21.9951L17.8412 20.7689ZM19.1413 6.9918C18.4912 7.49672 17.9134 8.1459 17.48 8.72295C16.2521 10.5262 15.1686 10.5984 15.1686 10.5984H11.3403C11.6293 10.3098 11.9182 9.94918 12.1349 9.58852C13.0017 8.29016 14.5907 6.9918 15.8909 6.9918H19.1413ZM24.7031 8.1459C25.0643 8.65082 25.1365 9.08361 24.9198 9.37213C24.6309 9.94918 23.403 10.5984 20.9471 10.5984H20.8749C20.7304 9.3 20.5137 8.36229 20.3693 7.85738C21.1638 7.35246 21.9584 6.9918 22.7529 6.9918C23.5474 6.9918 24.1975 7.35246 24.7031 8.1459ZM6.50083 6.27049C6.50083 3.67377 8.59554 2.5918 10.9792 2.15902C9.75124 3.45738 9.39009 5.11639 9.39009 6.27049C9.39009 6.70328 9.67901 6.9918 10.1124 6.9918C10.4736 6.9918 10.8347 6.70328 10.8347 6.27049C10.8347 5.8377 10.9792 2.37541 14.5185 2.01475C17.6245 2.30328 18.4912 4.46721 18.7079 5.54918H15.8909C13.9407 5.54918 11.9904 7.13606 10.9792 8.72295C9.75124 10.5262 8.66777 10.5984 8.66777 10.5984H7.22314C6.64529 10.5984 6.50083 10.2377 6.50083 9.87705V6.27049ZM7.94546 14.9262C7.72876 14.9262 6.50083 14.8541 6.50083 13.4836C6.50083 12.1852 7.07868 12.041 7.22314 12.041H15.1686C15.3853 12.041 17.0466 11.9689 18.6357 9.58852C18.7802 9.37213 18.9246 9.15574 19.1413 8.93934C19.2858 9.58852 19.5025 10.6705 19.5025 12.1131C19.5025 12.1852 19.7914 16.1525 17.6967 18.4607C16.7577 19.4705 15.3853 19.9754 13.724 19.9754C13.6517 19.9754 9.8957 19.9033 8.66777 15.4311C8.52331 15.1426 8.23438 14.9262 7.94546 14.9262ZM9.46232 20.1918L12.6405 22.2836L10.6903 24.7361L7.51207 22.1393L9.46232 20.1918ZM1.44463 31.3721C1.58909 29.8574 3.39488 27.6934 4.11719 26.9721L7.29537 23.7984L10.3291 26.3229C10.4736 26.4672 10.618 26.4672 10.7625 26.4672H10.8347C11.0514 26.4672 11.1959 26.3229 11.3403 26.1787L13.435 23.5098L14.4463 25.9623C14.5907 26.2508 14.8074 26.3951 15.0964 26.3951C15.3853 26.3951 15.6742 26.2508 15.7464 25.9623L16.6855 23.582L18.0579 25.4574C18.2023 25.6738 18.419 25.7459 18.7079 25.7459C18.9246 25.7459 19.1413 25.6016 19.2858 25.3852L20.4415 23.0049L22.2473 23.4377V34.9066C21.1638 35.2672 19.8636 35.7 18.4912 36.1328C17.4078 36.4934 16.3243 36.8541 15.3131 37.2148C14.0851 37.6475 12.6405 37.1426 11.9904 35.9885L9.17339 31.1557C8.9567 30.7951 8.52331 30.723 8.16215 30.9393C7.80099 31.1557 7.72876 31.5885 7.94546 31.9492L9.96794 35.2672C8.81223 38.6574 5.70628 38.3689 4.76727 38.1525L1.44463 31.3721ZM36.6936 37.8639C36.4769 38.441 35.4656 38.7295 34.6711 38.7295H29.6871C27.3035 38.5852 24.8476 39.3066 23.6197 39.7393C23.0418 39.9557 22.3917 40.1721 21.8139 40.3885C18.419 41.5426 14.3018 43.0574 12.2793 43.0574C9.75124 43.0574 7.94546 40.4607 7.36761 39.5229C8.59554 39.2344 9.96794 38.5852 10.9792 36.8541C11.7737 38.0803 13.1461 38.8016 14.5907 38.8016C15.0241 38.8016 15.4575 38.7295 15.8909 38.5852C16.8299 38.2967 17.9134 37.9361 19.0691 37.5033C22.2473 36.4213 26.1478 35.1229 27.159 35.1229H32.2152C32.4319 35.1229 32.8653 35.2672 32.9375 35.8443H31.0595C30.6261 35.8443 30.3372 36.1328 30.3372 36.5656C30.3372 36.9984 30.6261 37.2869 31.0595 37.2869C31.0595 37.2869 36.5491 37.359 36.838 37.359C36.838 37.5033 36.7658 37.7197 36.6936 37.8639ZM42.6165 35.8443H34.3822C34.3099 34.2574 33.082 33.6803 32.2152 33.6803H27.159C26.5089 33.6803 25.4255 33.9689 23.8364 34.4016V17.8115H29.6149V22.8607C29.6149 23.077 29.7593 23.3656 29.976 23.5098C30.1927 23.6541 30.4817 23.6541 30.6984 23.5098L33.2987 22.2115L35.899 23.5098C35.899 23.582 35.9712 23.582 36.1157 23.582C36.2602 23.582 36.4046 23.582 36.4769 23.5098C36.6936 23.3656 36.838 23.1492 36.838 22.8607V17.8115H42.6165V35.8443Z" fill="black"/>
<path d="M32.2656 33.7656H29.0781C28.6 33.7656 28.2812 34.0844 28.2812 34.5625C28.2812 35.0406 28.6 35.3594 29.0781 35.3594H32.2656C32.7438 35.3594 33.0625 35.0406 33.0625 34.5625C33.0625 34.0844 32.7438 33.7656 32.2656 33.7656Z" fill="black"/>
<path d="M29.0781 32.9688H30.6719C31.15 32.9688 31.4688 32.65 31.4688 32.1719C31.4688 31.6938 31.15 31.375 30.6719 31.375H29.0781C28.6 31.375 28.2812 31.6938 28.2812 32.1719C28.2812 32.65 28.6 32.9688 29.0781 32.9688Z" fill="black"/>
</svg>
