<svg width="85" height="85" viewBox="-18 -27.5 85 85" fill="none" xmlns="http://www.w3.org/2000/svg">
<path d="M11.9031 21.6279C9.29793 21.6279 7.17931 23.5053 7.17931 25.814C7.17931 28.1226 9.29793 30 11.9031 30C14.5083 30 16.627 28.1226 16.627 25.814C16.627 23.5053 14.5082 21.6279 11.9031 21.6279ZM11.9031 28.6046C10.1663 28.6046 8.75395 27.353 8.75395 25.814C8.75395 24.2749 10.1664 23.0233 11.9031 23.0233C13.6399 23.0233 15.0523 24.2749 15.0523 25.814C15.0523 27.353 13.6399 28.6046 11.9031 28.6046Z" fill="black"/>
<path d="M38.6714 21.6279C36.0662 21.6279 33.9476 23.5053 33.9476 25.814C33.9476 28.1226 36.0662 30 38.6714 30C41.2766 30 43.3952 28.1226 43.3952 25.814C43.3952 23.5053 41.2766 21.6279 38.6714 21.6279ZM38.6714 28.6046C36.9346 28.6046 35.5222 27.353 35.5222 25.814C35.5222 24.2749 36.9347 23.0233 38.6714 23.0233C40.4082 23.0233 41.8206 24.2749 41.8206 25.814C41.8206 27.353 40.4082 28.6046 38.6714 28.6046Z" fill="black"/>
<path d="M47.9938 17.7621L40.9081 7.99468C40.7633 7.79511 40.5137 7.67443 40.246 7.67443H31.5857C31.1503 7.67443 30.7984 7.987 30.7984 8.37208V25.8139C30.7984 26.1997 31.1503 26.5115 31.5857 26.5115H34.7349V25.1161H32.373V9.06981H39.8161L46.5444 18.3447V25.1163H42.6079V26.5116H47.3317C47.7671 26.5116 48.1189 26.1998 48.1189 25.814V18.1395C48.119 18.0063 48.0758 17.8744 47.9938 17.7621Z" fill="black"/>
<path d="M35.5222 16.7442V11.8605H41.8207V10.4651H34.735C34.2996 10.4651 33.9477 10.7777 33.9477 11.1627V17.4418C33.9477 17.8276 34.2996 18.1394 34.735 18.1394H46.5445V16.7441L35.5222 16.7442Z" fill="black"/>
<path d="M31.5857 2.79075H1.66813C1.23358 2.79075 0.880859 3.10331 0.880859 3.48839V25.814C0.880859 26.1998 1.23358 26.5116 1.66813 26.5116H7.96659V25.1162H2.4555V4.18604H30.7984V25.1162H15.8396V26.5116L31.5857 26.5115C32.0211 26.5115 32.373 26.1998 32.373 25.814V3.48839C32.373 3.10331 32.0211 2.79075 31.5857 2.79075Z" fill="black"/>
<path d="M6.39195 22.3256H1.66813V23.7209H6.39195V22.3256Z" fill="black"/>
<path d="M30.7984 22.3256H17.4142V23.7209H30.7984V22.3256Z" fill="black"/>
<path d="M47.3317 22.3256H44.1825V23.7209H47.3317V22.3256Z" fill="black"/>
<path d="M31.5857 5.58141H4.03004V6.97679H31.5857V5.58141Z" fill="black"/>
<path d="M12.6904 25.1162H11.1158V26.5116H12.6904V25.1162Z" fill="black"/>
<path d="M39.4588 25.1162H37.8841V26.5116H39.4588V25.1162Z" fill="black"/>
<path d="M15.0523 0H4.03004V1.39537H15.0523V0Z" fill="black"/>
<path d="M2.4555 0H0.880859V1.39537H2.4555V0Z" fill="black"/>
</svg>
