<svg width="24" height="24" viewBox="-3 -3 24 24" fill="none" xmlns="http://www.w3.org/2000/svg">
<path d="M18 9C18 10.6875 17.5275 12.2851 16.695 13.6351C16.2675 14.3551 15.75 15.0076 15.1425 15.5251C15.075 15.6151 15.0075 15.6825 14.9175 15.75C13.3425 17.1675 11.2725 18 9 18C6.255 18 3.80243 16.7624 2.18243 14.8274C2.13743 14.7599 2.07006 14.715 2.02505 14.6475C1.75505 14.3325 1.50754 13.9951 1.30504 13.6351C0.472538 12.2851 0 10.6875 0 9C0 6.165 1.305 3.62251 3.375 1.98001C3.7575 1.66501 4.16245 1.39504 4.58995 1.17004C5.89495 0.427544 7.4025 0 9 0C11.25 0 13.2749 0.809934 14.8499 2.18243C15.1199 2.38493 15.3675 2.63257 15.5925 2.88007C17.0775 4.50007 18 6.6375 18 9Z" fill="#E21D1D"/>
<path d="M13 9H5" stroke="white" stroke-width="2" stroke-miterlimit="10" stroke-linecap="round" stroke-linejoin="round"/>
</svg>
