<svg width="24" height="24" viewBox="-1.5 -2 24 24" fill="none" xmlns="http://www.w3.org/2000/svg">
<path d="M21 14.9111V18.84C21.0001 19.1213 20.8882 19.3922 20.6869 19.598C20.4855 19.8038 20.2096 19.9292 19.915 19.9489C19.4052 19.9822 18.9887 20 18.6667 20C8.35683 20 0 12.0411 0 2.22222C0 1.91556 0.0175 1.51889 0.0536667 1.03333C0.0743428 0.752716 0.206011 0.490012 0.422104 0.298232C0.638197 0.106452 0.922627 -0.000127148 1.218 2.85088e-07H5.34333C5.48805 -0.00013926 5.62765 0.0509545 5.73502 0.143356C5.84239 0.235758 5.90986 0.36287 5.92433 0.5C5.95117 0.755556 5.97567 0.958889 5.999 1.11333C6.23086 2.65436 6.706 4.15315 7.40833 5.55889C7.51917 5.78111 7.44683 6.04667 7.23683 6.18889L4.71917 7.90222C6.25853 11.3183 9.11697 14.0406 12.7038 15.5067L14.5005 13.1133C14.5739 13.0156 14.6811 12.9454 14.8032 12.9152C14.9254 12.8849 15.0549 12.8965 15.169 12.9478C16.6449 13.6154 18.2182 14.0668 19.8357 14.2867C19.9978 14.3089 20.2113 14.3333 20.4773 14.3578C20.6211 14.3718 20.7543 14.4362 20.8511 14.5384C20.9479 14.6407 21.0002 14.7735 21 14.9111Z" fill="#000000"/>
</svg>
