<svg width="35" height="47" viewBox="0 0 35 47" fill="none" xmlns="http://www.w3.org/2000/svg">
<path d="M18.0603 32.6271C18.7857 32.6631 19.232 33.4361 18.9005 34.0824L18.2099 35.4284C17.8483 36.133 16.8501 36.1578 16.4541 35.4719L15.6338 34.051C15.2378 33.3651 15.7583 32.513 16.5493 32.5522L18.0603 32.6271Z" fill="#333333"/>
<path d="M1.45703 12.3864C1.45703 12.3864 10.5244 7.97119 17.7979 8.38637C24.3992 8.76318 32.1388 12.3864 32.1388 12.3864L18.0479 38.5227L1.45703 12.3864Z" fill="#BEBEBE" stroke="black"/>
<g filter="url(#filter0_d_973_4502)">
<path d="M17.5929 0.25C7.54488 0.25 -1.6364 8.88744 0.501818 12.5943L16.8158 40.6971C16.8721 40.8586 16.9771 40.9986 17.1164 41.0977C17.2556 41.1968 17.4221 41.25 17.5929 41.25C17.7636 41.25 17.9302 41.1968 18.0694 41.0977C18.2086 40.9986 18.3137 40.8586 18.37 40.6971L34.684 12.5943C36.8376 8.91047 27.6409 0.25 17.5929 0.25ZM17.5929 28.1738L16.148 25.6929H19.0262L17.5929 28.1738ZM20.3157 23.5582L19.694 24.6313H15.4918L14.8528 23.5294H20.3157V23.5582ZM20.9604 22.4505H14.2253L13.5864 21.3485H21.5994L20.9604 22.4505ZM22.2269 20.2754H12.9647L12.3257 19.1735H22.8658L22.2269 20.2754ZM9.49923 17.6734C9.52015 17.09 9.59922 16.5102 9.73525 15.9426C9.87119 15.382 10.0641 14.8368 10.3109 14.3156C10.8787 13.0321 11.7672 11.9171 12.8906 11.0783C14.0139 10.2395 15.3341 9.70516 16.7236 9.52702C16.62 9.69433 16.5279 9.86164 16.4358 10.029C16.3437 10.1963 16.2171 10.479 16.1192 10.704C15.5913 11.8191 15.3917 13.062 15.5436 14.2868V14.3502H18.0476V14.2522C18.0362 14.0254 18.0362 13.7982 18.0476 13.5714C18.0525 13.3396 18.0718 13.1084 18.1052 12.879C18.2592 11.738 18.6305 10.6373 19.1989 9.63664C20.2053 9.84343 21.1603 10.2495 22.0081 10.8309C23.1175 11.5972 24.0315 12.6143 24.6765 13.7998C25.3215 14.9854 25.6793 16.3064 25.7211 17.6561L9.49923 17.6734Z" fill="#272E33"/>
</g>
<circle cx="17.5909" cy="42.1591" r="3.84091" fill="#333333" stroke="white" stroke-width="0.5"/>
<defs>
<filter id="filter0_d_973_4502" x="0.189453" y="0.25" width="34.8105" height="43" filterUnits="userSpaceOnUse" color-interpolation-filters="sRGB">
<feFlood flood-opacity="0" result="BackgroundImageFix"/>
<feColorMatrix in="SourceAlpha" type="matrix" values="0 0 0 0 0 0 0 0 0 0 0 0 0 0 0 0 0 0 127 0" result="hardAlpha"/>
<feOffset dy="2"/>
<feComposite in2="hardAlpha" operator="out"/>
<feColorMatrix type="matrix" values="0 0 0 0 0 0 0 0 0 0 0 0 0 0 0 0 0 0 0.25 0"/>
<feBlend mode="normal" in2="BackgroundImageFix" result="effect1_dropShadow_973_4502"/>
<feBlend mode="normal" in="SourceGraphic" in2="effect1_dropShadow_973_4502" result="shape"/>
</filter>
</defs>
</svg>
