<svg width="80" height="80" viewBox="0 0 80 80" fill="none" xmlns="http://www.w3.org/2000/svg">
<circle cx="40" cy="40" r="40" fill=""/>
<path d="M30.8737 53.297C33.1931 53.9522 36.2567 54.3131 39.5 54.3131C42.7433 54.3131 45.8069 53.9523 48.1263 53.297C50.9639 52.4955 52.4028 51.3351 52.4028 49.8483C52.4028 48.3615 50.9639 47.2013 48.1263 46.3997C46.8296 46.0334 45.2997 45.7597 43.6364 45.589C46.8936 40.0295 50.1214 33.7346 50.1214 30.6213C50.1214 24.7647 45.3567 20 39.5 20C33.6433 20 28.8786 24.7647 28.8786 30.6213C28.8786 33.7345 32.1063 40.0292 35.3635 45.5887C33.7002 45.7594 32.1705 46.0333 30.8738 46.3997C28.0361 47.2013 26.5973 48.3616 26.5973 49.8483C26.5972 51.3351 28.0361 52.4954 30.8737 53.297ZM39.5 22.2852C44.0967 22.2852 47.8363 26.0247 47.8363 30.6213C47.8363 32.9824 44.9149 39.1715 40.0218 47.1773C39.8601 47.4418 39.603 47.4702 39.4999 47.4702C39.3969 47.4702 39.1397 47.4418 38.9781 47.1773C34.0849 39.1715 31.1636 32.9824 31.1636 30.6213C31.1637 26.0247 34.9033 22.2852 39.5 22.2852ZM31.9099 48.4874C33.2722 48.1404 34.9045 47.8969 36.664 47.7702C36.7861 47.9716 36.9076 48.1713 37.0283 48.3688C37.5589 49.2371 38.4829 49.7552 39.4999 49.7552C40.517 49.7552 41.4409 49.237 41.9715 48.3688C42.0923 48.1713 42.2139 47.9715 42.336 47.7701C44.0954 47.8968 45.7277 48.1404 47.0901 48.4874C49.1784 49.0193 49.9413 49.6181 50.0982 49.8483C49.9413 50.0785 49.1785 50.6773 47.0901 51.2091C45.0173 51.7372 42.3216 52.0279 39.4999 52.0279C36.6782 52.0279 33.9826 51.7372 31.9098 51.2091C29.8214 50.6773 29.0586 50.0784 28.9017 49.8483C29.0587 49.6181 29.8215 49.0194 31.9099 48.4874Z" fill="#E21D1D"/>
<path d="M55.6735 47.3436C55.1203 47.0397 54.4257 47.2418 54.122 47.7948C53.8181 48.3479 54.0201 49.0426 54.5732 49.3464C55.9342 50.0941 56.7148 50.923 56.7148 51.6205C56.7148 52.4737 55.506 53.7961 52.1131 54.9488C48.7611 56.0877 44.2817 56.7148 39.5 56.7148C34.7183 56.7148 30.2389 56.0877 26.8869 54.9488C23.494 53.7962 22.2852 52.4737 22.2852 51.6205C22.2852 50.923 23.0658 50.0941 24.4268 49.3463C24.9799 49.0425 25.1819 48.3478 24.878 47.7947C24.5742 47.2417 23.8797 47.0396 23.3265 47.3435C21.809 48.1772 20 49.596 20 51.6205C20 53.1725 21.0673 55.3851 26.1518 57.1125C29.7343 58.3297 34.4748 59 39.5 59C44.5252 59 49.2657 58.3297 52.8482 57.1125C57.9327 55.3851 59 53.1725 59 51.6205C59 49.596 57.191 48.1772 55.6735 47.3436Z" fill="#E21D1D"/>
<path d="M43.7692 29.8921C43.7692 27.5381 41.854 25.623 39.5 25.623C37.146 25.623 35.2308 27.5381 35.2308 29.8921C35.2308 32.2461 37.146 34.1612 39.5 34.1612C41.854 34.1612 43.7692 32.2462 43.7692 29.8921ZM37.516 29.8921C37.516 28.7982 38.406 27.9082 39.5 27.9082C40.594 27.9082 41.484 28.7982 41.484 29.8921C41.484 30.986 40.594 31.876 39.5 31.876C38.406 31.876 37.516 30.986 37.516 29.8921Z" fill="#E21D1D"/>
</svg>
