<svg width="80" height="80" viewBox="0 0 80 80" fill="none" xmlns="http://www.w3.org/2000/svg">
<circle cx="40" cy="40" r="40" fill=""/>
<g clip-path="url(#clip0_695_19777)">
<path d="M41.1148 28.6423C40.4696 28.6423 39.9465 29.1654 39.9465 29.8106V32.0573C39.9465 32.7026 40.4696 33.2256 41.1148 33.2256C41.7601 33.2256 42.2831 32.7026 42.2831 32.0573V29.8106C42.2831 29.1654 41.7601 28.6423 41.1148 28.6423Z" fill="#E21D1D"/>
<path d="M41.1148 53.3965C40.4696 53.3965 39.9465 53.9195 39.9465 54.5648V56.8115C39.9465 57.4567 40.4696 57.9797 41.1148 57.9797C41.7601 57.9797 42.2831 57.4567 42.2831 56.8115V54.5648C42.2831 53.9195 41.7601 53.3965 41.1148 53.3965Z" fill="#E21D1D"/>
<path d="M54.614 42.1423H52.3673C51.722 42.1423 51.199 42.6654 51.199 43.3106C51.199 43.9559 51.722 44.4789 52.3673 44.4789H54.614C55.2592 44.4789 55.7822 43.9559 55.7822 43.3106C55.7822 42.6654 55.2592 42.1423 54.614 42.1423Z" fill="#E21D1D"/>
<path d="M51.5242 52.0681C51.5119 52.0552 51.4994 52.0427 51.4865 52.0304L49.8976 50.4415C49.4519 49.975 48.7124 49.9581 48.2459 50.4039C47.7794 50.8496 47.7625 51.5892 48.2082 52.0557C48.2204 52.0685 48.233 52.081 48.2459 52.0933L49.8347 53.6822C50.2805 54.1487 51.02 54.1656 51.4865 53.7198C51.953 53.2741 51.9699 52.5346 51.5242 52.0681Z" fill="#E21D1D"/>
<path d="M50.8245 33.5314C50.3759 33.1195 49.6862 33.1214 49.2398 33.5357L43.0389 39.7366C41.0628 38.6715 38.5974 39.41 37.5323 41.3861C37.2126 41.9792 37.0454 42.6424 37.0457 43.316L37.0484 43.3106C37.0472 45.5565 38.8668 47.3782 41.1127 47.3793C43.3586 47.3805 45.1802 45.5608 45.1814 43.315C45.1817 42.6405 45.0143 41.9766 44.6943 41.383L50.8952 35.1821C51.3315 34.7068 51.2999 33.9677 50.8245 33.5314ZM41.1149 45.0406C40.1595 45.0406 39.3849 44.266 39.3849 43.3106C39.3859 42.3556 40.1598 41.5817 41.1149 41.5807C42.0703 41.5807 42.8448 42.3553 42.8448 43.3106C42.8448 44.266 42.0703 45.0406 41.1149 45.0406Z" fill="#E21D1D"/>
<path d="M59.5736 28.9929C60.0194 29.4594 60.7589 29.4763 61.2254 29.0305C61.6919 28.5848 61.7088 27.8452 61.2631 27.3787C61.2508 27.3659 61.2383 27.3533 61.2254 27.3411L57.0843 23.2009C56.6178 22.7551 55.8783 22.772 55.4325 23.2385C55.0011 23.6901 55.0011 24.4011 55.4325 24.8526L56.6826 26.1027L54.2013 28.584C50.9034 25.6342 46.7016 23.8915 42.284 23.6412V19.3366H46.4089C47.0542 19.3366 47.5772 18.8135 47.5772 18.1683C47.5772 17.523 47.0542 17 46.4089 17H35.8216C35.1763 17 34.6533 17.523 34.6533 18.1683C34.6533 18.8135 35.1763 19.3366 35.8216 19.3366H39.9465V23.643C35.131 23.9158 30.5862 25.9584 27.1853 29.3784C26.7395 29.8449 26.7564 30.5844 27.2229 31.0302C27.6745 31.4616 28.3856 31.4616 28.8371 31.0302C35.6186 24.2486 46.6135 24.2486 53.395 31.03C53.395 31.03 53.3951 31.0301 53.3952 31.0302C60.1659 37.8008 60.1659 48.8177 53.3952 55.5883C46.6246 62.359 35.6077 62.359 28.8371 55.5883C28.3706 55.1426 27.631 55.1595 27.1853 55.626C26.7538 56.0776 26.7538 56.7885 27.1853 57.2401C34.8852 64.9283 47.3595 64.9188 55.0477 57.219C62.4053 49.8503 62.7581 38.0283 55.8531 30.2339L58.3353 27.7518L59.5736 28.9929Z" fill="#E21D1D"/>
<path d="M30.2956 34.65H19.5816C18.9364 34.65 18.4133 35.1731 18.4133 35.8183C18.4133 36.4636 18.9364 36.9866 19.5816 36.9866H30.2956C30.9409 36.9866 31.4639 36.4636 31.4639 35.8183C31.4639 35.1731 30.9409 34.65 30.2956 34.65Z" fill="#E21D1D"/>
<path d="M33.0187 42.1423H22.3038C21.6585 42.1423 21.1355 42.6654 21.1355 43.3106C21.1355 43.9559 21.6585 44.4789 22.3038 44.4789H33.0187C33.664 44.4789 34.187 43.9559 34.187 43.3106C34.187 42.6654 33.664 42.1423 33.0187 42.1423Z" fill="#E21D1D"/>
<path d="M30.2956 49.6337H19.5816C18.9364 49.6337 18.4133 50.1567 18.4133 50.8019C18.4133 51.4472 18.9364 51.9702 19.5816 51.9702H30.2956C30.9409 51.9702 31.4639 51.4472 31.4639 50.8019C31.4639 50.1567 30.9409 49.6337 30.2956 49.6337Z" fill="#E21D1D"/>
</g>
<defs>
<clipPath id="clip0_695_19777">
<rect width="46" height="46" fill="white" transform="translate(17 17)"/>
</clipPath>
</defs>
</svg>
