<svg width="80" height="80" viewBox="0 0 80 80" fill="none" xmlns="http://www.w3.org/2000/svg">
<circle cx="40" cy="40" r="40" fill=""/>
<path d="M56.4655 20H28.6602C26.2471 20 24.2839 21.9538 24.2839 24.3476L24.1047 48.9439H18.6783C18.2938 48.9439 18 49.2855 18 49.6719V53.0569C18 56.2257 20.5243 58.8173 23.5708 58.9594V59H46.9858V58.9542C47.1599 58.9614 47.2653 59 47.385 59H47.4017C50.6509 58.9809 53.27 56.3203 53.253 53.0562V31.5426H60.3217C60.7062 31.5426 61 31.1928 61 30.8068V24.5959C61.0044 22.0717 58.9782 20.0181 56.4655 20ZM23.8707 57.6009C21.3937 57.6009 19.3927 55.5443 19.3927 53.0562V50.3431H41.502V53.0446C41.4966 54.6193 42.1158 56.1311 43.2225 57.246C43.3402 57.3649 43.4632 57.426 43.589 57.6009H23.8707ZM51.8603 53.0555C51.8603 55.5443 49.8787 57.6009 47.4006 57.6009H47.3864C44.8961 57.5828 42.889 55.5466 42.8947 53.0449V49.6719C42.8968 49.2801 42.5884 48.9576 42.1984 48.9439H25.4974L25.6766 24.3524C25.6766 22.7255 27.0149 21.3991 28.6602 21.3991H53.1779C52.3843 22.2735 51.8603 23.3799 51.8603 24.6147V53.0555ZM59.6073 30.1435H53.253V24.6134C53.253 22.8624 54.7029 21.3991 56.4451 21.3991H56.4645C58.2112 21.4165 59.6154 22.8481 59.6073 24.6031V30.1435Z" fill="#E21D1D"/>
<path d="M34.3518 37.2189L37.942 39.6848C38.1763 39.847 38.4861 39.847 38.7203 39.6848L42.2997 37.2196C43.5431 36.3674 44.4615 34.5857 44.4615 33.0749V28.0858C44.469 27.8221 44.3242 27.5776 44.0902 27.4577L38.6238 24.7565C38.432 24.6608 38.2069 24.6608 38.0151 24.7565L32.5589 27.4502C32.3249 27.57 32.1804 27.8146 32.1883 28.0783V33.0749C32.1883 34.5857 33.1087 36.3674 34.3518 37.2189ZM33.581 28.5149L38.3249 26.1634L43.0688 28.5213V33.0749C43.0688 34.1287 42.3813 35.469 41.5139 36.063L38.3167 38.2597L35.1321 36.0634C34.2647 35.4687 33.581 34.1287 33.581 33.0749V28.5149Z" fill="#E21D1D"/>
<path d="M37.1471 34.1311C37.277 34.2643 37.4544 34.3398 37.6401 34.3408H37.6418C37.8268 34.3401 38.0039 34.2657 38.1341 34.1338L40.9043 31.3499C41.1766 31.0767 41.1766 30.6333 40.9046 30.3601C40.6329 30.0865 40.1916 30.0865 39.9196 30.3597L37.6442 32.6452L36.7346 31.7226C36.4636 31.448 36.0226 31.4459 35.7493 31.7182C35.4759 31.9904 35.4742 32.4334 35.7448 32.7081L37.1471 34.1311Z" fill="#E21D1D"/>
<path d="M46.9858 41.6861H30.2733C29.8887 41.6861 29.5769 41.9993 29.5769 42.3856C29.5769 42.772 29.8887 43.0852 30.2733 43.0852H46.9858C47.3704 43.0852 47.6822 42.772 47.6822 42.3856C47.6822 41.9993 47.3704 41.6861 46.9858 41.6861Z" fill="#E21D1D"/>
<path d="M46.9858 44.9215H30.2733C29.8887 44.9215 29.5769 45.2347 29.5769 45.6211C29.5769 46.0074 29.8887 46.3206 30.2733 46.3206H46.9858C47.3704 46.3206 47.6822 46.0074 47.6822 45.6211C47.6822 45.2347 47.3704 44.9215 46.9858 44.9215Z" fill="#E21D1D"/>
</svg>
