<svg width="80" height="80" viewBox="0 0 80 80" fill="none" xmlns="http://www.w3.org/2000/svg">
<circle cx="40" cy="40" r="40" fill=""/>
<path d="M22.6638 61H24.6186C24.9806 61 25.2732 60.7067 25.2732 60.3438V59.0175H54.7268V60.3438C54.7268 60.7067 55.0194 61 55.3814 61H57.3454C57.7074 61 58 60.7067 58 60.3438V20.6406C58 19.7363 57.2661 19 56.3634 19C55.4607 19 54.7268 19.7363 54.7268 20.6406V30.8151H52.7642V21.6302C52.7642 21.268 52.4716 20.974 52.1095 20.974H41.6379C41.2759 20.974 40.9833 21.268 40.9833 21.6302V30.8145H39.018V21.6302C39.018 21.268 38.7254 20.974 38.3634 20.974H27.8918C27.5298 20.974 27.2371 21.268 27.2371 21.6302V30.8145H25.2732V20.6406C25.2732 19.7363 24.5394 19 23.6366 19C22.7339 19 22 19.7363 22 20.6406L22.0092 60.3438C22.0092 60.7067 22.3018 61 22.6638 61ZM56.0361 20.6406C56.0361 20.4595 56.1834 20.3125 56.3634 20.3125C56.5434 20.3125 56.6907 20.4595 56.6907 20.6406V59.6875H56.0361V20.6406ZM46.2178 22.2865H47.5284V22.948H46.2178V22.2865ZM42.2926 22.2865H44.9085V23.6042C44.9085 23.9665 45.2011 24.2605 45.5631 24.2605H48.183C48.545 24.2605 48.8377 23.9665 48.8377 23.6042V22.2865H51.4549V30.8145H42.2926V22.2865ZM32.4716 22.2865H33.7809V22.948H32.4716V22.2865ZM28.5464 22.2865H31.1624V23.6042C31.1624 23.9665 31.455 24.2605 31.817 24.2605H34.4356C34.7976 24.2605 35.0902 23.9665 35.0902 23.6042V22.2865H37.7088V30.8145H28.5464V22.2865ZM25.2732 32.127H27.8918H38.3634H41.6379H52.1095H54.7268V32.7832H25.2732V32.127ZM25.2732 34.0957H54.7268V43.2642H52.7655V36.052C52.7655 35.6897 52.4729 35.3958 52.1109 35.3958H27.8891C27.5271 35.3958 27.2345 35.6897 27.2345 36.052V43.2648H25.2732V34.0957ZM38.3634 38.677H41.6366C41.9986 38.677 42.2912 38.383 42.2912 38.0208V36.7083H51.4562V43.2648H28.5438V36.7083H37.7088V38.0208C37.7088 38.383 38.0014 38.677 38.3634 38.677ZM39.018 37.3645V36.7083H40.982V37.3645H39.018ZM25.2732 44.5773H27.8891H52.1109H54.7268V45.2349H25.2732V44.5773ZM25.2732 46.5474H54.7268V55.7349H52.7668V47.8665C52.7668 47.5036 52.4742 47.2102 52.1122 47.2102H42.9459C42.5839 47.2102 42.2912 47.5036 42.2912 47.8665V55.7349H40.3313V49.8365C40.3313 49.4736 40.0386 49.1803 39.6766 49.1803H35.0981C35.0954 49.1803 35.0941 49.179 35.0915 49.179C35.0889 49.179 35.0876 49.1803 35.085 49.1803H32.4782C32.4756 49.1803 32.4743 49.179 32.4716 49.179C32.469 49.179 32.4677 49.1803 32.4651 49.1803H27.8918C27.5298 49.1803 27.2371 49.4736 27.2371 49.8365V55.7349H25.2732V46.5474ZM46.2191 50.4961H48.839C49.201 50.4961 49.4936 50.2027 49.4936 49.8398V48.5221H51.4575V55.7343H43.6005V48.5221H45.5644V49.8398C45.5644 50.2027 45.8571 50.4961 46.2191 50.4961ZM46.8737 49.1836V48.5221H48.1843V49.1836H46.8737ZM32.4716 52.4648H35.0915C35.4535 52.4648 35.7461 52.1715 35.7461 51.8086V50.4921H39.022V55.7343H28.5464V50.4921H31.817V51.8086C31.817 52.1715 32.1096 52.4648 32.4716 52.4648ZM33.1263 51.1523V50.4921H34.4369V51.1523H33.1263ZM25.2732 57.0474H27.8918H39.6766H42.9459H52.1122H54.7268V57.705H25.2732V57.0474ZM23.6366 20.3125C23.8166 20.3125 23.9639 20.4595 23.9639 20.6406V59.6875H23.3184L23.3093 20.6406C23.3093 20.4595 23.4566 20.3125 23.6366 20.3125Z" fill="#E21D1D"/>
</svg>
