<svg width="32" height="32" viewBox="-1 -1 32 32" fill="none" xmlns="http://www.w3.org/2000/svg">
<path d="M6.97941 11.8883V0H23.0202V11.8883" fill="#EFEFEF"/>
<path d="M6.97941 11.8883V8.75712H23.0202V11.8883" fill="#E0E0E0"/>
<path d="M23.1111 25.6962H27.4672C28.8662 25.6962 30 24.5591 30 23.1569V12.8927C30 11.4905 28.8661 10.3534 27.4672 10.3534H2.53225C1.13391 10.3534 0 11.4905 0 12.8927V23.1569C0 24.5591 1.13391 25.6962 2.53225 25.6962H6.88835" fill="#494F56"/>
<path d="M2.32653 23.1569V12.8927C2.32653 11.4905 3.46044 10.3534 4.85878 10.3534H2.53225C1.13391 10.3534 0 11.4905 0 12.8927V23.1569C0 24.5591 1.13391 25.6962 2.53225 25.6962H4.85878C3.46044 25.6962 2.32653 24.5591 2.32653 23.1569Z" fill="#36393D"/>
<path d="M22.7578 22.387H25.0409V17.4753H4.95921V22.387H7.24226" fill="#36393D"/>
<path d="M23.5715 30H6.42822L7.53541 19.6466H22.4642L23.5715 30Z" fill="#EFEFEF"/>
<path d="M3.48979 15.4494C4.36893 15.4494 5.08161 14.7347 5.08161 13.8531C5.08161 12.9715 4.36893 12.2568 3.48979 12.2568C2.61065 12.2568 1.89797 12.9715 1.89797 13.8531C1.89797 14.7347 2.61065 15.4494 3.48979 15.4494Z" fill="#40D39B"/>
<path d="M8.26531 15.4494C9.14445 15.4494 9.85713 14.7347 9.85713 13.8531C9.85713 12.9715 9.14445 12.2568 8.26531 12.2568C7.38617 12.2568 6.67349 12.9715 6.67349 13.8531C6.67349 14.7347 7.38617 15.4494 8.26531 15.4494Z" fill="#FC6947"/>
<path d="M20.9692 27.7591H9.03043C8.77677 27.7591 8.57123 27.5529 8.57123 27.2986C8.57123 27.0443 8.77677 26.8381 9.03043 26.8381H20.9692C21.2229 26.8381 21.4284 27.0443 21.4284 27.2986C21.4284 27.5529 21.2229 27.7591 20.9692 27.7591Z" fill="#494F56"/>
<path d="M20.6785 25.6716H9.32111C9.06746 25.6716 8.86191 25.4654 8.86191 25.2111C8.86191 24.9568 9.06746 24.7507 9.32111 24.7507H20.6785C20.9321 24.7507 21.1377 24.9568 21.1377 25.2111C21.1377 25.4654 20.9321 25.6716 20.6785 25.6716Z" fill="#494F56"/>
<path d="M20.4336 23.5841H9.56603C9.31238 23.5841 9.10683 23.378 9.10683 23.1237C9.10683 22.8693 9.31238 22.6632 9.56603 22.6632H20.4336C20.6873 22.6632 20.8928 22.8693 20.8928 23.1237C20.8928 23.378 20.6873 23.5841 20.4336 23.5841Z" fill="#494F56"/>
</svg>
