<svg width="24" height="24" viewBox="-3 -2.5 24 24" fill="none" xmlns="http://www.w3.org/2000/svg">
<path d="M18 9.10278C18 10.7903 17.5275 12.3879 16.695 13.7379C16.2675 14.4579 15.75 15.1103 15.1425 15.6278C15.075 15.7178 15.0075 15.7853 14.9175 15.8528C13.3425 17.2703 11.2725 18.1028 9 18.1028C6.255 18.1028 3.80243 16.8652 2.18243 14.9302C2.13743 14.8627 2.07006 14.8178 2.02505 14.7503C1.75505 14.4353 1.50754 14.0979 1.30504 13.7379C0.472538 12.3879 0 10.7903 0 9.10278C0 6.26778 1.305 3.72529 3.375 2.08279C3.7575 1.76779 4.16245 1.49783 4.58995 1.27283C5.89495 0.530327 7.4025 0.102783 9 0.102783C11.25 0.102783 13.2749 0.912717 14.8499 2.28522C15.1199 2.48772 15.3675 2.73535 15.5925 2.98285C17.0775 4.60285 18 6.74028 18 9.10278Z" fill="#FFB800"/>
<path d="M9 4.10278L9 10.1028" stroke="white" stroke-width="2" stroke-miterlimit="10" stroke-linecap="round" stroke-linejoin="round"/>
<path d="M9 13.1028L9 14.1028" stroke="white" stroke-width="2" stroke-miterlimit="10" stroke-linecap="round" stroke-linejoin="round"/>
</svg>
