<svg width="24" height="24" viewBox="-3.5 -3.5 24 24" fill="none" xmlns="http://www.w3.org/2000/svg">
<path fill-rule="evenodd" clip-rule="evenodd" d="M6.77503 12.7004C3.86266 12.7004 1.50171 10.3125 1.50171 7.36702C1.50171 4.42151 3.86266 2.03369 6.77503 2.03369C9.68741 2.03369 12.0484 4.42151 12.0484 7.36702C12.0484 8.5995 11.635 9.73433 10.9409 10.6375L14.492 14.229L13.5598 15.1718L10.0087 11.5803C9.11571 12.2823 7.99364 12.7004 6.77503 12.7004ZM10.73 7.36702C10.73 9.57616 8.95932 11.367 6.77503 11.367C4.59075 11.367 2.82004 9.57616 2.82004 7.36702C2.82004 5.15789 4.59075 3.36702 6.77503 3.36702C8.95932 3.36702 10.73 5.15789 10.73 7.36702Z" fill="#8D8D8D"/>
</svg>
