<svg width="24" height="24" viewBox="-2 -2 24 24" fill="none" xmlns="http://www.w3.org/2000/svg">
<path d="M19.4483 16.7516L19.4239 16.727H19.4241C19.4177 16.7245 19.4126 16.7196 19.4102 16.7132C19.4076 16.707 19.4079 16.6998 19.4108 16.6936L14.7946 12.0561C15.7794 10.3716 16.1176 8.3825 15.745 6.46428C15.3724 4.54598 14.315 2.83141 12.7723 1.64416C11.2297 0.457066 9.30872 -0.120291 7.37214 0.0209161C5.43556 0.162 3.61725 1.01223 2.2608 2.41061C0.904156 3.80915 0.103333 5.65924 0.00932584 7.6114C-0.0846817 9.56355 0.534606 11.4831 1.75046 13.0071C2.9662 14.5312 4.69421 15.5543 6.60811 15.8834C8.52216 16.2125 10.4897 15.8248 12.1391 14.7934L16.7197 19.4043H16.7196C16.7248 19.4126 16.7344 19.4169 16.744 19.4155L16.7684 19.4401L16.7682 19.4399C17.2453 19.9219 17.9416 20.1108 18.5947 19.9359C19.248 19.7609 19.7588 19.2485 19.9347 18.5916C20.1107 17.9348 19.9251 17.2333 19.448 16.7514L19.4483 16.7516ZM5.17331 11.1805C4.41311 10.3705 3.98353 9.3021 3.96994 8.18776C3.95651 7.07354 4.36 5.99492 5.10028 5.16629C5.82192 4.36814 6.84035 3.90713 7.91237 3.89328C8.98454 3.8793 10.0144 4.31372 10.7564 5.09279C11.5166 5.90291 11.946 6.97131 11.9596 8.08549C11.9732 9.19987 11.5697 10.2785 10.8294 11.107C10.1062 11.9028 9.08839 12.3621 8.01716 12.3759C6.94578 12.3899 5.91651 11.9572 5.17327 11.1804L5.17331 11.1805Z" fill="#000"/>
</svg>
