<svg width="32" height="32" viewBox="-2.5 -6 32 32" fill="none" xmlns="http://www.w3.org/2000/svg">
<path d="M26.6667 18.8967C26.6644 19.1885 26.5371 19.4678 26.3121 19.6742C26.0871 19.8806 25.7826 19.9977 25.4642 20H3.62667C3.30765 19.9997 3.00181 19.8833 2.77635 19.6764C2.55089 19.4696 2.42424 19.1891 2.42424 18.8967V17.7778H24.2424V4.77778L14.5455 12.7778L2.42424 2.77778V1.11111C2.42424 0.816426 2.55195 0.533811 2.77926 0.325437C3.00658 0.117063 3.31489 0 3.63636 0H25.4545C25.776 0 26.0843 0.117063 26.3116 0.325437C26.539 0.533811 26.6667 0.816426 26.6667 1.11111V18.8967ZM5.37455 2.22222L14.5455 9.78889L23.7164 2.22222H5.37455ZM0 13.3333H9.69697V15.5556H0V13.3333ZM0 7.77778H6.06061V10H0V7.77778Z" fill="#000"/>
</svg>
