<svg width="24" height="24" viewBox="-2 -2 24 24" fill="none" xmlns="http://www.w3.org/2000/svg">
<path d="M6.15769 6.1065C6.29169 6.0965 6.42669 6.0965 6.56069 6.1025C6.61469 6.1065 6.66869 6.1125 6.72269 6.1185C6.88169 6.1365 7.05668 6.23351 7.11568 6.36751C7.41368 7.04354 7.70368 7.72456 7.98368 8.40758C8.04568 8.55959 8.00868 8.7546 7.89068 8.9446C7.80953 9.07309 7.72175 9.19726 7.62768 9.31662C7.51468 9.46162 7.27169 9.72763 7.27169 9.72763C7.27169 9.72763 7.17269 9.84564 7.21069 9.99264C7.22469 10.0486 7.27068 10.1296 7.31268 10.1976L7.37168 10.2927C7.62768 10.7197 7.97168 11.1527 8.39168 11.5607C8.51168 11.6767 8.62868 11.7957 8.75468 11.9067C9.22268 12.3197 9.75268 12.6567 10.3247 12.9067L10.3297 12.9087C10.4147 12.9457 10.4577 12.9657 10.5817 13.0187C10.6437 13.0447 10.7077 13.0678 10.7727 13.0848C10.8399 13.1019 10.9106 13.0986 10.9759 13.0755C11.0413 13.0523 11.0983 13.0103 11.1397 12.9547C11.8637 12.0777 11.9297 12.0207 11.9357 12.0207V12.0227C11.986 11.9758 12.0457 11.9402 12.1109 11.9183C12.1761 11.8964 12.2453 11.8887 12.3137 11.8957C12.3737 11.8997 12.4347 11.9107 12.4907 11.9357C13.0217 12.1787 13.8907 12.5577 13.8907 12.5577L14.4727 12.8187C14.5707 12.8657 14.6597 12.9767 14.6627 13.0838C14.6667 13.1508 14.6727 13.2588 14.6497 13.4568C14.6177 13.7158 14.5397 14.0268 14.4617 14.1898C14.4083 14.301 14.3374 14.403 14.2517 14.4918C14.1508 14.5978 14.0403 14.6942 13.9217 14.7798C13.8806 14.8107 13.839 14.8407 13.7967 14.8698C13.6723 14.9487 13.5445 15.0221 13.4137 15.0898C13.1562 15.2266 12.8718 15.3051 12.5807 15.3198C12.3957 15.3298 12.2107 15.3438 12.0247 15.3338C12.0167 15.3338 11.4567 15.2468 11.4567 15.2468C10.0349 14.8729 8.72007 14.1723 7.61669 13.2008C7.39069 13.0017 7.18169 12.7877 6.96769 12.5747C6.07769 11.6897 5.40569 10.7347 4.99769 9.83264C4.78886 9.38991 4.67605 8.90801 4.66669 8.41858C4.66256 7.81141 4.86103 7.22021 5.23069 6.73852C5.30369 6.64452 5.37269 6.54652 5.49169 6.43351C5.61869 6.31351 5.69869 6.24951 5.78569 6.20551C5.90136 6.14753 6.02755 6.11352 6.15669 6.1055L6.15769 6.1065Z" fill="#000"/>
<path d="M9.9096 4.00024C9.59129 4.00024 9.33331 4.25823 9.33331 4.57656C9.33331 4.89473 9.59129 5.15287 9.9096 5.15287C11.2285 5.15287 12.4685 5.66645 13.4011 6.5992C14.3338 7.53181 14.8474 8.77178 14.8474 10.0908C14.8474 10.409 15.1054 10.6672 15.4237 10.6672C15.7418 10.6672 16 10.4092 16 10.0908C16 8.46396 15.3665 6.93448 14.2162 5.78411C13.0658 4.63374 11.5364 4.00024 9.9096 4.00024Z" fill="#000"/>
<path d="M12.235 10.1179C12.235 10.4211 12.481 10.6671 12.7842 10.6671C13.0875 10.6671 13.3333 10.4211 13.3333 10.1179C13.3333 8.21505 11.7852 6.66699 9.88247 6.66699C9.57915 6.66699 9.33331 6.91284 9.33331 7.21619C9.33331 7.51954 9.57915 7.76539 9.88247 7.76539C11.1797 7.76539 12.235 8.82074 12.235 10.1179Z" fill="#000"/>
<path d="M5.764 17.2256C6.354 16.9656 7.014 16.9166 7.632 17.0866C8.402 17.2966 9.197 17.4026 10 17.4006C14.585 17.4006 18 14.1135 18 9.70035C18 5.28719 14.585 2.00007 10 2.00007C5.415 2.00007 2 5.28719 2 9.70035C2 11.9704 2.896 13.9725 4.466 15.3766C4.75126 15.6292 4.98194 15.9375 5.14391 16.2824C5.30589 16.6274 5.39575 17.0017 5.408 17.3826L5.764 17.2256ZM10 0C15.634 0 20 4.12715 20 9.70035C20 15.2736 15.634 19.4007 10 19.4007C9.02214 19.4032 8.04839 19.2741 7.105 19.0167C6.9278 18.968 6.73924 18.9817 6.571 19.0557L4.587 19.9317C4.46713 19.9847 4.33608 20.0074 4.20537 19.9979C4.07467 19.9883 3.94831 19.9468 3.8374 19.877C3.72649 19.8072 3.63444 19.7112 3.56933 19.5974C3.50422 19.4837 3.46805 19.3557 3.464 19.2247L3.409 17.4446C3.4054 17.3364 3.37977 17.23 3.3337 17.132C3.28762 17.034 3.22205 16.9464 3.141 16.8746C1.195 15.1356 0 12.6175 0 9.70035C0 4.12715 4.367 0 10 0Z" fill="#000"/>
</svg>
