<svg width="24" height="24" viewBox="-1.5 -2 24 24" fill="none" xmlns="http://www.w3.org/2000/svg">
<path fill-rule="evenodd" clip-rule="evenodd" d="M5 1.58824C4.26727 1.58824 3.23635 1.76289 2.552 1.89936C2.47331 1.91505 2.41505 1.97331 2.39936 2.052C2.26289 2.73635 2.08824 3.76727 2.08824 4.5C2.08824 5.23273 2.26289 6.26365 2.39936 6.948C2.41505 7.02669 2.47331 7.08495 2.552 7.10064C3.23635 7.23711 4.26727 7.41177 5 7.41177C5.73273 7.41177 6.76365 7.23711 7.448 7.10064C7.52669 7.08495 7.58495 7.02669 7.60064 6.948C7.73711 6.26365 7.91177 5.23273 7.91177 4.5C7.91177 3.76727 7.73711 2.73635 7.60064 2.052C7.58495 1.97331 7.52669 1.91505 7.448 1.89936C6.76365 1.76289 5.73273 1.58824 5 1.58824ZM2.2414 0.34179C2.92728 0.20502 4.09496 0 5 0C5.90504 0 7.07272 0.20502 7.7586 0.34179C8.46673 0.483 9.017 1.03328 9.1582 1.7414C9.295 2.42728 9.5 3.59496 9.5 4.5C9.5 5.40504 9.295 6.57272 9.1582 7.2586C9.017 7.96673 8.46672 8.517 7.7586 8.6582C7.07272 8.795 5.90504 9 5 9C4.09496 9 2.92728 8.795 2.2414 8.6582C1.53327 8.517 0.983 7.96672 0.84179 7.2586C0.70502 6.57272 0.5 5.40504 0.5 4.5C0.5 3.59496 0.70502 2.42728 0.84179 1.7414C0.983 1.03327 1.53328 0.483 2.2414 0.34179Z" fill="#000"/>
<path fill-rule="evenodd" clip-rule="evenodd" d="M5 12.5882C4.26727 12.5882 3.23635 12.7629 2.552 12.8994C2.47331 12.9151 2.41505 12.9733 2.39936 13.052C2.26289 13.7363 2.08824 14.7673 2.08824 15.5C2.08824 16.2327 2.26289 17.2637 2.39936 17.948C2.41505 18.0267 2.47331 18.0849 2.552 18.1006C3.23635 18.2371 4.26727 18.4118 5 18.4118C5.73273 18.4118 6.76365 18.2371 7.448 18.1006C7.52669 18.0849 7.58495 18.0267 7.60064 17.948C7.73711 17.2637 7.91177 16.2327 7.91177 15.5C7.91177 14.7673 7.73711 13.7363 7.60064 13.052C7.58495 12.9733 7.52669 12.9151 7.448 12.8994C6.76365 12.7629 5.73273 12.5882 5 12.5882ZM2.2414 11.3418C2.92728 11.205 4.09496 11 5 11C5.90504 11 7.07272 11.205 7.7586 11.3418C8.46673 11.483 9.017 12.0333 9.1582 12.7414C9.295 13.4273 9.5 14.595 9.5 15.5C9.5 16.405 9.295 17.5727 9.1582 18.2586C9.017 18.9667 8.46672 19.517 7.7586 19.6582C7.07272 19.795 5.90504 20 5 20C4.09496 20 2.92728 19.795 2.2414 19.6582C1.53327 19.517 0.983 18.9667 0.84179 18.2586C0.70502 17.5727 0.5 16.405 0.5 15.5C0.5 14.595 0.70502 13.4273 0.84179 12.7414C0.983 12.0333 1.53328 11.483 2.2414 11.3418Z" fill="#000"/>
<path fill-rule="evenodd" clip-rule="evenodd" d="M16 1.58824C15.2673 1.58824 14.2363 1.76289 13.552 1.89936C13.4733 1.91505 13.4151 1.97331 13.3994 2.052C13.2629 2.73635 13.0882 3.76727 13.0882 4.5C13.0882 5.23273 13.2629 6.26365 13.3994 6.948C13.4151 7.02669 13.4733 7.08495 13.552 7.10064C14.2363 7.23711 15.2673 7.41177 16 7.41177C16.7327 7.41177 17.7637 7.23711 18.448 7.10064C18.5267 7.08495 18.5849 7.02669 18.6006 6.948C18.7371 6.26365 18.9118 5.23273 18.9118 4.5C18.9118 3.76727 18.7371 2.73635 18.6006 2.052C18.5849 1.97331 18.5267 1.91505 18.448 1.89936C17.7637 1.76289 16.7327 1.58824 16 1.58824ZM13.2414 0.34179C13.9273 0.20502 15.095 0 16 0C16.905 0 18.0727 0.20502 18.7586 0.34179C19.4667 0.483 20.017 1.03328 20.1582 1.7414C20.295 2.42728 20.5 3.59496 20.5 4.5C20.5 5.40504 20.295 6.57272 20.1582 7.2586C20.017 7.96673 19.4667 8.517 18.7586 8.6582C18.0727 8.795 16.905 9 16 9C15.095 9 13.9273 8.795 13.2414 8.6582C12.5333 8.517 11.983 7.96672 11.8418 7.2586C11.705 6.57272 11.5 5.40504 11.5 4.5C11.5 3.59496 11.705 2.42728 11.8418 1.7414C11.983 1.03327 12.5333 0.483 13.2414 0.34179Z" fill="#000"/>
<path fill-rule="evenodd" clip-rule="evenodd" d="M16 12.5882C15.2673 12.5882 14.2363 12.7629 13.552 12.8994C13.4733 12.9151 13.4151 12.9733 13.3994 13.052C13.2629 13.7363 13.0882 14.7673 13.0882 15.5C13.0882 16.2327 13.2629 17.2637 13.3994 17.948C13.4151 18.0267 13.4733 18.0849 13.552 18.1006C14.2363 18.2371 15.2673 18.4118 16 18.4118C16.7327 18.4118 17.7637 18.2371 18.448 18.1006C18.5267 18.0849 18.5849 18.0267 18.6006 17.948C18.7371 17.2637 18.9118 16.2327 18.9118 15.5C18.9118 14.7673 18.7371 13.7363 18.6006 13.052C18.5849 12.9733 18.5267 12.9151 18.448 12.8994C17.7637 12.7629 16.7327 12.5882 16 12.5882ZM13.2414 11.3418C13.9273 11.205 15.095 11 16 11C16.905 11 18.0727 11.205 18.7586 11.3418C19.4667 11.483 20.017 12.0333 20.1582 12.7414C20.295 13.4273 20.5 14.595 20.5 15.5C20.5 16.405 20.295 17.5727 20.1582 18.2586C20.017 18.9667 19.4667 19.517 18.7586 19.6582C18.0727 19.795 16.905 20 16 20C15.095 20 13.9273 19.795 13.2414 19.6582C12.5333 19.517 11.983 18.9667 11.8418 18.2586C11.705 17.5727 11.5 16.405 11.5 15.5C11.5 14.595 11.705 13.4273 11.8418 12.7414C11.983 12.0333 12.5333 11.483 13.2414 11.3418Z" fill="#000"/>
</svg>
