<svg width="24" height="24" viewBox="-4 -2 24 24" fill="none" xmlns="http://www.w3.org/2000/svg">
<path d="M10.722 7.11434C10.4672 7.11434 10.2606 7.3202 10.2606 7.57421V16.2657C10.2606 16.5195 10.4672 16.7256 10.722 16.7256C10.9768 16.7256 11.1834 16.5195 11.1834 16.2657V7.57421C11.1834 7.3202 10.9768 7.11434 10.722 7.11434Z" fill="#000000"/>
<path d="M5.278 7.11434C5.02317 7.11434 4.81664 7.3202 4.81664 7.57421V16.2657C4.81664 16.5195 5.02317 16.7256 5.278 16.7256C5.53283 16.7256 5.73936 16.5195 5.73936 16.2657V7.57421C5.73936 7.3202 5.53283 7.11434 5.278 7.11434Z" fill="#000000"/>
<path d="M1.31033 5.84593V17.1761C1.31033 17.8458 1.55669 18.4747 1.98704 18.9259C2.41542 19.3784 3.01158 19.6353 3.63549 19.6364H12.3645C12.9886 19.6353 13.5848 19.3784 14.013 18.9259C14.4433 18.4747 14.6897 17.8458 14.6897 17.1761V5.84593C15.5452 5.61959 16.0995 4.79579 15.9851 3.92078C15.8705 3.04596 15.1227 2.39155 14.2375 2.39137H11.8754V1.81653C11.8781 1.33313 11.6863 0.868957 11.343 0.52747C10.9997 0.186163 10.5333 -0.00389156 10.0484 6.04227e-05H5.95165C5.46668 -0.00389156 5.00028 0.186163 4.65697 0.52747C4.31365 0.868957 4.1219 1.33313 4.1246 1.81653V2.39137H1.76249C0.877266 2.39155 0.129543 3.04596 0.0149251 3.92078C-0.0995129 4.79579 0.454836 5.61959 1.31033 5.84593ZM12.3645 18.7166H3.63549C2.84668 18.7166 2.23304 18.0412 2.23304 17.1761V5.88635H13.767V17.1761C13.767 18.0412 13.1533 18.7166 12.3645 18.7166ZM5.04732 1.81653C5.04425 1.57708 5.13869 1.34661 5.30917 1.17757C5.47948 1.00853 5.71124 0.915662 5.95165 0.919794H10.0484C10.2888 0.915662 10.5205 1.00853 10.6908 1.17757C10.8613 1.34643 10.9557 1.57708 10.9527 1.81653V2.39137H5.04732V1.81653ZM1.76249 3.3111H14.2375C14.6962 3.3111 15.0679 3.68169 15.0679 4.13886C15.0679 4.59603 14.6962 4.96662 14.2375 4.96662H1.76249C1.30384 4.96662 0.932052 4.59603 0.932052 4.13886C0.932052 3.68169 1.30384 3.3111 1.76249 3.3111Z" fill="#000000"/>
<path d="M8 7.11434C7.74517 7.11434 7.53864 7.3202 7.53864 7.57421V16.2657C7.53864 16.5195 7.74517 16.7256 8 16.7256C8.25483 16.7256 8.46136 16.5195 8.46136 16.2657V7.57421C8.46136 7.3202 8.25483 7.11434 8 7.11434Z" fill="#000000"/>
</svg>
