<svg width="24" height="24" viewBox="-2.5 0 24 24" fill="none" xmlns="http://www.w3.org/2000/svg">
<path fill-rule="evenodd" clip-rule="evenodd" d="M9.49979 24C4.25317 24 0 21.2365 0 17.8274C0 14.4185 4.25317 11.6553 9.49979 11.6553C14.7468 11.6553 19 14.4184 19 17.8274C19 21.2364 14.7468 24 9.49979 24ZM9.49979 10.8409V10.8408C8.13726 10.8375 6.83186 10.2637 5.87025 9.24565C4.90865 8.22778 4.36983 6.84874 4.37198 5.41189C4.37413 3.97505 4.9172 2.59792 5.8818 1.58297C6.8464 0.568208 8.15361 -0.0011977 9.51614 1.89158e-06C10.8787 0.00121677 12.1851 0.572918 13.1482 1.58924C14.1112 2.60574 14.652 3.98376 14.652 5.42073C14.6504 6.85984 14.1066 8.23955 13.1404 9.25587C12.1742 10.2724 10.8646 10.8425 9.49983 10.8408L9.49979 10.8409Z" fill="#000000"/>
</svg>
