<svg width="24" height="24" viewBox="-4 -7 24 24" fill="none" xmlns="http://www.w3.org/2000/svg">
<path fill-rule="evenodd" clip-rule="evenodd" d="M3.79563 7.23562C2.67207 6.4175 1.87017 5.48313 1.49319 5C1.86943 4.51687 2.67207 3.5825 3.79563 2.76438C4.95607 1.92 6.38873 1.25 7.99993 1.25C9.61112 1.25 11.0438 1.92 12.2042 2.76438C13.3278 3.5825 14.1297 4.51687 14.5067 5C14.1304 5.48313 13.3278 6.4175 12.2042 7.23562C11.0438 8.08 9.61112 8.75 7.99993 8.75C6.38873 8.75 4.95607 8.08 3.79563 7.23562ZM7.99993 0C5.89593 0 4.13203 0.871875 2.83437 1.81625C1.53229 2.76437 0.628577 3.83625 0.227254 4.35625C0.0789956 4.54746 0 4.77123 0 5C0 5.22877 0.0789956 5.45254 0.227254 5.64375C0.628577 6.16375 1.53229 7.23562 2.83437 8.18375C4.13277 9.12813 5.89593 10 7.99993 10C10.1039 10 11.8678 9.12813 13.1655 8.18375C14.4676 7.23562 15.3713 6.16375 15.7726 5.64375C16.0758 5.25125 16.0758 4.74938 15.7726 4.35625C15.3713 3.83625 14.4676 2.76437 13.1655 1.81625C11.8671 0.871875 10.1039 0 7.99993 0ZM6.52448 5C6.52448 4.66848 6.67992 4.35054 6.95662 4.11612C7.23333 3.8817 7.60861 3.75 7.99993 3.75C8.39124 3.75 8.76653 3.8817 9.04323 4.11612C9.31993 4.35054 9.47538 4.66848 9.47538 5C9.47538 5.33152 9.31993 5.64946 9.04323 5.88388C8.76653 6.1183 8.39124 6.25 7.99993 6.25C7.60861 6.25 7.23333 6.1183 6.95662 5.88388C6.67992 5.64946 6.52448 5.33152 6.52448 5ZM7.99993 2.5C7.2173 2.5 6.46672 2.76339 5.91332 3.23223C5.35992 3.70107 5.04902 4.33696 5.04902 5C5.04902 5.66304 5.35992 6.29893 5.91332 6.76777C6.46672 7.23661 7.2173 7.5 7.99993 7.5C8.78255 7.5 9.53313 7.23661 10.0865 6.76777C10.6399 6.29893 10.9508 5.66304 10.9508 5C10.9508 4.33696 10.6399 3.70107 10.0865 3.23223C9.53313 2.76339 8.78255 2.5 7.99993 2.5Z" fill="#000000"/>
</svg>
