<svg width="230" height="64" viewBox="0 0 230 64" fill="none" xmlns="http://www.w3.org/2000/svg">
<path d="M66.1407 52.5555L65.599 51.1646L65.1434 49.8477H65.0818V54.1925H63.9244V46.6722H65.0079L65.8206 48.8138L66.4116 50.4508L67.015 48.7769L67.8276 46.6722H68.9604V54.1925H67.7906V49.8354L67.3228 51.177L66.7933 52.5309L66.1407 52.5555Z" fill="#231F20"/>
<path d="M72.1986 54.1925V46.6722H75.5354V47.7676H73.3684V49.8354H75.2645V50.9431H73.3684V53.1217H75.5354V54.2047L72.1986 54.1925Z" fill="#231F20"/>
<path d="M80.2143 47.7676V54.1925H79.0446V47.7676H77.8133V46.6722H81.4087V47.7676H80.2143Z" fill="#231F20"/>
<path d="M86.7524 49.4784L85.1764 54.1925H84.0436V46.6722H85.1887V51.4354L86.7524 46.6722H87.8852V54.1925H86.7401V49.4784H86.7524Z" fill="#231F20"/>
<path d="M91.9608 52.297C91.9436 52.5409 92.0087 52.7836 92.1454 52.9863C92.2046 53.0542 92.2788 53.1074 92.3622 53.1416C92.4456 53.1758 92.5358 53.19 92.6256 53.1832C92.7228 53.1865 92.8191 53.163 92.9038 53.1152C92.9885 53.0674 93.0584 52.9973 93.1059 52.9124C93.2321 52.6306 93.2871 52.322 93.2659 52.0139C93.2659 51.2385 93.0443 50.8569 92.6133 50.8569H92.1578V49.8354H92.6256C92.7298 49.8429 92.8336 49.8172 92.9221 49.7619C93.0106 49.7065 93.0793 49.6245 93.1182 49.5277C93.2388 49.2659 93.2938 48.9786 93.2782 48.6908C93.2935 48.447 93.2286 48.205 93.0935 48.0015C93.035 47.9234 92.9586 47.8603 92.8708 47.8175C92.7831 47.7747 92.6864 47.7534 92.5887 47.7553C92.4891 47.7489 92.3896 47.7696 92.3007 47.8151C92.2118 47.8606 92.1369 47.9292 92.0839 48.0138C91.976 48.2147 91.917 48.4382 91.9115 48.6661L90.791 48.42C90.7998 47.9286 90.9932 47.4584 91.3328 47.103C91.6868 46.7855 92.1503 46.6178 92.6256 46.6353C93.8569 46.6353 94.4356 47.2999 94.4356 48.6415C94.4356 48.7646 94.4356 48.9123 94.4356 49.0723C94.4238 49.2349 94.3949 49.3958 94.3495 49.5523C94.3041 49.7082 94.2378 49.8573 94.1525 49.9954C94.0705 50.1285 93.9561 50.2386 93.82 50.3154C93.9542 50.3782 94.0691 50.476 94.1525 50.5985C94.2398 50.7178 94.3064 50.851 94.3495 50.9924C94.4007 51.1487 94.4378 51.3094 94.4603 51.4724C94.4729 51.6444 94.4729 51.8172 94.4603 51.9893C94.5108 52.6007 94.3452 53.2105 93.9924 53.7124C93.8171 53.9034 93.6009 54.0524 93.36 54.1483C93.1191 54.2442 92.8597 54.2845 92.601 54.2663C92.1175 54.289 91.6444 54.121 91.2836 53.7986C91.116 53.6222 90.9868 53.413 90.9041 53.1842C90.8215 52.9555 90.7872 52.7121 90.8034 52.4693L91.9608 52.297Z" fill="#231F20"/>
<path d="M99.9887 54.1925V50.9185H98.6466V54.1925H97.4892V46.6722H98.6466V49.8354H99.9887V46.6845H101.22V54.2047L99.9887 54.1925Z" fill="#231F20"/>
<path d="M107.032 54.1925L106.736 52.6293H105.357L105.209 53.417C105.209 53.6755 105.111 53.934 105.074 54.1925H103.843C104.101 52.9617 104.347 51.7308 104.606 50.4385C104.865 49.1461 105.111 47.9769 105.357 46.6722H106.662L108.177 54.1925H107.032ZM106.01 48.42L105.788 49.9708L105.53 51.5339H106.551L106.071 48.42H106.01Z" fill="#231F20"/>
<path d="M110.664 54.1925L111.083 51.8047C111.133 51.5664 111.211 51.335 111.317 51.1154C111.425 50.919 111.582 50.7536 111.772 50.6354C111.615 50.5805 111.471 50.4944 111.348 50.3823C111.226 50.2702 111.127 50.1344 111.058 49.9831C110.923 49.651 110.856 49.2953 110.861 48.9369C110.817 48.326 111.011 47.7219 111.403 47.2507C111.592 47.0562 111.821 46.9041 112.073 46.8044C112.326 46.7047 112.597 46.6596 112.868 46.6722H114.592V54.1925H113.36V50.9924H113.053C112.845 50.9953 112.646 51.0792 112.499 51.2262C112.292 51.4604 112.163 51.7528 112.129 52.0631L111.772 54.1925H110.664ZM112.966 47.7676C112.826 47.7522 112.684 47.7737 112.555 47.8298C112.425 47.8859 112.312 47.9747 112.228 48.0876C112.073 48.3384 112 48.6307 112.018 48.9246C112.003 49.063 112.018 49.2031 112.062 49.335C112.107 49.4669 112.18 49.5873 112.277 49.6877C112.473 49.8314 112.711 49.905 112.954 49.8969H113.422V47.7676H112.966Z" fill="#231F20"/>
<path d="M123.851 47.7676V54.1925H122.681V47.7676H121.45V46.6722H125.033V47.7676H123.851Z" fill="#231F20"/>
<path d="M131.091 52.297C131.13 52.8309 130.973 53.3606 130.648 53.7863C130.466 53.9663 130.248 54.1047 130.008 54.1918C129.767 54.279 129.511 54.3128 129.256 54.2909C129.006 54.3126 128.753 54.281 128.515 54.1983C128.278 54.1156 128.06 53.9836 127.877 53.8109C127.568 53.4159 127.414 52.9209 127.446 52.4201V48.6046C127.443 48.3338 127.48 48.0641 127.557 47.8046C127.617 47.5731 127.721 47.3556 127.865 47.1645C128.019 46.9863 128.213 46.8471 128.431 46.7584C128.698 46.6544 128.983 46.6042 129.269 46.6107C129.566 46.6048 129.862 46.6506 130.143 46.746C130.361 46.8228 130.553 46.9592 130.697 47.1399C130.848 47.322 130.953 47.5371 131.005 47.7676C131.068 48.042 131.097 48.3231 131.091 48.6046V52.297ZM129.921 48.5431C129.929 48.3454 129.882 48.1495 129.786 47.9769C129.736 47.8905 129.661 47.821 129.571 47.7771C129.481 47.7333 129.38 47.7172 129.281 47.7307C129.16 47.7257 129.04 47.7555 128.936 47.8168C128.852 47.8766 128.784 47.9571 128.739 48.0507C128.692 48.1437 128.659 48.2433 128.641 48.3461C128.636 48.4486 128.636 48.5513 128.641 48.6538V52.4447C128.64 52.6275 128.692 52.8066 128.788 52.9616C128.844 53.0426 128.92 53.1071 129.009 53.1483C129.097 53.1895 129.196 53.2058 129.293 53.1955C129.392 53.2032 129.49 53.1844 129.579 53.1411C129.668 53.0978 129.744 53.0316 129.798 52.9493C129.902 52.7701 129.953 52.5654 129.946 52.3585L129.921 48.5431Z" fill="#231F20"/>
<path d="M135.881 46.6722C136.157 46.6493 136.435 46.6858 136.697 46.7792C136.958 46.8726 137.196 47.0208 137.395 47.2137C137.776 47.7123 137.952 48.3375 137.888 48.9615C137.888 49.2841 137.855 49.6058 137.789 49.9215C137.725 50.1883 137.608 50.4395 137.444 50.66C137.281 50.8677 137.07 51.0324 136.829 51.14C136.519 51.2626 136.189 51.3212 135.856 51.3124H135.388V54.1924H134.218V46.6722H135.881ZM135.388 47.7676V50.2292H135.794C135.936 50.2458 136.078 50.2263 136.21 50.1724C136.341 50.1186 136.457 50.0323 136.546 49.9215C136.708 49.6426 136.781 49.3203 136.755 48.9984C136.773 48.6944 136.705 48.3914 136.558 48.1245C136.473 48.0116 136.36 47.9228 136.231 47.8667C136.101 47.8106 135.959 47.7891 135.819 47.8046L135.388 47.7676Z" fill="#231F20"/>
<path d="M141.889 47.7676V54.1925H140.72V46.6722H143.983V47.7676H141.889Z" fill="#231F20"/>
<path d="M149.88 52.297C149.92 52.8309 149.762 53.3606 149.437 53.7863C149.256 53.9663 149.037 54.1047 148.797 54.1918C148.557 54.279 148.3 54.3128 148.046 54.2909C147.795 54.3126 147.543 54.281 147.305 54.1983C147.067 54.1156 146.85 53.9836 146.667 53.8109C146.357 53.4159 146.204 52.9209 146.236 52.4201V48.6046C146.234 48.3348 146.267 48.0659 146.334 47.8046C146.403 47.5743 146.511 47.3578 146.654 47.1645C146.808 46.9863 147.003 46.8471 147.221 46.7584C147.487 46.6544 147.772 46.6042 148.058 46.6107C148.355 46.6048 148.651 46.6506 148.932 46.746C149.15 46.8228 149.342 46.9592 149.486 47.1399C149.632 47.325 149.737 47.5389 149.794 47.7676C149.857 48.042 149.886 48.3231 149.88 48.6046V52.297ZM148.649 48.5431C148.657 48.3454 148.61 48.1495 148.514 47.9769C148.463 47.8905 148.389 47.821 148.299 47.7771C148.209 47.7333 148.108 47.7172 148.009 47.7307C147.888 47.7226 147.767 47.7527 147.664 47.8168C147.579 47.8766 147.512 47.9571 147.467 48.0507C147.42 48.1437 147.386 48.2433 147.369 48.3461C147.363 48.4486 147.363 48.5513 147.369 48.6538V52.4447C147.368 52.6275 147.419 52.8066 147.516 52.9616C147.57 53.0436 147.646 53.1089 147.736 53.1502C147.825 53.1915 147.924 53.2072 148.021 53.1955C148.12 53.2032 148.218 53.1844 148.307 53.1411C148.396 53.0978 148.471 53.0316 148.526 52.9493C148.663 52.7595 148.736 52.5311 148.735 52.297L148.649 48.5431Z" fill="#231F20"/>
<path d="M155.741 50.2662C155.894 50.3091 156.035 50.3871 156.153 50.4939C156.27 50.6007 156.361 50.7335 156.418 50.8816C156.547 51.211 156.609 51.5621 156.603 51.9155C156.661 52.537 156.481 53.1573 156.098 53.6509C155.894 53.8433 155.651 53.9907 155.386 54.084C155.121 54.1772 154.839 54.2142 154.559 54.1925H153.008V46.6722H154.645C154.91 46.646 155.177 46.68 155.426 46.7717C155.676 46.8633 155.901 47.0103 156.086 47.2015C156.42 47.6324 156.582 48.1718 156.542 48.7154C156.548 49.0289 156.485 49.34 156.357 49.6262C156.298 49.7585 156.213 49.8778 156.107 49.9771C156.001 50.0764 155.877 50.1537 155.741 50.2046V50.2662ZM155.421 48.74C155.445 48.4744 155.375 48.2089 155.224 47.9892C155.13 47.9071 155.021 47.8451 154.902 47.807C154.784 47.7689 154.659 47.7555 154.535 47.7677H154.178V49.7123H154.547C154.669 49.7233 154.792 49.7069 154.907 49.6643C155.022 49.6217 155.126 49.554 155.212 49.4662C155.368 49.2576 155.442 48.9994 155.421 48.74ZM155.495 51.817C155.51 51.5406 155.441 51.2661 155.298 51.0293C155.213 50.936 155.108 50.8639 154.99 50.819C154.873 50.7741 154.746 50.7576 154.621 50.7708H154.178V53.1094H154.633C154.793 53.1187 154.951 53.0801 155.089 52.9986C155.198 52.9339 155.288 52.8402 155.347 52.7278C155.41 52.6 155.452 52.4628 155.47 52.3216C155.483 52.1616 155.495 51.9893 155.495 51.817Z" fill="#231F20"/>
<path d="M162.415 54.1925L162.119 52.6293H160.74C160.679 52.8878 160.642 53.1463 160.593 53.417C160.543 53.6878 160.494 53.934 160.457 54.1925H159.226C159.484 52.9617 159.731 51.7308 159.989 50.4385C160.248 49.1461 160.494 47.9769 160.74 46.6722H162.033L163.56 54.1925H162.415ZM161.393 48.42L161.171 49.9708L160.913 51.5339H161.935L161.454 48.42H161.393Z" fill="#231F20"/>
<path d="M166.047 54.1925L166.466 51.8047C166.51 51.5649 166.589 51.3327 166.7 51.1154C166.808 50.919 166.965 50.7536 167.155 50.6354C166.998 50.5805 166.854 50.4944 166.731 50.3823C166.609 50.2702 166.51 50.1344 166.441 49.9831C166.306 49.651 166.239 49.2953 166.244 48.9369C166.201 48.326 166.395 47.7219 166.786 47.2507C166.974 47.0549 167.203 46.902 167.456 46.8022C167.708 46.7024 167.98 46.658 168.251 46.6722H169.963V54.1925H168.793V50.9923H168.497C168.394 50.9911 168.291 51.0112 168.196 51.0514C168.101 51.0916 168.015 51.1512 167.943 51.2262C167.737 51.4604 167.608 51.7528 167.574 52.0631L167.217 54.1925H166.047ZM168.35 47.7676C168.209 47.7522 168.067 47.7736 167.938 47.8298C167.808 47.8859 167.696 47.9747 167.611 48.0876C167.452 48.337 167.375 48.6294 167.389 48.9246C167.375 49.0639 167.392 49.2046 167.439 49.3365C167.486 49.4684 167.561 49.5884 167.66 49.6877C167.856 49.8314 168.094 49.905 168.337 49.8969H168.793V47.7676H168.35Z" fill="#231F20"/>
<path d="M177.387 54.1925V46.6722H178.545V49.8354H178.791C179.021 49.8459 179.246 49.7665 179.419 49.6138C179.628 49.3897 179.761 49.1055 179.801 48.8015L179.899 48.3953C179.899 48.1984 179.985 47.9769 180.035 47.743C180.084 47.5091 180.133 47.2876 180.17 47.0784C180.207 46.8692 180.244 46.7337 180.256 46.6722H181.352C181.266 47.0538 181.192 47.4353 181.106 47.8046C181.02 48.1738 180.958 48.5431 180.872 48.9246C180.817 49.242 180.695 49.5441 180.515 49.8108C180.378 50.0207 180.18 50.1838 179.948 50.2785C180.211 50.3659 180.437 50.5394 180.589 50.7708C180.765 51.0385 180.882 51.3405 180.933 51.657C181.032 52.0755 181.118 52.4939 181.204 52.8878L181.463 54.1186H180.305L180.084 53.0232L179.862 51.9155C179.82 51.6074 179.692 51.3175 179.493 51.0785C179.409 50.999 179.311 50.9373 179.203 50.8971C179.095 50.8569 178.98 50.839 178.865 50.8447H178.545V54.1186L177.387 54.1925Z" fill="#231F20"/>
<path d="M187.755 52.297C187.794 52.8309 187.636 53.3606 187.311 53.7863C187.132 53.966 186.916 54.1043 186.678 54.1915C186.44 54.2787 186.185 54.3126 185.932 54.2909C185.68 54.3135 185.425 54.2825 185.185 54.1998C184.945 54.117 184.726 53.9845 184.541 53.8109C184.236 53.4142 184.087 52.9193 184.122 52.4201V48.6046C184.115 48.3345 184.148 48.0647 184.221 47.8046C184.279 47.5704 184.389 47.3519 184.541 47.1645C184.693 46.9837 184.887 46.844 185.107 46.7584C185.37 46.6544 185.65 46.6041 185.932 46.6107C186.23 46.6027 186.526 46.6485 186.807 46.746C187.025 46.8227 187.217 46.9592 187.361 47.1399C187.511 47.322 187.617 47.5371 187.668 47.7676C187.731 48.042 187.76 48.3231 187.755 48.6046V52.297ZM186.597 48.543C186.598 48.3462 186.552 48.152 186.462 47.9768C186.407 47.8916 186.33 47.8234 186.238 47.7799C186.147 47.7364 186.045 47.7193 185.945 47.7307C185.827 47.7235 185.711 47.7536 185.612 47.8168C185.524 47.8762 185.452 47.9566 185.403 48.0507C185.36 48.1443 185.331 48.2439 185.317 48.3461C185.306 48.4484 185.306 48.5515 185.317 48.6538V52.4447C185.316 52.6275 185.368 52.8066 185.464 52.9616C185.52 53.0426 185.596 53.1071 185.685 53.1483C185.773 53.1895 185.872 53.2058 185.969 53.1955C186.068 53.2032 186.166 53.1843 186.255 53.1411C186.344 53.0978 186.42 53.0316 186.474 52.9493C186.587 52.7737 186.643 52.5673 186.634 52.3585L186.597 48.543Z" fill="#231F20"/>
<path d="M193.061 52.5555L192.52 51.1646L192.076 49.8354H192.015V54.1801H190.857V46.6599H191.99L192.803 48.8015L193.394 50.4385L193.997 48.7646L194.81 46.6599H195.943V54.1801H194.773V49.8354L194.305 51.177L193.776 52.5309L193.061 52.5555Z" fill="#231F20"/>
<path d="M201.483 54.1925V47.8046H200.252V54.1925H199.082V46.6722H202.604V54.1925H201.483Z" fill="#231F20"/>
<path d="M208.539 54.1925L208.243 52.6293H206.864L206.716 53.417C206.716 53.6755 206.618 53.934 206.581 54.1925H205.35C205.608 52.9617 205.855 51.7308 206.113 50.4385C206.372 49.1461 206.618 47.9769 206.864 46.6722H208.169L209.684 54.1925H208.539ZM207.517 48.42L207.295 49.9708L207.037 51.5339H208.059L207.578 48.42H207.517Z" fill="#231F20"/>
<path d="M214.954 54.1925V50.9185H213.612V54.1925H212.454V46.6722H213.612V49.8354H214.954V46.6845H216.185V54.2047L214.954 54.1925Z" fill="#231F20"/>
<path d="M221.947 49.4784L220.371 54.1925H219.251V46.6722H220.384V51.4354L221.947 46.6722H223.08V54.1925H221.935V49.4784H221.947Z" fill="#231F20"/>
<path d="M225.986 54.1925L226.405 51.8047C226.455 51.5664 226.533 51.335 226.639 51.1154C226.747 50.919 226.904 50.7536 227.094 50.6354C226.937 50.5805 226.793 50.4944 226.67 50.3823C226.548 50.2702 226.449 50.1344 226.38 49.9831C226.25 49.6501 226.187 49.2944 226.195 48.9369C226.147 48.3275 226.337 47.7231 226.725 47.2507C226.914 47.0562 227.143 46.9041 227.395 46.8044C227.648 46.7047 227.919 46.6596 228.19 46.6722H229.902V54.1925H228.769V50.9924H228.461C228.253 50.9953 228.054 51.0792 227.907 51.2262C227.7 51.4593 227.575 51.7529 227.55 52.0631L227.193 54.1925H225.986ZM228.288 47.7676C228.148 47.7522 228.006 47.7737 227.877 47.8298C227.747 47.8859 227.634 47.9747 227.55 48.0876C227.395 48.3384 227.322 48.6307 227.34 48.9246C227.325 49.063 227.34 49.2031 227.385 49.335C227.429 49.4669 227.502 49.5873 227.599 49.6877C227.795 49.8314 228.033 49.905 228.276 49.8969H228.769V47.7676H228.288Z" fill="#231F20"/>
<path d="M229.951 39.4228H69.4652L68.8249 40.5305H229.951V39.4228Z" fill="#231F20"/>
<path d="M96.2579 17.2928V33.8349H91.2343V21.5268H81.1993V33.8349H76.1757V17.2928H96.2579Z" fill="#A11D21"/>
<path d="M136.866 21.4406H122.989V17.2928H137.654C138.838 17.3471 139.953 17.8686 140.754 18.7429C141.555 19.6173 141.976 20.7732 141.926 21.9576V23.4961C141.946 24.0909 141.846 24.6835 141.632 25.239C141.419 25.7944 141.096 26.3012 140.682 26.7294C140.269 27.1576 139.773 27.4984 139.226 27.7316C138.678 27.9648 138.089 28.0857 137.494 28.087H128.05V33.8349H123.026V24.1608H136.903L136.866 21.4406Z" fill="#A11D21"/>
<path d="M144.229 17.2928H164.877V33.8349H144.229V17.2928ZM148.932 21.4406V29.6624H160.162V21.4406H148.932Z" fill="#A11D21"/>
<path d="M175.294 21.4406C175.294 33.7487 171.145 33.7487 168.781 33.7487H167.205V29.6132H168.608C168.608 29.6132 171.071 29.6132 171.071 17.2436H188.136V33.8349H183.519V21.5268L175.294 21.4406Z" fill="#A11D21"/>
<path d="M201.114 22.5853H195.881L198.959 17.2928H203.084L212.762 33.8349H207.307L204.537 28.9117H197.211L194.49 33.8349H189.368L194.428 25.2192H202.567L201.114 22.5853Z" fill="#A11D21"/>
<path d="M221.947 33.8349H217.022V21.5268H209.413L206.95 17.379H230V21.5268H221.947V33.8349Z" fill="#A11D21"/>
<path d="M114.838 17.2928V23.533H104.397V17.2928H99.6932V27.2131H114.838V29.6625H99.6932V33.798H119.554V17.2928H114.838Z" fill="#A11D21"/>
<path d="M71.854 0H2.04017C0.217865 0 -0.52091 1.29233 0.39024 2.86776L35.2848 62.8204C35.4053 63.1651 35.63 63.4638 35.9278 63.6751C36.2256 63.8865 36.5818 64 36.9471 64C37.3123 64 37.6685 63.8865 37.9663 63.6751C38.2642 63.4638 38.4888 63.1651 38.6093 62.8204L73.5039 2.86776C74.4273 1.29233 73.627 0 71.854 0ZM36.9471 46.7707L33.8565 41.4782H40.013L36.9471 46.7707ZM42.771 36.9242L41.4412 39.2135H32.4529L31.0861 36.8627H42.771V36.9242ZM44.1501 34.5611H29.7441L28.3773 32.2102H45.5168L44.1501 34.5611ZM46.8589 29.9209H27.0475L25.6808 27.5701H48.2256L46.8589 29.9209ZM19.6352 24.37C19.68 23.1254 19.8491 21.8885 20.14 20.6775C20.4308 19.4816 20.8434 18.3186 21.3713 17.2067C22.5859 14.4686 24.4863 12.0899 26.8891 10.3004C29.2919 8.51084 32.1157 7.37102 35.0878 6.99098C34.8662 7.34791 34.6692 7.70484 34.4722 8.06177C34.2752 8.41871 34.0043 9.02182 33.795 9.50184C32.6659 11.8808 32.2388 14.5322 32.5637 17.1451V17.2805H37.9198V17.0713C37.8953 16.5875 37.8953 16.1028 37.9198 15.6189C37.9302 15.1246 37.9713 14.6313 38.0429 14.142C38.3723 11.7078 39.1665 9.35949 40.3823 7.22483C42.5349 7.66598 44.5777 8.53216 46.391 9.77261C48.7639 11.4075 50.719 13.5771 52.0985 16.1063C53.4781 18.6356 54.2434 21.4537 54.3328 24.333L19.6352 24.37Z" fill="#231F20"/>
</svg>
