<svg width="246" height="68" viewBox="0 0 246 68" fill="none" xmlns="http://www.w3.org/2000/svg">
<path d="M70.7406 55.8384L70.1612 54.3607L69.6739 52.9615H69.6081V57.5777H68.3702V49.5877H69.5291L70.3983 51.8631L71.0304 53.6023L71.6757 51.8239L72.5448 49.5877H73.7564V57.5777H72.5053V52.9485L72.0049 54.3738L71.4386 55.8123L70.7406 55.8384Z" fill="white"/>
<path d="M77.2199 57.5777V49.5877H80.7887V50.7515H78.4709V52.9485H80.499V54.1254H78.4709V56.44H80.7887V57.5907L77.2199 57.5777Z" fill="white"/>
<path d="M85.793 50.7515V57.5777H84.5419V50.7515H83.225V49.5877H87.0704V50.7515H85.793Z" fill="white"/>
<path d="M92.7858 52.5692L91.1002 57.5777H89.8886V49.5877H91.1133V54.6484L92.7858 49.5877H93.9974V57.5777H92.7727V52.5692H92.7858Z" fill="white"/>
<path d="M98.3564 55.5638C98.3381 55.823 98.4076 56.0808 98.5539 56.2961C98.6172 56.3683 98.6966 56.4248 98.7858 56.4612C98.8749 56.4975 98.9714 56.5126 99.0675 56.5054C99.1715 56.5089 99.2744 56.4839 99.365 56.4331C99.4556 56.3824 99.5304 56.3079 99.5811 56.2177C99.7162 55.9182 99.7749 55.5904 99.7523 55.2631C99.7523 54.4392 99.5153 54.0338 99.0544 54.0338H98.5671V52.9485H99.0675C99.1789 52.9564 99.2899 52.9291 99.3846 52.8703C99.4793 52.8116 99.5527 52.7244 99.5943 52.6215C99.7233 52.3434 99.7821 52.0381 99.7655 51.7323C99.7818 51.4734 99.7124 51.2162 99.5679 51C99.5053 50.917 99.4237 50.85 99.3298 50.8045C99.2359 50.759 99.1324 50.7364 99.028 50.7385C98.9214 50.7317 98.815 50.7536 98.72 50.8019C98.6249 50.8503 98.5448 50.9232 98.4881 51.0131C98.3727 51.2265 98.3095 51.4639 98.3037 51.7061L97.1053 51.4446C97.1147 50.9225 97.3215 50.423 97.6848 50.0454C98.0634 49.708 98.5592 49.5298 99.0675 49.5485C100.384 49.5485 101.003 50.2546 101.003 51.68C101.003 51.8108 101.003 51.9677 101.003 52.1377C100.991 52.3104 100.96 52.4813 100.911 52.6477C100.863 52.8133 100.792 52.9717 100.701 53.1185C100.613 53.2599 100.491 53.3769 100.345 53.4585C100.489 53.5252 100.611 53.6291 100.701 53.7592C100.794 53.886 100.865 54.0275 100.911 54.1777C100.966 54.3438 101.006 54.5145 101.03 54.6877C101.043 54.8705 101.043 55.0541 101.03 55.2369C101.084 55.8865 100.907 56.5344 100.529 57.0677C100.342 57.2706 100.111 57.4289 99.853 57.5308C99.5953 57.6327 99.3178 57.6755 99.0412 57.6562C98.5241 57.6803 98.0181 57.5018 97.6321 57.1592C97.4528 56.9718 97.3147 56.7496 97.2262 56.5065C97.1378 56.2634 97.1012 56.0048 97.1185 55.7469L98.3564 55.5638Z" fill="white"/>
<path d="M106.943 57.5777V54.0992H105.507V57.5777H104.269V49.5877H105.507V52.9485H106.943V49.6008H108.26V57.5907L106.943 57.5777Z" fill="white"/>
<path d="M114.475 57.5777L114.159 55.9169H112.684L112.526 56.7538C112.526 57.0285 112.421 57.3031 112.382 57.5777H111.065C111.341 56.27 111.605 54.9623 111.881 53.5892C112.158 52.2161 112.421 50.9738 112.684 49.5877H114.08L115.7 57.5777H114.475ZM113.382 51.4446L113.145 53.0923L112.869 54.7531H113.962L113.448 51.4446H113.382Z" fill="white"/>
<path d="M118.36 57.5777L118.808 55.0408C118.862 54.7876 118.946 54.5417 119.058 54.3085C119.174 54.0997 119.342 53.924 119.546 53.7984C119.378 53.7401 119.224 53.6486 119.092 53.5295C118.961 53.4104 118.855 53.2661 118.782 53.1054C118.637 52.7525 118.566 52.3746 118.571 51.9938C118.524 51.3448 118.732 50.703 119.15 50.2023C119.353 49.9957 119.598 49.834 119.868 49.7281C120.138 49.6222 120.427 49.5743 120.718 49.5877H122.561V57.5777H121.244V54.1777H120.915C120.693 54.1808 120.48 54.27 120.323 54.4262C120.102 54.675 119.964 54.9856 119.927 55.3154L119.546 57.5777H118.36ZM120.823 50.7515C120.673 50.7352 120.521 50.7579 120.383 50.8175C120.244 50.8772 120.123 50.9716 120.033 51.0915C119.868 51.3579 119.789 51.6685 119.809 51.9808C119.792 52.1278 119.808 52.2766 119.856 52.4168C119.904 52.5569 119.982 52.6849 120.086 52.7915C120.295 52.9442 120.55 53.0224 120.81 53.0138H121.31V50.7515H120.823Z" fill="white"/>
<path d="M132.465 50.7515V57.5777H131.213V50.7515H129.897V49.5877H133.729V50.7515H132.465Z" fill="white"/>
<path d="M140.208 55.5638C140.25 56.1311 140.081 56.6939 139.734 57.1461C139.54 57.3374 139.306 57.4844 139.049 57.577C138.792 57.6696 138.518 57.7055 138.246 57.6823C137.978 57.7053 137.708 57.6718 137.453 57.5839C137.199 57.496 136.967 57.3557 136.771 57.1723C136.44 56.7527 136.276 56.2267 136.31 55.6946V51.6408C136.306 51.3531 136.346 51.0665 136.428 50.7908C136.492 50.5448 136.604 50.3138 136.758 50.1107C136.922 49.9213 137.13 49.7735 137.363 49.6792C137.649 49.5687 137.953 49.5154 138.259 49.5223C138.577 49.516 138.893 49.5647 139.194 49.6661C139.427 49.7476 139.633 49.8926 139.787 50.0846C139.948 50.2781 140.06 50.5066 140.116 50.7515C140.183 51.0431 140.214 51.3417 140.208 51.6408V55.5638ZM138.957 51.5754C138.965 51.3654 138.915 51.1572 138.812 50.9738C138.758 50.882 138.678 50.8082 138.582 50.7616C138.486 50.7151 138.378 50.6979 138.272 50.7123C138.143 50.7069 138.015 50.7387 137.903 50.8038C137.813 50.8673 137.74 50.9529 137.693 51.0523C137.642 51.1511 137.606 51.2569 137.587 51.3662C137.582 51.4751 137.582 51.5842 137.587 51.6931V55.7207C137.587 55.9149 137.642 56.1053 137.745 56.27C137.804 56.356 137.886 56.4245 137.981 56.4683C138.076 56.5121 138.181 56.5294 138.285 56.5185C138.391 56.5266 138.496 56.5066 138.591 56.4606C138.686 56.4147 138.767 56.3443 138.825 56.2569C138.936 56.0664 138.991 55.849 138.983 55.6292L138.957 51.5754Z" fill="white"/>
<path d="M145.331 49.5877C145.626 49.5633 145.924 49.6021 146.203 49.7014C146.483 49.8006 146.738 49.958 146.951 50.163C147.358 50.6927 147.547 51.357 147.477 52.02C147.478 52.3627 147.442 52.7045 147.372 53.04C147.303 53.3235 147.178 53.5903 147.003 53.8246C146.829 54.0452 146.603 54.2202 146.345 54.3346C146.014 54.4648 145.66 54.5271 145.304 54.5177H144.804V57.5777H143.553V49.5877H145.331ZM144.804 50.7515V53.3669H145.239C145.389 53.3845 145.542 53.3638 145.683 53.3066C145.823 53.2494 145.947 53.1576 146.042 53.04C146.216 52.7436 146.294 52.4012 146.266 52.0592C146.285 51.7362 146.212 51.4142 146.055 51.1307C145.964 51.0108 145.844 50.9164 145.705 50.8568C145.567 50.7971 145.415 50.7744 145.265 50.7908L144.804 50.7515Z" fill="white"/>
<path d="M151.757 50.7515V57.5777H150.506V49.5877H153.996V50.7515H151.757Z" fill="white"/>
<path d="M160.304 55.5638C160.346 56.1311 160.177 56.6939 159.83 57.1461C159.636 57.3374 159.402 57.4844 159.145 57.577C158.889 57.6696 158.614 57.7055 158.342 57.6823C158.074 57.7053 157.804 57.6718 157.55 57.5839C157.295 57.496 157.063 57.3557 156.867 57.1723C156.536 56.7527 156.372 56.2267 156.406 55.6946V51.6408C156.405 51.3541 156.44 51.0685 156.511 50.7908C156.585 50.5462 156.701 50.3161 156.854 50.1107C157.019 49.9213 157.226 49.7735 157.46 49.6792C157.745 49.5687 158.049 49.5154 158.355 49.5223C158.673 49.516 158.989 49.5647 159.29 49.6661C159.523 49.7476 159.729 49.8926 159.883 50.0846C160.039 50.2812 160.151 50.5086 160.212 50.7515C160.279 51.0431 160.31 51.3417 160.304 51.6408V55.5638ZM158.987 51.5754C158.996 51.3654 158.946 51.1572 158.842 50.9738C158.789 50.882 158.709 50.8082 158.612 50.7616C158.516 50.7151 158.408 50.6979 158.302 50.7123C158.173 50.7037 158.044 50.7357 157.934 50.8038C157.843 50.8673 157.771 50.9529 157.723 51.0523C157.672 51.1511 157.637 51.2569 157.618 51.3662C157.612 51.4751 157.612 51.5842 157.618 51.6931V55.7207C157.617 55.9149 157.672 56.1053 157.776 56.27C157.834 56.3571 157.915 56.4265 158.01 56.4703C158.105 56.5142 158.211 56.5309 158.316 56.5185C158.421 56.5266 158.526 56.5066 158.621 56.4606C158.716 56.4147 158.797 56.3443 158.856 56.2569C159.002 56.0552 159.08 55.8125 159.079 55.5638L158.987 51.5754Z" fill="white"/>
<path d="M166.573 53.4062C166.736 53.4517 166.887 53.5346 167.013 53.6481C167.138 53.7616 167.236 53.9026 167.297 54.06C167.434 54.4099 167.501 54.7831 167.495 55.1585C167.556 55.8188 167.363 56.4779 166.955 57.0023C166.736 57.2067 166.476 57.3634 166.193 57.4625C165.909 57.5615 165.608 57.6008 165.308 57.5777H163.649V49.5877H165.401C165.684 49.5598 165.969 49.596 166.236 49.6934C166.503 49.7907 166.744 49.9468 166.941 50.15C167.299 50.6078 167.472 51.1809 167.429 51.7585C167.436 52.0916 167.368 52.4221 167.231 52.7261C167.168 52.8668 167.077 52.9935 166.964 53.099C166.851 53.2045 166.718 53.2867 166.573 53.3408V53.4062ZM166.23 51.7846C166.256 51.5025 166.181 51.2203 166.02 50.9869C165.919 50.8997 165.802 50.8338 165.675 50.7933C165.549 50.7529 165.415 50.7386 165.282 50.7516H164.9V52.8177H165.295C165.426 52.8293 165.558 52.8119 165.681 52.7666C165.804 52.7214 165.915 52.6495 166.006 52.5562C166.173 52.3346 166.253 52.0603 166.23 51.7846ZM166.309 55.0538C166.325 54.7602 166.252 54.4686 166.099 54.2169C166.008 54.1178 165.895 54.0412 165.77 53.9935C165.644 53.9458 165.508 53.9283 165.374 53.9423H164.9V56.4269H165.387C165.558 56.4369 165.728 56.3959 165.875 56.3092C165.992 56.2405 166.088 56.1409 166.151 56.0216C166.219 55.8858 166.263 55.74 166.283 55.59C166.296 55.42 166.309 55.2369 166.309 55.0538Z" fill="white"/>
<path d="M173.71 57.5777L173.394 55.9169H171.919C171.854 56.1915 171.814 56.4661 171.761 56.7538C171.709 57.0415 171.656 57.3031 171.616 57.5777H170.3C170.576 56.27 170.839 54.9623 171.116 53.5892C171.393 52.2161 171.656 50.9738 171.919 49.5877H173.302L174.935 57.5777H173.71ZM172.617 51.4446L172.38 53.0923L172.104 54.7531H173.197L172.683 51.4446H172.617Z" fill="white"/>
<path d="M177.595 57.5777L178.043 55.0408C178.09 54.786 178.175 54.5393 178.293 54.3085C178.409 54.0997 178.577 53.924 178.78 53.7984C178.613 53.7401 178.458 53.6486 178.327 53.5295C178.196 53.4104 178.09 53.2661 178.017 53.1054C177.872 52.7525 177.801 52.3746 177.806 51.9938C177.759 51.3448 177.967 50.703 178.385 50.2023C178.587 49.9943 178.831 49.8318 179.102 49.7257C179.372 49.6197 179.662 49.5726 179.953 49.5877H181.783V57.5777H180.532V54.1777H180.216C180.105 54.1763 179.995 54.1977 179.893 54.2404C179.791 54.2832 179.7 54.3464 179.623 54.4261C179.402 54.675 179.264 54.9856 179.228 55.3154L178.846 57.5777H177.595ZM180.058 50.7515C179.908 50.7352 179.756 50.7579 179.617 50.8175C179.479 50.8772 179.358 50.9716 179.268 51.0915C179.098 51.3564 179.015 51.6671 179.031 51.9808C179.016 52.1288 179.034 52.2782 179.084 52.4184C179.134 52.5586 179.215 52.686 179.32 52.7915C179.53 52.9442 179.785 53.0224 180.045 53.0138H180.532V50.7515H180.058Z" fill="white"/>
<path d="M189.724 57.5777V49.5877H190.962V52.9485H191.225C191.471 52.9596 191.712 52.8752 191.897 52.7131C192.121 52.4749 192.263 52.173 192.305 51.85L192.411 51.4184C192.411 51.2092 192.503 50.9738 192.555 50.7254C192.608 50.4769 192.661 50.2415 192.7 50.0192C192.74 49.7969 192.779 49.6531 192.792 49.5877H193.964C193.872 49.9931 193.793 50.3985 193.701 50.7908C193.609 51.1831 193.543 51.5754 193.451 51.9808C193.393 52.318 193.262 52.639 193.069 52.9223C192.923 53.1453 192.711 53.3186 192.463 53.4192C192.744 53.5121 192.985 53.6964 193.148 53.9423C193.337 54.2267 193.462 54.5476 193.517 54.8839C193.622 55.3285 193.714 55.7731 193.806 56.1915L194.083 57.4992H192.845L192.608 56.3354L192.371 55.1585C192.326 54.8312 192.189 54.5231 191.976 54.2692C191.887 54.1848 191.781 54.1192 191.666 54.0764C191.55 54.0337 191.427 54.0148 191.304 54.0208H190.962V57.4992L189.724 57.5777Z" fill="white"/>
<path d="M200.812 55.5638C200.854 56.1311 200.686 56.6939 200.338 57.1461C200.147 57.3371 199.916 57.4841 199.661 57.5767C199.406 57.6693 199.134 57.7054 198.863 57.6823C198.593 57.7063 198.321 57.6734 198.064 57.5855C197.808 57.4976 197.573 57.3568 197.375 57.1723C197.049 56.7508 196.89 56.225 196.928 55.6946V51.6407C196.919 51.3538 196.955 51.0672 197.033 50.7908C197.096 50.5419 197.212 50.3098 197.375 50.1107C197.537 49.9186 197.746 49.7702 197.981 49.6792C198.262 49.5687 198.562 49.5154 198.863 49.5223C199.181 49.5138 199.498 49.5625 199.798 49.6661C200.032 49.7476 200.237 49.8926 200.391 50.0846C200.552 50.2781 200.665 50.5066 200.72 50.7515C200.788 51.0431 200.819 51.3417 200.812 51.6407V55.5638ZM199.575 51.5754C199.575 51.3662 199.526 51.1599 199.43 50.9738C199.371 50.8833 199.289 50.8108 199.191 50.7645C199.093 50.7183 198.984 50.7002 198.877 50.7123C198.751 50.7046 198.627 50.7367 198.521 50.8038C198.427 50.8669 198.35 50.9523 198.297 51.0523C198.251 51.1517 198.22 51.2575 198.205 51.3661C198.194 51.4748 198.194 51.5844 198.205 51.6931V55.7207C198.205 55.9149 198.259 56.1053 198.363 56.27C198.422 56.356 198.503 56.4245 198.598 56.4683C198.693 56.512 198.799 56.5294 198.903 56.5185C199.008 56.5266 199.114 56.5066 199.209 56.4606C199.304 56.4146 199.385 56.3443 199.443 56.2569C199.564 56.0703 199.624 55.851 199.614 55.6292L199.575 51.5754Z" fill="white"/>
<path d="M206.488 55.8384L205.909 54.3607L205.435 52.9485H205.369V57.5646H204.131V49.5746H205.343L206.212 51.85L206.844 53.5892L207.489 51.8108L208.358 49.5746H209.57V57.5646H208.319V52.9485L207.819 54.3738L207.252 55.8123L206.488 55.8384Z" fill="white"/>
<path d="M215.496 57.5777V50.7908H214.179V57.5777H212.928V49.5877H216.695V57.5777H215.496Z" fill="white"/>
<path d="M223.042 57.5777L222.726 55.9169H221.251L221.093 56.7538C221.093 57.0285 220.988 57.3031 220.948 57.5777H219.631C219.908 56.27 220.171 54.9623 220.448 53.5892C220.724 52.2161 220.988 50.9738 221.251 49.5877H222.647L224.267 57.5777H223.042ZM221.949 51.4446L221.712 53.0923L221.435 54.7531H222.528L222.015 51.4446H221.949Z" fill="white"/>
<path d="M229.903 57.5777V54.0992H228.468V57.5777H227.23V49.5877H228.468V52.9485H229.903V49.6008H231.22V57.5907L229.903 57.5777Z" fill="white"/>
<path d="M237.383 52.5692L235.698 57.5777H234.499V49.5877H235.711V54.6484L237.383 49.5877H238.595V57.5777H237.37V52.5692H237.383Z" fill="white"/>
<path d="M241.703 57.5777L242.15 55.0408C242.204 54.7876 242.288 54.5417 242.401 54.3085C242.516 54.0997 242.684 53.924 242.888 53.7984C242.72 53.7401 242.566 53.6486 242.435 53.5295C242.303 53.4104 242.198 53.2661 242.124 53.1054C241.985 52.7515 241.918 52.3737 241.927 51.9938C241.875 51.3464 242.078 50.7043 242.493 50.2023C242.696 49.9957 242.94 49.834 243.21 49.7281C243.48 49.6222 243.77 49.5743 244.06 49.5877H245.891V57.5777H244.679V54.1777H244.35C244.127 54.1808 243.915 54.27 243.757 54.4262C243.536 54.6738 243.402 54.9858 243.375 55.3154L242.993 57.5777H241.703ZM244.165 50.7515C244.015 50.7352 243.863 50.7579 243.725 50.8175C243.586 50.8772 243.466 50.9716 243.375 51.0915C243.21 51.3579 243.132 51.6685 243.151 51.9808C243.135 52.1278 243.151 52.2766 243.199 52.4168C243.246 52.5569 243.325 52.6849 243.428 52.7915C243.637 52.9442 243.893 53.0224 244.152 53.0138H244.679V50.7515H244.165Z" fill="white"/>
<path d="M245.943 41.8854H74.2963L73.6115 43.0623H245.943V41.8854Z" fill="white"/>
<path d="M102.952 18.3731V35.9484H97.5794V22.8715H86.8465V35.9484H81.4735V18.3731H102.952Z" fill="white"/>
<path d="M146.384 22.78H131.543V18.3731H147.227C148.494 18.4308 149.687 18.9848 150.543 19.9137C151.4 20.8427 151.85 22.0709 151.797 23.3292V24.9638C151.818 25.5958 151.711 26.2254 151.483 26.8156C151.254 27.4057 150.908 27.9442 150.466 28.3991C150.024 28.8541 149.494 29.2162 148.908 29.4639C148.323 29.7117 147.693 29.8401 147.056 29.8415H136.955V35.9484H131.582V25.67H146.424L146.384 22.78Z" fill="white"/>
<path d="M154.259 18.3731H176.344V35.9484H154.259V18.3731ZM159.29 22.78V31.5154H171.3V22.78H159.29Z" fill="white"/>
<path d="M187.485 22.78C187.485 35.8569 183.047 35.8569 180.519 35.8569H178.833V31.4631H180.334C180.334 31.4631 182.968 31.463 182.968 18.3207H201.221V35.9484H196.282V22.8715L187.485 22.78Z" fill="white"/>
<path d="M215.101 23.9961H209.504L212.796 18.3731H217.208L227.559 35.9484H221.725L218.762 30.7177H210.926L208.016 35.9484H202.538L207.95 26.7946H216.655L215.101 23.9961Z" fill="white"/>
<path d="M237.383 35.9484H232.116V22.8715H223.977L221.343 18.4646H245.996V22.8715H237.383V35.9484Z" fill="white"/>
<path d="M122.825 18.3731V25.0031H111.657V18.3731H106.627V28.9131H122.825V31.5154H106.627V35.9092H127.868V18.3731H122.825Z" fill="white"/>
<path d="M76.8512 0H2.18205C0.233017 0 -0.557138 1.37306 0.41738 3.04691L37.7388 66.7446C37.8676 67.1108 38.108 67.4282 38.4265 67.6527C38.745 67.8773 39.126 67.9979 39.5166 67.9979C39.9073 67.9979 40.2883 67.8773 40.6068 67.6527C40.9253 67.4282 41.1656 67.1108 41.2945 66.7446L78.6159 3.04691C79.6036 1.37306 78.7476 0 76.8512 0ZM39.5166 49.6923L36.2112 44.0692H42.7957L39.5166 49.6923ZM45.7457 39.2308L44.3234 41.6631H34.7099L33.2481 39.1654H45.7457V39.2308ZM47.2206 36.72H31.8127L30.3509 34.2223H48.6824L47.2206 36.72ZM50.1178 31.79H28.9286L27.4668 29.2923H51.5796L50.1178 31.79ZM21.0008 25.8923C21.0486 24.57 21.2295 23.2558 21.5407 21.9692C21.8517 20.6985 22.293 19.4629 22.8576 18.2815C24.1567 15.3724 26.1893 12.8451 28.7592 10.9438C31.329 9.04248 34.3493 7.83147 37.5281 7.42768C37.291 7.80691 37.0803 8.18614 36.8696 8.56537C36.6589 8.9446 36.3692 9.58539 36.1453 10.0954C34.9377 12.6229 34.4809 15.4399 34.8284 18.2161V18.36H40.557V18.1377C40.5309 17.6237 40.5309 17.1086 40.557 16.5946C40.5682 16.0693 40.6121 15.5452 40.6887 15.0254C41.041 12.4391 41.8905 9.94414 43.1908 7.67615C45.4931 8.14485 47.6779 9.06514 49.6174 10.3831C52.1553 12.1201 54.2464 14.4252 55.7219 17.1125C57.1973 19.7997 58.0159 22.7938 58.1115 25.8531L21.0008 25.8923Z" fill="white"/>
</svg>
