<svg width="168" height="43" viewBox="0 0 168 43" fill="none" xmlns="http://www.w3.org/2000/svg">
<g clip-path="url(#clip0_1052_6629)">
<path fill-rule="evenodd" clip-rule="evenodd" d="M17.2732 1.11793C17.6637 0.880941 18.1644 0.860914 18.585 1.02447C18.8253 1.14129 19.0556 1.27814 19.2926 1.40498C24.5731 4.2822 29.8502 7.15941 35.1306 10.0366C34.3663 10.4939 33.5919 10.9345 32.8209 11.3851C29.69 13.2109 26.5557 15.0334 23.4248 16.8592C23.2212 16.976 23.0977 17.2197 23.1211 17.4533C23.1311 17.8171 23.1345 18.181 23.1478 18.5448C23.1712 18.7484 23.2847 18.9453 23.4516 19.0688C23.7119 19.2257 23.9756 19.3826 24.2393 19.5361C24.3561 19.5995 24.4629 19.6863 24.5931 19.7164C24.7433 19.7497 24.9102 19.7397 25.047 19.6629C28.712 17.5267 32.3803 15.3905 36.0452 13.2543C36.0452 19.3959 36.0452 25.5375 36.0452 31.6792C36.0652 32.0697 35.885 32.4469 35.6213 32.7239C35.4911 32.8641 35.3176 32.9475 35.1573 33.0443C29.7 36.262 24.246 39.4797 18.7886 42.694C18.6484 42.7808 18.4982 42.8576 18.3313 42.8876C17.9975 42.951 17.6337 42.9243 17.34 42.7474C11.8559 39.5131 6.3685 36.2754 0.881099 33.041C0.717545 32.9409 0.54064 32.8574 0.407126 32.7106C0.156788 32.4402 -0.0201169 32.0764 -0.00342774 31.7025C-8.99015e-05 25.5509 -8.99015e-05 19.4026 -8.99015e-05 13.251C5.40721 16.3985 10.8112 19.5461 16.2185 22.6904C16.3319 22.7538 16.4054 22.8873 16.402 23.0208C16.402 27.6537 16.402 32.2866 16.402 36.9196C16.402 37.1432 16.5422 37.3602 16.7425 37.4603C17.0262 37.6172 17.3133 37.7741 17.597 37.9343C17.7505 38.0377 17.9341 38.0811 18.1177 38.0578C18.2746 38.0511 18.4047 37.9543 18.5383 37.8842C18.7953 37.7407 19.0556 37.5971 19.3126 37.4536C19.5129 37.3468 19.6464 37.1232 19.6397 36.8962C19.6397 31.6959 19.6397 26.4922 19.6397 21.2918C19.6397 21.0715 19.5129 20.8546 19.316 20.7511C13.181 17.1796 7.04608 13.6081 0.91114 10.0366C6.36183 7.05928 11.8192 4.09194 17.2732 1.11793Z" fill="#D50032"/>
<path fill-rule="evenodd" clip-rule="evenodd" d="M58.2627 10.04H62.3649C62.3649 15.3772 62.3649 20.7178 62.3649 26.055C62.3649 27.9809 62.3682 29.9068 62.3649 31.8294C61.3702 32.0831 60.3555 32.2533 59.3341 32.3668C58.1692 32.4937 56.9976 32.5571 55.8261 32.5404C54.571 32.5137 53.3127 32.3201 52.1344 31.8795C50.9795 31.4489 49.9081 30.7513 49.1103 29.8067C48.6664 29.2827 48.3059 28.6885 48.0389 28.0577C47.6951 27.2432 47.5015 26.3687 47.4314 25.4875C47.3646 24.6598 47.388 23.822 47.5215 23.0009C47.6617 22.1364 47.9287 21.2919 48.3393 20.5142C48.6931 19.8433 49.1537 19.2258 49.7045 18.7017C50.2218 18.2044 50.8193 17.7938 51.4635 17.4734C52.822 16.7992 54.3674 16.5555 55.8728 16.6189C56.5938 16.6523 57.3247 16.7257 58.0057 16.9761C58.0958 17.0094 58.1792 17.0462 58.266 17.0896C58.266 14.7397 58.266 12.3899 58.266 10.04H58.2627ZM53.6131 20.6978C52.9722 21.0182 52.4315 21.5355 52.091 22.1664C51.7372 22.8106 51.5837 23.5483 51.5603 24.2792C51.5369 25.0837 51.6471 25.9081 51.9809 26.6458C52.2379 27.2165 52.6317 27.7239 53.1324 28.1044C53.6565 28.5016 54.2773 28.7586 54.9182 28.8921C55.4455 29.0056 55.9896 29.039 56.527 29.0257C57.1078 29.0123 57.6886 28.9689 58.2593 28.8588C58.2593 26.1451 58.2593 23.4348 58.2593 20.7211C57.535 20.3807 56.7273 20.2638 55.9329 20.2438C55.1385 20.2204 54.324 20.3406 53.6064 20.7011L53.6131 20.6978Z" fill="#414042"/>
<path fill-rule="evenodd" clip-rule="evenodd" d="M91.9348 10.04C93.3033 10.04 94.6718 10.04 96.037 10.04V31.8294C95.069 32.0831 94.081 32.2433 93.0863 32.3602C91.8981 32.4937 90.7031 32.5604 89.5082 32.5437C88.4033 32.5204 87.2985 32.3702 86.2438 32.0364C85.436 31.7794 84.6616 31.4089 83.974 30.9149C83.3532 30.4676 82.8091 29.9169 82.3752 29.2893C81.8144 28.4816 81.444 27.547 81.247 26.5857C81.0467 25.6044 81.01 24.593 81.1068 23.5983C81.2003 22.6637 81.4306 21.7392 81.8245 20.8847C82.1449 20.1871 82.5721 19.5395 83.0995 18.9821C83.6302 18.4147 84.2577 17.9407 84.9453 17.5769C86.1737 16.926 87.5689 16.6323 88.9507 16.6189C89.5048 16.6156 90.0622 16.6423 90.613 16.7257C91.0669 16.7958 91.5209 16.8993 91.9348 17.0962C91.9348 14.7464 91.9348 12.3999 91.9348 10.0501V10.04ZM87.5489 20.5776C86.8946 20.8446 86.3139 21.3052 85.9267 21.8994C85.4527 22.6137 85.2524 23.4782 85.2357 24.3293C85.2157 25.2572 85.3793 26.2152 85.8532 27.023C86.2271 27.6672 86.8012 28.1879 87.4721 28.5116C88.3232 28.9289 89.2912 29.0557 90.2325 29.0257C90.8032 29.0123 91.3773 28.9689 91.9381 28.8588C91.9381 27.3901 91.9381 25.9181 91.9381 24.4495C91.9381 23.2045 91.9448 21.9561 91.9348 20.7111C91.1003 20.3339 90.1724 20.2271 89.2645 20.2405C88.6804 20.2572 88.0963 20.3573 87.5522 20.5809L87.5489 20.5776Z" fill="#414042"/>
<path fill-rule="evenodd" clip-rule="evenodd" d="M67.4749 17.0295C68.6632 16.7758 69.8782 16.6323 71.0931 16.6123C72.1045 16.5956 73.1192 16.6857 74.1005 16.9361C74.9183 17.143 75.7094 17.4601 76.427 17.9007C77.0779 18.3012 77.6653 18.8086 78.146 19.4027C78.6934 20.077 79.1006 20.8613 79.3543 21.6891C79.6514 22.6371 79.7515 23.6418 79.7181 24.6331C79.6847 25.7346 79.5112 26.8361 79.1173 27.8675C78.8136 28.6619 78.3763 29.4095 77.8055 30.0471C77.2681 30.6512 76.6106 31.1519 75.8963 31.5257C74.5945 32.21 73.1159 32.4937 71.6572 32.5371C71.4503 32.5371 71.24 32.5505 71.0331 32.5371C71.0397 31.3422 71.0331 30.1472 71.0331 28.9523C71.9944 28.9389 72.9824 28.732 73.7901 28.1946C74.3709 27.8141 74.8349 27.26 75.1186 26.6258C75.3355 26.1485 75.459 25.6311 75.5124 25.1071C75.6026 24.1992 75.5358 23.2446 75.1286 22.4101C74.8215 21.7626 74.3075 21.2185 73.68 20.8714C73.226 20.6143 72.7187 20.4541 72.2013 20.3707C71.6439 20.2806 71.0765 20.2906 70.5124 20.3273C69.9349 20.374 69.3541 20.4641 68.8101 20.6744C68.8101 26.569 68.8101 32.4637 68.8101 38.3583H64.6711C64.6711 31.5291 64.6711 24.6999 64.6711 17.8706C65.5724 17.5001 66.5136 17.2298 67.4649 17.0262L67.4749 17.0295Z" fill="#414042"/>
<path fill-rule="evenodd" clip-rule="evenodd" d="M104.699 17.6231C105.65 17.296 106.655 17.1325 107.656 17.0924C108.741 17.0424 109.832 17.1759 110.887 17.4329C111.371 17.5564 111.855 17.6999 112.309 17.9202C112.309 22.4263 112.309 26.9324 112.309 31.4418C112.309 31.9725 112.322 32.5032 112.262 33.0306C112.165 33.9552 111.892 34.8764 111.384 35.6608C110.917 36.3951 110.25 36.9993 109.485 37.4132C108.571 37.9105 107.533 38.1508 106.498 38.2109C105.53 38.2577 104.552 38.1809 103.601 37.9873C103.09 37.8771 102.583 37.7369 102.105 37.5167C101.978 37.4532 101.852 37.3965 101.738 37.3164C101.745 36.9392 101.738 36.562 101.738 36.1849C102.542 36.6455 103.434 36.9492 104.348 37.0961C104.892 37.1862 105.446 37.2229 105.997 37.2229C106.925 37.2229 107.873 37.0761 108.714 36.6722C109.375 36.3584 109.956 35.8711 110.356 35.2603C110.844 34.5293 111.081 33.6615 111.164 32.797C111.211 32.3463 111.201 31.8924 111.204 31.4418C110.81 31.6688 110.373 31.8023 109.932 31.9057C108.878 32.1427 107.783 32.1895 106.708 32.096C105.787 32.0126 104.869 31.8156 104.014 31.4652C103.344 31.1881 102.709 30.8109 102.159 30.337C101.551 29.8163 101.05 29.1721 100.687 28.4611C100.259 27.6333 100.012 26.7221 99.9056 25.8008C99.7921 24.7861 99.8088 23.7481 100.029 22.7467C100.223 21.8655 100.573 21.0177 101.091 20.2767C101.508 19.6726 102.032 19.1419 102.626 18.7046C103.257 18.2406 103.964 17.8868 104.702 17.6332L104.699 17.6231ZM105.64 18.3641C104.826 18.5811 104.044 18.9349 103.367 19.4356C102.713 19.9196 102.159 20.5438 101.768 21.2547C101.287 22.1192 101.04 23.1005 100.984 24.0852C100.93 25.0699 101.024 26.0712 101.317 27.0158C101.574 27.8336 101.995 28.6046 102.583 29.2321C103.187 29.8864 103.961 30.3703 104.792 30.6774C105.773 31.0413 106.828 31.1714 107.87 31.1614C108.541 31.1581 109.211 31.1047 109.866 30.9545C110.323 30.851 110.77 30.7041 111.201 30.5272C111.201 26.5252 111.201 22.5231 111.201 18.5177C110.346 18.2373 109.452 18.0871 108.554 18.0571C107.573 18.0237 106.585 18.1071 105.637 18.3641H105.64Z" fill="#414042"/>
<path fill-rule="evenodd" clip-rule="evenodd" d="M130.807 17.0958C131.652 17.0491 132.503 17.1292 133.317 17.3561C134.025 17.5531 134.703 17.8635 135.31 18.2807C136.411 19.0317 137.256 20.1299 137.75 21.3649C138.274 22.6666 138.434 24.0986 138.317 25.4905C138.204 26.8289 137.79 28.1574 137.032 29.2722C136.612 29.8897 136.091 30.4405 135.487 30.8811C134.385 31.6988 133.024 32.1328 131.658 32.1928C130.25 32.2629 128.805 31.9659 127.586 31.2415C126.925 30.851 126.338 30.3437 125.854 29.7495C124.896 28.5813 124.365 27.0993 124.222 25.6039C124.068 24.0018 124.282 22.3395 124.993 20.8842C125.31 20.2334 125.727 19.6292 126.231 19.1119C126.782 18.5444 127.439 18.0771 128.157 17.7433C128.985 17.3561 129.893 17.1459 130.807 17.0958ZM130.627 18.0838C129.449 18.1906 128.297 18.6512 127.409 19.4356C126.855 19.9229 126.405 20.5238 126.074 21.1813C125.423 22.4764 125.23 23.9617 125.343 25.3937C125.41 26.1947 125.587 26.9925 125.904 27.7368C126.181 28.391 126.572 29.0019 127.062 29.5159C127.499 29.9765 128.02 30.3604 128.594 30.6407C129.255 30.9645 129.979 31.1514 130.71 31.2115C131.471 31.2716 132.249 31.2115 132.987 31.0046C134.065 30.7075 135.046 30.07 135.751 29.2021C136.572 28.2008 137.022 26.9357 137.166 25.6573C137.249 24.8863 137.239 24.1019 137.126 23.3342C136.956 22.186 136.525 21.0578 135.794 20.1432C135.09 19.2487 134.095 18.5945 132.997 18.2874C132.229 18.0704 131.421 18.0104 130.627 18.0838Z" fill="#414042"/>
<path fill-rule="evenodd" clip-rule="evenodd" d="M157.981 17.14C159.032 17.0399 160.097 17.0699 161.138 17.2435C162.003 17.3904 162.857 17.6507 163.635 18.0613C164.299 18.4118 164.907 18.8757 165.404 19.4398C165.948 20.054 166.355 20.785 166.626 21.5593C166.946 22.4839 167.08 23.4652 167.09 24.4432C167.103 25.4913 166.963 26.5494 166.609 27.5407C166.359 28.2517 165.995 28.9259 165.527 29.5201C165.07 30.1042 164.509 30.6082 163.885 31.0054C163.178 31.456 162.387 31.7731 161.572 31.9667C160.404 32.2404 159.186 32.2604 158.001 32.0969C158.001 31.7731 158.001 31.4493 158.001 31.1256C159.039 31.2758 160.107 31.2791 161.138 31.0622C162.033 30.8719 162.897 30.5014 163.622 29.934C164.289 29.4166 164.83 28.739 165.207 27.9813C165.654 27.0901 165.881 26.0988 165.938 25.1041C165.991 24.0861 165.905 23.048 165.594 22.0734C165.327 21.2356 164.88 20.4512 164.252 19.8337C163.635 19.2162 162.861 18.7689 162.036 18.4885C161.018 18.1414 159.933 18.0312 158.858 18.0513C158.301 18.0646 157.744 18.1114 157.193 18.2015C156.716 18.2782 156.238 18.3851 155.784 18.5486C155.781 23.8725 155.784 29.1963 155.784 34.5168C155.784 35.6617 155.788 36.8066 155.784 37.9515C155.417 37.9515 155.05 37.9515 154.683 37.9515C154.683 31.2724 154.683 24.5934 154.683 17.9144C155.741 17.5072 156.856 17.2502 157.984 17.1367L157.981 17.14Z" fill="#414042"/>
<path fill-rule="evenodd" clip-rule="evenodd" d="M121.131 17.3766C122.149 17.3166 123.174 17.3633 124.185 17.4868C124.185 17.8239 124.185 18.161 124.185 18.4982C123.204 18.3813 122.209 18.3179 121.221 18.3813C120.377 18.4347 119.522 18.5683 118.741 18.902C118.377 19.0623 118.027 19.2659 117.73 19.5262C117.439 19.7799 117.199 20.087 117.022 20.4308C116.808 20.8447 116.695 21.3019 116.648 21.7626C116.605 22.2132 116.628 22.6638 116.625 23.1144C116.625 26.1451 116.625 29.1726 116.625 32.2033H115.523C115.523 29.1192 115.523 26.035 115.523 22.9475C115.523 22.3634 115.5 21.7759 115.6 21.1951C115.714 20.4541 116.001 19.7332 116.488 19.159C116.992 18.5582 117.683 18.1443 118.411 17.8807C119.282 17.5636 120.21 17.43 121.131 17.3766Z" fill="#414042"/>
<path fill-rule="evenodd" clip-rule="evenodd" d="M140.297 17.3534C140.664 17.3534 141.034 17.35 141.401 17.3534C141.401 20.3741 141.401 23.3915 141.401 26.4122C141.411 26.9797 141.368 27.5538 141.472 28.1179C141.558 28.6186 141.745 29.1092 142.046 29.5231C142.453 30.0905 143.06 30.4877 143.708 30.7314C144.285 30.9517 144.896 31.0685 145.51 31.1353C146.702 31.2588 147.904 31.1954 149.088 31.0452C149.482 30.9951 149.876 30.9383 150.267 30.8649C150.267 26.3588 150.267 21.8561 150.267 17.35C150.634 17.35 151.004 17.35 151.372 17.35C151.372 21.2953 151.372 25.2407 151.372 29.186C151.372 30.0138 151.378 30.8416 151.368 31.6693C150.197 31.9063 149.012 32.1033 147.813 32.1733C146.642 32.2368 145.46 32.2034 144.305 31.9798C143.414 31.7995 142.526 31.4891 141.809 30.9183C141.442 30.6279 141.128 30.2708 140.894 29.8636C140.607 29.3729 140.44 28.8188 140.36 28.2547C140.273 27.6606 140.307 27.0564 140.3 26.4556C140.3 23.4182 140.3 20.3841 140.3 17.3467L140.297 17.3534Z" fill="#414042"/>
</g>
<defs>
<clipPath id="clip0_1052_6629">
<rect width="167.019" height="42" fill="white" transform="translate(0 0.917969)"/>
</clipPath>
</defs>
</svg>
