<svg width="87" height="43" viewBox="0 0 87 43" fill="none" xmlns="http://www.w3.org/2000/svg">
<g clip-path="url(#clip0_1052_6401)">
<path d="M41.923 0.950195H0V42.8745H41.923V0.950195Z" fill="#0155A5"/>
<path d="M86.5775 0.917969H44.5762V42.918H86.5775V0.917969Z" fill="#0155A5"/>
<path fill-rule="evenodd" clip-rule="evenodd" d="M84.0571 3.43848V40.3976H47.0953V3.43848H84.0571Z" fill="#FEFEFE"/>
<path fill-rule="evenodd" clip-rule="evenodd" d="M22.6718 30.508C22.211 29.9463 21.9773 29.208 21.9773 28.3156C21.9773 27.4232 22.2004 26.6623 22.64 26.1232C23.1193 25.5336 23.8245 25.2348 24.7381 25.2348H24.8085V23.7063H24.7381C23.3132 23.7063 22.2137 24.1525 21.47 25.0316C20.7928 25.8271 20.4502 26.9359 20.4502 28.3276C20.4502 29.7192 20.8233 30.7776 21.5577 31.6129C22.3305 32.4907 23.4075 32.9368 24.7607 32.9368H24.8311V31.4084H24.7607C23.8683 31.4084 23.1658 31.1056 22.6732 30.508H22.6718ZM17.2445 30.508C16.7838 29.9463 16.55 29.2093 16.55 28.3156C16.55 27.4219 16.7731 26.6623 17.2127 26.1232C17.6921 25.5336 18.3972 25.2348 19.3108 25.2348H19.3812V23.7063H19.3108C17.8859 23.7063 16.7864 24.1525 16.0428 25.0316C15.3668 25.8271 15.0229 26.9359 15.0229 28.3276C15.0229 29.7192 15.3961 30.7776 16.1304 31.6129C16.9033 32.4907 17.9802 32.9368 19.3334 32.9368H19.4038V31.4084H19.3334C18.441 31.4084 17.7385 31.1056 17.2459 30.508H17.2445ZM22.2323 15.6272V19.8806H23.8524V11.0737H22.2323V14.1412H21.3505C20.9867 14.1412 20.7158 14.0589 20.5445 13.8955C20.421 13.78 20.3612 13.626 20.3612 13.4228V11.075H18.7411V13.5901C18.7411 14.1691 18.9709 14.6591 19.4224 15.0482C19.8685 15.4333 20.4157 15.6285 21.0504 15.6285H22.2336L22.2323 15.6272ZM37.7346 23.4979L37.6204 23.6174C37.6204 23.6174 34.606 26.7646 34.3829 26.9983V23.9188H32.9673V32.6752H34.3829V29.0779C34.4188 29.0407 36.2314 27.1205 36.4359 26.904C36.4465 27.2187 36.6417 32.6752 36.6417 32.6752H38.0839L37.7346 23.4992V23.4979ZM27.1337 19.8806H28.7538V12.5371H30.1189V11.0737H25.7898V12.5371H27.1337V19.8806ZM30.8652 23.6174C30.8652 23.6174 27.8521 26.7646 27.6277 26.9983V23.9188H26.2121V32.6752H27.6277V29.0779C27.6635 29.0407 29.4762 27.1205 29.6807 26.904C29.6926 27.2187 29.8852 32.6752 29.8852 32.6752H31.3273L30.9781 23.4992L30.8639 23.6187L30.8652 23.6174ZM33.78 12.5384H34.367C34.7839 12.5384 35.0721 12.6632 35.2461 12.9222C35.3855 13.136 35.4851 13.5516 35.5488 14.12H33.7415C33.7455 13.942 33.776 12.7097 33.7813 12.5397L33.78 12.5384ZM33.7123 15.5834C33.8876 15.5834 35.5701 15.5834 35.7347 15.5834C35.7533 15.7626 36.1889 19.8819 36.1889 19.8819H37.8209L37.0733 13.4427C37.0733 12.5982 36.813 11.9621 36.2991 11.561C35.8901 11.2383 35.3297 11.0737 34.6339 11.0737H32.233L31.9355 19.8806H33.5556C33.5556 19.8806 33.7057 15.7746 33.7123 15.582V15.5834ZM5.47105 12.5384H7.47757V19.8819H9.09765V11.0737H3.85097V19.8806H5.47105V12.5371V12.5384ZM6.22931 28.6981C6.11378 28.9225 5.97833 29.0354 5.82694 29.0354C5.67556 29.0354 5.55737 28.9384 5.45113 28.7379C5.33826 28.5254 5.28116 28.2147 5.28116 27.8123V25.2361H5.34092C5.67556 25.2361 5.93052 25.4207 6.12174 25.8005C6.31828 26.1922 6.41787 26.8177 6.41787 27.6623C6.41787 28.1098 6.35546 28.459 6.23063 28.6994L6.22931 28.6981ZM5.34357 23.9308H3.84167V32.6686H5.27983V30.1296C5.5587 30.3739 5.86147 30.52 6.19478 30.52C6.67284 30.52 7.07255 30.2664 7.38063 29.7684C7.72456 29.208 7.89985 28.3767 7.89985 27.2984C7.89985 26.5481 7.76042 25.8762 7.48421 25.3025C7.04997 24.3942 6.33023 23.9321 5.34357 23.9321V23.9308ZM14.9831 17.7266C14.7719 18.2963 14.4758 18.5739 14.0761 18.5739C13.6764 18.5739 13.4042 18.2923 13.193 17.7147C12.9726 17.1105 12.861 16.3443 12.861 15.4373C12.861 14.5303 12.9712 13.7402 13.1877 13.1599C13.3949 12.6048 13.6843 12.3352 14.0761 12.3352C14.5156 12.3352 14.8277 12.6074 15.0309 13.1705C15.2194 13.6871 15.3151 14.4413 15.3151 15.4134C15.3151 16.3854 15.2035 17.1304 14.9831 17.7266ZM16.234 18.7226C16.7147 17.8926 16.959 16.7798 16.959 15.4134C16.959 14.0469 16.7067 12.958 16.2101 12.1267C15.7028 11.2795 14.9831 10.8506 14.0734 10.8506C13.1638 10.8506 12.5237 11.2835 12.0324 12.1347C11.5517 12.9673 11.3087 14.0735 11.3087 15.4253C11.3087 16.7772 11.5424 17.9524 12.0018 18.781C12.4733 19.6296 13.1691 20.0598 14.0734 20.0598C14.9778 20.0598 15.7187 19.6097 16.234 18.7213V18.7226ZM12.1771 30.5638C11.9872 31.1401 11.7084 31.431 11.3485 31.431C10.9886 31.431 10.731 31.1348 10.5411 30.5505C10.3433 29.9423 10.2437 29.1721 10.2437 28.2585C10.2437 27.3449 10.3419 26.5508 10.5371 25.9665C10.723 25.4061 10.9966 25.1219 11.3498 25.1219C11.7509 25.1219 12.0364 25.4021 12.2223 25.9771C12.3923 26.4977 12.4773 27.2572 12.4773 28.2333C12.4773 29.2093 12.3777 29.9609 12.1785 30.5612L12.1771 30.5638ZM13.2475 24.9692C12.796 24.1313 12.1585 23.7063 11.3498 23.7063C10.5836 23.7063 9.97409 24.1339 9.53853 24.9759C9.11093 25.8045 8.89315 26.904 8.89315 28.2452C8.89315 29.5865 9.10163 30.7577 9.51064 31.581C9.92761 32.4203 10.5464 32.8452 11.3498 32.8452C12.1532 32.8452 12.8119 32.4004 13.2687 31.5213C13.6963 30.6979 13.9141 29.5918 13.9141 28.2333C13.9141 26.8748 13.6897 25.7912 13.2475 24.9679V24.9692Z" fill="#FEFEFE"/>
<path fill-rule="evenodd" clip-rule="evenodd" d="M57.3151 14.5059C57.6259 15.1924 58.1358 15.8962 59.5235 16.8444C59.8342 17.0568 60.1768 17.499 59.9152 18.1205C59.6536 18.742 59.1636 19.6251 59.4571 19.9677C59.7519 20.3116 60.7983 20.4909 61.6482 20.1483C61.6482 20.1483 61.8288 20.6874 62.1395 21.0313C62.1395 21.0313 61.9921 21.3261 61.5021 21.1787C61.5021 21.1787 61.6827 21.6196 61.437 22.0937C61.437 22.0937 60.8647 21.9954 60.619 21.4722C60.619 21.4722 60.3906 21.8826 59.9325 22.0286C59.9325 22.0286 59.5554 21.8334 59.6377 21.0805C59.6377 21.0805 59.3602 21.7511 58.5089 21.8653C58.5089 21.8653 58.0189 21.2438 58.6563 20.4099C58.6563 20.4099 58.1982 20.8202 57.3643 20.6237C57.3643 20.6237 57.2328 20.1987 57.9857 19.6091C57.9857 19.6091 57.1345 19.5773 56.8079 18.8575C56.8079 18.8575 57.1677 18.4153 58.0508 18.5149C58.0508 18.5149 57.2328 18.3343 57.0535 17.353C57.0535 17.353 57.6418 16.9772 58.574 17.5814C58.574 17.5814 58.4107 17.2706 58.0176 16.9599C57.6245 16.6492 57.1505 15.782 57.3138 14.5072L57.3151 14.5059Z" fill="#0155A5"/>
<path fill-rule="evenodd" clip-rule="evenodd" d="M60.7372 24.3692C60.6137 24.2045 60.5207 24.0412 60.4517 23.8818C60.5977 25.0717 60.6509 25.8737 61.2936 26.6453C61.2936 26.6453 61.6813 26.1287 61.4317 24.8765C61.3241 24.8446 61.2033 24.7955 61.0864 24.7158C61.0864 24.7158 61.2325 25.2244 61.1422 25.737C61.1422 25.737 60.9098 25.5683 60.7385 24.3692H60.7372Z" fill="#0155A5"/>
<path fill-rule="evenodd" clip-rule="evenodd" d="M59.6257 24.2454C59.55 24.1484 59.4012 23.9439 59.3242 23.7979C59.2698 24.4884 59.0878 26.3077 59.6974 26.876C59.6974 26.876 60.1143 26.5706 60.2631 23.9187C60.1741 24.0674 60.0201 24.2241 59.9444 24.3104C59.9444 24.3104 60.0453 25.1523 59.7438 25.7459C59.7438 25.7459 59.4411 25.5162 59.627 24.2454H59.6257Z" fill="#0155A5"/>
<path fill-rule="evenodd" clip-rule="evenodd" d="M58.1742 25.6358C58.6868 25.0223 58.8395 23.1858 58.8395 23.1858C58.9099 23.138 58.9816 23.0862 59.052 23.0304C59.0825 23.0065 59.1104 22.9826 59.137 22.9561C59.137 23.0225 59.1396 23.0915 59.1449 23.1619C59.0706 24.2667 58.9843 25.4074 58.639 25.9745C58.3004 26.5295 57.6802 26.819 57.6802 26.819C57.0973 25.7819 57.8011 24.3902 58.3907 23.4235C58.4637 23.3956 58.5368 23.3624 58.6111 23.3239C58.404 24.0689 58.0122 24.9533 58.1729 25.6385L58.1742 25.6358Z" fill="#0155A5"/>
<path fill-rule="evenodd" clip-rule="evenodd" d="M56.7282 22.4464C56.7242 22.5659 56.7468 22.6615 56.7627 22.712C56.7694 22.7319 56.7773 22.7584 56.7906 22.7863C56.3019 23.267 55.9407 23.7238 55.217 24.7291C54.492 25.7357 53.3459 25.7755 53.3459 25.7755C53.4562 24.9615 53.6779 24.3174 54.2901 23.6229C54.9036 22.9284 55.6884 22.295 56.2661 21.874C56.4148 21.9431 56.6074 21.9856 56.853 21.9577C56.8716 21.955 56.8902 21.9537 56.9101 21.9497C56.8318 22.0506 56.7853 22.1516 56.7601 22.2458C56.3232 22.4968 55.0563 23.1395 54.5424 24.1753C54.5424 24.1753 55.3445 23.9244 56.7295 22.445L56.7282 22.4464Z" fill="#0155A5"/>
<path fill-rule="evenodd" clip-rule="evenodd" d="M55.8198 21.4316L55.8676 21.3453C55.8835 21.3174 55.9008 21.2909 55.9194 21.2656C55.448 21.4489 53.7681 22.0836 53.225 22.3638C52.6819 22.6467 51.8958 23.2867 51.4695 24.5855C51.4695 24.5855 52.6022 24.6877 53.5371 23.9135C54.4719 23.138 55.5622 22.0584 56.027 21.7145C55.9805 21.6706 55.9446 21.6295 55.9194 21.595C55.9194 21.595 54.6539 22.7171 53.3153 23.2004C53.3153 23.2004 53.6022 22.6812 54.1307 22.3041C54.7747 21.8459 55.2568 21.6919 55.8198 21.4316Z" fill="#0155A5"/>
<path fill-rule="evenodd" clip-rule="evenodd" d="M54.8598 20.6669C54.877 20.6217 54.8969 20.5793 54.9155 20.5381C54.3618 20.651 52.9767 20.817 52.3566 21.0068C51.7378 21.1967 50.6197 21.6496 49.9557 22.9151C49.9557 22.9151 50.9304 23.2165 52.7696 22.3507C54.6088 21.4849 55.1851 21.307 55.5357 21.214C55.2555 21.1928 55.0576 21.0985 54.954 21.0347C54.221 21.3601 53.2397 21.7478 52.2663 21.7731C52.2663 21.7731 52.747 21.4331 53.2516 21.222C53.8001 20.9922 54.4016 20.7838 54.8598 20.6669Z" fill="#0155A5"/>
<path fill-rule="evenodd" clip-rule="evenodd" d="M54.9049 19.755C55.0855 19.84 55.2236 19.8825 55.4586 19.9077C55.3312 19.99 55.2077 20.0963 55.1001 20.237C54.4521 20.4243 53.3472 20.6288 51.5253 20.7602C49.702 20.8917 48.73 20.5557 48.73 20.5557C49.3661 20.168 50.378 19.7736 51.0632 19.6408C51.7471 19.508 53.5451 19.5226 54.3339 19.415C54.3432 19.423 54.4388 19.5014 54.5928 19.5956C53.9302 19.6554 52.5173 19.7218 51.7882 20.091C51.7882 20.091 53.1347 20.2716 54.9062 19.755H54.9049Z" fill="#0155A5"/>
<path fill-rule="evenodd" clip-rule="evenodd" d="M54.7694 18.7087C54.861 18.6543 54.9726 18.6012 55.1067 18.5494C54.1851 18.2692 52.9169 17.8243 51.0113 17.6995C49.6117 17.6079 48.6024 17.6875 48.0806 17.823C48.0806 17.823 49.3527 18.7207 50.8095 19.0367C52.2649 19.3541 53.4481 19.1523 54.3112 19.1589C54.3683 19.0739 54.4321 18.9783 54.5343 18.8827C53.5238 18.8893 51.8426 18.6277 51.2397 18.4272C51.2397 18.4272 52.7058 18.1204 54.7681 18.7074L54.7694 18.7087Z" fill="#0155A5"/>
<path fill-rule="evenodd" clip-rule="evenodd" d="M54.7642 17.6218C54.7695 17.647 54.8757 18.1676 55.4786 18.4557C54.1839 17.8874 51.6302 17.5607 50.2598 16.991C48.4047 16.2208 48.0674 15.2581 48.0674 15.2581C49.6715 15.2156 50.9689 15.6086 51.9689 15.9141C53.1401 16.2739 54.9222 16.9379 55.5477 17.2168C55.3139 17.2261 55.0576 17.2938 54.8412 17.4372C53.9687 17.1026 53.5637 16.9618 52.7723 16.74C52.1481 16.5661 51.686 16.5302 51.2969 16.493C51.2969 16.493 51.8454 16.8569 52.751 17.1464C53.6474 17.4332 54.0365 17.481 54.7642 17.6191V17.6218Z" fill="#0155A5"/>
<path fill-rule="evenodd" clip-rule="evenodd" d="M54.6659 16.2077C54.719 16.2993 54.8717 16.5197 54.9315 16.6074C52.8825 16.2634 50.629 14.7137 49.9331 13.755C49.236 12.7949 49.4352 11.3594 49.4352 11.3594C50.1097 11.4962 51.5784 12.763 51.9582 13.1428C52.338 13.5226 53.488 14.6407 54.2821 15.2648L54.5318 15.9859C53.8505 15.4388 53.0405 14.8266 52.5372 14.4468C52.1495 14.1534 51.5691 13.7417 50.9928 13.5438C50.9928 13.5438 51.524 14.237 51.9529 14.573C52.4469 14.9647 52.9529 15.3047 53.3658 15.5318C53.7337 15.7336 53.9223 15.8478 54.6659 16.209V16.2077Z" fill="#0155A5"/>
<path fill-rule="evenodd" clip-rule="evenodd" d="M60.445 21.9422C60.5074 21.8891 60.5605 21.8346 60.6057 21.7842C60.7013 21.9037 61.016 22.2994 61.1714 22.6925C61.2896 23.0298 61.4157 23.4866 61.4781 23.7495C61.5405 24.0111 61.7278 24.5543 61.8407 24.7415C61.8407 24.7415 61.3414 24.8039 60.9722 24.3737C60.6083 23.9487 60.4848 23.5238 60.4291 23.0856C60.3839 22.7429 60.3985 22.2689 60.445 21.9409V21.9422Z" fill="#0155A5"/>
<path fill-rule="evenodd" clip-rule="evenodd" d="M59.6575 22.0072C59.7505 22.1307 59.8394 22.1825 59.8487 22.1865L59.9151 22.221L59.9869 22.1984C60.0479 22.1785 60.105 22.1546 60.1595 22.128C60.2312 22.3299 60.2604 22.4281 60.279 22.5994C60.3029 22.8279 60.348 23.1864 60.2617 23.4799C60.1582 23.8371 59.943 24.0549 59.8248 24.193C59.8248 24.193 59.4995 23.8331 59.4052 23.537C59.3069 23.2262 59.2724 22.8664 59.3933 22.4959C59.4583 22.2967 59.5646 22.1108 59.6575 22.0059V22.0072Z" fill="#0155A5"/>
<path fill-rule="evenodd" clip-rule="evenodd" d="M58.5328 22.0418C58.8661 21.9966 59.1197 21.8758 59.3096 21.7363C59.3521 21.8545 59.4172 22.0125 59.3694 22.237C59.3203 22.4614 59.1649 22.7097 58.9418 22.8903C58.6058 23.1585 58.1543 23.4122 57.6564 23.3338C57.6564 23.3338 57.5422 22.9607 58.5328 22.0418Z" fill="#0155A5"/>
<path fill-rule="evenodd" clip-rule="evenodd" d="M58.1556 21.4189C58.1955 21.7509 58.3548 21.9594 58.3681 21.9754C58.2513 22.1148 57.8316 22.8372 56.9552 22.715C56.9552 22.715 56.7175 22.2237 57.3018 21.8333C57.6975 21.569 57.8847 21.5146 58.157 21.4189H58.1556Z" fill="#0155A5"/>
<path fill-rule="evenodd" clip-rule="evenodd" d="M58.2326 20.8013C57.9989 20.8597 57.6948 20.8836 57.323 20.7947L57.2221 20.7721L57.1929 20.6738C56.7427 21.0417 56.2075 21.1014 56.0243 21.4321C56.0243 21.4321 56.2487 21.8491 56.833 21.7787C57.416 21.7096 57.8555 21.4361 58.1676 21.0443C58.1795 20.9846 58.2048 20.8757 58.2326 20.8V20.8013Z" fill="#0155A5"/>
<path fill-rule="evenodd" clip-rule="evenodd" d="M57.2221 20.2855C57.3058 20.1633 57.3629 19.9721 57.5368 19.7795C57.1517 19.7131 56.8025 19.7078 56.3496 19.7941C55.8118 19.8964 55.2621 20.0225 54.9872 20.8419C54.9872 20.8419 55.3338 21.1367 55.9606 21.0079C56.4931 20.899 56.9565 20.6692 57.2221 20.2855Z" fill="#0155A5"/>
<path fill-rule="evenodd" clip-rule="evenodd" d="M56.9938 19.3977C56.8583 19.2808 56.7348 19.1281 56.6445 18.9303L56.5981 18.828C56.1319 18.6368 55.6459 18.5399 55.1705 18.7178C54.6951 18.8957 54.569 19.1016 54.4481 19.2782C54.4481 19.2782 54.9753 19.7191 55.5822 19.7363C56.189 19.7536 56.7494 19.5796 56.9938 19.3977Z" fill="#0155A5"/>
<path fill-rule="evenodd" clip-rule="evenodd" d="M57.1344 18.4389C57.2141 18.4083 57.3057 18.3804 57.408 18.3592C57.2008 18.1773 56.9977 17.901 56.8994 17.4854C56.6829 17.5359 56.1743 17.5359 55.9499 17.4509C55.7268 17.3659 55.286 17.3592 54.942 17.5877C54.942 17.5877 55.0562 18.1892 55.8344 18.395C56.5661 18.5889 56.8383 18.5385 57.1344 18.4375V18.4389Z" fill="#0155A5"/>
<path fill-rule="evenodd" clip-rule="evenodd" d="M56.8544 17.2651L56.9566 17.2001C56.9699 17.1908 57.1452 17.0845 57.4426 17.062C57.1916 16.8747 56.5967 16.3754 56.1731 16.1364C55.7123 15.8774 54.9474 15.5348 54.5583 15.4844C54.5583 15.4844 54.9235 16.4431 55.3485 16.8296C55.7893 17.2306 56.0988 17.3793 56.8544 17.2665V17.2651Z" fill="#0155A5"/>
<path fill-rule="evenodd" clip-rule="evenodd" d="M57.6404 16.8242C57.4545 16.5812 57.3071 16.2479 57.1995 15.8548C57.1106 15.5334 56.9114 14.738 56.7905 14.5322C56.671 14.325 56.2408 13.604 55.4002 13.3809C55.4002 13.3809 55.1771 14.3197 55.5994 15.0647C55.9646 15.7047 56.7109 16.3807 57.6404 16.8255V16.8242Z" fill="#0155A5"/>
<path fill-rule="evenodd" clip-rule="evenodd" d="M62.3041 21.1941C62.409 21.2977 62.4887 21.3575 62.6759 21.4504C62.6759 21.4504 62.9442 21.963 62.6202 22.5805C62.2948 23.1993 62.0199 23.8301 61.8898 24.1807C61.8898 24.1807 61.7145 24.1554 61.5206 23.1874C61.3892 22.5314 61.2232 22.368 61.0505 22.1436C61.2378 22.2392 61.3918 22.2684 61.4038 22.2698L61.5339 22.2923L61.5937 22.1768C61.7092 21.9537 61.7437 21.7386 61.7437 21.5606C61.7437 21.5022 61.7397 21.4464 61.7344 21.3973C62.0359 21.4039 62.1965 21.2526 62.2576 21.1742C62.2629 21.1662 62.2683 21.1609 62.2722 21.1543L62.3028 21.1955L62.3041 21.1941Z" fill="#0155A5"/>
<path fill-rule="evenodd" clip-rule="evenodd" d="M55.1639 13.7733C55.1612 13.8623 55.1599 13.9632 55.1639 14.0695L55.1811 14.3005C54.6858 13.6671 54.0909 12.9035 53.5238 12.1997C53.1348 11.7177 52.8081 11.4255 52.4416 11.1905C52.7497 12.0842 53.2994 12.7973 53.6898 13.1519C54.0789 13.5078 54.6433 14.108 55.1931 14.4745L55.2462 14.6551C55.2887 14.8211 55.3537 14.9911 55.4454 15.1517C55.5742 15.3775 55.7428 15.6006 55.942 15.8144C55.7813 15.736 55.5981 15.651 55.4135 15.5727L55.2435 15.5023C53.731 14.7002 52.2291 13.039 51.6222 11.881C51.0154 10.7244 51.2677 9.38185 51.4284 8.66211C52.1149 9.24507 53.1042 10.3911 53.5345 11.0152C54.0643 11.7801 54.7429 12.865 55.1639 13.7468V13.7733Z" fill="#0155A5"/>
<path fill-rule="evenodd" clip-rule="evenodd" d="M76.3843 18.7087C76.2927 18.6543 76.1824 18.6012 76.0457 18.5494C76.9686 18.2692 78.2354 17.8243 80.141 17.6995C81.5393 17.6079 82.5486 17.6875 83.0704 17.823C83.0704 17.823 81.7983 18.7207 80.3415 19.0367C78.8861 19.3541 77.7043 19.1523 76.8398 19.1589C76.7827 19.0739 76.7189 18.9783 76.618 18.8827C77.6286 18.8893 79.3097 18.6277 79.9113 18.4272C79.9113 18.4272 78.4452 18.1204 76.3843 18.7074V18.7087Z" fill="#0155A5"/>
<path fill-rule="evenodd" clip-rule="evenodd" d="M76.3882 17.6218C76.3842 17.647 76.2767 18.1676 75.6738 18.4557C76.9685 17.8874 79.5208 17.5607 80.8926 16.991C82.7477 16.2208 83.085 15.2581 83.085 15.2581C81.4822 15.2156 80.1821 15.6086 79.1835 15.9141C78.0123 16.2739 76.2289 16.9379 75.6047 17.2168C75.8385 17.2261 76.0947 17.2938 76.3099 17.4372C77.1837 17.1026 77.5887 16.9618 78.3788 16.74C79.0029 16.5661 79.465 16.5302 79.8541 16.493C79.8541 16.493 79.3044 16.8569 78.4 17.1464C77.5024 17.4332 77.1159 17.481 76.3869 17.6191L76.3882 17.6218Z" fill="#0155A5"/>
<path fill-rule="evenodd" clip-rule="evenodd" d="M76.4865 16.2077C76.4334 16.2993 76.2807 16.5197 76.2209 16.6074C78.27 16.2634 80.5235 14.7137 81.2193 13.755C81.9151 12.7949 81.7173 11.3594 81.7173 11.3594C81.0414 11.4962 79.574 12.763 79.1942 13.1428C78.8144 13.5226 77.6644 14.6407 76.8703 15.2648L76.6207 15.9859C77.3019 15.4388 78.1106 14.8266 78.6152 14.4468C79.003 14.1534 79.5833 13.7417 80.1609 13.5438C80.1609 13.5438 79.6284 14.237 79.2008 14.573C78.7055 14.9647 78.2036 15.3047 77.7879 15.5318C77.4214 15.7336 77.2315 15.8478 76.4865 16.209V16.2077Z" fill="#0155A5"/>
<path fill-rule="evenodd" clip-rule="evenodd" d="M75.9899 13.7733C75.9925 13.8623 75.9952 13.9632 75.9912 14.0695L75.9739 14.3005C76.4692 13.6671 77.0642 12.9035 77.6312 12.1997C78.0203 11.7177 78.3469 11.4255 78.7121 11.1905C78.4054 12.0842 77.8556 12.7973 77.4652 13.1519C77.0761 13.5078 76.5117 14.108 75.962 14.4745L75.9089 14.6551C75.8664 14.8211 75.8013 14.9911 75.7097 15.1517C75.5809 15.3775 75.4122 15.6006 75.213 15.8144C75.3724 15.736 75.5569 15.651 75.7415 15.5727L75.9115 15.5023C77.424 14.7002 78.9259 13.039 79.5328 11.881C80.1397 10.7244 79.8887 9.38185 79.7267 8.66211C79.0401 9.24507 78.0508 10.3911 77.6192 11.0152C77.0894 11.7801 76.4108 12.865 75.9899 13.7468V13.7733Z" fill="#0155A5"/>
<path fill-rule="evenodd" clip-rule="evenodd" d="M57.0973 22.9101C56.4732 23.5342 55.1586 24.9326 55.2821 26.4517C55.2821 26.4517 56.5038 26.0693 57.0057 25.1742C57.5077 24.2792 57.8197 23.7175 58.0309 23.5156C57.8941 23.5342 57.7587 23.5342 57.6272 23.513L57.517 23.4944C57.2076 24.0574 56.5927 24.983 56.0403 25.3057C56.0403 25.3057 55.8995 24.5567 57.5236 23.0402C57.5475 22.9792 57.5794 22.9074 57.6245 22.8291C57.4758 22.8822 57.3058 22.9141 57.1159 22.9088L57.096 22.9114L57.0973 22.9101Z" fill="#0155A5"/>
<path fill-rule="evenodd" clip-rule="evenodd" d="M73.8387 14.5059C73.5279 15.1924 73.018 15.8962 71.6303 16.8444C71.3196 17.0568 70.977 17.499 71.2386 18.1205C71.5002 18.742 71.9902 19.6251 71.6954 19.9677C71.4006 20.3116 70.3542 20.4909 69.5043 20.1483C69.5043 20.1483 69.325 20.6874 69.0143 21.0313C69.0143 21.0313 69.1617 21.3261 69.6517 21.1787C69.6517 21.1787 69.4711 21.6196 69.7168 22.0937C69.7168 22.0937 70.2891 21.9954 70.5348 21.4722C70.5348 21.4722 70.7632 21.8826 71.2213 22.0286C71.2213 22.0286 71.5971 21.8334 71.5161 21.0805C71.5161 21.0805 71.7936 21.7511 72.6435 21.8653C72.6435 21.8653 73.1349 21.2438 72.4975 20.4099C72.4975 20.4099 72.9556 20.8202 73.7895 20.6237C73.7895 20.6237 73.9197 20.1987 73.1681 19.6091C73.1681 19.6091 74.0179 19.5773 74.3459 18.8575C74.3459 18.8575 73.9861 18.4153 73.103 18.5149C73.103 18.5149 73.9197 18.3343 74.1003 17.353C74.1003 17.353 73.512 16.9772 72.5798 17.5814C72.5798 17.5814 72.7431 17.2706 73.1349 16.9599C73.5279 16.6492 74.002 15.782 73.8387 14.5072V14.5059Z" fill="#0155A5"/>
<path fill-rule="evenodd" clip-rule="evenodd" d="M70.4152 24.3692C70.5387 24.2045 70.6316 24.0412 70.6993 23.8818C70.5546 25.0717 70.5001 25.8737 69.8574 26.6453C69.8574 26.6453 69.4697 26.1287 69.7207 24.8765C69.8282 24.8446 69.9491 24.7955 70.0659 24.7158C70.0659 24.7158 69.9185 25.2244 70.0101 25.737C70.0101 25.737 70.2425 25.5683 70.4138 24.3692H70.4152Z" fill="#0155A5"/>
<path fill-rule="evenodd" clip-rule="evenodd" d="M71.5267 24.2454C71.6037 24.1484 71.7511 23.9439 71.8295 23.7979C71.8826 24.4884 72.0645 26.3077 71.4563 26.876C71.4563 26.876 71.038 26.5706 70.892 23.9187C70.9796 24.0674 71.135 24.2241 71.2093 24.3104C71.2093 24.3104 71.1084 25.1523 71.4099 25.7459C71.4099 25.7459 71.7126 25.5162 71.5267 24.2454Z" fill="#0155A5"/>
<path fill-rule="evenodd" clip-rule="evenodd" d="M72.9795 25.6358C72.4669 25.0223 72.3129 23.1858 72.3129 23.1858C72.2425 23.138 72.1708 23.0862 72.1004 23.0304C72.0712 23.0065 72.042 22.9826 72.0154 22.9561C72.0154 23.0225 72.0141 23.0915 72.0061 23.1619C72.0805 24.2667 72.1681 25.4074 72.5134 25.9745C72.8507 26.5295 73.4722 26.819 73.4722 26.819C74.0551 25.7819 73.3513 24.3902 72.7617 23.4235C72.6873 23.3956 72.6143 23.3624 72.5399 23.3239C72.7471 24.0689 73.1388 24.9533 72.9782 25.6385L72.9795 25.6358Z" fill="#0155A5"/>
<path fill-rule="evenodd" clip-rule="evenodd" d="M74.4242 22.4464C74.4282 22.5659 74.4056 22.6615 74.3897 22.712C74.3831 22.7319 74.3764 22.7584 74.3631 22.7863C74.8505 23.267 75.213 23.7238 75.9368 24.7291C76.6605 25.7357 77.8078 25.7755 77.8078 25.7755C77.6963 24.9615 77.4758 24.3174 76.8623 23.6229C76.2488 22.9284 75.4627 22.295 74.8864 21.874C74.7376 21.9431 74.5451 21.9856 74.2994 21.9577C74.2808 21.955 74.2609 21.9537 74.2423 21.9497C74.3193 22.0506 74.3658 22.1516 74.3924 22.2458C74.8293 22.4968 76.0974 23.1395 76.61 24.1753C76.61 24.1753 75.8079 23.9244 74.4229 22.445L74.4242 22.4464Z" fill="#0155A5"/>
<path fill-rule="evenodd" clip-rule="evenodd" d="M75.3339 21.4316L75.286 21.3453C75.2701 21.3174 75.2529 21.2909 75.2356 21.2656C75.7057 21.4489 77.3868 22.0836 77.9286 22.3638C78.4718 22.6467 79.2579 23.2867 79.6855 24.5855C79.6855 24.5855 78.5528 24.6877 77.6166 23.9135C76.6804 23.138 75.5915 22.0584 75.1254 21.7145C75.1732 21.6706 75.209 21.6295 75.2343 21.595C75.2343 21.595 76.4998 22.7171 77.837 23.2004C77.837 23.2004 77.5502 22.6812 77.0217 22.3041C76.3776 21.8459 75.8969 21.6919 75.3325 21.4316H75.3339Z" fill="#0155A5"/>
<path fill-rule="evenodd" clip-rule="evenodd" d="M76.294 20.6669C76.2754 20.6217 76.2568 20.5793 76.2368 20.5381C76.7919 20.651 78.177 20.817 78.7958 21.0068C79.4146 21.1967 80.5341 21.6496 81.198 22.9151C81.198 22.9151 80.2233 23.2165 78.3828 22.3507C76.5436 21.4849 75.9699 21.307 75.6167 21.214C75.8969 21.1928 76.0948 21.0985 76.1983 21.0347C76.9314 21.3601 77.9127 21.7478 78.8861 21.7731C78.8861 21.7731 78.4054 21.4331 77.9008 21.222C77.3536 20.9922 76.7508 20.7838 76.2926 20.6669H76.294Z" fill="#0155A5"/>
<path fill-rule="evenodd" clip-rule="evenodd" d="M76.2475 19.755C76.0669 19.84 75.9288 19.8825 75.6937 19.9077C75.8225 19.99 75.9447 20.0963 76.0536 20.237C76.7016 20.4243 77.8051 20.6288 79.6284 20.7602C81.4517 20.8917 82.4237 20.5557 82.4237 20.5557C81.789 20.168 80.7757 19.7736 80.0919 19.6408C79.4066 19.508 77.6073 19.5226 76.8198 19.415C76.8105 19.423 76.7149 19.5014 76.5609 19.5956C77.2235 19.6554 78.6364 19.7218 79.3655 20.091C79.3655 20.091 78.0203 20.2716 76.2488 19.755H76.2475Z" fill="#0155A5"/>
<path fill-rule="evenodd" clip-rule="evenodd" d="M70.7087 21.9422C70.6463 21.8891 70.5931 21.8346 70.548 21.7842C70.4524 21.9037 70.1377 22.2994 69.9836 22.6925C69.8641 23.0298 69.7393 23.4866 69.6769 23.7495C69.6145 24.0111 69.4272 24.5543 69.3143 24.7415C69.3143 24.7415 69.815 24.8039 70.1828 24.3737C70.5453 23.9487 70.6702 23.5238 70.7259 23.0856C70.7698 22.7429 70.7565 22.2689 70.71 21.9409L70.7087 21.9422Z" fill="#0155A5"/>
<path fill-rule="evenodd" clip-rule="evenodd" d="M71.4935 22.0072C71.4019 22.1307 71.3116 22.1825 71.3036 22.1865L71.2372 22.221L71.1655 22.1984C71.1031 22.1785 71.0473 22.1546 70.9929 22.128C70.9225 22.3299 70.8919 22.4281 70.8733 22.5994C70.8494 22.8279 70.803 23.1864 70.8893 23.4799C70.9942 23.8371 71.2067 24.0549 71.3248 24.193C71.3248 24.193 71.6515 23.8331 71.7458 23.537C71.8441 23.2262 71.8786 22.8664 71.7577 22.4959C71.6927 22.2967 71.5864 22.1108 71.4922 22.0059L71.4935 22.0072Z" fill="#0155A5"/>
<path fill-rule="evenodd" clip-rule="evenodd" d="M72.6209 22.0418C72.2876 21.9966 72.0326 21.8758 71.8427 21.7363C71.8002 21.8545 71.7352 22.0125 71.7843 22.237C71.8321 22.4614 71.9875 22.7097 72.2119 22.8903C72.5465 23.1585 72.9994 23.4122 73.496 23.3338C73.496 23.3338 73.6102 22.9607 72.6196 22.0418H72.6209Z" fill="#0155A5"/>
<path fill-rule="evenodd" clip-rule="evenodd" d="M72.9967 21.4189C72.9568 21.7509 72.7975 21.9594 72.7855 21.9754C72.9024 22.1148 73.322 22.8372 74.1984 22.715C74.1984 22.715 74.4348 22.2237 73.8519 21.8333C73.4548 21.569 73.2689 21.5146 72.998 21.4189H72.9967Z" fill="#0155A5"/>
<path fill-rule="evenodd" clip-rule="evenodd" d="M72.9197 20.8013C73.1534 20.8597 73.4575 20.8836 73.8293 20.7947L73.9289 20.7721L73.9594 20.6738C74.4083 21.0417 74.9434 21.1014 75.1267 21.4321C75.1267 21.4321 74.9023 21.8491 74.3193 21.7787C73.7363 21.7096 73.2968 21.4361 72.9847 21.0443C72.9728 20.9846 72.9475 20.8757 72.9183 20.8L72.9197 20.8013Z" fill="#0155A5"/>
<path fill-rule="evenodd" clip-rule="evenodd" d="M73.9315 20.2855C73.8465 20.1633 73.7908 19.9721 73.6155 19.7795C74.0019 19.7131 74.3512 19.7078 74.8027 19.7941C75.3418 19.8964 75.8902 20.0225 76.1651 20.8419C76.1651 20.8419 75.8185 21.1367 75.1917 21.0079C74.6592 20.899 74.1958 20.6692 73.9315 20.2855Z" fill="#0155A5"/>
<path fill-rule="evenodd" clip-rule="evenodd" d="M74.1587 19.3977C74.2941 19.2808 74.4176 19.1281 74.5079 18.9303L74.5544 18.828C75.0218 18.6368 75.5079 18.5399 75.9819 18.7178C76.4587 18.8957 76.5835 19.1016 76.7043 19.2782C76.7043 19.2782 76.1772 19.7191 75.5703 19.7363C74.9634 19.7536 74.403 19.5796 74.16 19.3977H74.1587Z" fill="#0155A5"/>
<path fill-rule="evenodd" clip-rule="evenodd" d="M74.0179 18.4389C73.9382 18.4083 73.8479 18.3804 73.7469 18.3592C73.9541 18.1773 74.156 17.901 74.2556 17.4854C74.472 17.5359 74.9819 17.5359 75.205 17.4509C75.4281 17.3659 75.869 17.3592 76.2116 17.5877C76.2116 17.5877 76.0987 18.1892 75.3179 18.395C74.5862 18.5889 74.3153 18.5385 74.0165 18.4375L74.0179 18.4389Z" fill="#0155A5"/>
<path fill-rule="evenodd" clip-rule="evenodd" d="M74.2981 17.2651L74.1959 17.2001C74.1826 17.1908 74.0073 17.0845 73.7098 17.062C73.9608 16.8747 74.5557 16.3754 74.9807 16.1364C75.4401 15.8774 76.2064 15.5348 76.5954 15.4844C76.5954 15.4844 76.2303 16.4431 75.8053 16.8296C75.3644 17.2306 75.055 17.3793 74.2981 17.2665V17.2651Z" fill="#0155A5"/>
<path fill-rule="evenodd" clip-rule="evenodd" d="M73.512 16.8242C73.6979 16.5812 73.8466 16.2479 73.9542 15.8548C74.0418 15.5334 74.2437 14.738 74.3632 14.5322C74.4827 14.325 74.9129 13.604 75.7535 13.3809C75.7535 13.3809 75.9766 14.3197 75.5543 15.0647C75.1878 15.7047 74.4428 16.3807 73.512 16.8255V16.8242Z" fill="#0155A5"/>
<path fill-rule="evenodd" clip-rule="evenodd" d="M68.8483 21.1941C68.7407 21.2977 68.6637 21.3575 68.4765 21.4504C68.4765 21.4504 68.2082 21.963 68.5322 22.5805C68.8563 23.1993 69.1325 23.8301 69.2626 24.1807C69.2626 24.1807 69.4366 24.1554 69.6304 23.1874C69.7619 22.5314 69.9279 22.368 70.1005 22.1436C69.9133 22.2392 69.7592 22.2684 69.746 22.2698L69.6158 22.2923L69.5561 22.1768C69.4405 21.9537 69.406 21.7386 69.406 21.5606C69.406 21.5022 69.41 21.4464 69.4153 21.3973C69.1125 21.4039 68.9532 21.2526 68.8908 21.1742C68.8855 21.1662 68.8815 21.1609 68.8762 21.1543L68.8456 21.1955L68.8483 21.1941Z" fill="#0155A5"/>
<path fill-rule="evenodd" clip-rule="evenodd" d="M74.0564 22.9101C74.6792 23.5342 75.9939 24.9326 75.8704 26.4517C75.8704 26.4517 74.6487 26.0693 74.1467 25.1742C73.6448 24.2792 73.3341 23.7175 73.1216 23.5156C73.257 23.5342 73.3925 23.5342 73.5253 23.513L73.6355 23.4944C73.9449 24.0574 74.5584 24.983 75.1122 25.3057C75.1122 25.3057 75.2529 24.5567 73.6289 23.0402C73.605 22.9792 73.5718 22.9074 73.5279 22.8291C73.6753 22.8822 73.8453 22.9141 74.0365 22.9088L74.0564 22.9114V22.9101Z" fill="#0155A5"/>
<path fill-rule="evenodd" clip-rule="evenodd" d="M64.6228 10.8028C64.6228 10.6912 65.0504 10.5996 65.5763 10.5996C66.1021 10.5996 66.5297 10.6912 66.5297 10.8028C66.5297 10.9143 66.1035 11.006 65.5763 11.006C65.0491 11.006 64.6228 10.9157 64.6228 10.8028Z" fill="#0155A5"/>
<path fill-rule="evenodd" clip-rule="evenodd" d="M61.3853 11.9016C61.3853 11.8405 61.6601 11.79 62.0001 11.79C62.34 11.79 62.6136 11.8392 62.6136 11.9016C62.6136 11.964 62.3387 12.0131 62.0001 12.0131C61.6615 12.0131 61.3853 11.964 61.3853 11.9016Z" fill="#0155A5"/>
<path fill-rule="evenodd" clip-rule="evenodd" d="M65.7634 11.2507C65.7634 11.3543 65.6797 11.438 65.5761 11.438C65.4726 11.438 65.3876 11.3543 65.3876 11.2507C65.3876 11.1471 65.4712 11.0635 65.5761 11.0635C65.681 11.0635 65.7634 11.1471 65.7634 11.2507Z" fill="#0155A5"/>
<path fill-rule="evenodd" clip-rule="evenodd" d="M64.5537 10.6055C64.2363 9.84857 64.0238 9.29084 64.0331 9.1036C64.0384 8.9894 64.1739 8.90574 64.3 8.86723C64.4262 8.82739 64.5391 8.82075 64.6227 8.88449C64.7874 9.01064 64.9414 10.0332 64.9985 10.4568C64.8379 10.4886 64.7409 10.5086 64.5537 10.6055Z" fill="#0155A5"/>
<path fill-rule="evenodd" clip-rule="evenodd" d="M65.134 10.441C65.2136 10.4331 65.2973 10.4277 65.381 10.4251C65.3305 10.0201 65.1897 9.34415 65.1074 9.07723C65.0251 8.81165 64.9188 8.61909 64.7449 8.57129C64.7449 8.57129 64.8803 8.94178 64.9547 9.32689C65.0291 9.71066 65.0862 10.0785 65.134 10.4424V10.441Z" fill="#0155A5"/>
<path fill-rule="evenodd" clip-rule="evenodd" d="M64.1287 11.7962C64.4779 11.7126 64.8365 11.3394 64.8365 11.3394C64.2721 11.4218 64.1287 11.7962 64.1287 11.7962ZM64.6519 11.7617C64.1645 12.0472 63.6174 12.0021 63.6174 12.0021C63.7223 11.8095 63.8219 11.6316 64.1274 11.4125C64.4328 11.1947 64.9308 11.1389 65.126 11.1668C65.0821 11.3129 64.8816 11.6263 64.6506 11.7617H64.6519Z" fill="#0155A5"/>
<path fill-rule="evenodd" clip-rule="evenodd" d="M62.8327 12.5638V12.524C62.352 12.5851 61.7849 12.5585 61.7849 12.5585C61.8155 12.7378 61.8898 12.8732 62.016 12.9556C62.0465 12.5665 62.8327 12.5625 62.8327 12.5625V12.5638ZM61.2405 12.0486C61.2405 12.0486 61.846 12.2757 62.4542 12.2451C63.0611 12.2146 64.1779 12.2013 64.5404 12.0273C64.5404 12.0273 64.4806 12.2544 64.1925 12.3859C64.1925 12.3859 64.3452 12.3859 64.4939 12.516C64.4939 12.516 64.4063 12.7033 64.15 12.8042C64.15 12.8042 64.6121 13.2849 65.1061 13.249C65.1061 13.249 64.879 13.5319 64.3731 13.423C63.8671 13.3141 63.7051 13.0313 63.6175 12.921C63.6175 12.921 63.6839 13.1919 63.652 13.3008C63.652 13.3008 63.4289 13.2876 63.255 13.0684C63.255 13.0684 63.3824 13.2862 63.4077 13.4708C63.4077 13.4708 63.2696 13.4881 63.0186 13.3407C63.0186 13.3407 63.0717 13.4761 63.0797 13.6328C63.0797 13.6328 62.4941 13.4456 62.2112 13.1787C62.2112 13.1787 62.2072 13.3619 62.2205 13.4668C62.2205 13.4668 61.3122 13.3752 61.2431 12.0473L61.2405 12.0486Z" fill="#0155A5"/>
<path fill-rule="evenodd" clip-rule="evenodd" d="M61.0997 12.1416C61.121 12.4298 61.1953 12.7127 61.2963 12.9145C61.2963 12.9145 60.9377 12.6449 60.8514 12.4179C60.7638 12.1894 60.7425 12.0341 61.0997 12.143V12.1416Z" fill="#0155A5"/>
<path fill-rule="evenodd" clip-rule="evenodd" d="M60.3839 13.2318C60.4663 13.2318 60.5327 13.1654 60.5327 13.0844C60.5327 13.0034 60.4663 12.9357 60.3839 12.9357C60.3016 12.9357 60.2352 13.0021 60.2352 13.0844C60.2352 13.1667 60.3016 13.2318 60.3839 13.2318ZM61.2577 13.0578C61.4967 13.1667 61.7105 13.4244 61.7105 13.4244C61.348 13.508 61.1873 13.6116 61.1873 13.6116C60.4928 13.1229 59.9218 13.6156 59.9218 13.6156C59.5473 13.4018 59.473 12.8826 59.6602 12.6077C59.8475 12.3328 60.2711 12.3806 60.4716 12.4284C60.5977 12.8308 61.0426 12.9609 61.2577 13.0578Z" fill="#0155A5"/>
<path fill-rule="evenodd" clip-rule="evenodd" d="M61.789 13.5156C61.789 13.5156 62.0426 13.8516 62.2259 14.0003C62.2259 14.0003 61.2923 13.9924 61.056 14.7997C61.056 14.7997 60.7333 14.3057 60.9683 13.9831C61.2233 13.6338 61.457 13.59 61.789 13.5156Z" fill="#0155A5"/>
<path fill-rule="evenodd" clip-rule="evenodd" d="M62.8154 13.717C62.8154 13.717 63.1169 13.8047 63.2165 13.8299C63.2165 13.8299 63.2218 13.6559 63.2125 13.5723C63.3041 13.5935 63.417 13.6254 63.5139 13.6334C63.5139 13.6334 63.8154 14.3053 64.0504 14.5762C64.0504 14.5762 64.0637 14.7249 63.9322 14.952C63.9322 14.952 63.7622 14.5549 63.4568 14.2362C63.2842 14.0556 63.1726 13.9653 62.8154 13.717Z" fill="#0155A5"/>
<path fill-rule="evenodd" clip-rule="evenodd" d="M62.02 13.5732C62.117 13.5998 62.5977 13.7499 62.8314 13.9185C63.1235 14.127 63.3241 14.3673 63.2935 14.7817C63.2935 14.7817 63.0585 14.455 62.7969 14.3063C62.5897 14.1894 62.2166 13.8614 62.02 13.5732Z" fill="#0155A5"/>
<path fill-rule="evenodd" clip-rule="evenodd" d="M62.0279 10.5332C62.1169 10.5332 62.2895 10.5757 62.2895 10.7178C62.2895 10.8599 62.0664 11.2078 62.0067 11.3618H62.0013C61.9403 11.2078 61.7172 10.8612 61.7172 10.7178C61.7172 10.5744 61.8911 10.5332 61.9788 10.5332H62.0279Z" fill="#0155A5"/>
<path fill-rule="evenodd" clip-rule="evenodd" d="M61.8328 11.6506C61.7903 11.4487 61.7106 10.9255 61.5858 10.81C61.4676 10.6998 61.2936 10.6891 61.2073 10.6944C61.1197 10.6998 61.028 10.7901 61.0639 10.9069C61.0997 11.0251 61.4862 11.6054 61.5366 11.6784C61.6269 11.6638 61.6083 11.6678 61.8314 11.6506H61.8328Z" fill="#0155A5"/>
<path fill-rule="evenodd" clip-rule="evenodd" d="M62.1741 11.6506C62.2179 11.4487 62.2962 10.9255 62.4211 10.81C62.5379 10.6998 62.7132 10.6891 62.7995 10.6944C62.8872 10.6998 62.9801 10.7901 62.9429 10.9069C62.9071 11.0251 62.5207 11.6054 62.4702 11.6784C62.3799 11.6638 62.3985 11.6678 62.1754 11.6506H62.1741Z" fill="#0155A5"/>
<path fill-rule="evenodd" clip-rule="evenodd" d="M62.4236 9.82941H62.1222V9.49609H61.8778V9.82941H61.5751V10.0392H61.8778V10.4323H62.1222V10.0392H62.4236V9.82941Z" fill="#0155A5"/>
<path fill-rule="evenodd" clip-rule="evenodd" d="M58.7692 11.9799C58.7692 11.9162 58.7745 11.8524 58.7825 11.7887C58.8064 11.6267 58.8077 11.4872 58.7891 11.373C58.5727 11.4554 58.4253 11.5085 58.1265 11.9905C58.1265 11.9905 58.6032 11.6971 58.7679 11.9799H58.7692Z" fill="#0155A5"/>
<path fill-rule="evenodd" clip-rule="evenodd" d="M59.1861 12.7443C59.1915 12.6248 59.2698 12.2463 59.3694 11.9794C59.4916 11.6527 59.4225 11.1773 59.2751 10.8892C59.133 10.6116 59.056 10.35 59.0812 10.0605C59.0812 10.0605 58.7984 10.1548 58.6364 10.2544C58.6098 10.5891 58.805 10.9224 58.898 11.1136C59.0082 11.3394 58.9856 11.6315 58.9604 11.8108C58.9192 12.1149 58.9816 12.4389 59.1861 12.743V12.7443Z" fill="#0155A5"/>
<path fill-rule="evenodd" clip-rule="evenodd" d="M59.218 10.1884C59.2074 10.1512 59.2074 10.0463 59.2273 10.0038C59.2273 10.0038 59.6708 9.57088 60.0453 9.49651C60.2817 9.44871 60.4278 9.55361 60.4955 9.61204C60.4955 9.61204 60.364 9.59611 60.1648 9.75812C59.9656 9.92012 59.7186 10.1153 59.5301 10.1645C59.3455 10.2136 59.3057 10.1977 59.2167 10.187L59.218 10.1884Z" fill="#0155A5"/>
<path fill-rule="evenodd" clip-rule="evenodd" d="M60.5327 9.64391C60.7013 9.81123 60.8408 9.98784 60.8381 10.1406C60.8354 10.2999 60.6509 10.697 60.5539 10.8497C60.457 11.0024 60.3149 11.2002 60.3322 11.4419C60.3401 11.5628 60.4238 11.6863 60.5234 11.7885C60.5234 11.7885 59.9802 11.6597 59.9139 11.3237C59.8554 11.0236 59.9829 10.8125 60.0705 10.6452C60.1516 10.4898 60.4025 10.1246 60.4663 9.97191C60.5234 9.8338 60.5539 9.7196 60.5327 9.64258V9.64391Z" fill="#0155A5"/>
<path fill-rule="evenodd" clip-rule="evenodd" d="M63.7118 13.4307C63.8207 13.8144 64.0053 14.1756 64.1872 14.4598C64.3505 14.7174 64.4554 15.1384 64.4395 15.2818C64.4395 15.2818 64.6852 14.7387 64.559 14.3562C64.4621 14.0601 64.1978 13.6179 63.7118 13.4307Z" fill="#0155A5"/>
<path fill-rule="evenodd" clip-rule="evenodd" d="M64.3253 13.5576C64.3253 13.5576 64.6971 13.5629 64.8724 13.6785C65.0968 13.8272 65.3106 14.1499 65.3917 14.5376C65.3917 14.5376 65.0145 14.4726 64.8286 14.2867C64.6427 14.1007 64.413 13.8219 64.3253 13.5576Z" fill="#0155A5"/>
<path fill-rule="evenodd" clip-rule="evenodd" d="M62.3931 14.2305C62.3214 14.2371 62.1302 14.2796 62.0359 14.3075C62.0359 14.3075 62.3546 14.4004 62.5126 14.5319C62.6481 14.6435 62.7649 14.8161 62.8194 15.1069C62.8964 15.5119 63.1354 15.9501 63.2071 16.0816L63.2363 16.075C63.1912 15.7961 63.3665 15.2158 63.4103 15.1335C63.4103 15.1335 63.1593 14.9741 63.0438 14.8108C62.9588 14.6899 62.8087 14.4881 62.3931 14.2305Z" fill="#0155A5"/>
<path fill-rule="evenodd" clip-rule="evenodd" d="M64.0464 15.1016C64.1393 15.3154 64.385 15.6925 64.2695 16.0869C64.1539 16.4813 63.8976 16.6513 63.7383 16.9846C63.7383 16.9846 63.6121 16.3817 63.64 15.9169C63.6666 15.4521 63.8365 15.2715 64.045 15.1016H64.0464Z" fill="#0155A5"/>
<path fill-rule="evenodd" clip-rule="evenodd" d="M64.7622 15.1172C64.7622 15.1172 65.1327 15.8369 65.2005 16.1198C65.2655 16.3986 65.2058 16.5846 65.0796 16.7545C64.9535 16.9245 64.741 17.1051 64.5445 17.461C64.5445 17.461 64.3147 17.1596 64.2868 17.0015C64.2603 16.8422 64.3041 16.465 64.3532 16.3057C64.4024 16.1477 64.5989 15.6377 64.7636 15.1185L64.7622 15.1172Z" fill="#0155A5"/>
<path fill-rule="evenodd" clip-rule="evenodd" d="M64.9535 17.415C64.8711 17.5027 64.4382 18.0232 64.3798 18.1759C64.3214 18.3287 64.2218 18.6155 64.3559 18.8147C64.4913 19.0139 64.7994 19.3326 65.0703 19.468C65.0703 19.468 64.7782 19.0112 64.8074 18.6354C64.826 18.3964 65.0119 18.1826 65.0464 18.0352C65.0823 17.8891 65.0584 17.6434 64.9535 17.415Z" fill="#0155A5"/>
<path fill-rule="evenodd" clip-rule="evenodd" d="M64.1049 17.127C64.1713 17.2199 64.2882 17.443 64.3028 17.6621C64.3187 17.8759 64.2842 18.0499 64.166 18.3659C64.0173 18.763 63.7875 19.2065 63.6813 19.4057C63.6813 19.4057 63.4768 19.1149 63.3652 18.8546C63.3652 18.8546 63.6839 18.419 63.8194 18.111C63.9774 17.7484 64.0438 17.4125 64.1049 17.127Z" fill="#0155A5"/>
<path fill-rule="evenodd" clip-rule="evenodd" d="M63.9561 16.958C63.9561 16.958 63.8193 17.9818 63.2164 18.7428C62.8087 19.258 62.4768 19.4359 62.2576 19.4359C61.927 19.4359 61.595 19.1597 61.4821 18.845C61.3706 18.529 61.4051 18.0389 61.6202 17.8663C61.6202 17.8663 61.8194 18.4812 62.243 18.5037C62.7224 18.5303 63.3399 17.9938 63.9561 16.9593V16.958Z" fill="#0155A5"/>
<path fill-rule="evenodd" clip-rule="evenodd" d="M63.4622 16.5303C63.5126 16.7135 63.5286 16.9951 63.4622 17.2593C63.4117 17.4598 63.2896 17.7241 63.0532 17.8715C62.85 17.999 62.3693 18.0295 62.186 17.5754C62.186 17.5754 63.0625 17.6418 63.4609 16.5303H63.4622Z" fill="#0155A5"/>
<path fill-rule="evenodd" clip-rule="evenodd" d="M64.8977 20.6602C65.0172 20.9682 65.4474 21.3573 65.4448 21.5977C65.4368 22.2351 65.1593 22.6255 65.0929 22.8353C65.0929 22.8353 64.5829 22.4303 64.4913 21.9655C64.4462 21.7278 64.4993 21.0134 64.8977 20.6602Z" fill="#0155A5"/>
<path fill-rule="evenodd" clip-rule="evenodd" d="M64.3266 21.1104C64.3864 20.9457 64.5736 20.4956 64.7914 20.3375C64.7914 20.3375 65.0703 19.5195 64.1765 19.0176C64.1765 19.0176 63.81 19.5049 63.7118 19.9617C63.6135 20.4199 64.1009 20.6961 64.3266 21.1091V21.1104Z" fill="#0155A5"/>
<path fill-rule="evenodd" clip-rule="evenodd" d="M63.2098 19.0479C63.0664 19.2192 62.8632 19.4595 62.7065 19.5352C62.7065 19.5352 62.6534 19.9004 62.6839 20.1421C62.7291 20.5019 62.9614 20.8698 63.0597 21.1407C63.0597 21.1407 63.4501 20.6308 63.4953 20.3306C63.5404 20.0305 63.5325 19.7835 63.5471 19.6401C63.5471 19.6401 63.3293 19.2869 63.2098 19.0479Z" fill="#0155A5"/>
<path fill-rule="evenodd" clip-rule="evenodd" d="M62.1806 20.7969C62.0704 20.6295 61.7119 20.0107 61.7065 19.5605C61.7065 19.5605 62.1474 19.7943 62.5153 19.623C62.5153 19.623 62.5644 20.2073 62.4927 20.4051C62.4356 20.5658 62.3586 20.6614 62.1793 20.7969H62.1806Z" fill="#0155A5"/>
<path fill-rule="evenodd" clip-rule="evenodd" d="M62.2829 20.9217C62.3547 20.8593 62.5299 20.6973 62.6016 20.6123C62.6016 20.6123 62.8938 21.1475 62.9429 21.3042C62.9429 21.3042 62.7969 21.3413 62.6362 21.2245C62.4755 21.1076 62.4396 21.0784 62.2816 20.9217H62.2829Z" fill="#0155A5"/>
<path fill-rule="evenodd" clip-rule="evenodd" d="M63.6361 20.6084C63.6003 20.7438 63.1275 21.3999 63.0465 21.4809C63.0465 21.4809 63.0837 21.7186 63.2577 22.0612C63.4329 22.4024 63.676 22.6415 63.8048 22.7623C63.8048 22.7623 64.0956 22.2537 64.1832 22.0293C64.2815 21.773 64.2709 21.5207 64.227 21.4277C64.1288 21.2073 63.7862 20.8886 63.6348 20.6097L63.6361 20.6084Z" fill="#0155A5"/>
<path fill-rule="evenodd" clip-rule="evenodd" d="M64.3452 22.3255C64.4488 22.5367 64.7648 22.8833 64.8127 23.1568C64.8512 23.372 64.8166 23.5486 64.7582 23.696C64.6998 23.8447 64.5112 24.1315 64.3851 24.352C64.3851 24.352 63.9548 23.9456 63.8592 23.6548C63.7875 23.4357 63.814 23.1236 63.9176 22.9311C64.0212 22.7385 64.2456 22.5261 64.3439 22.3242L64.3452 22.3255Z" fill="#0155A5"/>
<path fill-rule="evenodd" clip-rule="evenodd" d="M63.1235 22.2676C63.2363 22.5106 63.5019 22.7549 63.5643 22.9687C63.6361 23.221 63.6586 23.3817 63.5378 23.6752C63.4289 23.9341 63.2988 24.0842 63.2536 24.2409C63.2536 24.2409 62.903 23.7881 62.8459 23.5982C62.7875 23.4096 62.7689 23.0989 62.8406 22.901C62.9137 22.7031 63.0385 22.4455 63.1235 22.2676Z" fill="#0155A5"/>
<path fill-rule="evenodd" clip-rule="evenodd" d="M64.8485 23.9932C64.8485 23.9932 64.2457 24.7209 64.2603 25.1073C64.2775 25.588 64.5976 25.908 64.6427 26.2042C64.6427 26.2042 64.9588 25.847 65.0783 25.6066C65.2137 25.337 65.316 25.1073 65.2815 24.8019C65.2443 24.4965 65.1633 24.2986 64.8485 23.9932Z" fill="#0155A5"/>
<path fill-rule="evenodd" clip-rule="evenodd" d="M63.7383 23.9209C63.8326 24.0603 64.1035 24.5357 64.0265 24.8199C63.9508 25.1028 63.6534 25.5025 63.5551 25.6738C63.5551 25.6738 63.3161 25.1838 63.2629 24.9593C63.2098 24.7349 63.259 24.3711 63.7397 23.9209H63.7383Z" fill="#0155A5"/>
<path fill-rule="evenodd" clip-rule="evenodd" d="M69.7658 11.9016C69.7658 11.8405 69.4909 11.79 69.1523 11.79C68.8137 11.79 68.5388 11.8392 68.5388 11.9016C68.5388 11.964 68.8137 12.0131 69.1523 12.0131C69.4909 12.0131 69.7658 11.964 69.7658 11.9016Z" fill="#0155A5"/>
<path fill-rule="evenodd" clip-rule="evenodd" d="M65.5816 10.0152C65.6214 9.7403 65.9401 9.15468 65.9401 8.89839C65.9401 8.69654 65.7768 8.5332 65.5762 8.5332C65.3757 8.5332 65.2111 8.69654 65.2111 8.89839C65.2111 9.15468 65.5298 9.7403 65.5696 10.0152H65.5816Z" fill="#0155A5"/>
<path fill-rule="evenodd" clip-rule="evenodd" d="M66.5987 10.6055C66.9174 9.84857 67.1285 9.29084 67.1192 9.1036C67.1126 8.9894 66.9798 8.90574 66.8523 8.86723C66.7248 8.82739 66.6133 8.82075 66.5296 8.88449C66.3636 9.01064 66.2109 10.0332 66.1538 10.4568C66.3158 10.4886 66.4128 10.5086 66.5987 10.6055Z" fill="#0155A5"/>
<path fill-rule="evenodd" clip-rule="evenodd" d="M66.0197 10.441C65.9387 10.4331 65.8564 10.4277 65.774 10.4251C65.8245 10.0201 65.9626 9.34415 66.0463 9.07723C66.1286 8.81165 66.2335 8.61909 66.4088 8.57129C66.4088 8.57129 66.2734 8.94178 66.199 9.32689C66.126 9.71066 66.0689 10.0785 66.0197 10.4424V10.441Z" fill="#0155A5"/>
<path fill-rule="evenodd" clip-rule="evenodd" d="M66.3172 11.3385C66.3172 11.3385 66.6744 11.7129 67.025 11.7953C67.025 11.7953 66.8802 11.4195 66.3172 11.3385ZM66.025 11.1658C66.2202 11.1379 66.7182 11.1937 67.025 11.4115C67.3304 11.6306 67.43 11.8085 67.5349 12.0011C67.5349 12.0011 66.9878 12.0462 66.5004 11.7607C66.2707 11.6253 66.0702 11.3119 66.025 11.1658Z" fill="#0155A5"/>
<path fill-rule="evenodd" clip-rule="evenodd" d="M69.1364 12.9575C69.2626 12.8752 69.3369 12.7384 69.3661 12.5605C69.3661 12.5605 68.7991 12.587 68.3197 12.5259V12.5658C68.3197 12.5658 69.1045 12.5698 69.1351 12.9589L69.1364 12.9575ZM68.9346 13.4688C68.9492 13.3639 68.9439 13.1806 68.9439 13.1806C68.6597 13.4462 68.0754 13.6348 68.0754 13.6348C68.0847 13.4781 68.1365 13.3426 68.1365 13.3426C67.8881 13.4914 67.7474 13.4728 67.7474 13.4728C67.7739 13.2895 67.9001 13.0704 67.9001 13.0704C67.7261 13.2882 67.503 13.3028 67.503 13.3028C67.4725 13.1939 67.5376 12.923 67.5376 12.923C67.4499 13.0319 67.2879 13.3161 66.782 13.425C66.2747 13.5339 66.049 13.251 66.049 13.251C66.5429 13.2855 67.0051 12.8061 67.0051 12.8061C66.7474 12.7052 66.6598 12.518 66.6598 12.518C66.8085 12.3878 66.9612 12.3878 66.9612 12.3878C66.6731 12.2564 66.612 12.0293 66.612 12.0293C66.9745 12.2033 68.0913 12.2165 68.6982 12.2471C69.3051 12.2776 69.9119 12.0505 69.9119 12.0505C69.8415 13.3772 68.9346 13.4701 68.9346 13.4701V13.4688Z" fill="#0155A5"/>
<path fill-rule="evenodd" clip-rule="evenodd" d="M70.0527 12.1416C70.0315 12.4298 69.9571 12.7127 69.8562 12.9145C69.8562 12.9145 70.2134 12.6449 70.3011 12.4179C70.3887 12.1894 70.4113 12.0341 70.0527 12.143V12.1416Z" fill="#0155A5"/>
<path fill-rule="evenodd" clip-rule="evenodd" d="M70.9171 13.0844C70.9171 13.0021 70.8507 12.9357 70.7684 12.9357C70.686 12.9357 70.621 13.0021 70.621 13.0844C70.621 13.1667 70.6887 13.2318 70.7684 13.2318C70.8481 13.2318 70.9171 13.1654 70.9171 13.0844ZM70.6807 12.4284C70.8826 12.3806 71.3049 12.3328 71.4921 12.6077C71.6807 12.8826 71.6063 13.4018 71.2318 13.6156C71.2318 13.6156 70.6595 13.1229 69.9663 13.6116C69.9663 13.6116 69.8043 13.5067 69.4418 13.4244C69.4418 13.4244 69.6556 13.1667 69.8959 13.0578C70.1097 12.9609 70.5546 12.8308 70.6807 12.4284Z" fill="#0155A5"/>
<path fill-rule="evenodd" clip-rule="evenodd" d="M69.3634 13.5156C69.3634 13.5156 69.1098 13.8516 68.9279 14.0003C68.9279 14.0003 69.8614 13.9924 70.0978 14.7997C70.0978 14.7997 70.4205 14.3057 70.1841 13.9831C69.9305 13.6338 69.6954 13.59 69.3634 13.5156Z" fill="#0155A5"/>
<path fill-rule="evenodd" clip-rule="evenodd" d="M68.3369 13.717C68.3369 13.717 68.0355 13.8047 67.9359 13.8299C67.9359 13.8299 67.9306 13.6559 67.9399 13.5723C67.8482 13.5935 67.734 13.6254 67.6384 13.6334C67.6384 13.6334 67.337 14.3053 67.1019 14.5762C67.1019 14.5762 67.0887 14.7249 67.2201 14.952C67.2201 14.952 67.3901 14.5549 67.6955 14.2362C67.8682 14.0556 67.9797 13.9653 68.3369 13.717Z" fill="#0155A5"/>
<path fill-rule="evenodd" clip-rule="evenodd" d="M69.1324 13.5732C69.0354 13.5998 68.5534 13.7499 68.321 13.9185C68.0288 14.127 67.827 14.3673 67.8575 14.7817C67.8575 14.7817 68.0939 14.455 68.3555 14.3063C68.5627 14.1894 68.9358 13.8614 69.1337 13.5732H69.1324Z" fill="#0155A5"/>
<path fill-rule="evenodd" clip-rule="evenodd" d="M69.1257 10.5332C69.0368 10.5332 68.8628 10.5757 68.8628 10.7178C68.8628 10.8599 69.0872 11.2078 69.147 11.3618H69.1523C69.212 11.2078 69.4365 10.8612 69.4365 10.7178C69.4365 10.5744 69.2638 10.5332 69.1735 10.5332H69.1257Z" fill="#0155A5"/>
<path fill-rule="evenodd" clip-rule="evenodd" d="M69.321 11.6506C69.3635 11.4487 69.4419 10.9255 69.568 10.81C69.6862 10.6998 69.8589 10.6891 69.9465 10.6944C70.0341 10.6998 70.1258 10.7901 70.0899 10.9069C70.0541 11.0251 69.6663 11.6054 69.6158 11.6784C69.5255 11.6638 69.5441 11.6678 69.321 11.6506Z" fill="#0155A5"/>
<path fill-rule="evenodd" clip-rule="evenodd" d="M68.9784 11.6506C68.9372 11.4487 68.8575 10.9255 68.7327 10.81C68.6145 10.6998 68.4405 10.6891 68.3529 10.6944C68.2666 10.6998 68.1736 10.7901 68.2108 10.9069C68.2467 11.0251 68.6331 11.6054 68.6849 11.6784C68.7752 11.6638 68.7566 11.6678 68.9784 11.6506Z" fill="#0155A5"/>
<path fill-rule="evenodd" clip-rule="evenodd" d="M68.7301 9.82941H69.0302V9.49609H69.2746V9.82941H69.576V10.0392H69.2746V10.4323H69.0302V10.0392H68.7301V9.82941Z" fill="#0155A5"/>
<path fill-rule="evenodd" clip-rule="evenodd" d="M65.1088 7.85612H65.4089V7.52148H65.6532V7.85612H65.956V8.06594H65.6532V8.45901H65.4089V8.06594H65.1088V7.85612Z" fill="#0155A5"/>
<path fill-rule="evenodd" clip-rule="evenodd" d="M72.3832 11.9799C72.3832 11.9162 72.3779 11.8524 72.3699 11.7887C72.3473 11.6267 72.3447 11.4872 72.3633 11.373C72.5797 11.4554 72.7271 11.5085 73.0246 11.9905C73.0246 11.9905 72.5492 11.6971 72.3832 11.9799Z" fill="#0155A5"/>
<path fill-rule="evenodd" clip-rule="evenodd" d="M71.9663 12.7443C71.961 12.6248 71.8826 12.2463 71.783 11.9794C71.6608 11.6527 71.7299 11.1773 71.876 10.8892C72.0181 10.6116 72.0964 10.35 72.0699 10.0605C72.0699 10.0605 72.3527 10.1548 72.5147 10.2544C72.5413 10.5891 72.3461 10.9224 72.2531 11.1136C72.1429 11.3394 72.1655 11.6315 72.1907 11.8108C72.2319 12.1149 72.1694 12.4389 71.9649 12.743L71.9663 12.7443Z" fill="#0155A5"/>
<path fill-rule="evenodd" clip-rule="evenodd" d="M71.9357 10.1884C71.9463 10.1512 71.9463 10.0463 71.925 10.0038C71.925 10.0038 71.4815 9.57088 71.1084 9.49651C70.872 9.44871 70.7259 9.55361 70.6569 9.61204C70.6569 9.61204 70.7883 9.59611 70.9862 9.75812C71.1854 9.92012 71.4324 10.1153 71.6209 10.1645C71.8055 10.2136 71.8467 10.1977 71.9357 10.187V10.1884Z" fill="#0155A5"/>
<path fill-rule="evenodd" clip-rule="evenodd" d="M70.6197 9.64391C70.4523 9.81123 70.3116 9.98784 70.3142 10.1406C70.3182 10.2999 70.5002 10.697 70.5984 10.8497C70.6954 11.0024 70.8375 11.2002 70.8202 11.4419C70.8109 11.5628 70.7286 11.6863 70.629 11.7885C70.629 11.7885 71.1734 11.6597 71.2398 11.3237C71.2982 11.0236 71.1708 10.8125 71.0831 10.6452C71.0008 10.4898 70.7511 10.1246 70.6874 9.97191C70.6303 9.8338 70.5998 9.7196 70.6197 9.64258V9.64391Z" fill="#0155A5"/>
<path fill-rule="evenodd" clip-rule="evenodd" d="M67.4419 13.4307C67.333 13.8144 67.1471 14.1756 66.9652 14.4598C66.8005 14.7174 66.6969 15.1384 66.7129 15.2818C66.7129 15.2818 66.4659 14.7387 66.592 14.3562C66.689 14.0601 66.9519 13.6179 67.4406 13.4307H67.4419Z" fill="#0155A5"/>
<path fill-rule="evenodd" clip-rule="evenodd" d="M66.8271 13.5576C66.8271 13.5576 66.4553 13.5629 66.28 13.6785C66.0569 13.8272 65.8417 14.1499 65.7607 14.5376C65.7607 14.5376 66.1392 14.4726 66.3238 14.2867C66.5097 14.1007 66.7408 13.8219 66.8271 13.5576Z" fill="#0155A5"/>
<path fill-rule="evenodd" clip-rule="evenodd" d="M68.7606 14.2305C68.8309 14.2371 69.0222 14.2796 69.1151 14.3075C69.1151 14.3075 68.7977 14.4004 68.6397 14.5319C68.5043 14.6435 68.3874 14.8161 68.333 15.1069C68.256 15.5119 68.0156 15.9501 67.9439 16.0816L67.9147 16.075C67.9585 15.7961 67.7832 15.2158 67.7394 15.1335C67.7394 15.1335 67.9917 14.9741 68.1072 14.8108C68.1909 14.6899 68.3423 14.4881 68.7579 14.2305H68.7606Z" fill="#0155A5"/>
<path fill-rule="evenodd" clip-rule="evenodd" d="M67.1073 15.1016C67.0143 15.3154 66.7686 15.6925 66.8828 16.0869C66.9984 16.4813 67.256 16.6513 67.414 16.9846C67.414 16.9846 67.5402 16.3817 67.5123 15.9169C67.4844 15.4521 67.3157 15.2715 67.1073 15.1016Z" fill="#0155A5"/>
<path fill-rule="evenodd" clip-rule="evenodd" d="M65.5815 16.2049C65.5974 15.9752 66.1326 15.4187 66.1061 15.1173C66.0782 14.8159 65.6785 14.6021 65.5789 14.5596H65.5735C65.4753 14.6034 65.0742 14.8172 65.0477 15.1173C65.0198 15.4187 65.555 15.9752 65.5709 16.2049H65.5815Z" fill="#0155A5"/>
<path fill-rule="evenodd" clip-rule="evenodd" d="M66.3902 15.1172C66.3902 15.1172 66.0197 15.8369 65.952 16.1198C65.8869 16.3986 65.9467 16.5846 66.0728 16.7545C66.1977 16.9245 66.4115 17.1051 66.6093 17.461C66.6093 17.461 66.8391 17.1596 66.8669 17.0015C66.8935 16.8422 66.851 16.465 66.8006 16.3057C66.7514 16.1477 66.5549 15.6377 66.3902 15.1185V15.1172Z" fill="#0155A5"/>
<path fill-rule="evenodd" clip-rule="evenodd" d="M65.5802 17.9005C65.7502 17.7544 65.9003 17.5366 65.9481 17.4078C65.9946 17.279 66.0078 17.0905 65.895 16.9457C65.7608 16.7731 65.5909 16.5819 65.5789 16.4238H65.5709C65.559 16.5805 65.3903 16.7731 65.2562 16.9457C65.1434 17.0891 65.1566 17.279 65.2044 17.4078C65.2509 17.5366 65.4036 17.7531 65.5736 17.9005H65.5802Z" fill="#0155A5"/>
<path fill-rule="evenodd" clip-rule="evenodd" d="M66.2004 17.415C66.2814 17.5027 66.7143 18.0232 66.774 18.1759C66.8325 18.3287 66.9321 18.6155 66.7966 18.8147C66.6625 19.0139 66.3544 19.3326 66.0848 19.468C66.0848 19.468 66.377 19.0112 66.3478 18.6354C66.3292 18.3964 66.1433 18.1826 66.1074 18.0352C66.0716 17.8891 66.0968 17.6434 66.2004 17.415Z" fill="#0155A5"/>
<path fill-rule="evenodd" clip-rule="evenodd" d="M67.0488 17.127C66.9824 17.2199 66.8656 17.443 66.8496 17.6621C66.8337 17.8759 66.8696 18.0499 66.9877 18.3659C67.1352 18.763 67.3649 19.2065 67.4724 19.4057C67.4724 19.4057 67.6756 19.1149 67.7872 18.8546C67.7872 18.8546 67.4685 18.419 67.333 18.111C67.175 17.7484 67.1086 17.4125 67.0475 17.127H67.0488Z" fill="#0155A5"/>
<path fill-rule="evenodd" clip-rule="evenodd" d="M67.1963 16.958C67.1963 16.958 67.3331 17.9818 67.936 18.7428C68.3436 19.258 68.6756 19.4359 68.8947 19.4359C69.2267 19.4359 69.5574 19.1597 69.6702 18.845C69.7818 18.529 69.7473 18.0389 69.5321 17.8663C69.5321 17.8663 69.3329 18.4812 68.9093 18.5037C68.4299 18.5303 67.8125 17.9938 67.1963 16.9593V16.958Z" fill="#0155A5"/>
<path fill-rule="evenodd" clip-rule="evenodd" d="M67.6916 16.5303C67.6411 16.7135 67.6252 16.9951 67.6916 17.2593C67.7421 17.4598 67.8642 17.7241 68.0993 17.8715C68.3038 17.999 68.7818 18.0295 68.9664 17.5754C68.9664 17.5754 68.09 17.6418 67.6916 16.5303Z" fill="#0155A5"/>
<path fill-rule="evenodd" clip-rule="evenodd" d="M65.5762 19.5718C65.701 19.5133 65.8059 19.4682 65.948 19.2504C66.0596 19.0791 66.1658 18.7631 66.1061 18.5386C66.0317 18.2598 65.8803 18.1482 65.79 17.9756C65.7156 18.0446 65.6705 18.0978 65.5789 18.1509H65.5735C65.4833 18.0978 65.4354 18.0446 65.3598 17.9756C65.2695 18.1495 65.1194 18.2611 65.045 18.5386C64.9866 18.7631 65.0915 19.0791 65.2031 19.2504C65.3451 19.4682 65.4501 19.512 65.5749 19.5718H65.5762Z" fill="#0155A5"/>
<path fill-rule="evenodd" clip-rule="evenodd" d="M65.5762 21.2981C65.6359 21.0272 66.203 20.5026 66.1512 20.2171C66.0728 19.7895 65.7979 19.8798 65.5802 19.6992H65.5762C65.3584 19.8798 65.0795 19.7895 65.0025 20.2171C64.9507 20.5026 65.5138 21.0272 65.5748 21.2981H65.5775H65.5762Z" fill="#0155A5"/>
<path fill-rule="evenodd" clip-rule="evenodd" d="M66.2561 20.6602C66.1353 20.9682 65.705 21.3573 65.7077 21.5977C65.7143 22.2351 65.9932 22.6255 66.0596 22.8353C66.0596 22.8353 66.5695 22.4303 66.6598 21.9655C66.7049 21.7278 66.6531 21.0134 66.2561 20.6602Z" fill="#0155A5"/>
<path fill-rule="evenodd" clip-rule="evenodd" d="M66.8258 21.1104C66.766 20.9457 66.5788 20.4956 66.361 20.3375C66.361 20.3375 66.0835 19.5195 66.9758 19.0176C66.9758 19.0176 67.3437 19.5049 67.4419 19.9617C67.5389 20.4199 67.0529 20.6961 66.8258 21.1091V21.1104Z" fill="#0155A5"/>
<path fill-rule="evenodd" clip-rule="evenodd" d="M67.9439 19.0479C68.086 19.2192 68.2891 19.4595 68.4472 19.5352C68.4472 19.5352 68.499 19.9004 68.4697 20.1421C68.4246 20.5019 68.1922 20.8698 68.0953 21.1407C68.0953 21.1407 67.7049 20.6308 67.6597 20.3306C67.6146 20.0305 67.6225 19.7835 67.6079 19.6401C67.6079 19.6401 67.8257 19.2869 67.9452 19.0479H67.9439Z" fill="#0155A5"/>
<path fill-rule="evenodd" clip-rule="evenodd" d="M68.9718 20.7969C69.082 20.6295 69.4419 20.0107 69.4458 19.5605C69.4458 19.5605 69.005 19.7943 68.6358 19.623C68.6358 19.623 68.5867 20.2073 68.6597 20.4051C68.7168 20.5658 68.7925 20.6614 68.9718 20.7969Z" fill="#0155A5"/>
<path fill-rule="evenodd" clip-rule="evenodd" d="M68.8708 20.9217C68.7977 20.8593 68.6225 20.6973 68.5507 20.6123C68.5507 20.6123 68.2586 21.1475 68.2095 21.3042C68.2095 21.3042 68.3555 21.3413 68.5162 21.2245C68.6756 21.1076 68.7128 21.0784 68.8708 20.9217Z" fill="#0155A5"/>
<path fill-rule="evenodd" clip-rule="evenodd" d="M67.5176 20.6084C67.5535 20.7438 68.0262 21.3999 68.1059 21.4809C68.1059 21.4809 68.07 21.7186 67.8947 22.0612C67.7194 22.4024 67.4778 22.6415 67.3463 22.7623C67.3463 22.7623 67.0555 22.2537 66.9678 22.0293C66.8696 21.773 66.8815 21.5207 66.9227 21.4277C67.021 21.2073 67.3636 20.8886 67.5163 20.6097L67.5176 20.6084Z" fill="#0155A5"/>
<path fill-rule="evenodd" clip-rule="evenodd" d="M65.5802 24.4918C65.6253 24.3112 65.8975 24.0987 66.0117 23.7867C66.0795 23.6021 66.0768 23.3856 66.0024 23.2369C65.9175 23.0656 65.612 22.6446 65.5762 22.5225C65.539 22.6446 65.2362 23.0656 65.1512 23.2369C65.0782 23.3843 65.0742 23.6007 65.1433 23.7867C65.2561 24.0987 65.5284 24.3112 65.5735 24.4918H65.5815H65.5802Z" fill="#0155A5"/>
<path fill-rule="evenodd" clip-rule="evenodd" d="M66.8072 22.3255C66.7036 22.5367 66.3889 22.8833 66.3398 23.1568C66.3013 23.372 66.3358 23.5486 66.3929 23.696C66.4513 23.8447 66.6412 24.1315 66.7661 24.352C66.7661 24.352 67.1963 23.9456 67.2906 23.6548C67.3636 23.4357 67.3371 23.1236 67.2335 22.9311C67.1286 22.7385 66.9055 22.5261 66.8059 22.3242L66.8072 22.3255Z" fill="#0155A5"/>
<path fill-rule="evenodd" clip-rule="evenodd" d="M68.0302 22.2676C67.9173 22.5106 67.6504 22.7549 67.5893 22.9687C67.5176 23.221 67.495 23.3817 67.6159 23.6752C67.7235 23.9341 67.8536 24.0842 67.8987 24.2409C67.8987 24.2409 68.2493 23.7881 68.3077 23.5982C68.3675 23.4096 68.3848 23.0989 68.3131 22.901C68.24 22.7031 68.1152 22.4455 68.0289 22.2676H68.0302Z" fill="#0155A5"/>
<path fill-rule="evenodd" clip-rule="evenodd" d="M65.5762 27.9706C65.5988 27.7488 66.0569 27.0623 66.0795 26.3346C66.0914 25.9707 65.7647 25.3997 65.5802 25.1846H65.5709C65.3863 25.401 65.0623 25.9707 65.0729 26.3346C65.0955 27.0636 65.5523 27.7488 65.5748 27.9706H65.5762Z" fill="#0155A5"/>
<path fill-rule="evenodd" clip-rule="evenodd" d="M66.3039 23.9932C66.3039 23.9932 66.9068 24.7209 66.8935 25.1073C66.8762 25.588 66.5562 25.908 66.511 26.2042C66.511 26.2042 66.195 25.847 66.0755 25.6066C65.9413 25.337 65.8378 25.1073 65.875 24.8019C65.9108 24.4965 65.9918 24.2986 66.3052 23.9932H66.3039Z" fill="#0155A5"/>
<path fill-rule="evenodd" clip-rule="evenodd" d="M67.4141 23.9209C67.3185 24.0603 67.0503 24.5357 67.126 24.8199C67.203 25.1028 67.4991 25.5025 67.5987 25.6738C67.5987 25.6738 67.8364 25.1838 67.8908 24.9593C67.944 24.7349 67.8948 24.3711 67.4141 23.9209Z" fill="#0155A5"/>
<path fill-rule="evenodd" clip-rule="evenodd" d="M65.9892 29.1393C66.025 28.5736 66.3464 28.2336 66.4022 27.9402C66.4646 27.6175 66.4433 27.3067 66.1924 26.9336C65.9892 27.6294 65.7648 28.138 65.5895 28.4886C65.5855 28.4979 65.5815 28.5072 65.5762 28.5178C65.5722 28.5072 65.5682 28.4979 65.5642 28.4886C65.389 28.138 65.1632 27.6294 64.9614 26.9336C64.7104 27.3067 64.6878 27.6162 64.7502 27.9402C64.8073 28.235 65.1287 28.5736 65.1632 29.1393C65.1991 29.7063 64.5616 29.9228 64.5616 29.9228C64.7768 29.9998 65.0211 30.0343 65.4102 29.6652C65.4819 29.5974 65.5364 29.5244 65.5762 29.4474C65.6174 29.5244 65.6705 29.5988 65.7422 29.6652C66.1313 30.033 66.3756 29.9985 66.5907 29.9228C66.5907 29.9228 65.9533 29.7063 65.9892 29.1393Z" fill="#0155A5"/>
<path fill-rule="evenodd" clip-rule="evenodd" d="M63.9814 25.375C64.0491 25.5861 64.247 25.9766 64.2722 26.0974C64.32 26.3218 64.2563 26.594 63.8459 26.8822C63.8459 26.8822 63.5803 26.6976 63.4754 26.4533C63.3772 26.2249 63.4343 26.0642 63.5365 25.946C63.6374 25.8265 63.8778 25.5529 63.98 25.375H63.9814Z" fill="#0155A5"/>
<path fill-rule="evenodd" clip-rule="evenodd" d="M64.8418 26.2109C64.8418 26.3251 64.7568 26.9652 64.5749 27.2839C64.3199 27.7301 63.9428 28.0634 63.6148 28.0634C63.3094 28.0634 63.2456 27.8828 63.0942 27.8071C63.0942 27.8071 63.1713 27.4194 63.5139 27.3171C63.9348 27.1923 64.5802 26.6863 64.8418 26.2109Z" fill="#0155A5"/>
<path fill-rule="evenodd" clip-rule="evenodd" d="M63.7436 27.0278C63.6732 26.9733 63.6108 26.9362 63.5258 26.8379C63.5258 26.8379 63.2005 26.9587 62.9336 27.138C62.6666 27.3173 62.4037 27.6227 62.2629 27.7834C62.2629 27.7834 62.664 27.887 62.9176 27.7714C62.9176 27.7714 63.0106 27.389 63.2947 27.2177C63.3585 27.1805 63.5577 27.1221 63.7436 27.0265V27.0278Z" fill="#0155A5"/>
<path fill-rule="evenodd" clip-rule="evenodd" d="M63.4103 26.6999C63.3493 26.6043 63.2218 26.4263 63.2497 26.1475C63.2497 26.1475 62.6879 26.502 62.518 26.6388C62.3493 26.7756 61.9987 27.1381 61.9191 27.2576C61.9191 27.2576 62.344 27.166 62.6707 27.0558C63.0292 26.9363 63.2775 26.7756 63.409 26.6986L63.4103 26.6999Z" fill="#0155A5"/>
<path fill-rule="evenodd" clip-rule="evenodd" d="M62.4582 27.3089C62.1555 27.4165 61.4729 27.5281 61.1887 27.6117C60.9019 27.6967 60.6961 27.8441 60.4238 28.1416C60.4238 28.1416 60.8421 28.2584 61.0665 28.3288C61.0665 28.3288 61.4224 28.0858 61.8129 27.9357C62.0665 27.8388 62.19 27.5719 62.4596 27.3076L62.4582 27.3089Z" fill="#0155A5"/>
<path fill-rule="evenodd" clip-rule="evenodd" d="M61.8234 29.3203C61.8885 29.2486 61.9708 29.1649 61.907 28.9963C61.8619 28.8728 61.6149 28.736 61.4662 28.6643C61.2218 28.5488 60.5446 28.3668 60.3228 28.3018C60.3228 28.3018 60.2126 28.4306 60.1542 28.5673C60.1276 28.6205 60.1621 28.6749 60.2577 28.6908C60.4463 28.7227 60.9005 28.6391 61.0107 28.7094C61.1302 28.7878 61.089 28.8927 61.089 28.9949C61.089 28.9949 61.2962 28.8688 61.4263 28.898C61.6083 28.9378 61.7185 29.0215 61.8221 29.3203H61.8234Z" fill="#0155A5"/>
<path fill-rule="evenodd" clip-rule="evenodd" d="M61.2206 28.3772C61.2697 28.3931 61.534 28.4741 61.7916 28.6374C61.7916 28.6374 61.9058 28.5923 61.9616 28.4874C62.016 28.3865 62.2484 28.0439 62.4609 27.9987C62.4609 27.9987 62.2803 27.9814 62.1767 27.9482C62.1767 27.9482 61.9563 28.0053 61.7996 28.0678C61.6429 28.1315 61.4477 28.2271 61.2206 28.3758V28.3772Z" fill="#0155A5"/>
<path fill-rule="evenodd" clip-rule="evenodd" d="M62.9694 27.9453C62.9283 27.9652 62.8592 27.9971 62.7012 28.0037C62.7012 28.0037 62.1036 28.4181 62.0346 28.8297C61.9748 29.183 62.1607 29.3516 62.2497 29.3967C62.3413 29.4419 62.757 29.6132 63.0279 29.0555C63.0279 29.0555 62.5657 29.2069 62.4409 28.9851C62.3148 28.7633 62.5179 28.4393 62.6441 28.3464C62.8087 28.2229 63.1049 28.1392 63.2855 28.1724C63.2855 28.1724 63.1407 28.0343 62.9694 27.9466V27.9453Z" fill="#0155A5"/>
<path fill-rule="evenodd" clip-rule="evenodd" d="M59.0626 32.6784C59.1357 32.3756 59.2153 32.0556 59.3548 31.7621C59.6243 31.1924 60.2857 29.6719 61.6641 29.4037C61.7942 29.3785 61.5153 29.0584 61.3918 29.0744C61.2683 29.089 61.0227 29.2483 60.9138 29.32C60.9138 29.32 60.9138 28.996 60.9111 28.9376C60.9071 28.8792 60.8567 28.8579 60.8022 28.8606C60.7504 28.8606 60.4158 28.8579 60.3109 28.9801C59.9975 29.3426 59.4663 30.3226 59.1662 31.0503C58.8648 31.778 58.6589 31.9998 58.3429 31.8883C58.0255 31.778 57.8369 31.4142 57.2832 31.5244C57.0933 31.5616 56.8795 31.6904 56.7135 31.8803C56.76 31.9693 56.8184 32.0768 57.0774 32.0768C57.3363 32.0768 57.8276 32.1857 58.1039 32.3769C58.3787 32.5682 58.6682 32.6332 59.0653 32.6757L59.0626 32.6784Z" fill="#0155A5"/>
<path fill-rule="evenodd" clip-rule="evenodd" d="M64.5657 27.9678C64.5962 28.2015 64.7091 28.4233 64.8352 28.6517C64.8352 28.6517 64.4156 30.5878 62.8978 30.7379C62.8978 30.7379 62.9283 30.3368 63.3785 30.0301C63.8287 29.7246 64.5006 29.2506 64.4515 28.5308C64.4515 28.5308 64.3319 28.5561 64.1168 28.8256C63.9004 29.0952 63.4276 29.8747 62.6959 29.8813C62.6959 29.8813 62.8035 29.5161 63.1275 29.305C63.4528 29.0952 63.8658 28.8256 64.0517 28.5016C64.2363 28.1776 64.4355 28.0289 64.5657 27.9691V27.9678Z" fill="#0155A5"/>
<path fill-rule="evenodd" clip-rule="evenodd" d="M63.8499 35.0207L64.7728 36.3141L65.4726 35.0685L65.2243 34.625C65.0423 34.953 64.8458 35.3062 64.7343 35.4988C64.6493 35.3793 64.4156 35.0526 64.1115 34.625L63.8499 35.0221V35.0207Z" fill="#0155A5"/>
<path fill-rule="evenodd" clip-rule="evenodd" d="M63.6135 33.9265C62.7145 32.6663 61.6017 31.106 61.4901 30.9493L61.8394 30.6983L60.7372 30.2773L60.7584 31.4751L61.1303 31.2082L63.3532 34.3249L63.6135 33.9278V33.9265Z" fill="#0155A5"/>
<path fill-rule="evenodd" clip-rule="evenodd" d="M56.0204 26.8486C56.2926 26.5525 56.7534 26.8074 57.2182 27.2364C57.6843 27.664 57.9777 28.1022 57.7055 28.3983C57.4545 28.6719 56.9725 28.4395 56.5064 28.0119C56.0416 27.5843 55.7481 27.1447 56.0204 26.8499V26.8486Z" fill="#0155A5"/>
<path fill-rule="evenodd" clip-rule="evenodd" d="M56.7707 32.1115C56.7561 32.0996 56.7415 32.0863 56.7269 32.0743C56.4799 31.8579 56.3391 31.5246 56.3391 31.1607C56.3391 30.4609 56.9088 29.8912 57.6086 29.8912C58.3084 29.8912 58.8768 30.4609 58.8768 31.1607C58.8768 31.255 58.8582 31.4104 58.8582 31.4104C58.9166 31.3015 59.1251 30.8181 59.1676 30.7305C58.979 30.0466 58.3509 29.5446 57.6086 29.5446C56.9699 29.5446 56.4161 29.9164 56.1545 30.4543C56.2541 29.8142 56.5728 29.2379 56.7986 29.0254C57.0681 28.7704 57.5276 28.6894 57.5276 28.6894C57.2275 28.7372 56.8291 28.5527 56.3856 28.145C55.9646 27.7572 55.7455 27.4186 55.7336 27.1357C55.7614 27.5355 55.7482 27.7585 55.6353 28.0826C55.4812 28.5261 55.0616 29.3414 55.2103 30.2617C55.294 30.7677 55.6592 31.5206 56.2727 32.1354C56.4028 32.2735 56.4533 32.478 56.4679 32.5843C56.4679 32.5843 57.3736 32.5843 57.5874 32.6029C57.5874 32.6029 57.8025 32.5843 57.7985 32.4501C57.7945 32.316 57.6763 32.2815 57.5688 32.2815C57.4612 32.2815 57.0124 32.2921 56.7707 32.1129V32.1115Z" fill="#0155A5"/>
<path fill-rule="evenodd" clip-rule="evenodd" d="M61.7716 32.418C61.19 32.6291 60.611 32.7393 60.0599 32.8243C59.7014 32.8788 59.3521 32.8987 59.0162 32.8814C59.0215 32.9372 59.0215 33.0116 58.9883 33.066C58.9883 33.066 59.056 33.1443 59.056 33.232C59.3973 33.2453 59.7518 33.2254 60.1144 33.1696C60.7159 33.078 61.348 32.9545 61.9841 32.7154L61.7716 32.4193V32.418Z" fill="#0155A5"/>
<path fill-rule="evenodd" clip-rule="evenodd" d="M62.7251 32.3738C63.4967 31.9515 64.2496 31.3022 64.9282 30.2637L65.0503 30.0605C64.8658 30.1429 64.6267 30.0858 64.6267 30.0858C64.6161 30.103 64.5856 30.1495 64.571 30.1747C63.9375 31.1109 63.2364 31.6992 62.5193 32.0843L62.7264 32.3738H62.7251Z" fill="#0155A5"/>
<path fill-rule="evenodd" clip-rule="evenodd" d="M57.6378 32.7052C57.5315 32.6879 57.1929 32.6959 56.9897 32.7278C56.768 32.7623 56.5143 32.8088 56.4878 32.931C56.4626 33.0478 56.5436 33.1713 56.6551 33.3479C56.7255 33.4568 56.8888 33.3944 56.9818 33.3599C57.0747 33.3253 57.5953 33.0465 57.6789 32.9535C57.7626 32.8619 57.7985 32.7318 57.6378 32.7052Z" fill="#0155A5"/>
<path fill-rule="evenodd" clip-rule="evenodd" d="M58.1703 33.0504C58.1145 33.0146 57.9778 32.9628 57.837 33.0159C57.6962 33.069 57.1823 33.3718 57.1478 33.5139C57.1133 33.6547 57.1837 33.7277 57.2633 33.7596C57.343 33.7914 57.4399 33.8206 57.5103 33.8273C57.6391 33.8379 57.7653 33.7622 57.8304 33.6825C57.8968 33.6015 58.1371 33.3107 58.1716 33.2457C58.2062 33.1806 58.2261 33.085 58.1716 33.0504H58.1703Z" fill="#0155A5"/>
<path fill-rule="evenodd" clip-rule="evenodd" d="M58.2328 33.3683C58.1597 33.4519 57.9499 33.7043 57.926 33.7454C57.9021 33.7866 57.938 33.8517 58.0044 33.845C58.0681 33.8384 58.4213 33.8012 58.6258 33.6618C58.829 33.5237 58.9645 33.2554 58.825 33.1585C58.6856 33.0602 58.4691 33.104 58.2328 33.3683Z" fill="#0155A5"/>
<path fill-rule="evenodd" clip-rule="evenodd" d="M58.3469 32.5982C58.2805 32.5823 58.0136 32.5132 57.9552 32.6022C57.8835 32.7124 57.9353 32.8306 58.1424 32.9302C58.3496 33.0298 58.7413 33.1094 58.8183 33.0019C58.8954 32.893 58.7891 32.7111 58.3482 32.5982H58.3469Z" fill="#0155A5"/>
<path fill-rule="evenodd" clip-rule="evenodd" d="M67.1697 25.375C67.1019 25.5861 66.9041 25.9766 66.8789 26.0974C66.831 26.3218 66.8961 26.594 67.3051 26.8822C67.3051 26.8822 67.5707 26.6976 67.6756 26.4533C67.7739 26.2249 67.7155 26.0642 67.6132 25.946C67.511 25.8265 67.2719 25.5529 67.1697 25.375Z" fill="#0155A5"/>
<path fill-rule="evenodd" clip-rule="evenodd" d="M66.3092 26.2109C66.3092 26.3251 66.3942 26.9652 66.5774 27.2839C66.8324 27.7301 67.2082 28.0634 67.5375 28.0634C67.843 28.0634 67.9067 27.8828 68.0581 27.8071C68.0581 27.8071 67.9811 27.4194 67.6385 27.3171C67.2188 27.1923 66.5735 26.6863 66.3105 26.2109H66.3092Z" fill="#0155A5"/>
<path fill-rule="evenodd" clip-rule="evenodd" d="M67.4074 27.0278C67.4791 26.9733 67.5389 26.9362 67.6239 26.8379C67.6239 26.8379 67.9492 26.9587 68.2148 27.138C68.4817 27.3173 68.7447 27.6227 68.8854 27.7834C68.8854 27.7834 68.4857 27.887 68.2308 27.7714C68.2308 27.7714 68.1378 27.389 67.8523 27.2177C67.7899 27.1805 67.5907 27.1221 67.4048 27.0265L67.4074 27.0278Z" fill="#0155A5"/>
<path fill-rule="evenodd" clip-rule="evenodd" d="M67.7407 26.6999C67.8018 26.6043 67.9293 26.4263 67.9014 26.1475C67.9014 26.1475 68.4645 26.502 68.6331 26.6388C68.8017 26.7756 69.1536 27.1381 69.232 27.2576C69.232 27.2576 68.8057 27.166 68.4791 27.0558C68.1192 26.9363 67.8735 26.7756 67.7407 26.6986V26.6999Z" fill="#0155A5"/>
<path fill-rule="evenodd" clip-rule="evenodd" d="M68.6942 27.3089C68.997 27.4165 69.6782 27.5281 69.9637 27.6117C70.2492 27.6967 70.4564 27.8441 70.7299 28.1416C70.7299 28.1416 70.3116 28.2584 70.0872 28.3288C70.0872 28.3288 69.7313 28.0858 69.3409 27.9357C69.0873 27.8388 68.9651 27.5719 68.6942 27.3076V27.3089Z" fill="#0155A5"/>
<path fill-rule="evenodd" clip-rule="evenodd" d="M69.3276 29.3203C69.2638 29.2486 69.1815 29.1649 69.2439 28.9963C69.2891 28.8728 69.5361 28.736 69.6861 28.6643C69.9304 28.5488 70.609 28.3668 70.8281 28.3018C70.8281 28.3018 70.9384 28.4306 70.9968 28.5673C71.0233 28.6205 70.9888 28.6749 70.8932 28.6908C70.7046 28.7227 70.2492 28.6391 70.1403 28.7094C70.0207 28.7878 70.0619 28.8927 70.0619 28.9949C70.0619 28.9949 69.8548 28.8688 69.7233 28.898C69.5414 28.9378 69.4311 29.0215 69.3276 29.3203Z" fill="#0155A5"/>
<path fill-rule="evenodd" clip-rule="evenodd" d="M69.9318 28.3772C69.8827 28.3931 69.6184 28.4741 69.3595 28.6374C69.3595 28.6374 69.2453 28.5923 69.1895 28.4874C69.135 28.3865 68.9027 28.0439 68.6902 27.9987C68.6902 27.9987 68.8695 27.9814 68.9744 27.9482C68.9744 27.9482 69.1948 28.0053 69.3515 28.0678C69.5082 28.1315 69.7034 28.2271 69.9305 28.3758L69.9318 28.3772Z" fill="#0155A5"/>
<path fill-rule="evenodd" clip-rule="evenodd" d="M68.183 27.9453C68.2242 27.9652 68.2919 27.9971 68.4499 28.0037C68.4499 28.0037 69.0475 28.4181 69.1179 28.8297C69.1776 29.183 68.993 29.3516 68.9027 29.3967C68.8111 29.4419 68.3955 29.6132 68.1259 29.0555C68.1259 29.0555 68.5867 29.2069 68.7128 28.9851C68.839 28.7633 68.6358 28.4393 68.5097 28.3464C68.345 28.2229 68.0489 28.1392 67.8669 28.1724C67.8669 28.1724 68.0117 28.0343 68.1843 27.9466L68.183 27.9453Z" fill="#0155A5"/>
<path fill-rule="evenodd" clip-rule="evenodd" d="M72.0884 32.6784C72.0153 32.3756 71.9357 32.0556 71.7962 31.7621C71.528 31.1924 70.8667 29.6719 69.4883 29.4037C69.3582 29.3785 69.637 29.0584 69.7592 29.0744C69.884 29.089 70.1297 29.2483 70.2386 29.32C70.2386 29.32 70.2386 28.996 70.2412 28.9376C70.2439 28.8792 70.2957 28.8579 70.3501 28.8606C70.4032 28.8606 70.7365 28.8579 70.8415 28.9801C71.1562 29.3426 71.686 30.3226 71.9861 31.0503C72.2876 31.778 72.4934 31.9998 72.8095 31.8883C73.1268 31.778 73.3167 31.4142 73.8692 31.5244C74.0604 31.5616 74.2715 31.6904 74.4388 31.8803C74.3924 31.9693 74.3339 32.0768 74.0763 32.0768C73.8187 32.0768 73.3247 32.1857 73.0498 32.3769C72.7749 32.5682 72.4854 32.6332 72.0884 32.6757V32.6784Z" fill="#0155A5"/>
<path fill-rule="evenodd" clip-rule="evenodd" d="M66.5855 27.9678C66.5563 28.2015 66.4421 28.4233 66.3159 28.6517C66.3159 28.6517 66.7355 30.5878 68.252 30.7379C68.252 30.7379 68.2215 30.3368 67.7727 30.0301C67.3225 29.7246 66.6519 29.2506 66.6984 28.5308C66.6984 28.5308 66.8179 28.5561 67.0343 28.8256C67.2508 29.0952 67.7235 29.8747 68.4552 29.8813C68.4552 29.8813 68.3477 29.5161 68.0236 29.305C67.6996 29.0952 67.2853 28.8256 67.1007 28.5016C66.9135 28.1776 66.717 28.0289 66.5842 27.9691L66.5855 27.9678Z" fill="#0155A5"/>
<path fill-rule="evenodd" clip-rule="evenodd" d="M65.5788 29.8457C65.6665 30.1047 66.2415 30.9134 66.4925 31.1444C66.7434 31.3755 67.3569 31.9877 67.6823 32.2944C67.6823 32.2944 66.7514 32.0634 66.2282 31.588C66.2282 31.588 65.8551 31.8057 65.5828 31.8057H65.5682C65.296 31.8057 64.9242 31.588 64.9242 31.588C64.401 32.0634 63.4688 32.2944 63.4688 32.2944C63.7954 31.9877 64.4076 31.3755 64.6586 31.1444C64.9096 30.9134 65.4846 30.1047 65.5735 29.8457H65.5788Z" fill="#0155A5"/>
<path fill-rule="evenodd" clip-rule="evenodd" d="M65.5814 31.994C65.7873 31.994 65.9838 31.9117 66.0914 31.8652C65.9838 32.0963 65.774 32.4562 65.5775 32.6062H65.5735C65.3756 32.4562 65.1685 32.0963 65.0596 31.8652C65.1685 31.913 65.3623 31.994 65.5682 31.994H65.5814Z" fill="#0155A5"/>
<path fill-rule="evenodd" clip-rule="evenodd" d="M66.3782 36.3132L70.0221 31.2073L70.3939 31.4742L70.4152 30.2764L69.313 30.6973L69.6622 30.9483C69.4843 31.1993 66.7593 35.0171 66.4167 35.4978L64.7661 32.5086L64.5629 32.818L63.0942 35.037L62.7277 34.7914L62.7224 35.9719L63.8366 35.5297L63.4634 35.2827C63.6652 34.9773 64.462 33.7742 64.7289 33.3718L66.3796 36.3132H66.3782Z" fill="#0155A5"/>
<path fill-rule="evenodd" clip-rule="evenodd" d="M67.0436 34.3072C66.7979 33.9367 66.5496 33.5635 66.4247 33.371C66.3318 33.5423 66.1445 33.8782 65.9361 34.2501L65.6758 33.784L66.3849 32.5078L66.5894 32.8172L67.3198 33.9207L67.0436 34.3072Z" fill="#0155A5"/>
<path fill-rule="evenodd" clip-rule="evenodd" d="M67.7939 34.64L68.0568 35.0371L68.4246 34.7914L68.4313 35.9719L67.3158 35.5297L67.6876 35.2827C67.6504 35.2256 67.5907 35.134 67.5176 35.0251L67.7939 34.6387V34.64Z" fill="#0155A5"/>
<path fill-rule="evenodd" clip-rule="evenodd" d="M75.132 26.8486C74.8585 26.5525 74.399 26.8074 73.9329 27.2364C73.4668 27.664 73.1746 28.1022 73.4455 28.3983C73.6965 28.6719 74.1786 28.4395 74.6447 28.0119C75.1094 27.5843 75.4029 27.1447 75.132 26.8499V26.8486Z" fill="#0155A5"/>
<path fill-rule="evenodd" clip-rule="evenodd" d="M74.3805 32.1115C74.3964 32.0996 74.4097 32.0863 74.423 32.0743C74.67 31.8579 74.812 31.5246 74.812 31.1607C74.812 30.4609 74.2424 29.8912 73.5425 29.8912C72.8427 29.8912 72.2744 30.4609 72.2744 31.1607C72.2744 31.255 72.2929 31.4104 72.2929 31.4104C72.2372 31.3015 72.0274 30.8181 71.9849 30.7305C72.1734 30.0466 72.8002 29.5446 73.5425 29.5446C74.1826 29.5446 74.735 29.9164 74.998 30.4543C74.8984 29.8142 74.5783 29.2379 74.3539 29.0254C74.0843 28.7704 73.6235 28.6894 73.6235 28.6894C73.925 28.7372 74.322 28.5527 74.7669 28.145C75.1892 27.7572 75.407 27.4186 75.4189 27.1357C75.3923 27.5355 75.4043 27.7585 75.5172 28.0826C75.6712 28.5261 76.0895 29.3414 75.9408 30.2617C75.8585 30.7677 75.4919 31.5206 74.8798 32.1354C74.7483 32.2735 74.6992 32.478 74.6846 32.5843C74.6846 32.5843 73.7802 32.5843 73.5651 32.6029C73.5651 32.6029 73.35 32.5843 73.354 32.4501C73.358 32.316 73.4775 32.2815 73.5837 32.2815C73.6899 32.2815 74.1401 32.2921 74.3818 32.1129L74.3805 32.1115Z" fill="#0155A5"/>
<path fill-rule="evenodd" clip-rule="evenodd" d="M68.4246 32.3725C67.6544 31.9502 66.9028 31.3008 66.2229 30.2637L66.1021 30.0605C66.2866 30.1429 66.5257 30.0858 66.5257 30.0858C66.5363 30.103 66.5655 30.1495 66.5814 30.1747C67.2135 31.1096 67.9147 31.6992 68.6318 32.0843L68.4246 32.3725Z" fill="#0155A5"/>
<path fill-rule="evenodd" clip-rule="evenodd" d="M69.3767 32.418C69.9597 32.6304 70.54 32.7407 71.0911 32.8256C71.4483 32.8801 71.8002 32.9 72.1361 32.8827C72.1308 32.9385 72.1322 33.0129 72.164 33.0673C72.164 33.0673 72.0963 33.1457 72.0963 33.2333C71.7537 33.2466 71.4005 33.2267 71.038 33.1709C70.4377 33.0793 69.803 32.9558 69.1682 32.7154L69.3767 32.4193V32.418Z" fill="#0155A5"/>
<path fill-rule="evenodd" clip-rule="evenodd" d="M73.5133 32.7052C73.6195 32.6879 73.9581 32.6959 74.1613 32.7278C74.3831 32.7623 74.6367 32.8088 74.6633 32.931C74.6898 33.0478 74.6088 33.1713 74.4946 33.3479C74.4242 33.4568 74.2596 33.3944 74.168 33.3599C74.0763 33.3253 73.5558 33.0465 73.4708 32.9535C73.3871 32.8619 73.3526 32.7318 73.5133 32.7052Z" fill="#0155A5"/>
<path fill-rule="evenodd" clip-rule="evenodd" d="M72.9808 33.0504C73.0379 33.0146 73.1734 32.9628 73.3154 33.0159C73.4562 33.069 73.9701 33.3718 74.0046 33.5139C74.0392 33.6547 73.9688 33.7277 73.8891 33.7596C73.8094 33.7914 73.7112 33.8206 73.6421 33.8273C73.5146 33.8379 73.3872 33.7622 73.3221 33.6825C73.257 33.6015 73.0167 33.3107 72.9808 33.2457C72.9463 33.1806 72.929 33.085 72.9808 33.0504Z" fill="#0155A5"/>
<path fill-rule="evenodd" clip-rule="evenodd" d="M72.9183 33.3683C72.9927 33.4519 73.1998 33.7043 73.2251 33.7454C73.249 33.7866 73.2131 33.8517 73.1481 33.845C73.083 33.8384 72.7298 33.8012 72.5266 33.6618C72.3234 33.5237 72.1866 33.2554 72.3274 33.1585C72.4668 33.0602 72.6833 33.104 72.9183 33.3683Z" fill="#0155A5"/>
<path fill-rule="evenodd" clip-rule="evenodd" d="M72.8042 32.5982C72.8706 32.5823 73.1388 32.5132 73.1972 32.6022C73.2703 32.7124 73.2185 32.8306 73.0113 32.9302C72.8042 33.0298 72.4124 33.1094 72.3341 33.0019C72.257 32.893 72.3646 32.7111 72.8042 32.5982Z" fill="#0155A5"/>
</g>
<defs>
<clipPath id="clip0_1052_6401">
<rect width="86.5775" height="42" fill="white" transform="translate(0 0.917969)"/>
</clipPath>
</defs>
</svg>
