<svg width="154" height="43" viewBox="0 0 154 43" fill="none" xmlns="http://www.w3.org/2000/svg">
<g clip-path="url(#clip0_1052_6586)">
<path fill-rule="evenodd" clip-rule="evenodd" d="M104 42.918H114.944L119.646 29.7067L124.535 25.6572L128.386 37.6049C129.577 41.2977 130.803 42.918 133.477 42.918H141.856L133.212 19.4732L154 0.917969H140.575L127.956 14.1296C126.486 15.6676 124.999 17.1814 123.508 18.9895H123.381L129.682 0.917969H118.737L104 42.918Z" fill="#1AB248"/>
<path fill-rule="evenodd" clip-rule="evenodd" d="M103.528 0.919633C106.96 0.920185 110.289 0.920721 113.077 0.920963L110.818 7.85534C110.108 10.034 108.306 11.0764 104.334 11.0764C97.4378 11.0764 87.2335 11.0752 80.3365 11.074L82.5955 4.13962C83.3052 1.95971 85.107 0.917969 89.079 0.917969C93.1875 0.917969 98.47 0.918819 103.528 0.919633ZM83.5091 16.839C90.4051 16.839 100.61 16.8402 107.507 16.842L105.248 23.7761C104.538 25.9554 102.736 26.9971 98.7639 26.9971C91.8676 26.9971 81.6633 26.9959 74.7663 26.9941L77.0253 20.0607C77.735 17.881 79.537 16.839 83.5091 16.839ZM101.663 32.762C94.7665 32.7608 84.5622 32.7596 77.6659 32.7596C73.6932 32.7596 71.8918 33.8019 71.1821 35.98L68.9231 42.9153C75.8201 42.9159 86.0244 42.918 92.921 42.918C96.8927 42.918 98.6948 41.8754 99.4045 39.6961L101.663 32.762Z" fill="#1AB248"/>
<path fill-rule="evenodd" clip-rule="evenodd" d="M54.3767 11.034L60.25 11.0364C65.2542 11.0376 64.112 17.0865 61.5794 22.9819C59.3478 28.178 55.3927 32.7634 50.6743 32.7628L40.883 32.7616C36.9776 32.7616 35.177 33.8039 34.4175 35.9819L32 42.9168L39.1798 42.918L46.1982 42.8614C52.4223 42.8117 57.5178 42.3763 63.4765 37.1933C69.7737 31.7181 77.1159 17.4943 75.858 9.26737C74.8726 2.8205 71.2934 0.920963 62.6263 0.920364L46.8324 0.917969L37.6363 26.9672L43.4793 26.9744C46.9568 26.9782 48.702 27.0205 50.5518 22.2028L54.3767 11.034Z" fill="#1AB248"/>
<path fill-rule="evenodd" clip-rule="evenodd" d="M27.376 11.0702L22.9585 11.0714C14.1091 11.0756 6.52603 32.7664 16.9894 32.7628L23.7124 32.7616C27.5898 32.7616 30.4682 34.132 29.1937 37.8272L27.4374 42.9168L20.3071 42.918L14.5073 42.8614C7.08759 42.7896 2.29964 39.2495 0.575665 33.8742C-1.28993 28.0574 1.34396 15.9251 8.98851 8.15322C13.4241 3.64451 19.5683 0.920963 27.446 0.920364L42 0.917969L39.7249 7.27471C38.255 11.3819 35.2518 11.0756 33.538 11.075L27.376 11.0702Z" fill="#1AB248"/>
</g>
<defs>
<clipPath id="clip0_1052_6586">
<rect width="154" height="42" fill="white" transform="translate(0 0.917969)"/>
</clipPath>
</defs>
</svg>
