<svg width="164" height="43" viewBox="0 0 164 43" fill="none" xmlns="http://www.w3.org/2000/svg">
<g clip-path="url(#clip0_1052_6596)">
<path fill-rule="evenodd" clip-rule="evenodd" d="M21.0016 0.917969C15.432 0.917969 10.0908 3.12714 6.1516 7.06635C2.2156 11.0056 0 16.35 0 21.9196C0 27.4891 2.2156 32.8304 6.1516 36.7728C10.0908 40.7088 15.432 42.9212 21.0016 42.9212C32.607 42.9212 42.0064 33.5185 42.0064 21.9196C42.0064 10.3206 32.6038 0.917969 21.0016 0.917969Z" fill="white"/>
<path fill-rule="evenodd" clip-rule="evenodd" d="M32.4591 7.5136C29.8544 14.1926 23.0822 13.3275 18.3101 13.5044L17.1846 18.016C23.0822 13.1571 30.8931 18.016 30.0248 25.2224C29.5779 29.57 26.4522 33.1779 22.214 34.2423C18.2233 35.2874 13.7985 33.8082 11.7984 29.6471L11.107 27.9107L15.3549 26.7787C15.3549 27.0424 15.5318 27.2997 15.7022 27.4765C18.4838 32.0717 24.2945 29.8176 24.899 25.0455C25.5968 20.1866 18.8246 17.6687 15.7022 23.309L11.882 21.6594L13.2744 16.0191L14.2294 12.112L14.4867 11.2438C16.9177 4.91211 21.693 4.30114 25.9474 4.30114H26.4683C17.4001 1.50992 7.68872 6.07941 4.05822 14.855C0.427716 23.6242 4.06787 33.7182 12.4608 38.1558C20.8537 42.5902 31.2404 39.9148 36.4498 31.9721C41.6527 24.0325 39.9613 13.4401 32.5459 7.5136H32.4591Z" fill="#E5243F"/>
<path fill-rule="evenodd" clip-rule="evenodd" d="M30.8095 6.29732C30.2757 8.28782 28.8254 9.89888 26.9024 10.6353C24.9055 11.4167 22.4776 11.4167 20.1302 11.5035H16.4868C18.5706 6.73143 22.1271 6.29732 26.0342 6.29732C27.6517 6.23944 29.2756 6.23944 30.8931 6.29732H30.8062H30.8095Z" fill="#008F32"/>
<path fill-rule="evenodd" clip-rule="evenodd" d="M60.3197 25.8237H62.0562V32.3322H58.7569V29.0329H49.2095V32.3322H45.8298V25.8237H47.5663C48.4345 24.5213 48.9523 22.5244 48.9523 20.0097V11.8516H60.2361V25.8237H60.3229H60.3197ZM56.8468 25.8237V15.0608H52.3352V20.0966C52.3352 22.5244 51.901 24.4377 51.1196 25.8237H56.8468Z" fill="#E5243F"/>
<path fill-rule="evenodd" clip-rule="evenodd" d="M69.0825 29.38C65.4262 29.5376 62.4196 26.5277 62.5739 22.8715C62.5739 21.135 63.2717 19.5754 64.4873 18.3599C65.6931 17.1219 67.3556 16.4305 69.0825 16.4466C70.9025 16.4466 72.4686 17.0575 73.6841 18.3599C74.9318 19.5626 75.6199 21.2251 75.591 22.9551C75.591 24.6916 74.9865 26.2544 73.6841 27.5567C72.4589 28.7626 70.7996 29.4186 69.0825 29.3768V29.38ZM69.0825 26.3412C70.0375 26.3412 70.8189 25.9939 71.5135 25.3894C72.1181 24.6916 72.3818 23.9166 72.3818 22.9583C72.4814 21.0739 70.9765 19.4854 69.0825 19.4854C67.1691 19.4307 65.6288 21.0482 65.7896 22.9583C65.7896 23.9166 66.1305 24.6948 66.6578 25.3894C67.3492 25.9939 68.1306 26.2576 69.0857 26.2576V26.3444L69.0825 26.3412Z" fill="#E5243F"/>
<path fill-rule="evenodd" clip-rule="evenodd" d="M78.543 27.5599C77.3371 26.3347 76.6811 24.6754 76.7229 22.9582C76.6747 21.2185 77.3403 19.5367 78.5751 18.3019C79.8067 17.0735 81.4918 16.4014 83.2314 16.4465C85.5114 16.4047 87.6241 17.6491 88.6949 19.6621L85.9198 21.2217C85.4149 20.1574 84.328 19.4788 83.1446 19.4853C81.2281 19.4306 79.6846 21.0481 79.8453 22.9582C79.8453 23.8264 80.1926 24.6947 80.8004 25.3057C81.4114 25.997 82.1864 26.2607 83.1478 26.2607C84.4502 26.2607 85.4889 25.6562 86.0098 24.6111L88.6981 26.2607C87.5597 28.1998 85.4792 29.3896 83.2347 29.3831C81.3213 29.3831 79.7617 28.7786 78.5462 27.5631L78.543 27.5599Z" fill="#E5243F"/>
<path fill-rule="evenodd" clip-rule="evenodd" d="M108.487 21.4859V29.0331H105.365V21.7463C105.365 20.2671 104.584 19.3989 103.281 19.3989C101.895 19.3989 101.027 20.3539 101.027 22.1804V29.1231H97.9046V21.7463C97.9046 20.2671 97.0364 19.3989 95.8208 19.3989C94.4349 19.3989 93.4734 20.3539 93.4734 22.1804V29.1231H90.351V16.7106H93.4734V18.0129C94.2548 16.881 95.3867 16.3633 96.9463 16.3633C98.5059 16.3633 99.551 16.9743 100.246 18.0997C101.114 16.9743 102.329 16.3633 103.889 16.3633C106.754 16.3633 108.577 18.3634 108.577 21.399L108.491 21.4859H108.487Z" fill="#E5243F"/>
<path fill-rule="evenodd" clip-rule="evenodd" d="M120.115 16.7972H123.238V29.0329H120.115V27.6469C119.138 28.8367 117.655 29.4831 116.125 29.3834C114.388 29.3834 112.996 28.7788 111.787 27.5633C110.632 26.3124 110.015 24.6595 110.05 22.9617C110.05 21.1416 110.742 19.582 111.787 18.3665C112.996 17.0641 114.391 16.4531 116.125 16.4531C117.858 16.4531 119.163 17.0641 120.115 18.1896V16.8036V16.7972ZM116.642 26.3446C117.681 26.3446 118.379 26.0873 119.07 25.4763C119.771 24.7946 120.147 23.8492 120.115 22.8716C120.115 21.9166 119.768 21.1352 119.07 20.4438C118.433 19.791 117.552 19.4437 116.642 19.4855C115.687 19.4855 114.906 19.7492 114.211 20.4438C113.607 21.0483 113.343 21.9166 113.343 22.9552C113.288 23.8781 113.6 24.7817 114.211 25.4731C114.909 26.0841 115.69 26.3413 116.642 26.3413V26.3446Z" fill="#E5243F"/>
<path fill-rule="evenodd" clip-rule="evenodd" d="M136.692 25.5628C136.692 27.6466 135.219 29.0358 132.615 29.0358H126.106V16.7969H132.09C134.695 16.7969 136.174 18.1828 136.174 20.2698C136.174 21.3149 135.74 22.1831 134.959 22.7877C136.091 23.3086 136.695 24.2605 136.695 25.5628H136.692ZM129.052 19.4016V21.5722H131.833C132.701 21.5722 133.136 21.2249 133.136 20.5335C133.136 19.7521 132.701 19.4016 131.833 19.4016H129.052ZM132.18 26.3442C133.049 26.3442 133.566 25.9969 133.566 25.2187C133.566 24.5209 133.046 24.0868 132.18 24.0868H129.052V26.4278H132.18V26.341V26.3442Z" fill="#E5243F"/>
<path fill-rule="evenodd" clip-rule="evenodd" d="M149.973 29.0325H146.323L141.812 23.4823V29.0325H138.689V16.7969H141.812V22.1799L146.066 16.7969H149.796L144.937 22.8713L149.973 29.0325Z" fill="#E5243F"/>
<path fill-rule="evenodd" clip-rule="evenodd" d="M160.038 16.7972H163.16V29.0329H160.038V27.6469C159.044 28.8624 157.52 29.5088 155.954 29.3834C154.311 29.3834 152.915 28.7788 151.793 27.5633C150.642 26.3124 150.021 24.6595 150.056 22.9617C150.056 21.1416 150.577 19.582 151.793 18.3665C152.918 17.0641 154.398 16.4531 155.954 16.4531C157.691 16.4531 159.083 17.0641 160.038 18.1896V16.8036V16.7972ZM156.565 26.3446C157.604 26.3446 158.301 26.0873 158.993 25.4763C159.694 24.7946 160.07 23.8492 160.038 22.8716C160.038 21.9166 159.691 21.1352 158.993 20.4438C158.356 19.791 157.475 19.4437 156.565 19.4855C155.61 19.4855 154.829 19.7492 154.134 20.4438C153.529 21.0483 153.266 21.9166 153.266 22.9552C153.166 24.8814 154.726 26.4796 156.652 26.4282L156.565 26.3413V26.3446Z" fill="#E5243F"/>
</g>
<defs>
<clipPath id="clip0_1052_6596">
<rect width="163.164" height="42" fill="white" transform="translate(0 0.917969)"/>
</clipPath>
</defs>
</svg>
